<?xml version="1.0" encoding="utf-8"?>
<!-- Generator: Adobe Illustrator 21.1.0, SVG Export Plug-In . SVG Version: 6.00 Build 0)  -->
<svg version="1.1" id="Layer_1" xmlns="http://www.w3.org/2000/svg" xmlns:xlink="http://www.w3.org/1999/xlink" x="0px" y="0px"
	 viewBox="0 0 500 79" style="enable-background:new 0 0 500 79;" xml:space="preserve">
<style type="text/css">
	.st0{fill:#5A5B5C;}
	.st1{fill:#1376B7;}
</style>
<path class="st0" d="M82.6,12.2L82.6,12.2C82.7,12.2,82.7,12.2,82.6,12.2c0.1-0.2,0-0.2,0-0.4c0-0.1,0-0.1,0-0.2v-0.2L77,1.8
	l-0.1-0.1l-0.1-0.1l-0.2-0.2l-0.2,0h-0.1l0,0H44.8h-0.2h-0.2l0,0l0,0l-0.6,0.2l-5.4,9.5H7H6.8l-0.2,0.1l0,0l0,0l0,0l0,0l-0.5,0.2
	l-3.5,6.4l-1.8,3.4l-0.1,0.1l-0.1,0.4l0.1,0.4v0.1v0.2l15.5,27l0.1,0.1l0.1,0.1v0.1l0.2,0.2l0.4,0.1h0.1l0,0H28l15.7,27.2
	c0,0,0.1,0,0.1,0.1l0.1,0.1c0,0,0,0,0.1,0.1h0.1l0,0h0.2l11.1,0.2l0,0l0.7-0.5L72,50v-0.1l0.1-0.4L72,49.2v-0.1l-5-9.6l15.6-27v-0.1
	C82.6,12.4,82.6,12.3,82.6,12.2 M4.2,18.8l2.9-5l15.1,26.3l0.7,0.5l0,0h10.8h19.1l-4.3,7.9H29l-0.4-0.2h-11L2.5,21.9L4.2,18.8z
	 M61.2,49.6L61.2,49.6L61.2,49.6l0.1-0.2v-0.1v-0.1V49v-0.1v-0.1l0,0l0,0l-5.4-9.4v-0.1l-9.3-16.1l-0.2-0.6h8.8l15.5,27L55.5,75.9
	h-9.3L61.2,49.6z M75.8,3l4.7,8.2H50h-0.1h-0.1h-0.1h-0.2l0,0.2l0,0h-0.1v0.1L33.9,37.9l-2.7-5.3L29.9,30L45.4,3.1h30.4V3z"/>
<g>
	<path class="st1" d="M163.5,32.6L163.5,32.6c-2.9,0-5.3,1.1-7,3s-2.7,4.6-2.7,7.7c0,2.1,0.5,4,1.3,5.6c0.8,1.6,2,2.9,3.4,3.9
		c1.4,0.9,3.3,1.4,5.6,1.4c1.6,0,3.2-0.2,4.5-0.6c1.2-0.4,2.5-1.1,4-2.1v-4.7l-0.7,0.5c-2.1,1.5-4.5,2.3-7,2.3
		c-1.8,0-3.2-0.6-4.3-1.6c-1.1-0.9-1.5-2.3-1.8-3.9h14.2v-0.9c0-3.3-0.8-5.9-2.5-7.7C168.5,33.6,166.3,32.6,163.5,32.6 M158.7,41.1
		c0.4-1.3,0.8-2.2,1.5-2.9c1.6-1.6,4.9-1.6,6.4,0c0.7,0.7,1.2,1.6,1.3,2.9H158.7z"/>
	<polygon class="st1" points="229.8,22.5 221.7,43 213.1,22.5 208.8,22.5 200.4,43 192.4,22.5 187,22.5 199.7,54.1 201.3,53.9 
		211,29.9 220.8,54.1 222.2,54.1 235,22.5 	"/>
	<polygon class="st1" points="98.8,27.2 109.3,27.2 109.3,54 114.6,54 114.6,27.2 125.3,27.2 125.3,22.5 98.8,22.5 	"/>
	<path class="st1" d="M355.4,50.7L355.4,50.7c-0.1,0-0.4,0-0.4-0.6v-8.7c0-1.6-0.1-2.8-0.1-3.5c-0.1-0.7-0.4-1.3-0.7-2
		c-0.4-0.6-0.8-1.2-1.3-1.5c-1.4-1.2-3.2-1.9-5.5-1.9c-3,0-5.4,1.1-7.2,3.2v4.3l0.7,0.2c2-2.1,4-3.3,6.1-3.3c2.2,0,3.3,1.1,3.3,3.2
		v1.1l-4.8,1.6c-1.8,0.6-3,1.4-4.1,2.5c-0.9,1.1-1.4,2.3-1.4,3.6c0,1.5,0.5,2.8,1.5,3.9c2.2,2.2,6,1.9,9-0.2
		c0.4,0.9,1.3,1.8,3.3,1.8c0.7,0,1.3-0.1,1.9-0.4c0.6-0.2,1.4-0.6,2.5-1.5v-3.3l-0.6,0.5C356.1,50.6,355.6,50.7,355.4,50.7
		 M350.5,49.3c-1.6,1.5-3.9,2-5,0.7c-0.5-0.5-0.7-1.1-0.7-1.8s0.2-1.3,0.7-1.8c0.6-0.5,1.5-1.1,2.7-1.5l2.1-0.8L350.5,49.3z"/>
	<path class="st1" d="M496.8,35.7L496.8,35.7c-2-1.9-4.9-2.8-8.7-2.8h-7.4v31.3h4.9V53.5c4.9,1.6,8.6,0.5,11.4-2.3
		c2-2,2.9-4.7,2.9-7.7C500,40.3,498.9,37.6,496.8,35.7 M485.7,37.6h2.5c1.9,0,3.2,0.2,4.1,0.6c0.9,0.5,1.5,1.2,2.1,2
		c0.5,0.9,0.8,2.1,0.8,3.3c0,2-0.5,3.5-1.6,4.8c-1.2,1.2-2.6,1.8-4.3,1.8c-1.3,0-2.6-0.2-3.4-0.5v-12H485.7z"/>
	<path class="st1" d="M144.5,33.7c-2.9-1.9-7-1.3-9.6,1.3V22.5h-4.8V54h4.8l-0.1-14.7c0.9-1.1,1.8-1.8,2.5-2.2
		c1.6-0.9,3.6-0.8,4.8,0.6c0.6,0.8,0.9,2,0.9,3.3v12.9h4.8V42.2c0-2.3-0.2-4.2-0.8-5.5C146.5,35.4,145.7,34.4,144.5,33.7"/>
	<path class="st1" d="M439.6,32.9L439.6,32.9c-3.2,0-6,1.1-8.1,3c-2.1,2-3.2,4.6-3.2,7.6c0,3,1.1,5.6,3.2,7.6c2.1,2,4.7,3,7.9,3
		c3.3,0,6-1.1,8.1-2.9c2.1-2,3.3-4.6,3.3-7.6s-1.1-5.7-3.2-7.7C445.5,34,442.8,32.9,439.6,32.9 M435,39.1c1.2-1.2,2.6-1.8,4.5-1.8
		c1.9,0,3.4,0.6,4.7,1.8s1.8,2.7,1.8,4.5c0,1.8-0.6,3.3-1.8,4.5c-2.3,2.3-6.8,2.3-9.1,0c-1.2-1.2-1.8-2.6-1.8-4.5
		C433.3,41.8,433.9,40.3,435,39.1"/>
	<polygon class="st1" points="327.5,44.6 322.5,33 319.1,33.3 314.3,44.6 309,33 304.1,33 313.8,54.4 315.5,54.1 321,40.9 
		326.9,54.4 328.5,54.4 337.7,33 332.5,33.3 	"/>
	<path class="st1" d="M271,33.3L271,33.3c-4.9-1.6-8.7-0.5-11.4,2.3c-1.9,2-2.9,4.6-2.9,7.6c0,3.3,0.9,5.9,2.8,7.9
		c1.9,2,4.3,2.9,7.4,2.9h8.9V22.5H271L271,33.3L271,33.3z M271,49.8h-2.7c-1.8,0-2.9-0.1-3.5-0.4s-1.2-0.6-1.8-1.3
		c-0.9-1.1-1.4-2.6-1.4-4.5c0-2.1,0.6-3.8,1.6-5s2.6-1.8,4.5-1.8c1.2,0,2.3,0.2,3.3,0.5L271,49.8L271,49.8z"/>
	<path class="st1" d="M296.9,33.7c-2.9-1.9-7-1.3-9.7,1.3V22.5h-4.8V54h4.8l-0.1-14.7c0.8-1.1,1.8-1.8,2.5-2.2
		c1.6-0.9,3.6-0.8,4.8,0.6c0.7,0.8,1.1,1.9,1.1,3.3v12.9h4.8V42.2c0-2.5-0.2-4.2-0.8-5.5C298.9,35.4,298.1,34.4,296.9,33.7"/>
	<path class="st1" d="M415.9,36.7V33h-4.8v21h4.8V43c0-1.6,0.5-2.9,1.3-4.1c1.6-2.2,3.9-2.3,6.6,0.1l0.4,0.4l2.5-4.2l-0.2-0.2
		C422.9,31.6,419.7,31.4,415.9,36.7"/>
	<path class="st1" d="M469.4,47.7c-1.3,1.8-2.8,2.6-4.6,2.6c-1.4,0-2.3-0.4-2.8-1.2c-0.6-0.7-0.8-2.2-0.8-4.2V33h-4.8v12
		c0,2.6,0.4,4.5,0.8,5.6c0.6,1.2,1.5,2.1,2.6,2.8c1.2,0.6,2.3,0.9,3.6,0.9c1.2,0,2.3-0.2,3.5-0.8c0.8-0.5,1.6-0.8,2.3-1.5v2h4.8V33
		h-4.8L469.4,47.7z"/>
	<path class="st1" d="M250.2,50.7L250.2,50.7c-0.1,0-0.4,0-0.4-0.6v-8.7c0-1.8-0.1-2.8-0.1-3.5c-0.1-0.7-0.4-1.3-0.7-2
		c-0.4-0.7-0.8-1.2-1.3-1.5c-1.4-1.2-3.3-1.9-5.5-1.9c-3,0-5.4,1.1-7.2,3.2v4.3l0.7,0.2c2-2.1,4-3.3,6.1-3.3c2.2,0,3.3,1.1,3.3,3.2
		v1.1l-4.8,1.6c-1.8,0.6-3,1.4-4.1,2.5c-0.9,1.1-1.5,2.3-1.5,3.6c0,1.5,0.5,2.8,1.5,3.9c2.2,2.1,6,1.9,9-0.2
		c0.5,0.9,1.3,1.8,3.3,1.8c0.7,0,1.3-0.1,1.9-0.4c0.6-0.2,1.3-0.6,2.5-1.5v-3.3l-0.6,0.5C250.9,50.5,250.3,50.7,250.2,50.7
		 M245.1,49.3c-1.6,1.5-3.8,2-5,0.7c-0.5-0.5-0.7-1.1-0.7-1.8s0.2-1.3,0.7-1.8c0.6-0.5,1.5-1.1,2.7-1.5l2.1-0.8L245.1,49.3z"/>
	<path class="st1" d="M392.5,42.9h5.9l-0.1,5.7c-2.3,0.8-4.5,1.2-6.2,1.2c-3.5,0-6.3-1.1-8.6-3.2c-2.2-2.1-3.3-4.9-3.3-8.3
		c0-3.2,1.1-5.9,3.3-8.1c4.6-4.6,12-4.2,18.9-0.2l0.6,0.4l-0.2-5.6c-2.3-1.1-4.3-1.8-6-2.1c-1.5-0.4-3.3-0.6-5-0.6
		c-4.8,0-8.9,1.5-12.1,4.7c-3.3,3-4.8,7-4.8,11.7c0,4.5,1.6,8.2,4.7,11.3c3.2,3,7.3,4.6,12.4,4.6c3.8,0,7.6-0.8,11.7-2.8V38.1h-11.1
		L392.5,42.9L392.5,42.9z"/>
</g>
</svg>
