<?xml version="1.0" encoding="utf-8"?>
<!-- Generator: Adobe Illustrator 23.0.3, SVG Export Plug-In . SVG Version: 6.00 Build 0)  -->
<svg version="1.1" id="Layer_1" xmlns="http://www.w3.org/2000/svg" xmlns:xlink="http://www.w3.org/1999/xlink" x="0px" y="0px"
	 viewBox="0 0 918 342" style="enable-background:new 0 0 918 342;" xml:space="preserve">
<style type="text/css">
	.st0{fill-rule:evenodd;clip-rule:evenodd;fill:#050103;}
	.st1{fill-rule:evenodd;clip-rule:evenodd;fill:#D0A760;}
</style>
<g>
	<path class="st0" d="M159.89,91.69c6.04,0.53,11.94,1.54,17.67,3.01c1.3-0.71,2.62-1.38,3.94-2.06c3.25-1.69,6.03-3.38,8.83-5.78
		c1.43-1.23,3.58-2.21,5.33-0.99c2.1,1.45,1.44,4.41,0.51,6.33c-0.09,0.19-0.18,0.37-0.27,0.56c1.16-0.85,2.29-1.74,3.41-2.64
		c2.26-1.82,4.5-3.71,6.86-5.4c1.9-1.36,4.27-2.89,6.58-3.38c2.78-0.59,5.62-1.75,8.06-2.78c1.75-0.74,3.42-1.66,5.05-2.63
		c0.77-0.46,1.7-0.83,2.52-1.16c1.3-0.52,2.63-0.98,3.96-1.43c3.41-1.14,6.86-2.19,10.31-3.2c3.99-1.17,7.99-2.3,12-3.4
		c1.82-0.5,3.67-1.03,5.5-1.49l2.19-0.54v1.81c0.74,1.59,0.54,3.6-0.21,5.13c-0.67,1.39-1.79,2.59-3.16,3.63
		c0.75,0.2,1.4,0.58,1.84,1.22c1.26,1.79-0.01,3.99-1.14,5.47c-2.64,3.47-7.3,5.86-11.31,7.32c-0.5,0.17-1,0.35-1.49,0.51
		c0.34,0.01,0.69,0.02,1.03,0.03h1.73v1.72c0.03,0.73-0.17,1.62-0.4,2.29c-0.6,1.74-1.77,3.22-3.14,4.42
		c-2.14,1.85-4.94,3.15-8,4.05c0.58,0.65,1.11,1.41,1.44,2.13c0.28,0.62,0.47,1.29,0.5,1.97c0.06,1.71-0.88,3.04-2.28,3.92
		c-1.49,0.94-3.51,1.41-5.37,1.66c0.9,0.47,1.72,1.17,1.84,2.25c0.15,1.35-0.84,2.26-1.94,2.8c-1.28,0.63-2.94,1.01-4.32,1.3
		c-0.3,0.07-0.6,0.13-0.9,0.18v0.83c0.09,0.95-0.1,1.96-0.48,2.88c20.61,19.97,33.43,47.95,33.43,78.91c0,10.6-1.5,20.84-4.3,30.54
		c1.2,0.35,2.4,0.72,3.58,1.1c1.65,0.53,3.33,1.1,4.91,1.8c1.2,0.52,2.95,1.32,3.33,2.7l0.48,1.76l-4.51,1.07l-0.57-0.27
		c-1.35-0.65-4.04-1.81-6.56-2.6l7.33,7.07l-10.43-5.24c-3.87,10.54-9.33,20.32-16.06,29.06l-0.25-0.25l-4.56,5.87l-0.04,0.26
		C212.22,296.7,182.84,311,150.12,311c-32.72,0-62.1-14.31-82.22-37.01l-0.46-0.26l-4.56-5.87l0.16,0.25
		c-14.29-18.54-22.79-41.77-22.79-66.99c0-47.87,30.62-88.59,73.35-103.64c-1.11-4.72-0.53-9.62,0.95-14.34
		c0.75-2.37,1.14-4.94,0.89-7.42c-0.08-0.78-0.27-1.93-0.6-2.66l-0.21-0.44l0.05-0.49c0.05-0.5,0.19-1.06,0.36-1.53
		c0.29-0.78,0.8-1.47,1.6-1.79c1.48-0.59,2.7,0.4,3.54,1.51c0.04-1.82,0.04-3.64,0.01-5.45c-0.04-1.93-0.13-3.89-0.37-5.81
		c-0.28-2.38-0.4-5.2,0.41-7.5c0.25-0.69,0.57-1.33,0.99-1.92c0.18-0.26,0.39-0.49,0.57-0.73c0.09-0.28,0.15-0.64,0.2-0.9
		c0.15-0.75,0.29-1.51,0.43-2.26c0.45-2.41,0.92-4.81,1.45-7.2c1.61-7.19,3.74-14.28,6.62-21.08l0.54-1.26l1.36,0.22
		c1.71,0.27,3.28,1.72,4.1,3.16c1.34,2.32,1.5,5.3,1.17,8.21c0.52-0.21,1.31-0.6,1.62-0.97l1.31-2.3l1.6,2.22
		c1.08,1.51,1.32,4.37,1.26,6.14c-0.1,3-0.87,6.19-1.98,9.29c0.57,0.1,1.18,0.29,1.61,0.45c1.53,0.59,2.83,1.59,3.66,3.01
		c1.34,2.28,1.22,5.07,0.39,7.88c1.05,0,2.14,0.27,2.95,0.84c3.15,2.23,1.18,6.97-0.14,9.56c0,0,0,0,0,0
		c0.62,0.01,1.22,0.17,1.75,0.46c0.93,0.28,1.64,1.07,1.87,2.02c0.36,1.52-0.47,3.3-1.4,4.75l0.68,0.47c1.47,1.01,2.67,2.83,3,4.57
		c0.17,0.95,0.14,1.85-0.08,2.71c1.28,0.57,2.35,1.72,2.79,3.04c0.67,2.03-0.04,4.23-1.23,6.22c0.69,0.37,1.32,0.93,1.74,1.52
		C159.54,90.31,159.8,90.99,159.89,91.69L159.89,91.69z"/>
	<path class="st1" d="M144.22,71.63c0.04-0.07,0.1-0.17,0.14-0.24c-0.39,0.74-0.84,1.57-1.2,2.05
		C143.41,72.96,143.77,72.35,144.22,71.63 M163.69,105.83c0.51-0.82,1.01-1.62,1.49-2.38c-0.15,0.07-0.34,0.18-0.61,0.37
		c-2.3,1.62-2.57,0.68-1.42-0.2c1.14-0.88,2.23-3.92-0.47-2.03c-2.71,1.89-2.57,0.68-1.15-1.08c1.42-1.76,1.49-3.59-0.34-2.84
		c-1.82,0.74-1.89,0.74-1.15-1.56c0.75-2.29-0.33-2.23-1.42-1.01c-1.08,1.22-1.22-0.14-1.22-0.14c2.3-4.19-1.22-5.41-1.22-5.41
		s-0.4,0.27-2.43,2.16c-2.03,1.89-1.35-0.14-1.35-0.14c8.93-9.33,2.29-11.23,2.29-11.23c-2.43,4.46-6.35,5.95-6.35,5.95
		c-2.57,1.08-0.68-1.08-0.68-1.08c11.63-7.03,4.19-12.17,4.19-12.17c-3.38,4.06-7.98,7.17-7.98,7.17s2.16-3.65,5.95-8.8
		c3.79-5.13,1.22-5.41,1.22-5.41c-3.78-2.44-6.49,8.39-8.24,8.39c-1.76,0,1.22-2.57,5.68-11.5c4.46-8.93-2.16-7.57-2.16-7.57
		s-1.76,3.11-4.33,6.49c-2.57,3.38-1.62,0.95-1.62,0.95c12.44-18.12,0.4-18.93,0.4-18.93c-3.24,7.84-5.14,6.9-5.14,6.9
		c9.33-17.18,5.14-22.99,5.14-22.99s-0.54,0.95-2.7,1.75c-2.16,0.81-3.38,3.79-3.38,3.79c4.19-14.06-2.57-15.14-2.57-15.14
		c-6.76,15.96-8.11,30.7-8.79,31.64c-0.68,0.94-2.57,2.29-1.76,9.06c0.81,6.76,0.14,17.44,0.14,17.44s-0.54-1.35-2.7-4.6
		c-2.16-3.25-2.57,0.61-2.57,0.61s2.03,4.26-0.2,11.36c-5.9,18.76,8.32,23.94,4.46,24.95c-3.85,1.01-4.87-3.45-4.87-3.45
		c-2.64,3.86,1.01,7.3,1.01,7.3c12.78,10.95,25.9,39.15,22.99,43.14c-2.9,3.99-7.64,3.72-16.09,10.41
		c-8.45,6.69-10.54,11.83-11.69,16.9c-1.15,5.07,2.16,6.63,2.16,6.63c0.47,10.14,7.37,11.09,7.37,11.09s-0.4-8.72,0.54-12.64
		c0.95-3.92,3.52-7.44,3.38-4.74c-0.14,2.7-1.76,5-1.76,5c1.62-0.07,5.21-3.51,5.55-3.72c0.34-0.2,1.55-3.78,3.31-1.69
		c1.75,2.1,7.1,1.69,7.1,1.69c-0.54,1.69-0.95,5.14-6.15,3.38c-5.21-1.76-4.94,2.5-4.94,2.5c0.81-0.88,3.58,0.14,3.58,0.14
		l-0.88,2.1c0.95-1.29,3.11-0.27,3.11-0.27l-1.9,5.14c0,0,9,10,10.35,10.14c1.35,0.14,2.16,2.03,2.16,2.03s-1.96,1.16-2.98,2.3
		c-1.01,1.16-3.31,1.9-5.95,0.54c-2.64-1.35-3.31-1.56-5.68-0.54c-2.37,1.02-1.83,3.99,0.07,1.83c1.89-2.16,3.18-1.01,3.18-1.01
		s1.14,2.84,3.18,2.23c2.03-0.61,1.89,0.95,1.89,0.95l-6.49,8.04c0,0,1.01-0.34,2.16-1.42c1.15-1.08,2.5-0.95,2.98-2.51
		c0.47-1.55,1.93-2.27,1.93-2.27l2.06,3.36l0.98-3.89c1.45,0.12,7.17,5.11,7.17,5.11c0-1.46-2.19-4.14-4.62-5.35
		c-2.44-1.22-1.1-4.38-1.1-4.38l3.77-3.53c6.56,1.46,8.14,6.32,7.05,8.15c-1.09,1.82-1.94,8.87-1.94,14.95
		c0,6.08-2.07,8.63-6.21,9.6c-4.13,0.97-5.95-1.95-9.36-3.04c-5.23-1.68-3.89,2.56-3.89,2.56c2.56-2.31,4.14-1.34,4.14-1.34
		s0.97,2.92,3.16,3.28c2.19,0.37,2.3,1.83,2.07,3.29c-0.25,1.45-3.04,3.77-7.17,4.99c-4.14,1.22-1.34,4.86-0.61,3.77
		c2.2-3.3,4.74-2.8,5.96-2.92c1.22-0.13,4.74-3.77,4.74-3.77s3.65,0,3.41,3.77c-0.3,4.6,4.86,2.8,4.86,2.8
		c-0.73,6.68,1.46,5.83,1.46,5.83c0.98-7.17-4.14-13.01-5.72-15.56c-1.57-2.55,2.19-4.26,2.19-4.26c3.28-1.46,2.55-4.74,2.55-4.74
		c1.73-1.31-1.32-2.34,3.65,1.92c4.97,4.26,3.35-4.77,3.35-4.77s3.65,3.05,1.92-0.1c-1.72-3.14,2.95-4.16,2.95-4.16l-0.61-3.44
		l2.43-0.31c0,0-2.64-3.75-1.22-5.58c1.42-1.83,1.52-4.97,1.32-8.72c-0.2-3.75,4.66-0.1,4.66-0.1l0.1-1.73l1.32-0.5
		c-0.21-2.74,2.63,0.71,2.63,0.71l0.61-3.55c1.62,3.14,2.23-2.03,2.23-2.03l1.83,2.53c-0.2-2.13-0.1-8.62,1.52-4.87
		c1.62,3.75,9.53,7.1,17.54,8.01c8.02,0.92,11.77,5.38,11.77,5.38l11.67,15.31c0.5-3.35-1.83-5.58-3.66-7.91
		c-1.82-2.34-4.05-3.25-1.01-3.55c3.05-0.3,8.72,7.61,10.24,10.55c1.53,2.94,2.03,3.35,2.03,3.35l5.27-0.1
		c-4.87-4.16,0.21-3.95,0.21-3.95l17.14,8.62l-2.94-2.84c3.65-0.71,12.48,3.55,12.48,3.55l2.13-0.51
		c-0.51-1.83-14.61-5.48-14.61-5.48l-14.6-7.61l7.3-1.83c0,0-18.87-10.85-22.31-13.08c-3.44-2.23-6.09-4.06-6.09-4.06
		s-2.03,0-3.55-1.83c-2.41-2.89-3.96-5.07-7.41-5.57c-3.45-0.51,0.71-3.35-1.62-3.55c-3.84-0.34-6.9-4.06-6.9-4.06s6.49,1.42,5.18,0
		c-1.32-1.42-7.11-3.55-2.95-3.24c4.16,0.31,3.75-2.13,1.93-1.62c-1.83,0.51-3.24-1.22-2.13-1.22c3.86,0,4.87-1.62,2.64-1.62
		c-2.23,0-3.65-0.91-0.6-1.01c6.48-0.22,6.48-2.64,4.36-2.53c-2.13,0.1-7.71,1.22-4.36-0.31c3.35-1.53,0.7-2.13,0.7-2.13
		s-5.98-1.01,0-1.62c5.99-0.61,4.67-2.94,4.67-2.94s-5.58-0.2-8.32-0.3c-2.74-0.1-5.18-1.32-3.35-1.93
		c1.83-0.61,8.21,1.11,8.21,1.11s-0.4-1.82-3.04-3.95c-2.64-2.13-0.2-2.13-0.2-2.13l5.07,1.72l-3.05-2.94c0,0-3.44-4.87-0.91-3.04
		c3.91,2.81,7.61,2.13,7.61,2.13s-6.59-6.09-4.66-4.67c1.93,1.42,6.09,0.21,6.09,0.21s-5.98-3.45-3.55-3.96
		c6.46-1.35,3.95-2.03,3.95-2.03s-7.2-1.73-4.56-2.23c6.6-1.26,2.94-2.33,2.94-2.33s-7.91-1.52-1.62-1.52
		c6.29,0,4.26-2.94,3.14-2.94c-1.12,0-6.26-1.45-0.98-1.45c5.27,0,4.33-2.44,1.08-2.84c-3.25-0.4-1.08-1.08-1.08-1.08
		c11.9-1.9,2.03-4.33,2.03-4.33l-4.46-0.41l0.41-1.89c15.96,3.11,14.47-4.46,14.47-4.46l-15.01-1.49l0.54-1.49l7.57,0.68
		c12.44,1.62,11.49-5.41,11.49-5.41s-6.49-0.13-11.9-0.27c-5.42-0.14-3.12-2.03-3.12-2.03s7.57,1.49,17.31-0.54
		c9.74-2.03,1.9-3.79,1.9-3.79l-15.01,0.41l0.13-1.08c0,0,3.52-0.54,16.23-1.75c12.71-1.22,5.28-7.57,5.28-7.57
		c-2.71,1.35-13.93,0.95-13.93,0.95l0.26-1.22c26.1-0.4,25.43-10.95,25.43-10.95s-6.09-0.27-12.98,0.54
		c-6.9,0.81-4.74-1.62-4.74-1.62c13.39,0,24.21-4.46,28.13-9.6c3.92-5.14-1.9-4.6-6.36-2.57c-4.46,2.03-6.22,0.68-4.33,0.14
		c17.26-4.93,12.98-11.5,12.98-11.5s-29.62,7.85-33.94,10.56c-2.84,1.77-9.07,4.59-13.53,5.54c-4.46,0.94-10.55,7.03-16.49,11.36
		c-5.95,4.33-3.92,0.95-2.03-2.98c1.89-3.92-0.27-5.68-3.11-3.24c-6.92,5.92-11.9,6.49-19.34,12.03c-3.25,2.43-5.68,4.04-7.26,5.02
		l-7.03,11.29l0.02-1.26c0.05-3.51-0.63-4.82-1.29-4.87c-1.57-0.11-4.6,5.21-5.56,12.79c-1.47,11.56-8.32,31.71-8.39,31.91
		l-0.66-0.22c0.07-0.2,6.9-20.29,8.36-31.77c0.91-7.19,3.92-13.57,6.3-13.41c0.83,0.05,1.75,1,1.89,4.42
		c0.52-0.84,2.84-4.56,5.04-8.09L163.69,105.83z M119.52,186.26c0,0,1.27-1.32-0.05-3.04c-1.32-1.71-0.83-2.42,2.38-5.36
		c3.2-2.93,3.92-3.75,3.92-3.75s-4.14,7.18-2.37,7.73c0,0,0.88,2.54-1.99,2.98l-1.88,1.55v-0.28V186.26z M117.04,191.83
		c0,0-0.33-1.32,1.11-1.93C119.58,189.29,117.04,191.83,117.04,191.83"/>
</g>
<path class="st0" d="M349.75,193.52h-33.42c0,0-5.67-0.45,1.67-5.85c5.83-4.28,4.18-11.14,4.18-11.14l0.3-94.97
	c0,0,0-6.25-5.16-6.51c-5.16-0.27-6.79-7.07,1.9-7.34c8.68-0.27,38.29,0,38.29,0s60.29-2.17,61.37,46.43
	c1.09,48.61-75.76,42.1-75.76,42.1l-0.55,22.53c0,0-0.54,6.79,5.43,8.42C353.97,188.82,355.85,192.79,349.75,193.52 M343.38,138.86
	V82.1c0,0-1.36-9.51,10.05-9.23c11.4,0.27,46.61,2.24,42.36,46.98c-3.53,37.21-48.33,31.5-49.69,26.07
	C346.1,145.92,344.21,145.1,343.38,138.86 M448.75,192.89h-27.7c0,0-5.31-1.85,1.49-6.11c5.43-3.4,4.49-9.64,4.49-9.64v-45.62
	c0,0,0.4-5.02-4.21-5.29c-4.62-0.27-3.39-3.53,2.58-7.2c5.97-3.66,13.03-7.6,13.03-7.6s4.75-2.99,4.89,4.07
	c0.13,7.06,0,10.46,0,10.46s19.27-20.51,35.97-11.95c0,0,5.03,0.27,0.27,10.46c-4.75,10.18-6.65,9.91-8.28,4.21
	c-1.63-5.7-16.02-8.82-23.36,2.99c0,0-4.21,6.1-4.34,16.29v28.64c0,0-0.68,6.38,2.72,7.74c3.39,1.36,7.33,4.34,6.24,6.11
	C451.46,192.22,448.75,192.89,448.75,192.89 M539.33,180.72c1.69-1.22,4.41-1.75,5.54-0.05c1.16,1.75-0.88,3.98-3.25,5.76
	c-1.52,1.15-8.29,4.97-16.3,5.78c-16.23,1.65-42.54-4.92-45.75-31.64c-4.54-37.79,22.35-50.37,38.16-49.97
	c15.88,0.41,36.79,7.99,36.79,38.42c0,3.94-6.52,2.58-6.52,2.58h-51.32c0,0,0,32.17,23.76,32.31
	C520.44,183.94,534.15,184.48,539.33,180.72 M534.29,144.96h-36.52c0,0-2.86-29.05,19.68-28.65c22.54,0.41,19.14,25.67,19.14,25.67
	S536.73,144.56,534.29,144.96 M847.82,180.72c1.69-1.22,4.4-1.75,5.54-0.05c1.15,1.75-0.88,3.98-3.25,5.76
	c-1.52,1.15-8.29,4.97-16.29,5.78c-16.24,1.65-42.55-4.92-45.77-31.64c-4.54-37.79,22.35-50.37,38.16-49.97
	c15.89,0.41,36.8,7.99,36.8,38.42c0,3.94-6.52,2.58-6.52,2.58h-51.32c0,0,0,32.17,23.76,32.31
	C828.92,183.94,842.63,184.48,847.82,180.72 M842.77,144.96h-36.53c0,0-2.85-29.05,19.69-28.65c22.53,0.41,19.14,25.67,19.14,25.67
	S845.21,144.56,842.77,144.96 M587.91,189.77c0,0-4.34-2.85-7.33,1.36c-2.99,4.21-6.25-1.08-6.25-1.08l-16.16-19.14
	c0,0-2.45-2.03,0.14-3.8s7.2,3.26,7.2,3.26s26.05,21.13,40.32,13.7c13.31-6.92,7.88-18.05,7.88-18.05s-4.08-8.69-22.27-11.13
	c-18.2-2.45-29.6-8.42-30.42-19.55c-0.82-11.14,4.4-25.02,28.51-23.08c3.4,0.27,8.01,3.4,12.49-0.27c4.49-3.67,5.3-1.36,7.34,1.62
	c2.04,2.99,9.51,16.02,9.51,16.02s0.82,7.2-6.38,0.14c-7.19-7.06-23.62-15.62-32.04-11.68c0,0-6.79,2.58-6.92,9.1
	c-0.14,6.51,8.28,9.5,14.53,10.86c6.25,1.36,43.58,4.48,42.09,32.99c0,0-0.27,21.6-30.01,20.64
	C600.13,191.68,593.48,191.68,587.91,189.77 M666.1,182.06c0,0,4.54-3.63,6.06-1.06c1.51,2.58-0.61,5.45-4.24,8.03
	c-3.63,2.57-16.95,8.63-26.64,1.36c-9.69-7.26-7.11-17.56-7.57-18.77c-0.45-1.21,0-47.23,0-47.23h-5.9c0,0-4.7-1.06,1.06-6.66
	c5.75-5.6,11.5-18.47,11.96-23.31c0.45-4.84,7.42-6.82,7.42,0.75v20.74h19.98v7.42h-18.77v52.53
	C649.45,175.86,649.46,190.54,666.1,182.06 M704.55,192.81h-26.94c0,0-6.06-1.51,2.58-6.06c0,0,3.17-1.51,3.17-7.42v-45.87
	c0,0,0.81-3.33-5.3-7.11c-3.17-1.97,2.58-5.6,2.58-5.6l12.87-7.73c0,0,4.99-2.26,4.99,4.85v58.28c0,0-1.36,8.3,4.54,9.84
	c3.48,0.91,4.69,1.97,3.64,4.54C706.68,190.54,706.51,192.51,704.55,192.81 M682.82,93.51c0,0-5.71-6.79,4.34-11.67
	c10.05-4.89,11.94,2.16,11.94,2.16s2.18,6.25-6.51,9.24C683.91,96.22,682.82,93.51,682.82,93.51 M723.02,152.7
	c0,0-13.31-10.86-8.15-27.16c5.16-16.29,24.17-19.82,36.12-18.73c0,0,7.61-27.15,26.07-16.02c0,0,5.16,8.14-4.34,10.04
	c-9.51,1.9-10.05-4.33-13.31,7.61c0,0,24.98,6.51,20.64,29.32c-4.34,22.82-27.7,23.9-47.25,20.1c0,0-12.23,9.24,3.53,10.32
	c15.75,1.08,47.52-2.98,55.67,11.13c8.14,14.12-2.99,24.72-6.25,26.89c-3.26,2.17-42.63,14.66-67.07,1.09c0,0-19.82-10.32,2.71-25.8
	C721.38,181.49,701.56,171.44,723.02,152.7 M731.97,183.39c0,0,38.02,1.09,39.64,1.63c1.63,0.54,9.9,0.12,7.06,13.04
	c-2.44,11.13-29.6,7.87-29.6,7.87S716.49,205.65,731.97,183.39 M747.99,154.06c0,0-20.85,1.93-18.74-23.08
	c1.9-22.53,19.29-18.19,19.29-18.19s18.19-1.63,17.64,20.64C765.65,155.7,747.99,154.06,747.99,154.06 M495.94,233.73h12.57
	c0,0,3.56-0.94-0.75,4.31l-0.38,14.82c0,0-0.12,3.43,1.92,4.25c2.03,0.82,3.39,4.35-0.69,4.76c-4.07,0.4-27.56,0-27.56,0
	s-27.01-0.69-24.98-28.25c2.03-27.56,21.88-28.51,34.35-28.51c0.54,0,4.21,1.23,7.34-0.27c3.12-1.49,3.39,1.09,4.34,3.12
	c0.95,2.04,5.84,9.78,1.9,10.18c-3.94,0.41-8.56-11.27-20.23-9.5c-11.68,1.76-16.97,11.13-16.57,23.07
	c0.41,11.95,3.67,26.88,24.85,25.8c0,0,5.29,0.68,6.11-5.57c0.81-6.25,0-11.94,0-11.94S490.59,235.47,495.94,233.73 M529.26,262.68
	h-14.8c0,0-4.48-0.95,0.13-4.75c0,0,1.5,0.14,1.23-6.65v-37.2c0,0,0.14-3.26-2.31-4.89c0,0-5.16-5.03,5.84-5.03
	c0,0,44.4-6.1,43.58,19.97c0,0,0.55,12.22-10.86,15.75l15.61,18.05c0,0,2.72,3.4-2.16,3.8l-13.99,0.14c0,0-6.92-0.14-1.77-5.16
	c0,0,2.45-0.82-1.49-4.62l-7.74-9.37H527.5v12.49c0,0-0.14,1.9,1.63,2.71C530.89,258.75,532.93,262,529.26,262.68 M528.04,238.92
	c0,0-2.44,0.95-2.44-3.66c0-4.62-0.14-24.17-0.14-24.17s-0.4-4.34,7.47-4.21c7.87,0.13,21.57,4.36,18.87,20.37
	C549.35,241.77,528.04,238.92,528.04,238.92 M621.32,232.88c0,16.54-12.55,29.94-28.04,29.94c-15.49,0-28.04-13.4-28.04-29.94
	c0-16.53,12.55-29.93,28.04-29.93C608.77,202.94,621.32,216.34,621.32,232.88 M611.79,232.88c0,14.29-8.29,25.87-18.51,25.87
	c-10.22,0-18.51-11.58-18.51-25.87c0-14.28,8.29-25.86,18.51-25.86C603.5,207.02,611.79,218.59,611.79,232.88 M626.22,205.11h12.7
	c0,0,2.67,1.07-2.14,4.27c0,0,0,2.34-0.11,5.01l-1.38,29.44c0,0-1.06,15.36,14.83,14.07c15.88-1.28,13.43-15.25,13.43-15.25
	l-2.66-31.14c0,0-0.75-4.37-3.84-4.16c-3.09,0.22-3.52-3.09,0-3.31c3.52-0.2,9.59-0.2,9.59-0.2s1.28-0.22,1.28,1.7
	c0,1.93-3.09,0.74-2.77,3.74c0.32,2.98,3.73,35.29,3.73,35.29s1.92,17.38-18.02,18.03c-19.94,0.64-26.02-10.56-25.7-21.33
	c0.32-10.77,1.17-31.56,1.17-31.56s0.22-1.07-1.39-2.35C623.34,206.07,624.72,204.9,626.22,205.11 M688.72,244.14v11.19
	c0,0-0.96,2.78,3.2,3.42c4.15,0.64,2.35,2.88-0.1,2.88c-2.45,0-14.61,0.32-14.61,0.32s-2.89-0.97,0.96-3.42
	c2.35-1.49,1.92-5.32,1.92-5.32l0.11-41.7c0,0-0.27-2.94-3.42-3.73c-1.7-0.43-2.02-3.09,2.88-3.31c4.91-0.21,43.2-5.76,43.31,20.47
	C723.05,251.18,688.72,244.14,688.72,244.14 M689.57,236.79l0.11-25.6c0,0-1.07-5.01,7.14-3.73c8.22,1.28,17.49,7.78,15.68,21.75
	c-1.82,13.97-19.2,15.25-22.5,9.28C689.99,238.5,689.57,238.06,689.57,236.79"/>
</svg>
