<?xml version="1.0" encoding="utf-8"?>
<!-- Generator: Adobe Illustrator 23.0.3, SVG Export Plug-In . SVG Version: 6.00 Build 0)  -->
<svg version="1.1" id="Layer_1" xmlns="http://www.w3.org/2000/svg" xmlns:xlink="http://www.w3.org/1999/xlink" x="0px" y="0px"
	 viewBox="0 0 278 197" style="enable-background:new 0 0 278 197;" xml:space="preserve">
<style type="text/css">
	.st0{opacity:0.1;fill:#BA923D;enable-background:new    ;}
</style>
<path class="st0" d="M48.3,100.7c0.7-0.4,1.4-0.5,2-0.8c-0.5,0.4-1.1,0.8-1.7,1.2c-2.6,1.5-5.4,2.5-8.4,3.2c0.7-0.1,1.3-0.2,2-0.3
	c0.7-0.2,1.3-0.3,2-0.5c-1.2,0.4-2.5,0.7-3.7,1c-0.7,0.2-1.3,0.3-2,0.4l-1,0.2c-0.3,0.1-0.7,0.1-1,0.1c0.3,0,0.7,0,1,0l1-0.1l1-0.1
	c0.3,0,0.7-0.1,1-0.1c2.3-0.3,4.5-1,6.7-1.9c2.4-1,4.8-2.3,6.9-4c2.1-1.6,4-3.6,5.5-5.6c0.9-1.2,1.6-2.4,2.3-3.5
	c0.9-0.7,1.9-1.3,2.8-1.8h-0.1c1.1-1,2.2-1.7,3.3-2.1c1.1-0.4,2.3-0.4,3.5-0.1c1.2,0.3,2.5,1,3.8,1.7c1.4,0.8,2.8,1.7,4.4,2.5
	c1.5,0.7,3.3,1.4,5.3,1.5c0.5,0,1,0,1.5,0s1-0.1,1.5-0.3c1-0.2,1.9-0.7,2.8-1.2c0.9-0.5,1.6-1.2,2.3-1.9c0.6-0.7,1.2-1.4,1.7-2.1
	c1-1.4,1.7-2.9,2.4-4.3c1.1-2.3,2.2-4.5,3.4-6.3c1.2-1.8,2.5-3.3,3.9-4c1.4-0.7,2.9-0.9,4.8-0.4c1.9,0.4,3.9,1.4,6,2.4
	c2.1,1.1,4.3,2.3,6.9,3.3c1.3,0.5,2.6,0.9,4.1,1.2s3.1,0.4,4.7,0.2c1.4-0.2,2.7-0.5,4-1.1c1.2-0.6,2.4-1.4,3.3-2.3
	c2-1.8,3.3-3.8,4.3-5.8s1.9-3.9,2.7-5.7s1.7-3.4,2.7-4.7c2-2.5,4.3-3.3,7.4-2.5c1.5,0.4,3.2,1.2,5,2.1c1.7,0.9,3.6,1.9,5.6,2.9
	c2,0.9,4.3,1.8,7,2c1.3,0.1,2.7,0,4.1-0.3c1.3-0.3,2.6-0.8,3.8-1.5c2.3-1.4,4-3.2,5.4-4.9c1.4-1.8,2.6-3.5,3.7-5.1
	c1.1-1.6,2.3-3,3.5-4c1.2-1,2.4-1.5,3.7-1.7c1.3-0.1,2.9,0.1,4.6,0.7c1.7,0.5,3.6,1.3,5.6,2.1c2.2,0.8,4.6,1.6,7.4,1.7
	c0.4,0,0.7,0,1.1,0l1.1-0.1c0.7,0,1.4-0.3,2.1-0.4c0.4-0.1,0.7-0.2,1-0.3l1-0.4c0.6-0.3,1.2-0.7,1.8-1c2.3-1.5,4-3.4,5.5-5.1
	c1.5-1.8,2.8-3.5,4.2-5c1.3-1.5,2.7-2.8,4.1-3.6s3-1.3,4.8-1.5s3.7-0.1,5.8,0.1c2,0.2,4.1,0.6,6.3,1c1.6,0.3,3.2,0.5,5,0.7
	c1.8,0.1,3.6,0.1,5.4-0.1c1.8-0.2,3.5-0.5,5.2-1.1c1.7-0.6,3.3-1.3,4.6-2.4c0.5-0.4,1-0.9,1.4-1.2c0.4-0.4,0.8-0.9,1.1-1.3
	c0.3-0.4,0.5-0.9,0.7-1.3c0.2-0.4,0.3-0.8,0.4-1.1c0.2-0.5,0.3-1.1,0.2-1.7c0-0.4-0.1-0.7-0.3-0.8c-0.3-0.3-0.8,0-1.5,0.6l-0.2,0.3
	l-0.3,0.3c-0.2,0.2-0.4,0.4-0.7,0.6c-0.5,0.4-1.1,0.9-1.8,1.4c-1.6,1-3.4,1.5-5.8,2.1c-1.8,0.4-3.8,0.6-5.8,0.6s-4-0.3-6.1-0.7
	c-4.2-0.7-8.6-1.8-13.3-1.7c-1.6,0-3.3,0.2-5,0.7s-3.3,1.3-4.8,2.3s-2.7,2.2-3.9,3.4c-1,0.9-2,2.1-3,3.3c-1.8,2.2-3.6,4.2-5.5,5.4
	c-0.2,0.2-0.5,0.3-0.7,0.4s-0.5,0.3-0.7,0.3l-0.7,0.3c-0.3,0-0.5,0.1-0.7,0.2c-1,0.2-2.1,0.2-3.1-0.1c-1.1-0.2-2.3-0.6-3.6-1.1
	l-4-1.6c-1.4-0.6-3-1.1-4.6-1.5c-1.7-0.4-3.6-0.5-5.6-0.3c-1.6,0.2-3.2,0.8-4.6,1.6c-1.4,0.8-2.6,1.8-3.6,2.8c-2,2-3.4,4.2-4.8,6.2
	s-2.6,3.8-4.1,5.1c-1.4,1.3-2.8,2-4.5,2.1c-2,0.1-4.5-0.9-7-2.1c-1.9-1-4-2.1-6.2-3.1c-1.1-0.5-2.3-1-3.6-1.4s-2.7-0.6-4.2-0.6
	s-3,0.3-4.4,0.8c-1.4,0.5-2.7,1.3-3.8,2.3c-2.2,2-3.5,4.3-4.6,6.4c-1.1,2.2-2,4.3-2.9,6.2c-0.9,1.9-2,3.7-3.2,4.9
	c-1.2,1.2-2.7,1.9-4.3,2.1c-1.6,0.1-3.5-0.3-5.5-1.1c-3-1.1-6-2.9-9.4-4.4c-1.7-0.7-3.6-1.4-5.6-1.7c-2.1-0.3-4.4-0.1-6.4,0.8
	c-1,0.4-1.9,1-2.8,1.6c-0.8,0.7-1.5,1.4-2.2,2.2c-1.3,1.6-2.1,3.2-2.9,4.8c-1.5,3.2-2.6,6.4-4.2,9c-0.8,1.3-1.7,2.3-2.8,2.9
	c-0.5,0.3-1.1,0.5-1.7,0.6c-0.2,0-0.3,0.1-0.5,0.1h-0.5c-0.3,0-0.6,0-1-0.1c-1.3-0.2-2.7-0.8-4.2-1.6c-1.4-0.8-2.9-1.7-4.6-2.4
	c-1.1-0.5-2.2-0.9-3.4-1.2c-1.3-0.3-2.5-0.3-3.8-0.1s-2.5,0.7-3.6,1.3c-1.1,0.6-2,1.4-2.9,2.1c-3.4,3.2-5.5,7-8.5,9.7
	c-5.9,5.6-14.5,8.2-22.6,7c-2-0.3-4.1-0.6-6-1.3c1.3,0.9,2.6,1.7,4.4,2.3c0.3,0.1,0.7,0.2,1.3,0.3l1.7,0.2c-0.6-0.1-1.3-0.1-1.9-0.2
	s-1.2-0.2-1.8-0.3c-0.8-0.1-1.6-0.3-2.3-0.5c-0.7-0.2-1.5-0.4-2.2-0.6c2.9,1.5,6.2,2.5,9.6,3c0.1,0,0.9-0.1,1.5-0.2
	c0.4,0,0.9-0.1,1.4-0.1l0.7-0.1l0.7-0.1c0.7-0.2,1.4-0.4,2.2-0.6c0.7-0.3,1.5-0.5,2.3-0.8c0.4-0.1,0.8-0.3,1.3-0.4l1.4-0.5l0.7-0.3
	l0.8-0.3C47.2,101.1,47.8,100.9,48.3,100.7L48.3,100.7z M130.3,75.4c-1.4,0.2-3,0-4.4-0.4c-0.3-0.1-0.5-0.2-0.8-0.3
	c1.3,0.3,2.6,0.5,3.9,0.5c0.8,0,1.5-0.1,2.3-0.3c0.3-0.1,0.7-0.2,1-0.3l0.5-0.2l0.5-0.2c1.2-0.6,2.3-1.4,3.1-2.4
	c0.9-1,1.6-2.1,2.3-3.2c0.1,0,0.2,0,0.2,0c-0.7,1.3-1.6,2.6-2.6,3.6c-1,1.1-2.3,2-3.7,2.5c-0.2,0.1-0.4,0.1-0.6,0.2l-0.7,0.1
	C130.9,75.1,130.8,75.3,130.3,75.4L130.3,75.4z M90.3,87.6c-0.6,0.5-1.3,0.9-2.1,1.1c0.7-0.4,1.3-0.9,2-1.4c1.8-1.5,3-3.6,4.1-5.7
	c1-2.1,1.9-4.3,3-6.5c1.1-2.1,2.4-4.2,4.3-5.7s4.4-2.2,6.8-1.9c1.8,0.1,3.4,0.7,5.1,1.3c1.6,0.7,3.2,1.4,4.7,2.2
	c0.6,0.3,1.1,0.7,1.7,1c-0.6-0.3-1.2-0.5-1.8-0.8c-1.5-0.8-3.1-1.5-4.7-2.2c-1.6-0.6-3.2-1.2-4.9-1.3c-0.5-0.1-1,0-1.4,0.1
	c-0.4,0.1-0.8,0.2-1.1,0.3c-0.3,0.1,0.1,0.2,0.1,0.3c-1,0-2.1,0.3-2.9,0.7c-0.7,0.3-1.1,0.4-1.6,0.6c-0.5,0.6-1,1.3-1.4,2
	c-0.2,0.4-0.4,0.8-0.5,1.2l-0.4,0.4c0.3-0.6,0.6-1.1,1-1.7c-1.1,0.7-1.9,2-2.6,3.5c-0.7,1.5-1.3,3.1-1.9,4.5h0.4l-0.3,0.6l-0.1-0.7
	c-0.7,1.4-1.4,2.9-2.2,4.3C92.6,85.2,91.6,86.6,90.3,87.6L90.3,87.6z M76.8,85.4c2.3,1.3,4.5,2.9,7.2,3.4c-1.5-0.3-2.9-0.9-4.2-1.5
	c-1.3-0.7-2.7-1.4-4-2.1c-0.4-0.2-0.8-0.4-1.3-0.6c-1.5-0.7-3-1.2-4.7-1.2c1.8-0.2,3.6,0.4,5.1,0.9C75.8,84.8,76.3,85.1,76.8,85.4
	L76.8,85.4z M148.6,53.4c-1.7,1-3,2.5-4,4.1c-0.9,1.4-1.6,2.9-2.3,4.5l-1.3,2.7c0.3-0.9,0.5-1.7,0.9-2.7c0.3-0.8,0.7-1.6,1.1-2.4
	c0.4-0.8,0.9-1.8,1.6-2.8C145.4,55.8,146.8,54.3,148.6,53.4L148.6,53.4z M63.2,86.8C62,88.1,61,89.5,60,91c-0.3,0.4-0.9,1-1.4,1.5
	c0.9-1.3,1.7-2.6,2.7-4c0.4-0.4,0.7-0.7,1-0.9C62.6,87.2,62.9,87,63.2,86.8z M173.6,61.2c-1.4,0-3-0.2-4.1-0.6
	c-2.1-0.7-3.7-1.8-5.4-2.8c0.6,0.3,1.2,0.5,1.7,0.7C168.3,59.9,170.8,61,173.6,61.2z M132.1,75.9c-1.7,0.5-3.5,0.7-5.3,0.4
	c-0.9-0.1-2-0.6-2.9-1.1c1.4,0.4,2.9,0.8,4.1,0.8C129.6,76.3,130.9,76.2,132.1,75.9z M131.8,77.3c1.4-0.3,2.7-0.8,3.9-1.6
	c1.2-0.7,2.2-1.7,3-2.7c0.2-0.3,0.4-0.5,0.7-0.8l0.7-0.8c-0.5,0.8-1.1,1.6-1.8,2.3c-0.7,0.7-1.4,1.4-2.2,1.9
	C134.4,76.7,133,77.1,131.8,77.3L131.8,77.3z M171.8,60c-0.6-0.1-1.2-0.1-1.7-0.3c-2.1-0.6-3.9-1.7-5.7-2.6c1,0.5,2.1,1,3.5,1.6
	C169,59.2,170.4,59.7,171.8,60z M115.5,71.4c-1-0.4-2.1-0.8-3.1-1.2c-1.1-0.4-2.1-0.9-3.2-1.1c1,0.1,2,0.4,3,0.7
	C113.3,70.3,114.4,70.9,115.5,71.4z M72.2,85.7l-0.5-0.1h-0.5c-0.2,0-0.3,0-0.5,0c-0.1,0-0.3,0-0.4,0c-1,0-1.9,0.1-2.9,0.5
	c0.7-0.3,1.4-0.6,2.3-0.7c0.2,0,0.4,0,0.6,0s0.4,0,0.6,0.1C71.3,85.5,71.8,85.5,72.2,85.7L72.2,85.7z M102.6,72.5
	c-0.2,0.3-0.4,0.6-0.5,0.8c-1.1,1.2-2.1,2.8-3,4.5c0.4-0.9,0.8-1.8,1.5-3.1C101.1,74,101.8,73.1,102.6,72.5z M141.1,67.5
	c0.3-0.6,0.6-1,0.9-1.5c-0.4,0.9-0.8,1.8-1.3,2.8c-0.3,0.5-0.6,1.1-1.7,2.5c0.5-0.7,0.9-1.5,1.3-2.3L141.1,67.5L141.1,67.5z
	 M128.8,77.6c-1,0-2-0.1-3-0.3c-0.9-0.2-1.8-0.5-2.6-0.9c0.9,0.3,1.8,0.6,2.9,0.8C126.9,77.4,127.8,77.5,128.8,77.6z M54.3,97.7
	c-0.4,0.4-0.8,0.7-1.2,1.1c-0.4,0.4-0.8,0.7-1.3,1c-0.5,0.3-1.2,0.7-1.8,0.9c0.6-0.4,1.2-0.9,1.9-1.4c0.5-0.3,0.9-0.6,1.3-0.8
	C53.5,98.2,53.9,98,54.3,97.7L54.3,97.7z M218.9,47.3c0.6-0.2,1.3-0.4,1.9-0.7l0.9-0.4c0.3-0.2,0.5-0.3,0.8-0.5
	c-0.3,0.2-0.6,0.5-0.9,0.7c-0.3,0.2-0.6,0.4-0.9,0.5c-1.3,0.6-2.6,1.1-5.1,1.2l1.3-0.2c0.4,0,0.7-0.2,0.9-0.2
	C218.3,47.5,218.6,47.4,218.9,47.3L218.9,47.3z M106.6,69.1c-0.3,0-0.5,0.1-0.7,0.2c-0.2,0.1-0.5,0.2-0.7,0.2
	c-0.3,0.1-0.5,0.1-0.7,0.2l-0.4,0.1l-0.3,0.1l0.3-0.2l0.3-0.2l0.4-0.2l0.4-0.2c0.2,0,0.5-0.1,0.7-0.1
	C106.2,69.1,106.4,69.1,106.6,69.1z M143.5,65.2c-0.4,0.8-0.8,1.6-1.2,2.4c0.2-0.5,0.4-1,0.6-1.5c0.4-0.9,0.8-1.8,1.2-2.7l0.1-0.1
	C144,64,143.7,64.6,143.5,65.2z M141.2,68.3c0.2-0.3,0.4-0.5,0.6-0.8c-0.4,0.8-0.8,1.7-1.3,2.5c-0.2,0.3-0.4,0.5-1,1.3
	C140.4,70,140.8,69.1,141.2,68.3L141.2,68.3z M203,43c0.7,0.2,1.4,0.4,2,0.7c0.6,0.2,1,0.5,1.5,0.8c-0.7-0.3-1.4-0.5-2.4-0.9
	C203.9,43.4,203.5,43.2,203,43L203,43z M98.4,76.2c0.6-1.2,1.2-2.4,2-3.5c0.3-0.4,0.6-0.7,0.9-1c-0.4,0.5-0.7,1-0.8,1.1
	C99.5,74.2,99,75.2,98.4,76.2z M119.8,74.9c-0.4-0.1-0.8-0.3-1.2-0.4c-0.7-0.3-1.3-0.7-1.9-1l1.7,0.7L119.8,74.9L119.8,74.9z
	 M213.1,46.4c0.5,0,1,0.1,1.5,0.1h0.7c0.2,0,0.5-0.1,0.7-0.1c0.4,0,0.8,0,1.2-0.1c-0.4,0.1-0.7,0.2-1.1,0.3l-0.6,0.1h-0.6
	C214.2,46.6,213.6,46.5,213.1,46.4z M94.1,83.3c0.2-0.4,0.5-0.7,0.7-1c-0.3,0.6-0.6,1.2-0.9,1.8c-0.3,0.4-0.5,0.8-1.5,2.1
	C93.5,84.6,93.7,83.9,94.1,83.3z M87.2,90.9c0.9-0.1,1.8-0.4,2.7-0.8c-0.2,0.1-0.4,0.2-0.6,0.3c-0.5,0.2-1,0.4-1.7,0.5
	c-0.3,0.1-0.7,0.1-1.1,0.2c-0.4,0-0.9,0.1-1.4,0C86.4,91.1,86.8,91,87.2,90.9z M96.6,81.7c0.1-0.3,0.3-0.5,0.4-0.8
	c-0.2,0.5-0.4,1-0.7,1.5c-0.1,0.2-0.2,0.3-0.5,0.7L96.6,81.7z M63.1,87.6c0,0,0.4-0.4,0.5-0.7c0.3-0.2,0.6-0.4,0.8-0.5
	c0.1,0-0.3,0.4-0.7,0.8C63.5,87.4,63.2,87.6,63.1,87.6L63.1,87.6z M53.2,97.8c0.3-0.2,0.7-0.5,0.8-0.5c0.1,0-0.4,0.5-0.6,0.6
	c-0.3,0.2-0.6,0.4-1,0.6C52.8,98.2,53.1,97.9,53.2,97.8z M104.6,70.9c0.2-0.1,0.4-0.1,0.6-0.1c-0.3,0.1-0.5,0.3-0.7,0.4
	c-0.1,0-0.2,0.1-0.3,0.1l-0.3,0.1C104.1,71.2,104.4,71,104.6,70.9L104.6,70.9z M153,53.7c-0.5,0-1,0.1-1.6,0.2
	c0.1-0.1,0.3-0.1,0.4-0.2c0.3,0,0.5,0,0.8-0.1c0.3,0,0.6,0,0.8,0C153.3,53.6,153.1,53.7,153,53.7L153,53.7z M138.8,70.9l0.7-1
	c-0.2,0.4-0.4,0.8-0.7,1.1c-0.3,0.4-0.5,0.7-1.2,1.4C138.3,71.7,138.5,71.3,138.8,70.9z M77.7,87.5c-0.3-0.1-0.6-0.2-0.9-0.3
	l-0.5-0.3c0.1,0,0.3,0,0.5,0.1C77.3,87.3,77.5,87.4,77.7,87.5L77.7,87.5z M157.8,54.9c0.3,0.1,0.4,0.2,0.5,0.4
	c-0.2-0.1-0.5-0.2-0.7-0.3c-0.3-0.1-0.5-0.3-1-0.5C157.2,54.6,157.6,54.8,157.8,54.9z M110.1,70.2c-0.4-0.1-0.7-0.1-1.1-0.2
	c-0.2,0-0.3-0.1-0.5-0.1l-0.5-0.1h0.5h0.5C109.5,69.9,109.8,70.1,110.1,70.2z M120.1,73.6c0.2,0.1,0.4,0.3,0.5,0.4
	c0,0-0.5-0.2-0.7-0.3c-0.3-0.2-0.6-0.3-1-0.6C119.5,73.3,119.9,73.4,120.1,73.6z M149.2,56.1c-0.1,0.1-0.3,0.3-0.4,0.4
	c-0.1,0.1-0.3,0.2-0.4,0.3c0.2-0.2,0.3-0.4,0.5-0.6L149.2,56.1z M23.3,173.2c0.7-0.2,1.4-0.3,2-0.4c-0.6,0.3-1.1,0.6-1.8,0.8
	c-2.6,1-5.4,1.6-8.2,1.9c0.6,0,1.3-0.1,1.9-0.1l1-0.1c0.3,0,0.6-0.1,1-0.1c-0.3,0.1-0.6,0.1-0.9,0.2c-0.3,0-0.6,0.1-0.9,0.1
	c-0.6,0.1-1.2,0.2-1.8,0.2c-0.7,0.1-1.3,0.2-1.9,0.2l-1.9,0.1l1.9,0.2c0.6,0,1.3,0,1.9,0c2.1-0.1,4.3-0.4,6.5-1
	c4.8-1.2,9.4-3.4,13.2-6.6c1.1-0.9,1.9-2,2.7-3c1-0.5,1.9-1,2.9-1.4h-0.1c0.5-0.4,1.1-0.8,1.7-1.1c0.6-0.3,1.1-0.6,1.7-0.8
	c0.3-0.1,0.5-0.1,0.8-0.2c0.3,0,0.5-0.1,0.8-0.1c0.5-0.1,1.1,0,1.7,0.1c1.2,0.2,2.6,0.7,4.1,1.2c0.8,0.2,1.6,0.5,2.6,0.6
	c0.9,0.1,2,0.2,3,0c0.2,0,0.5-0.1,0.7-0.1l0.7-0.2c0.2-0.1,0.5-0.1,0.7-0.2l0.7-0.3c0.2-0.1,0.5-0.2,0.7-0.4l0.6-0.4
	c0.4-0.3,0.8-0.6,1.1-0.9c1.3-1.3,2.2-2.7,3-4c0.8-1.3,1.4-2.6,2.1-3.7c0.7-1.1,1.4-2.1,2.1-2.9c1.2-1.2,2.7-1.8,4.4-1.9
	c1.7-0.1,3.8,0.1,5.9,0.5c2.2,0.3,4.4,0.8,6.9,1c2.5,0.2,5.2,0.3,8.1-0.4c2.8-0.7,5.3-2.3,7.3-3.9c2-1.6,3.7-3.4,5.3-5
	c1.3-1.4,2.6-2.6,3.9-3.7c1.3-1.1,2.6-1.9,3.9-2.5c1.3-0.5,2.8-0.8,4.5-0.9c1.6-0.1,3.4,0,5.3,0.1c1.9,0.1,3.8,0.3,5.9,0.4
	c2.1,0.1,4.3,0,6.6-0.5c1.2-0.2,2.3-0.7,3.4-1.2c0.6-0.3,1.1-0.6,1.6-0.9c0.5-0.4,1-0.7,1.5-1.1c1.9-1.5,3.3-3.1,4.5-4.6
	s2.4-2.8,3.5-3.8c1.1-1,2.1-1.4,3.2-1.5c1.3-0.2,2.7,0.1,4.3,0.6c1.6,0.6,3.4,1.3,5.4,2s4.4,1.3,7.1,1c1.3-0.1,2.6-0.5,3.8-1
	c1.2-0.5,2.2-1.1,3.2-1.8c1.9-1.3,3.4-2.7,4.8-4c1.4-1.3,2.7-2.3,4.1-3.3c6.1-4.3,13.9-6.6,21.7-9.3l23.4-8
	c5.5-1.9,11.6-4.1,16.3-6.1c7.4-3.1,7.2-5.4,0.4-4.4c-1.9,0.3-3.9,0.4-6.4,1.2c-7.6,2.2-15.5,5.1-23.2,7.3
	c-5.2,1.5-10.9,3.4-16.4,5.1c-5.2,1.7-10.6,3.4-15.8,6c-2.6,1.3-5.1,3-7.4,4.9c-2.2,1.9-4.1,3.7-5.9,4.9c-0.7,0.5-1.5,0.8-2.1,1.1
	c-0.7,0.2-1.3,0.3-2.1,0.3c-0.4,0-0.8-0.1-1.2-0.1c-0.4-0.1-0.8-0.2-1.3-0.3c-0.9-0.2-1.9-0.6-2.9-1c-2.1-0.8-4.4-1.8-7.4-2.1
	c-1.5-0.2-3.1-0.1-4.6,0.3c-1.6,0.4-3,1.1-4.2,2c-1.5,1-2.6,2.2-3.7,3.4c-1,1.1-1.9,2.2-2.8,3.2c-1.3,1.5-2.5,2.8-3.9,3.5
	c-1.4,0.8-3,1.2-4.8,1.3c-1.8,0.1-3.8,0-6-0.1c-2.1-0.1-4.3-0.3-6.7-0.3c-2.3,0-4.8,0.3-7.3,1.2s-4.6,2.3-6.4,3.8
	c-3.6,3.1-6.2,6.5-9.2,8.9c-1.1,0.9-2.3,1.7-3.5,2.2c-0.3,0.2-0.6,0.2-0.9,0.3l-0.5,0.2L93,144c-0.6,0.1-1.3,0.2-2,0.3
	c-2.8,0.2-5.9-0.4-9.1-0.8c-1.6-0.2-3.3-0.4-5-0.4c-1.8,0-3.6,0.1-5.5,0.7c-0.9,0.3-1.8,0.7-2.7,1.2c-0.8,0.5-1.6,1.1-2.3,1.8
	c-1.4,1.4-2.3,2.9-3.1,4.4c-0.8,1.5-1.5,2.9-2.2,4.2c-0.7,1.3-1.5,2.4-2.4,3.1c-0.2,0.2-0.5,0.4-0.7,0.5l-0.4,0.2l-0.4,0.1
	c-0.5,0.2-1.1,0.3-1.7,0.3c-1.2,0-2.7-0.4-4.2-0.9c-1-0.3-2-0.6-3.2-0.7c-1.2-0.2-2.4-0.2-3.6,0.1c-1.2,0.2-2.3,0.7-3.3,1.2
	s-1.9,1.2-2.8,1.9c-1.7,1.3-3.1,2.8-4.6,4.1c-0.7,0.7-1.5,1.2-2.2,1.8l-1.2,0.8l-0.6,0.4l-0.6,0.4c-6.6,4-14.7,5.3-22.2,3.8
	c-1-0.2-1.9-0.4-2.8-0.6c-0.9-0.2-1.9-0.5-2.8-0.8c0.6,0.4,1.2,0.9,1.8,1.3c0.7,0.4,1.3,0.8,2.1,1.2c0.5,0.2,1.8,0.5,2.8,0.7
	c-1.2-0.1-2.4-0.5-3.5-0.7l-2.2-0.5l-2.1-0.6c2.7,1.5,5.7,2.7,8.8,3.3c0.1,0,0.8-0.1,1.4-0.1c0.8,0,1.7,0,2.6,0
	c1.4-0.2,2.7-0.5,4.3-0.9l0.6-0.1l0.6-0.2c0.4-0.1,0.9-0.2,1.4-0.3s1-0.2,1.5-0.4C22.2,173.5,22.8,173.4,23.3,173.2L23.3,173.2z
	 M105.1,139c-0.8,0.9-1.8,2-2.8,2.9c-0.2,0.2-0.4,0.3-0.6,0.4c0.9-0.9,1.7-1.8,2.5-2.7l1.4-1.6c0.4-0.5,0.8-1,1.3-1.5
	c1.7-1.8,3.6-3.5,5.9-4.7c0,0,0.2,0.1,0.1,0.1c-2.5,1.4-4.5,3.3-6.5,5.3c-0.3,0.3-0.6,0.6-0.9,0.9
	C105.4,138.4,105.5,138.7,105.1,139L105.1,139z M63.6,155.4c-0.4,0.6-0.8,1.3-1.2,1.9c0.3-0.7,0.6-1.4,0.9-2.1
	c1.1-1.9,2.1-4,3.5-5.7c0.7-0.9,1.5-1.7,2.5-2.3s2-1.1,3.1-1.3c2.2-0.5,4.5-0.4,6.7-0.2c2.2,0.3,4.4,0.7,6.6,1
	c3.2,0.4,6.5,0.6,9.6-0.6c0.3-0.1,0.6-0.2,0.9-0.3l0.9-0.3l-0.8,0.5c-0.3,0.2-0.5,0.3-0.8,0.4l-1.2,0.4c-0.4,0.1-0.8,0.2-1.2,0.3
	c-0.8,0.1-1.6,0.2-2.4,0.2c-1.6,0.1-3.2-0.1-4.8-0.3c-0.9-0.1-1.9-0.1-2.5,0c-0.3,0,0,0.2,0,0.3c-1-0.3-2.1-0.5-2.9-0.8
	c-0.7-0.2-1-0.4-1.5-0.6c-0.8,0-1.6,0.1-2.3,0.2c-0.4,0.1-0.8,0.2-1.2,0.3c-0.2,0-0.3,0-0.5-0.1c0.6-0.1,1.2-0.2,1.8-0.2
	c-1.1-0.4-2.6-0.4-4.1,0s-2.8,1.3-3.9,2.2l0.4,0.2l-0.5,0.4c0-0.2,0.1-0.5,0.1-0.7c-1.1,0.9-2,2.1-2.8,3.4
	C65,152.7,64.3,154.1,63.6,155.4L63.6,155.4z M52.5,160.8c1.2,0.3,2.4,0.6,3.7,0.5c1.2,0,2.5-0.5,3.5-1.2c-1.1,0.9-2.5,1.4-3.9,1.4
	s-2.8-0.3-4.2-0.7c-0.4-0.1-0.9-0.3-1.3-0.4c-1.5-0.4-3-0.9-4.5-0.8c1.7-0.3,3.4,0.1,4.9,0.4C51.5,160.4,52,160.6,52.5,160.8z
	 M129.7,130.6l-5.4-0.3c-1.6-0.1-3.1-0.1-4.7,0c-0.9,0.1-1.9,0.2-2.8,0.4c0.8-0.3,1.7-0.5,2.6-0.7c1.5-0.2,3.2-0.2,5.4,0
	L129.7,130.6z M39.4,162.8c-1.2,1.1-2.3,2.3-3.5,3.6c-0.3,0.3-1,0.8-1.6,1.1c1-1,2-2.1,3.1-3.4C38.2,163.6,38.8,163.2,39.4,162.8z
	 M151.3,120.5c-0.8,0.7-1.5,1.6-2.2,2.3c-1.3,1.3-2.5,2.6-3.8,3.9c0.4-0.5,0.8-1,1.1-1.4C148.1,123.4,149.6,121.7,151.3,120.5
	L151.3,120.5z M106.8,138.6c-0.9,1.1-1.8,2.3-2.9,3.4c-0.5,0.6-1.4,1.1-2.2,1.7c0.5-0.5,1-1,1.4-1.4l1.2-1.3L106.8,138.6z
	 M107.4,139.9c1.4-1.5,2.8-2.9,4.3-4.1c0.4-0.3,0.8-0.5,1.2-0.7c-1.1,0.8-2.2,1.8-3.1,2.6C108.8,138.6,108.1,139.2,107.4,139.9
	L107.4,139.9z M149.5,120.7c-0.3,0.4-0.7,0.9-1,1.2c-1.3,1.4-2.5,2.9-3.9,4.3c0.7-0.8,1.4-1.7,2.3-2.8
	C147.6,122.6,148.5,121.6,149.5,120.7z M93.6,148.1c-1.1,0.3-2.3,0.5-3.5,0.5c-1.3,0-2.4-0.2-3.6-0.4c1.1,0.1,2.1,0.1,3.3,0
	C91.2,148.3,92.4,148.3,93.6,148.1L93.6,148.1z M48,161.9c-0.6-0.1-1.2-0.1-1.8-0.1c-0.9,0-1.8,0.1-2.7,0.5c0.7-0.3,1.3-0.6,2.2-0.7
	C46.5,161.6,47.2,161.7,48,161.9L48,161.9z M77.5,148.5c-0.3,0-0.7,0.1-1,0.1c-1.7-0.1-3.2-0.1-4.5,0.3c0.6-0.3,1.3-0.5,2.6-0.7
	C75.4,148.2,76.4,148.3,77.5,148.5L77.5,148.5z M115.2,132.7c0.5-0.1,1-0.2,1.4-0.2c-0.8,0.3-1.5,0.6-2.2,0.9
	c-0.2,0.1-0.4,0.2-0.8,0.3L113,134c-0.2,0.1-0.5,0.2-0.8,0.4c0.4-0.3,0.7-0.5,1-0.7c0.3-0.2,0.5-0.4,0.8-0.5
	C114.4,133.1,114.8,132.9,115.2,132.7L115.2,132.7z M105.9,141.6c-0.5,0.6-1.1,1.2-1.7,1.8c-0.3,0.3-0.6,0.6-0.9,0.8
	c-0.3,0.3-0.6,0.5-1,0.8c0.3-0.3,0.6-0.6,1-0.9c0.3-0.3,0.6-0.6,1-1C104.8,142.6,105.3,142.1,105.9,141.6z M29.4,171.5
	c-0.4,0.3-0.9,0.5-1.3,0.8s-0.9,0.5-1.4,0.7s-1.2,0.4-1.9,0.5c0.6-0.3,1.2-0.6,2-1C27.7,172.2,28.5,171.9,29.4,171.5L29.4,171.5z
	 M195.1,108.2c1.1-0.4,2.1-0.6,3.1-0.9c-0.5,0.2-1.1,0.5-1.6,0.7c-1.1,0.4-2.1,0.8-4,1.5C193.9,108.7,194.6,108.4,195.1,108.2
	L195.1,108.2z M83.7,148c-0.6,0-1.2,0-1.7-0.1c-0.6-0.1-1.1-0.3-1.6-0.4l1.8,0.1L83.7,148L83.7,148z M117.8,133.2
	c-0.3,0.1-0.7,0.1-1,0.2l-1,0.2c0.4-0.1,0.7-0.4,1.1-0.4l1.1-0.2c0.4,0,0.8-0.1,1.2-0.1l0.1,0.1l-0.8,0.1
	C118.3,133.1,118.1,133.2,117.8,133.2z M114.8,133.4c0.2-0.1,0.5-0.1,0.7-0.1c-0.3,0.1-0.6,0.3-1,0.4l-0.5,0.2
	c-0.2,0.1-0.3,0.2-0.5,0.3c-0.2,0.1-0.5,0.2-1.1,0.5c0.5-0.4,0.9-0.6,1.3-0.8C114.2,133.7,114.5,133.6,114.8,133.4L114.8,133.4z
	 M181.7,114.9c0.5-0.5,1-1,1.4-1.4c0.5-0.4,0.9-0.6,1.4-0.9c-0.5,0.5-1.1,0.9-1.8,1.6L181.7,114.9z M72.4,147.4
	c1.1-0.3,2.3-0.5,3.5-0.5c0.4,0,0.9,0.1,1.3,0.1c-0.6,0-1.2,0-1.3,0C74.4,147,73.4,147.2,72.4,147.4L72.4,147.4z M99.3,147.1
	c-0.4,0.3-0.7,0.6-1.1,0.8c-0.7,0.3-1.4,0.7-2.2,0.9c0.6-0.2,1.1-0.5,1.8-0.9C98.3,147.7,98.8,147.4,99.3,147.1z M189.8,109.1
	c0.8-0.5,1.6-0.9,2.5-1.4c0.3-0.2,0.7-0.3,1.1-0.4c-0.6,0.4-1.3,0.7-2,1.1C190.8,108.7,190.3,108.9,189.8,109.1L189.8,109.1z
	 M66.5,151c0.2-0.3,0.5-0.5,0.7-0.8c-0.3,0.5-0.6,1-1,1.5c-0.2,0.4-0.5,0.7-1.2,1.9C65.8,152.1,66.2,151.6,66.5,151z M63.3,159.5
	l0.7-0.9l0.7-0.9c-0.1,0.2-0.1,0.3-0.2,0.5l-0.4,0.6l-0.5,0.6c-0.2,0.3-0.4,0.5-0.6,0.8s-0.5,0.6-0.9,0.9c0.4-0.4,0.6-0.8,0.8-1
	C62.9,160,63.3,159.5,63.3,159.5z M69.1,150.3c0.2-0.2,0.3-0.3,0.5-0.4c-0.3,0.2-0.5,0.6-0.8,0.9l-0.5,0.5
	C68.6,150.8,68.9,150.6,69.1,150.3L69.1,150.3z M39.3,163.6c0,0,0.4-0.4,0.6-0.6c0.3-0.1,0.6-0.3,0.8-0.4c0.1,0-0.3,0.3-0.7,0.7
	C39.7,163.5,39.4,163.7,39.3,163.6L39.3,163.6z M28.4,171.4c0.3-0.1,0.7-0.3,0.8-0.3c0.1,0-0.4,0.4-0.6,0.5
	c-0.3,0.1-0.6,0.2-1.1,0.4C27.9,171.7,28.2,171.5,28.4,171.4z M80.6,148.8c0.3,0.1,0.5,0.2,0.7,0.3c-0.4,0-0.8-0.1-1.1-0.1
	c-0.3,0-0.5-0.1-0.8-0.2C79.9,148.7,80.4,148.7,80.6,148.8z M134,132.1l-0.9,0.1h-0.9c0.2,0,0.3-0.1,0.5-0.1c0.6,0,1.2,0,1.8,0
	C134.3,132,134.2,132.1,134,132.1L134,132.1z M112,134c0.3-0.2,0.6-0.3,0.9-0.5c-0.3,0.2-0.6,0.4-0.9,0.6c-0.3,0.2-0.6,0.4-1.2,0.8
	C111.4,134.4,111.7,134.2,112,134z M53.9,162.6c-0.3,0-0.6,0-1,0l-0.6-0.2c0.1,0,0.3-0.1,0.5-0.1C53.4,162.4,53.7,162.5,53.9,162.6
	L53.9,162.6z M139.5,131c0.3-0.1,0.5-0.1,0.7-0.1c-0.2,0.2-0.6,0.3-0.8,0.4c-0.3,0.1-0.6,0.2-1.3,0.3
	C138.9,131.3,139.3,131.1,139.5,131L139.5,131z M87.7,149.2c-0.4,0-0.8,0-1.3-0.1c-0.4,0-0.7-0.1-1.1-0.2l1.2,0.1
	C87,149.1,87.3,149.1,87.7,149.2L87.7,149.2z M98.4,146c0.2-0.1,0.4-0.2,0.6-0.2c0,0-0.4,0.3-0.6,0.4c-0.4,0.2-0.7,0.4-1.1,0.5
	C97.9,146.4,98.2,146.2,98.4,146L98.4,146z M128.6,133.3c-0.3,0-0.5,0-0.8,0c-0.2,0-0.4-0.1-0.6-0.1h1
	C128.4,133.2,128.5,133.2,128.6,133.3z"/>
</svg>
