<?xml version="1.0" encoding="utf-8"?>
<!-- Generator: Adobe Illustrator 23.0.3, SVG Export Plug-In . SVG Version: 6.00 Build 0)  -->
<svg version="1.1" id="Layer_1" xmlns="http://www.w3.org/2000/svg" xmlns:xlink="http://www.w3.org/1999/xlink" x="0px" y="0px"
	 viewBox="0 0 216 59" style="enable-background:new 0 0 216 59;" xml:space="preserve">
<style type="text/css">
	.st0{fill:#C22026;}
	.st1{fill:#DD1F26;}
	.st2{fill:#ED2424;}
	.st3{fill:#0A1B2D;}
	.st4{fill:#1A3460;}
	.st5{fill:#174885;}
	.st6{fill:#098041;}
	.st7{fill:#039849;}
	.st8{fill:#00AC4B;}
	.st9{fill:#450E25;}
	.st10{fill:#5A062E;}
	.st11{fill:#7B133E;}
	.st12{fill:#FFFFFF;}
	.st13{enable-background:new    ;}
</style>
<g>
	<g>
		<polygon class="st0" points="23.76,42.53 14.7,45.74 13.09,46.3 2.43,42.53 2.59,42.45 10.93,39.48 13.09,38.68 		"/>
		<polygon class="st1" points="23.76,49.99 13.09,53.76 13.01,53.76 23.68,49.99 13.01,53.76 13.01,46.22 14.62,45.66 23.68,42.45 
			23.68,42.45 		"/>
		<polygon class="st2" points="13.26,46.14 2.51,42.37 2.51,42.37 13.18,46.14 2.51,42.45 2.51,49.91 4.11,50.47 13.18,53.76 
			13.18,53.76 		"/>
	</g>
	<g>
		<polygon class="st3" points="23.76,31.54 14.7,34.75 13.09,35.31 2.43,31.54 2.59,31.46 10.93,28.58 13.09,27.78 		"/>
		<polygon class="st4" points="23.76,39 13.09,42.85 13.01,42.85 23.68,39 13.01,42.77 13.01,35.23 14.62,34.67 23.68,31.46 
			23.68,31.46 		"/>
		<polygon class="st5" points="13.26,35.23 2.51,31.38 2.51,31.38 13.18,35.23 2.51,31.46 2.51,39 4.11,39.56 13.18,42.77 
			13.18,42.77 		"/>
	</g>
	<g>
		<polygon class="st6" points="23.84,20.32 14.78,23.53 13.18,24.09 2.51,20.32 2.67,20.24 11.01,17.27 13.18,16.47 		"/>
		<polygon class="st7" points="23.84,27.78 13.09,31.54 13.09,31.54 23.76,27.78 13.09,31.54 13.09,24.01 14.7,23.45 23.76,20.24 
			23.76,20.24 		"/>
		<polygon class="st8" points="13.34,23.93 2.59,20.16 2.59,20.16 13.26,23.93 2.59,20.24 2.59,27.78 4.19,28.34 13.26,31.54 
			13.26,31.54 		"/>
	</g>
	<g>
		<polygon class="st9" points="23.84,9.09 14.78,12.3 13.18,12.86 2.51,9.09 2.67,9.01 11.01,6.05 13.18,5.32 		"/>
		<polygon class="st10" points="23.84,16.55 13.09,20.4 13.09,20.4 23.76,16.55 13.09,20.32 13.09,12.78 14.7,12.22 23.76,9.01 
			23.76,9.01 		"/>
		<polygon class="st11" points="13.34,12.7 2.59,8.93 2.59,8.93 13.26,12.7 2.59,9.01 2.59,16.55 4.19,17.11 13.26,20.32 
			13.26,20.32 		"/>
	</g>
</g>
<g>
	<path class="st12" d="M71.87,31.79h-6.74V20.32c0-0.88,0.16-3.93-3.21-3.93c-0.56,0-2.17,0.08-3.21,1.52
		c-0.64,0.96-0.72,2-0.72,3.13v10.75h-6.74V20.64c0-1.44,0-2.89-1.36-3.85c-0.24-0.16-0.88-0.48-1.76-0.48
		c-0.4,0-1.2,0.08-2.17,0.64c-2,1.2-1.76,3.53-1.76,4.17v10.66h-6.74V11.1h6.82v3.05c0.88-1.36,2.49-3.53,6.5-3.53
		c0.96,0,3.53,0.08,5.45,2.25c0.48,0.48,0.72,1.04,1.12,1.6c0.32-0.4,0.64-0.72,0.96-1.12c0.96-1.04,2.73-2.73,6.17-2.73
		c4.49,0,6.41,2.57,6.98,4.33c0.32,0.96,0.4,1.76,0.48,3.77v13.07C71.95,31.79,71.87,31.79,71.87,31.79z"/>
	<path class="st12" d="M92.56,11.18h6.66v20.61h-6.66v-2c-0.48,0.4-0.88,0.8-1.44,1.12c-0.88,0.56-2.89,1.68-5.69,1.68
		c-0.64,0-2.33-0.08-3.93-0.88c-3.93-1.76-5.69-6.01-5.69-10.1c0-1.44,0.16-5.37,3.21-8.42c1.84-1.76,4.01-2.49,6.5-2.49
		c0.96,0,3.29,0.08,5.37,1.68c0.64,0.48,1.12,1.04,1.6,1.68L92.56,11.18L92.56,11.18z M84.14,17.91c-1.2,1.44-1.2,2.97-1.2,3.61
		c0,2.81,1.36,4.17,2.33,4.81c0.4,0.32,1.44,0.8,2.81,0.8c3.05,0,4.89-2.57,4.89-5.37c0-2.97-2-5.53-5.13-5.53
		C87.11,16.31,85.42,16.39,84.14,17.91z"/>
	<path class="st12" d="M120.06,11.26h6.74v18.6c0,0.56,0.16,3.69-0.72,6.01c-1.68,4.57-6.66,6.01-10.99,6.01
		c-0.88,0-4.57,0-7.3-1.92c-0.4-0.24-1.12-0.72-1.68-1.68c-0.96-1.44-1.2-2.49-1.36-4.17h6.82c0.08,0.08,0.24,0.64,0.48,0.96
		c1.12,1.68,3.21,1.68,3.69,1.68s2.57,0,3.61-1.6c0.64-0.96,0.72-2,0.72-4.33v-2c-0.4,0.4-0.72,0.72-1.2,1.12
		c-1.68,1.36-3.85,2-6.01,2c-0.96,0-2.89-0.08-5.05-1.44c-0.88-0.56-1.52-1.2-1.76-1.52c-0.96-1.12-2.65-3.77-2.65-7.7
		c0-1.28,0.08-4.65,2.57-7.54c1.04-1.2,3.29-3.29,7.38-3.29s5.69,2.08,6.74,3.45L120.06,11.26L120.06,11.26z M110.28,21.6
		c0,0.4,0,1.12,0.32,1.92c0.72,2,2.57,3.13,4.65,3.13c2.97,0,4.57-2.33,4.57-5.13c0-0.32,0-1.28-0.4-2.17
		c-0.4-0.88-1.68-2.73-4.41-2.73C112.13,16.63,110.28,18.79,110.28,21.6z"/>
	<path class="st12" d="M145.8,31.79V20.48c0-1.2-0.08-2.57-1.12-3.53c-0.88-0.72-1.76-0.72-2.08-0.72c-0.4,0-1.44,0.08-2.41,0.8
		c-1.52,1.12-1.68,2.81-1.68,4.41V31.7h-6.66V11.26h6.74v2.73c0.96-0.96,3.13-3.37,6.98-3.29c3.21,0,5.05,1.6,5.77,2.65
		c1.12,1.68,1.2,3.45,1.2,5.37v13.15L145.8,31.79L145.8,31.79z"/>
	<path class="st12" d="M163.2,22.88c0.16,0.72,0.32,1.44,0.64,2.08c0.8,1.52,2.33,2.41,4.09,2.41c2.57,0,3.85-2,4.17-2.65l5.45,2.57
		c-0.32,0.4-0.64,0.96-1.36,1.76c-2.25,2.33-5.21,3.37-8.42,3.37c-5.29,0-8.18-2.97-9.3-4.65c-0.64-0.96-1.68-3.21-1.68-6.33
		c0-1.04,0.08-2.97,1.2-5.29c0.48-1.04,1.52-2.89,4.09-4.41c0.88-0.48,2.81-1.44,5.53-1.44c1.52,0,2.65,0.32,3.21,0.4
		c4.89,1.36,6.5,5.13,6.98,6.82c0.4,1.52,0.4,3.21,0.4,5.21L163.2,22.88L163.2,22.88z M171.62,18.96c-0.08-0.56-0.56-2.57-2.33-3.53
		c-0.32-0.16-1.04-0.48-2-0.48c-0.88,0-2.57,0.32-3.61,2.33c-0.16,0.4-0.32,0.8-0.48,1.68C163.12,18.96,171.62,18.96,171.62,18.96z"
		/>
	<path class="st12" d="M190.15,11.26h3.77v4.97h-3.85v15.64h-6.74V16.15h-2.81v-4.97h2.81V3.8h6.74v7.46H190.15z"/>
</g>
<g class="st13">
	<path class="st12" d="M38.12,49.93v3.5h-0.9v-7.75h0.9v3.42h4.64v-3.42h0.9v7.75h-0.9v-3.5C42.77,49.93,38.12,49.93,38.12,49.93z"
		/>
	<path class="st12" d="M55.4,51.07c-0.16,0.49-0.49,0.9-0.82,1.31c-0.33,0.41-0.82,0.65-1.31,0.9c-0.49,0.24-1.06,0.33-1.71,0.33
		s-1.14-0.08-1.71-0.33c-0.49-0.24-0.98-0.49-1.31-0.9c-0.33-0.33-0.65-0.82-0.82-1.31c-0.16-0.49-0.33-0.98-0.33-1.55
		s0.08-1.06,0.33-1.55s0.49-0.9,0.82-1.31c0.33-0.41,0.82-0.65,1.31-0.9s1.06-0.33,1.71-0.33s1.14,0.08,1.71,0.33
		c0.49,0.24,0.98,0.49,1.31,0.9s0.65,0.82,0.82,1.31s0.33,0.98,0.33,1.55C55.73,50.09,55.57,50.58,55.4,51.07z M54.51,48.3
		c-0.16-0.41-0.41-0.73-0.65-0.98c-0.33-0.33-0.65-0.49-0.98-0.65c-0.41-0.16-0.82-0.24-1.31-0.24s-0.9,0.08-1.31,0.24
		s-0.73,0.41-0.98,0.65c-0.24,0.33-0.49,0.65-0.65,0.98c-0.16,0.41-0.24,0.82-0.24,1.22c0,0.41,0.08,0.9,0.24,1.22
		c0.16,0.41,0.41,0.73,0.65,0.98c0.24,0.24,0.65,0.49,0.98,0.65c0.41,0.16,0.82,0.24,1.31,0.24s0.9-0.08,1.31-0.24
		s0.73-0.41,0.98-0.65c0.24-0.33,0.49-0.65,0.65-0.98c0.16-0.33,0.24-0.82,0.24-1.22S54.67,48.7,54.51,48.3z"/>
	<path class="st12" d="M63.23,51.31L63.23,51.31l-3.02-4.15v6.28h-0.9v-7.75h0.9l2.93,4.24l2.93-4.24h0.9v7.75h-0.9v-6.28
		L63.23,51.31z"/>
	<path class="st12" d="M77,46.51h-4.97v2.61h4.4v0.82h-4.4v2.69H77v0.82h-5.87V45.7H77V46.51z"/>
	<path class="st12" d="M81.41,48.14c0.08,0.16,0.16,0.24,0.33,0.41c0.16,0.16,0.41,0.24,0.65,0.33s0.65,0.16,1.14,0.24
		c0.9,0.16,1.55,0.49,2.04,0.82c0.49,0.33,0.65,0.82,0.65,1.39c0,0.33-0.08,0.65-0.24,0.9c-0.16,0.24-0.33,0.49-0.57,0.73
		c-0.24,0.16-0.57,0.33-0.9,0.41c-0.33,0.08-0.73,0.16-1.14,0.16c-0.65,0-1.22-0.08-1.8-0.33c-0.57-0.16-1.06-0.49-1.55-0.9
		l0.57-0.65c0.41,0.41,0.82,0.65,1.31,0.82c0.41,0.16,0.9,0.24,1.47,0.24s0.98-0.08,1.31-0.33c0.33-0.24,0.49-0.57,0.49-0.98
		c0-0.16,0-0.33-0.08-0.49s-0.16-0.24-0.33-0.41c-0.16-0.08-0.41-0.24-0.65-0.33c-0.24-0.08-0.65-0.16-1.06-0.24
		c-0.49-0.08-0.9-0.24-1.22-0.33c-0.33-0.16-0.65-0.24-0.82-0.49c-0.24-0.16-0.41-0.41-0.49-0.65c-0.08-0.24-0.16-0.49-0.16-0.82
		c0-0.33,0.08-0.57,0.16-0.82c0.16-0.24,0.33-0.49,0.57-0.65s0.49-0.33,0.82-0.41c0.33-0.08,0.65-0.16,1.06-0.16
		c0.57,0,1.14,0.08,1.55,0.24s0.9,0.41,1.31,0.73l-0.57,0.65c-0.41-0.33-0.73-0.49-1.14-0.65c-0.41-0.16-0.82-0.16-1.22-0.16
		c-0.24,0-0.49,0-0.73,0.08c-0.24,0.08-0.41,0.16-0.57,0.24s-0.24,0.24-0.33,0.41c-0.08,0.16-0.08,0.33-0.08,0.49
		C81.33,47.81,81.33,47.97,81.41,48.14z"/>
	<path class="st12" d="M95.59,46.51H90.7v2.77h4.4v0.82h-4.4v3.34h-0.9V45.7h5.87v0.82L95.59,46.51L95.59,46.51z"/>
	<path class="st12" d="M102.52,53.44h-0.9v-3.02l-3.34-4.64h1.14l2.69,3.83l2.77-3.83h1.06l-3.34,4.64v3.02H102.52z"/>
	<path class="st12" d="M115.32,45.69v7.75h-0.98v-7.75H115.32z"/>
	<path class="st12" d="M125.35,45.69h0.9v7.75h-0.73l-5.22-6.36v6.36h-0.9v-7.75h0.9l5.13,6.2v-6.2
		C125.43,45.69,125.35,45.69,125.35,45.69z"/>
	<path class="st12" d="M131.3,45.69v7.75h-0.9v-7.75C130.4,45.69,131.3,45.69,131.3,45.69z"/>
	<path class="st12" d="M138.39,53.44h-0.9v-6.93h-2.69v-0.82h6.36v0.82h-2.69v6.93H138.39z"/>
	<path class="st12" d="M145.56,45.69v7.75h-0.9v-7.75H145.56z"/>
	<path class="st12" d="M157.21,53.44h-0.98l-0.98-2.04h-4.4l-0.98,2.04h-0.98l3.66-7.83h0.9L157.21,53.44z M153.06,46.67l-1.88,3.91
		h3.66L153.06,46.67z"/>
	<path class="st12" d="M162.59,53.44h-0.98v-6.93h-2.69v-0.82h6.36v0.82h-2.69V53.44L162.59,53.44z"/>
	<path class="st12" d="M169.77,45.69v7.75h-0.9v-7.75C168.87,45.69,169.77,45.69,169.77,45.69z"/>
	<path class="st12" d="M179.96,45.69h0.98l-3.5,7.83h-0.82l-3.5-7.83h1.06l2.85,6.69L179.96,45.69z"/>
	<path class="st12" d="M190.15,46.51h-4.97v2.61h4.4v0.82h-4.4v2.69h4.97v0.82h-5.95V45.7h5.87v0.82
		C190.07,46.51,190.15,46.51,190.15,46.51z"/>
</g>
<g class="st13">
	<path class="st12" d="M204.98,6.53h-2.08v5.53h-1.68V6.53h-2v-1.2h5.69v1.2C204.91,6.53,204.98,6.53,204.98,6.53z"/>
	<path class="st12" d="M207.79,5.32l1.52,4.73l1.52-4.73H213v6.82h-1.68v-1.6l0.16-3.29l-1.68,4.89h-1.12L207,7.25l0.16,3.29v1.6
		h-1.68V5.32H207.79z"/>
</g>
</svg>
