<?xml version="1.0" standalone="no"?>
<!DOCTYPE svg PUBLIC "-//W3C//DTD SVG 20010904//EN"
 "http://www.w3.org/TR/2001/REC-SVG-20010904/DTD/svg10.dtd">
<svg version="1.0" xmlns="http://www.w3.org/2000/svg"
 width="807.000000pt" height="807.000000pt" viewBox="0 0 807.000000 807.000000"
 preserveAspectRatio="xMidYMid meet">
<metadata>
Created by potrace 1.11, written by Peter Selinger 2001-2013
</metadata>
<g transform="translate(0.000000,807.000000) scale(0.100000,-0.100000)"
fill="#000000" stroke="none">
<path d="M3005 5709 c-555 -313 -1052 -597 -1104 -631 -122 -81 -206 -159
-237 -220 -51 -101 -55 -146 -52 -592 3 -394 4 -412 24 -446 11 -19 31 -41 45
-47 34 -18 165 -16 227 2 28 9 362 137 742 285 380 149 700 270 711 270 29 0
39 -39 31 -127 -7 -77 -7 -78 -43 -96 -20 -9 -238 -89 -485 -176 -247 -88
-631 -225 -854 -304 l-405 -145 -3 -297 -2 -298 27 6 c58 12 2085 637 2128
656 63 28 139 102 166 164 l24 52 3 537 c2 345 -1 551 -7 575 -18 67 -64 128
-115 153 -60 29 -167 30 -246 1 -30 -10 -255 -110 -500 -221 -245 -111 -539
-245 -653 -297 -115 -52 -218 -93 -230 -91 -20 3 -22 10 -25 80 -2 64 0 80 15
94 14 12 1099 625 1784 1006 l66 37 884 -483 c486 -266 899 -497 917 -514 33
-31 33 -32 30 -113 -3 -69 -6 -84 -23 -95 -23 -15 16 -31 -860 353 -275 121
-525 229 -555 239 -37 12 -84 19 -142 19 -83 0 -88 -1 -118 -30 -60 -57 -60
-61 -60 -785 l0 -657 23 -44 c21 -40 47 -58 276 -201 139 -87 255 -158 257
-158 2 0 5 253 6 561 3 549 3 562 23 575 18 11 99 -18 715 -256 427 -165 719
-273 756 -279 112 -18 171 10 216 99 46 90 50 141 46 549 -4 349 -5 380 -25
438 -11 34 -32 82 -46 106 -55 93 27 46 -1525 883 -441 239 -806 434 -810 433
-4 0 -461 -256 -1017 -570z"/>
<path d="M204 2721 c-52 -13 -112 -53 -140 -93 -46 -66 -43 -168 8 -233 28
-36 119 -80 218 -105 137 -35 173 -64 150 -120 -28 -67 -145 -67 -197 0 -7 8
-15 28 -19 44 l-6 29 -107 -8 c-58 -3 -107 -8 -108 -9 -9 -9 15 -86 41 -128
34 -58 78 -92 140 -110 54 -16 250 -16 303 0 64 19 124 70 156 131 l27 55 0
-97 0 -97 104 0 105 0 3 171 3 171 28 24 c34 29 70 31 97 4 18 -18 20 -33 20
-195 l0 -175 105 0 105 0 0 51 0 52 23 -33 c38 -58 80 -75 178 -75 77 1 91 4
141 32 l56 32 12 -29 12 -30 95 0 c94 0 95 0 88 23 -4 12 -11 105 -14 207 -8
216 -18 247 -92 290 -41 23 -53 25 -189 25 -136 0 -149 -2 -194 -25 -55 -28
-83 -60 -92 -106 l-6 -32 95 -7 c96 -7 96 -7 119 20 33 38 106 47 137 16 45
-45 19 -60 -174 -101 -112 -24 -161 -49 -180 -93 -11 -27 -13 -17 -17 95 -3
116 -6 129 -30 166 -53 80 -179 96 -278 34 l-50 -31 0 129 0 130 -105 0 -105
0 0 -222 0 -223 -21 43 c-37 75 -91 105 -271 152 -60 16 -116 34 -124 41 -37
30 4 84 65 84 47 0 89 -27 103 -66 l10 -29 106 7 c59 3 108 7 109 8 2 1 -4 26
-13 56 -21 69 -74 122 -146 144 -54 16 -226 19 -284 6z m1423 -533 c-8 -56
-42 -89 -101 -95 -54 -7 -76 7 -76 47 0 35 15 48 87 70 91 29 97 27 90 -22z"/>
<path d="M4730 2365 l0 -365 115 0 115 0 0 135 0 135 85 0 c46 0 107 5 134 11
57 12 126 58 143 95 7 14 14 20 18 14 9 -15 193 -36 197 -23 11 33 33 46 85
51 59 5 88 -11 88 -48 0 -22 -21 -29 -177 -64 -129 -29 -163 -44 -188 -83 -27
-40 -26 -123 1 -159 40 -54 70 -68 150 -72 87 -5 154 11 195 46 l29 24 11 -31
11 -31 95 0 c87 0 94 1 87 18 -4 9 -10 103 -14 207 -4 152 -9 196 -23 222 -40
75 -113 98 -293 91 -103 -3 -125 -7 -164 -28 -26 -15 -53 -40 -65 -62 l-21
-36 4 69 c6 94 -3 133 -41 176 -59 68 -83 73 -344 73 l-233 0 0 -365z m377
193 c23 -21 30 -59 17 -93 -10 -25 -59 -45 -114 -45 l-50 0 0 80 0 80 62 0
c50 0 66 -4 85 -22z m603 -346 c0 -63 -52 -112 -119 -112 -54 0 -82 58 -43 92
14 13 124 53 155 57 4 1 7 -16 7 -37z"/>
<path d="M5940 2365 l0 -365 105 0 105 0 0 365 0 365 -105 0 -105 0 0 -365z"/>
<path d="M6190 2365 l0 -365 105 0 105 0 1 123 c1 93 3 112 9 80 12 -59 32
-93 83 -140 62 -57 126 -76 241 -71 77 3 99 8 145 33 61 33 94 72 121 142 l19
48 1 -107 0 -108 99 0 99 0 3 159 c4 143 6 162 25 188 34 45 101 44 122 -2 8
-16 12 -85 12 -185 l0 -160 101 0 100 0 -3 219 c-3 205 -4 222 -24 248 -39 53
-81 73 -151 73 -71 0 -110 -15 -160 -63 l-33 -31 0 42 0 42 -95 0 -95 0 0
-107 -1 -108 -19 48 c-27 70 -60 109 -121 142 -46 25 -68 30 -145 33 -114 5
-179 -14 -240 -70 -47 -43 -71 -87 -83 -151 -6 -28 -9 34 -10 186 l-1 227
-105 0 -105 0 0 -365z m572 24 c50 -27 66 -160 26 -219 -30 -44 -66 -55 -112
-36 -43 18 -66 63 -66 130 0 55 12 88 41 115 25 23 77 28 111 10z"/>
<path d="M7620 2660 l0 -70 100 0 100 0 0 70 0 70 -100 0 -100 0 0 -70z"/>
<path d="M7860 2665 l0 -65 105 0 105 0 0 65 0 65 -105 0 -105 0 0 -65z"/>
<path d="M4050 2650 l0 -70 100 0 100 0 0 70 0 70 -100 0 -100 0 0 -70z"/>
<path d="M4290 2650 l0 -70 105 0 105 0 0 70 0 70 -105 0 -105 0 0 -70z"/>
<path d="M2156 2520 c-16 -5 -44 -24 -63 -42 l-33 -32 0 37 0 37 -95 0 -95 0
0 -370 0 -370 100 0 100 0 0 124 0 125 43 -25 c119 -66 258 -23 315 98 l19 42
16 -29 c58 -112 218 -169 367 -131 81 21 132 55 172 118 l32 49 14 -28 c60
-118 219 -178 372 -139 107 28 173 88 204 187 14 43 14 42 15 -73 l1 -118 99
0 99 0 4 148 c6 204 30 252 118 238 37 -6 38 -5 61 47 l23 52 4 -55 c2 -30 2
-144 0 -253 -3 -183 -5 -200 -22 -213 -11 -8 -32 -14 -46 -14 -25 0 -27 -5
-38 -64 -7 -35 -12 -68 -12 -75 0 -7 37 -11 119 -11 114 0 121 1 150 26 17 14
35 42 41 62 6 22 10 166 10 345 l0 308 -112 0 c-62 -1 -139 2 -171 5 -58 7
-58 6 -97 -35 l-40 -42 0 36 0 35 -95 0 -95 0 0 -112 0 -113 -25 59 c-45 110
-125 164 -255 173 -141 10 -246 -35 -300 -130 l-28 -50 -20 39 c-44 85 -127
133 -242 141 -141 10 -246 -35 -299 -129 l-29 -50 -11 35 c-18 53 -85 125
-129 137 -44 12 -105 12 -146 0z m623 -145 c35 -17 56 -65 56 -125 0 -83 -43
-140 -104 -140 -35 0 -82 51 -91 98 -11 64 3 122 39 154 35 31 59 35 100 13z
m590 0 c35 -17 56 -65 56 -125 0 -83 -43 -140 -104 -140 -35 0 -82 51 -91 98
-11 64 3 122 39 154 35 31 59 35 100 13z m-1147 -25 c20 -25 33 -97 23 -139
-10 -49 -42 -81 -79 -81 -44 0 -73 24 -87 69 -13 43 -5 116 14 142 33 43 97
47 129 9z"/>
<path d="M7618 2249 c-3 -267 -4 -281 -23 -295 -11 -9 -30 -13 -42 -11 -24 4
-24 6 -43 -82 -15 -65 -13 -67 81 -76 115 -12 180 12 210 78 17 38 19 69 19
355 l0 312 -100 0 -99 0 -3 -281z"/>
<path d="M7860 2265 l0 -265 105 0 105 0 0 265 0 265 -105 0 -105 0 0 -265z"/>
<path d="M4290 2250 l0 -270 105 0 105 0 0 270 0 270 -105 0 -105 0 0 -270z"/>
</g>
</svg>
