<?xml version="1.0" encoding="utf-8"?>
<!-- Generator: Adobe Illustrator 23.0.3, SVG Export Plug-In . SVG Version: 6.00 Build 0)  -->
<svg version="1.1" id="Layer_1" xmlns="http://www.w3.org/2000/svg" xmlns:xlink="http://www.w3.org/1999/xlink" x="0px" y="0px"
	 viewBox="0 0 59 72.5" style="enable-background:new 0 0 59 72.5;" xml:space="preserve">
<style type="text/css">
	.st0{fill:#BD9234;}
</style>
<title>22_realestate_construction_plan</title>
<g>
	<path class="st0" d="M6.5,20.6V63h46V7H20.1L6.5,20.6z M9.9,20l9.6-9.6V20H9.9z M50.5,61h-42V22h4v19h17v-5h-2v3h-13V29h13v4h2v-6
		h-15v-5h7v-7h6v9h2v-2h3v-2h-3v-5h15v10h-5v-5h-4v2h2v6h-4v5h2v-3h4v-3h5v12h-9v-3h-2v5h13V13h-25V9h29V61z"/>
	<rect x="12.5" y="47" class="st0" width="18" height="2"/>
	<rect x="20.5" y="51" class="st0" width="18" height="2"/>
	<rect x="28.5" y="55" class="st0" width="13" height="2"/>
	<rect x="43.5" y="55" class="st0" width="3" height="2"/>
	<rect x="12.5" y="55" class="st0" width="14" height="2"/>
	<rect x="12.5" y="51" class="st0" width="6" height="2"/>
	<rect x="40.5" y="51" class="st0" width="6" height="2"/>
	<rect x="32.5" y="47" class="st0" width="14" height="2"/>
</g>
</svg>
