<?xml version="1.0" encoding="utf-8"?>
<!-- Generator: Adobe Illustrator 23.0.3, SVG Export Plug-In . SVG Version: 6.00 Build 0)  -->
<svg version="1.1" id="Layer_1" xmlns="http://www.w3.org/2000/svg" xmlns:xlink="http://www.w3.org/1999/xlink" x="0px" y="0px"
	 viewBox="0 0 100 103.8" style="enable-background:new 0 0 100 103.8;" xml:space="preserve">
<style type="text/css">
	.st0{fill-rule:evenodd;clip-rule:evenodd;fill:#BD9234;}
</style>
<g>
	<path d="M59.3,94.2H47c-0.4,0-0.8,0.3-0.8,0.8s0.3,0.8,0.8,0.8h12.3c0.4,0,0.8-0.3,0.8-0.8S59.7,94.2,59.3,94.2z"/>
	<path d="M24.5,94.2H12.2c-0.4,0-0.8,0.3-0.8,0.8s0.3,0.8,0.8,0.8h12.3c0.4,0,0.8-0.3,0.8-0.8S24.9,94.2,24.5,94.2z"/>
	<path d="M41.9,94.2h-2.1v-5.3c0-0.4-0.3-0.8-0.8-0.8c-0.4,0-0.8,0.3-0.8,0.8v5.3h-8.7c-0.4,0-0.8,0.3-0.8,0.8s0.3,0.8,0.8,0.8h12.3
		c0.4,0,0.8-0.3,0.8-0.8S42.3,94.2,41.9,94.2z"/>
	<path d="M23.1,20.6c0-0.4-0.3-0.8-0.8-0.8H10c-0.4,0-0.8,0.3-0.8,0.8c0,0.4,0.3,0.8,0.8,0.8h12.3C22.7,21.4,23.1,21,23.1,20.6z"/>
	<path d="M1.9,48.4c0.4,0,0.8-0.3,0.8-0.8V35.3c0-0.4-0.3-0.8-0.8-0.8s-0.8,0.3-0.8,0.8v12.3C1.1,48,1.5,48.4,1.9,48.4z"/>
	<path d="M1.9,65.8c0.4,0,0.8-0.3,0.8-0.8V52.7c0-0.4-0.3-0.8-0.8-0.8s-0.8,0.3-0.8,0.8V65C1.1,65.4,1.5,65.8,1.9,65.8z"/>
	<path d="M7.1,94.2H2.7c-0.1,0-0.1-0.1-0.1-0.1v-6.5c0-0.4-0.3-0.8-0.8-0.8s-0.8,0.3-0.8,0.8v6.5c0,0.9,0.7,1.6,1.6,1.6h4.4
		c0.4,0,0.8-0.3,0.8-0.8S7.5,94.2,7.1,94.2z"/>
	<path d="M1.9,83.2c0.4,0,0.8-0.3,0.8-0.8V70.1c0-0.4-0.3-0.8-0.8-0.8s-0.8,0.3-0.8,0.8v12.3C1.1,82.8,1.5,83.2,1.9,83.2z"/>
	<path d="M76.2,93.3c-0.4,0-0.8,0.4-0.8,0.8c0,0.1-0.1,0.1-0.1,0.1H64.4c-0.4,0-0.8,0.3-0.8,0.8s0.3,0.8,0.8,0.8h10.9
		c0.9,0,1.6-0.7,1.6-1.6v0C76.9,93.6,76.6,93.3,76.2,93.3z"/>
	<path d="M76.2,58.5c-0.4,0-0.8,0.3-0.8,0.8v12.3c0,0.4,0.3,0.8,0.8,0.8s0.8-0.3,0.8-0.8V59.2C76.9,58.8,76.6,58.5,76.2,58.5z"/>
	<path d="M76.2,75.9c-0.4,0-0.8,0.3-0.8,0.8v12.3c0,0.4,0.3,0.8,0.8,0.8s0.8-0.3,0.8-0.8V76.6C76.9,76.2,76.6,75.9,76.2,75.9z"/>
	<path d="M1.9,31c0.4,0,0.8-0.3,0.8-0.8v-8.7c0-0.1,0.1-0.1,0.1-0.1h2.2c0.4,0,0.8-0.3,0.8-0.8c0-0.4-0.3-0.8-0.8-0.8H2.7
		c-0.9,0-1.6,0.7-1.6,1.6v8.7C1.1,30.6,1.5,31,1.9,31z"/>
	<path d="M76.2,23.7c-0.4,0-0.8,0.3-0.8,0.8v12.3c0,0.4,0.3,0.8,0.8,0.8s0.8-0.3,0.8-0.8V24.5C76.9,24,76.6,23.7,76.2,23.7z"/>
	<path d="M76.2,41.1c-0.4,0-0.8,0.3-0.8,0.8v12.3c0,0.4,0.3,0.8,0.8,0.8s0.8-0.3,0.8-0.8V41.8C76.9,41.4,76.6,41.1,76.2,41.1z"/>
	<path d="M75.2,20.6c0-0.4-0.3-0.8-0.8-0.8H62.2c-0.4,0-0.8,0.3-0.8,0.8c0,0.4,0.3,0.8,0.8,0.8h12.3C74.9,21.4,75.2,21,75.2,20.6z"
		/>
	<path d="M31.2,21.4c0,0.4,0.2,0,0.6,0s0.4,0.4,0.4,0h0.2h5.3h2c0.1,0,0.2,0,0.3-0.1c0.1,0,0.2,0.1,0.3,0.1h4.5h0.8l0.3,0.3
		c0,0.4,0.1-0.6,0.5-0.6c0.4,0,0.5,0.9,0.5,0.5l0.2-0.2h10c0.4,0,0.8-0.3,0.8-0.8c0-0.4-0.3-0.8-0.8-0.8H46.4h-1.5h-4.5
		c-0.1,0-0.2,0-0.3,0.1c-0.1,0-0.2-0.1-0.3-0.1h-2h-6h-4.2c-0.4,0-0.8,0.3-0.8,0.8c0,0.4,0.3,0.8,0.8,0.8h3.5
		C30.9,21.4,31.2,21.4,31.2,21.4z"/>
</g>
<path d="M91.3,51c0-0.4-0.3-0.8-0.8-0.8s-0.8,0.3-0.8,0.8v13.4c0,0.4,0.3,0.8,0.8,0.8s0.8-0.3,0.8-0.8V51z"/>
<path d="M90.6,69.1c-0.4,0-0.8,0.3-0.8,0.8v13.4c0,0.4,0.3,0.8,0.8,0.8s0.8-0.3,0.8-0.8V69.9C91.3,69.5,91,69.1,90.6,69.1z"/>
<path d="M91.3,32c0-0.4-0.3-0.7-0.8-0.7s-0.8,0.3-0.8,0.7v13.4c0,0.4,0.3,0.8,0.8,0.8s0.8-0.3,0.8-0.8V32z"/>
<path d="M84.9,28c0.2,0,0.4-0.1,0.6-0.3l4.3-5.2v3.9c0,0.4,0.3,0.8,0.8,0.8s0.8-0.3,0.8-0.8v-3.9l4.3,5.2c0.1,0.2,0.4,0.3,0.6,0.3
	c0.2,0,0.3-0.1,0.5-0.2c0.3-0.3,0.4-0.7,0.1-1.1L91.1,20c0,0,0,0,0,0c0,0,0,0,0,0c0,0,0,0,0,0c0,0,0,0-0.1,0c0,0-0.1,0-0.1-0.1
	c0,0,0,0-0.1,0c0,0-0.1,0-0.1,0c0,0-0.1,0-0.1,0c0,0,0,0,0,0c0,0,0,0,0,0c0,0-0.1,0-0.1,0c0,0-0.1,0-0.1,0c0,0,0,0-0.1,0
	c0,0-0.1,0-0.1,0.1c0,0,0,0-0.1,0c0,0,0,0,0,0c0,0,0,0,0,0c0,0,0,0,0,0l-5.7,6.7c-0.3,0.3-0.2,0.8,0.1,1.1
	C84.5,27.9,84.7,28,84.9,28z"/>
<path d="M95.7,87.6l-4.3,5.2v-3.9c0-0.4-0.3-0.8-0.8-0.8s-0.8,0.3-0.8,0.8v3.9l-4.3-5.2c-0.3-0.3-0.7-0.4-1.1-0.1
	c-0.3,0.3-0.4,0.7-0.1,1.1l5.7,6.7c0,0,0,0,0,0c0,0,0,0,0,0c0,0,0,0,0,0c0,0,0.1,0,0.1,0.1c0,0,0,0,0,0c0,0,0,0,0.1,0c0,0,0,0,0,0
	c0.1,0,0.2,0.1,0.3,0.1s0.2,0,0.3-0.1c0,0,0,0,0,0c0,0,0,0,0.1,0c0,0,0,0,0,0c0,0,0.1,0,0.1-0.1c0,0,0,0,0,0c0,0,0,0,0,0
	c0,0,0,0,0,0l5.7-6.7c0.3-0.3,0.2-0.8-0.1-1.1C96.4,87.2,95.9,87.2,95.7,87.6z"/>
<path d="M34.3,9.6h13.4c0.4,0,0.8-0.3,0.8-0.8S48,8.1,47.6,8.1H34.3c-0.4,0-0.8,0.3-0.8,0.8S33.8,9.6,34.3,9.6z"/>
<path d="M15.3,9.6h13.4c0.4,0,0.8-0.3,0.8-0.8s-0.3-0.8-0.8-0.8H15.3c-0.4,0-0.8,0.3-0.8,0.8S14.9,9.6,15.3,9.6z"/>
<path d="M53.2,9.6h13.4c0.4,0,0.8-0.3,0.8-0.8s-0.3-0.8-0.8-0.8H53.2c-0.4,0-0.8,0.3-0.8,0.8S52.8,9.6,53.2,9.6z"/>
<path d="M11,13.9L5.8,9.6h3.9c0.4,0,0.8-0.3,0.8-0.8s-0.3-0.8-0.8-0.8H5.8L11,3.7c0.3-0.3,0.4-0.7,0.1-1.1c-0.3-0.3-0.7-0.4-1.1-0.1
	L3.3,8.3c0,0,0,0,0,0c0,0,0,0,0,0c0,0,0,0,0,0c0,0,0,0.1,0,0.1c0,0,0,0.1-0.1,0.1c0,0,0,0,0,0.1c0,0,0,0.1,0,0.1c0,0,0,0.1,0,0.1
	c0,0,0,0,0,0s0,0,0,0c0,0,0,0.1,0,0.1c0,0,0,0.1,0,0.1c0,0,0,0,0,0.1c0,0,0,0.1,0.1,0.1c0,0,0,0.1,0,0.1c0,0,0,0,0,0c0,0,0,0,0,0
	c0,0,0,0,0,0l6.7,5.7c0.1,0.1,0.3,0.2,0.5,0.2c0.2,0,0.4-0.1,0.6-0.3C11.4,14.7,11.3,14.2,11,13.9z"/>
<path d="M78.8,8.7c0,0,0-0.1,0-0.1c0,0,0,0,0-0.1c0,0,0-0.1-0.1-0.1c0,0,0-0.1,0-0.1c0,0,0,0,0,0c0,0,0,0,0,0c0,0,0,0,0,0l-6.7-5.7
	c-0.3-0.3-0.8-0.2-1.1,0.1c-0.3,0.3-0.2,0.8,0.1,1.1L76,8.1h-3.9c-0.4,0-0.8,0.3-0.8,0.8s0.3,0.8,0.8,0.8H76l-5.2,4.3
	c-0.3,0.3-0.4,0.7-0.1,1.1c0.1,0.2,0.4,0.3,0.6,0.3c0.2,0,0.3-0.1,0.5-0.2l6.7-5.7c0,0,0,0,0,0c0,0,0,0,0,0c0,0,0,0,0,0
	c0,0,0-0.1,0-0.1c0,0,0-0.1,0.1-0.1c0,0,0,0,0-0.1c0,0,0-0.1,0-0.1c0,0,0-0.1,0-0.1c0,0,0,0,0,0s0,0,0,0C78.8,8.8,78.8,8.7,78.8,8.7
	z"/>
<path class="st0" d="M22.6,60.4h-7.8c-0.5,0-0.9-0.4-0.9-0.9v-7.8h-0.9c-0.5,0-0.9-0.4-0.9-0.9s0.4-0.9,0.9-0.9H14v-7.8
	c0-0.5,0.4-0.9,0.9-0.9h7.8v-7.8c0-0.5,0.4-0.9,0.9-0.9h39.6c0.5,0,0.9,0.4,0.9,0.9v47.4h2.6c0.5,0,0.9,0.4,0.9,0.9
	c0,0.5-0.4,0.9-0.9,0.9H11.4c-0.5,0-0.9-0.4-0.9-0.9c0-0.5,0.4-0.9,0.9-0.9h11.2V60.4z M43.3,81.1h19V34.5H24.4v6.9h18.1
	c0.5,0,0.9,0.4,0.9,0.9V50h0.9c0.5,0,0.9,0.4,0.9,0.9s-0.4,0.9-0.9,0.9h-0.9v7.8c0,0.5-0.4,0.9-0.9,0.9H24.4v20.7h6.9V66.4
	c0-0.5,0.4-0.9,0.9-0.9h10.3c0.5,0,0.9,0.4,0.9,0.9V81.1z M15.8,51.8v6.9h25.9v-6.9H15.8z M15.8,43.1V50h25.9v-6.9H15.8z M33,81.1
	h8.6V67.3H33V81.1z M56.3,41.4c0.5,0,0.9,0.4,0.9,0.9v6.9c0,0.5-0.4,0.9-0.9,0.9h-6.9c-0.5,0-0.9-0.4-0.9-0.9v-6.9
	c0-0.5,0.4-0.9,0.9-0.9H56.3z M55.4,43.1h-5.2v5.2h5.2V43.1z M56.3,53.5c0.5,0,0.9,0.4,0.9,0.9v6.9c0,0.5-0.4,0.9-0.9,0.9h-6.9
	c-0.5,0-0.9-0.4-0.9-0.9v-6.9c0-0.5,0.4-0.9,0.9-0.9H56.3z M55.4,55.2h-5.2v5.2h5.2V55.2z M56.3,65.5c0.5,0,0.9,0.4,0.9,0.9v6.9
	c0,0.5-0.4,0.9-0.9,0.9h-6.9c-0.5,0-0.9-0.4-0.9-0.9v-6.9c0-0.5,0.4-0.9,0.9-0.9H56.3z M55.4,67.3h-5.2v5.2h5.2V67.3z"/>
</svg>
