<?xml version="1.0" encoding="utf-8"?>
<!-- Generator: Adobe Illustrator 23.0.3, SVG Export Plug-In . SVG Version: 6.00 Build 0)  -->
<svg version="1.1" id="Layer_1" xmlns="http://www.w3.org/2000/svg" xmlns:xlink="http://www.w3.org/1999/xlink" x="0px" y="0px"
	 viewBox="0 0 128 135.6" style="enable-background:new 0 0 128 135.6;" xml:space="preserve">
<style type="text/css">
	.st0{fill:#BD9234;}
</style>
<title>Miscellaneous 83 solid</title>
<g>
	<path d="M94.8,17.4c0.8-1.1,1.8-2,2.8-2.8l-4.4-4.4c-0.8-0.8-2-0.8-2.8,0c-0.8,0.8-0.8,2,0,2.8c0,0,0,0,0,0L94.8,17.4z"/>
	<path d="M114.4,37l4.4,4.4c0.8,0.8,2,0.8,2.8,0s0.8-2,0-2.8c0,0,0,0,0,0l-4.4-4.4C116.4,35.2,115.5,36.2,114.4,37z"/>
	<path d="M120,25.8c0,0.7-0.1,1.3-0.2,2h6.2c1.1,0,2-0.9,2-2c0-1.1-0.9-2-2-2h-6.2C120,24.4,120,25.1,120,25.8z"/>
	<path d="M86,27.8h6.2c-0.1-0.7-0.2-1.3-0.2-2c0-0.7,0.1-1.3,0.2-2H86c-1.1,0-2,0.9-2,2C84,26.9,84.9,27.8,86,27.8z"/>
	<path d="M90.5,38.5c-0.8,0.8-0.8,2,0,2.8s2,0.8,2.8,0c0,0,0,0,0,0l4.4-4.4c-1.1-0.8-2-1.8-2.8-2.8L90.5,38.5z"/>
	<path d="M117.2,17.4l4.4-4.4c0.8-0.8,0.8-2,0-2.8c-0.8-0.8-2-0.8-2.8,0c0,0,0,0,0,0l-4.4,4.4C115.5,15.4,116.4,16.3,117.2,17.4z"/>
	<path d="M108,11.9V5.8c0-1.1-0.9-2-2-2c-1.1,0-2,0.9-2,2c0,0,0,0,0,0v6.2C105.3,11.7,106.7,11.7,108,11.9z"/>
	<path d="M104,39.6v6.2c0,1.1,0.9,2,2,2s2-0.9,2-2c0,0,0,0,0,0v-6.2C106.7,39.8,105.3,39.8,104,39.6z"/>
	<path class="st0" d="M106,35.8c5.5,0,10-4.5,10-10s-4.5-10-10-10s-10,4.5-10,10c0,0,0,0,0,0C96,31.3,100.5,35.8,106,35.8z"/>
	<path class="st0" d="M126,103.8h-8.7c1.2-2.3,0.8-5.1-1.1-7l-17.5-18c-1.5-1.5-3.9-1.6-5.5-0.2L83.2,87c-3.4-3.8-11.9-13.1-12-13.2
		c-1.9-2.2-4.5-3.5-7.3-3.9c-0.2,1.4-0.6,2.7-1.2,3.9c0,0,0.1,0,0.1,0c2.1,0.1,4,1.1,5.4,2.7c0.5,0.5,12,13.2,13.4,14.7
		c0.7,0.8,1.9,0.9,2.8,0.2l11.6-9.8l17.5,18c0.7,0.6,0.8,1.7,0.3,2.5c-0.3,0.5-0.8,0.8-1.4,0.9c-0.6,0.1-1.1-0.1-1.5-0.6L98.3,89.8
		c-1.5-1.5-3.9-1.6-5.5-0.2l-15.6,14c-1.6,0.2-6.8,0.5-9.3-2.4L56.1,87.8c-1.6-1.8-2.3-4.3-1.9-6.7c-1.3,0.4-2.7,0.6-4.1,0.6
		c-0.2,3.2,0.9,6.3,3,8.7l11.7,13.3H57L23.6,60.6c-0.7-0.9-1.9-1-2.8-0.4c-0.9,0.7-1,1.9-0.4,2.8c0,0,0,0,0,0l14.4,18.6l-12.9,22.2
		H2c-1.1,0-2,0.9-2,2c0,1.1,0.9,2,2,2h24.5l-12.2,21c-0.6,1-0.2,2.2,0.7,2.7c1,0.6,2.2,0.2,2.7-0.7c0,0,0,0,0,0l13.4-23h65.7
		l13.4,23c0.6,1,1.8,1.3,2.7,0.7c1-0.6,1.3-1.8,0.7-2.7c0,0,0,0,0,0l-12.2-21H126c1.1,0,2-0.9,2-2C128,104.7,127.1,103.8,126,103.8z
		 M26.5,103.8L37.5,85L52,103.8H26.5z M83,103.8l12.4-11.1l11.1,11.1H83z"/>
	<path d="M50.5,57.8c-5.5-0.3-10.2,4-10.5,9.5c-0.3,5.5,4,10.2,9.5,10.5c0.2,0,0.3,0,0.5,0c5.5,0,10-4.5,10-10
		C60,62.5,55.9,58.1,50.5,57.8z"/>
	<path class="st0" d="M3.9,60.8c0.5,1,1.7,1.3,2.7,0.8c0.5-0.3,0.8-0.7,0.9-1.2c0,0,0-0.1,0-0.1c0-0.1,0-0.1,0-0.2
		c0-0.1,0-0.2,0-0.3c0-0.1,0-0.2,0-0.3c-0.7-4,1.3-8.4,5.1-11c2.2-1.6,5-2.3,7.7-1.9c1.5,0.2,2.8,0.9,3.9,1.9
		c0.7,0.6,1.7,0.7,2.5,0.2l0.1,0c0.3-0.2,0.5-0.3,0.7-0.6c0.2-0.2,0.4-0.5,0.5-0.9c0-0.2,0.1-0.3,0.1-0.5c0,0,0,0,0-0.1
		c0-0.2,0-0.4-0.1-0.6c-0.2-0.7-0.4-1.4-0.4-2.1l0,0c0-0.2,0-0.5,0-0.7c0.1-3.1,1.5-6,3.8-8l11.9,20.2c1.2-0.6,2.5-1.1,3.8-1.4
		l-12.4-21c1.3-0.6,2.7-0.9,4.2-1c0.4,0,0.9,0,1.3,0.1c0.4,0.1,0.8,0.1,1.3,0.3c0,0,0,0,0,0c0.4,0.1,0.7,0.2,1.1,0.4
		c0.1,0,0.1,0.1,0.2,0.1c0.3,0.2,0.6,0.3,0.9,0.6c0.1,0,0.1,0.1,0.2,0.2c0.3,0.2,0.5,0.4,0.8,0.7c0,0,0,0,0.1,0.1
		c0.7,0.7,1.8,0.8,2.6,0.3l0.1,0c0.1-0.1,0.2-0.1,0.3-0.2c0,0,0.1,0,0.1,0c0.1-0.1,0.2-0.2,0.3-0.3c0.1-0.1,0.2-0.3,0.3-0.5
		c0,0,0-0.1,0.1-0.1c0-0.1,0.1-0.2,0.1-0.2c0.1-0.2,0.1-0.3,0.1-0.5c0,0,0,0,0,0c0-0.2,0-0.4-0.1-0.6c-1.4-4.1,0.7-9.2,4.9-12
		c2.7-2,6.2-2.5,9.4-1.4c0.6,0.3,1.3,0.6,1.8,1c0.1,0.1,0.2,0.1,0.3,0.2c0.2,0.1,0.4,0.2,0.7,0.2c0.1,0,0.1,0,0.2,0
		c1,0,1.8-0.6,2-1.6c0.1-0.5,0-1.1-0.3-1.5c-3.3-4.9-7.9-8.7-13.4-10.9c-1.9-0.8-3.8-1.3-5.8-1.7c-5.2-1-10.6-0.8-15.8,0.5
		c-4.9,1.2-9.4,3.3-13.6,6.1C2.4,22.4-4.4,42.8,2.9,58.6C3.2,59.3,3.6,60.1,3.9,60.8z M16.7,18.1c1.5-1.3,3-2.6,4.7-3.7
		c1.5-1,3.1-1.9,4.7-2.7c4.7,1.4,11.4,5.1,18.7,14.9c-0.2,0.9-0.3,1.7-0.3,2.6c-1.1-0.5-2.2-0.8-3.4-0.9
		C32.1,16.6,24.6,15,21.6,14.9c-1.2,2.9-3.1,10.8,2.9,24.2c-0.4,1.4-0.7,2.8-0.7,4.2c-0.7-0.3-1.3-0.5-2-0.6
		C16.3,31.4,15.9,23.2,16.7,18.1z"/>
</g>
</svg>
