<?xml version="1.0" encoding="utf-8"?>
<!-- Generator: Adobe Illustrator 23.0.3, SVG Export Plug-In . SVG Version: 6.00 Build 0)  -->
<svg version="1.1" id="Layer_1" xmlns="http://www.w3.org/2000/svg" xmlns:xlink="http://www.w3.org/1999/xlink" x="0px" y="0px"
	 viewBox="0 0 100 102" style="enable-background:new 0 0 100 102;" xml:space="preserve">
<style type="text/css">
	.st0{fill:#BD9234;}
</style>
<path class="st0" d="M50,6C25.2,6,5,26.2,5,51s20.2,45,45,45s45-20.2,45-45S74.8,6,50,6z M87.4,65.1l-5.7-2.4l8.1-7.5
	C89.4,58.7,88.6,62,87.4,65.1z M66.4,87.4L64,81.7l11,0.4C72.5,84.2,69.6,86,66.4,87.4z M50,91c-0.2,0-0.4,0-0.6,0L40,80.9l10-4.2
	l10,4.2L50.6,91C50.4,91,50.2,91,50,91z M24.9,82.1l11-0.4l-2.4,5.7C30.4,86,27.5,84.2,24.9,82.1z M12.6,36.9l5.7,2.4l-8.1,7.5
	C10.6,43.3,11.4,40,12.6,36.9z M33.6,14.6l2.4,5.7l-11-0.4C27.5,17.8,30.4,16,33.6,14.6z M50,11c0.2,0,0.4,0,0.6,0L60,21.1l-10,4.2
	l-10-4.2L49.4,11C49.6,11,49.8,11,50,11z M75.1,19.9l-11,0.4l2.4-5.7C69.6,16,72.5,17.8,75.1,19.9z M90,51c0,0.2,0,0.4,0,0.6
	L79.9,61l-4.2-10l4.2-10L90,50.4C90,50.6,90,50.8,90,51z M61.5,78.8l-8.2-3.4l11.6-4.8L61.5,78.8z M50,74l-16.3-6.7L27,51l6.7-16.3
	L50,28l16.3,6.7L73,51l-6.7,16.3L50,74z M38.5,78.8l-3.4-8.2l11.6,4.8L38.5,78.8z M20.1,61L10,51.6c0-0.2,0-0.4,0-0.6s0-0.4,0-0.6
	L20.1,41l4.2,10L20.1,61z M22.2,39.5l8.2-3.4l-4.8,11.6L22.2,39.5z M25.6,54.3l4.8,11.6l-8.2-3.4L25.6,54.3z M38.5,23.2l8.2,3.4
	l-11.6,4.8L38.5,23.2z M61.5,23.2l3.4,8.2l-11.6-4.8L61.5,23.2z M69.5,36.1l8.2,3.4l-3.4,8.2L69.5,36.1z M74.4,54.3l3.4,8.2
	l-8.2,3.4L74.4,54.3z M68.2,32.8l-4.2-10l13.8-0.5c0.3,0.3,0.6,0.6,0.9,0.9L78.2,37L68.2,32.8z M61.8,19.3l-7.5-8.1
	c3.5,0.4,6.8,1.2,9.9,2.4L61.8,19.3z M38.2,19.3l-2.4-5.7c3.1-1.2,6.5-2,9.9-2.4L38.2,19.3z M22.2,22.3L36,22.8l-4.2,10l-10,4.2
	l-0.5-13.8C21.6,22.9,21.9,22.6,22.2,22.3z M10.2,55.2l8.1,7.5l-5.7,2.4C11.4,62,10.6,58.7,10.2,55.2z M31.8,69.2l4.2,10l-13.8,0.5
	c-0.3-0.3-0.6-0.6-0.9-0.9L21.8,65L31.8,69.2z M38.2,82.7l7.5,8.1c-3.5-0.4-6.8-1.2-9.9-2.4L38.2,82.7z M61.8,82.7l2.4,5.7
	c-3.1,1.2-6.5,2-9.9,2.4L61.8,82.7z M77.8,79.7L64,79.2l4.2-10l10-4.2l0.5,13.8C78.4,79.1,78.1,79.4,77.8,79.7z M89.8,46.8l-8.1-7.5
	l5.7-2.4C88.6,40,89.4,43.3,89.8,46.8z M80.7,36.9l0.4-11c2.1,2.6,3.9,5.5,5.3,8.6L80.7,36.9z M18.9,25.9l0.4,11l-5.7-2.4
	C15,31.4,16.8,28.5,18.9,25.9z M13.6,67.4l5.7-2.4l-0.4,11C16.8,73.5,15,70.6,13.6,67.4z M81.1,76.1l-0.4-11l5.7,2.4
	C85,70.6,83.2,73.5,81.1,76.1z"/>
</svg>
