<?xml version="1.0" encoding="utf-8"?>
<!-- Generator: Adobe Illustrator 23.0.3, SVG Export Plug-In . SVG Version: 6.00 Build 0)  -->
<svg version="1.1" id="Layer_1" xmlns="http://www.w3.org/2000/svg" xmlns:xlink="http://www.w3.org/1999/xlink" x="0px" y="0px"
	 viewBox="0 0 200 200" style="enable-background:new 0 0 200 200;" xml:space="preserve">
<style type="text/css">
	.st0{fill:#BC9039;}
	.st1{fill:#FFFFFF;}
	.st2{fill:#010101;}
</style>
<path class="st0" d="M174.17,126.62H25.78c-1.05,0-1.9-0.85-1.9-1.9s0.85-1.9,1.9-1.9h148.39c1.05,0,1.9,0.85,1.9,1.9
	S175.21,126.62,174.17,126.62z"/>
<path class="st0" d="M155.68,138.35H80.47c-1.05,0-1.9-0.85-1.9-1.9s0.85-1.9,1.9-1.9h75.22c1.05,0,1.9,0.85,1.9,1.9
	S156.73,138.35,155.68,138.35z"/>
<path class="st0" d="M68.75,138.35h-24.4c-1.05,0-1.9-0.85-1.9-1.9s0.85-1.9,1.9-1.9h24.4c1.05,0,1.9,0.85,1.9,1.9
	S69.8,138.35,68.75,138.35z"/>
<path class="st0" d="M139.57,150.14h-23.94c-1.05,0-1.9-0.85-1.9-1.9s0.85-1.9,1.9-1.9h23.94c1.05,0,1.9,0.85,1.9,1.9
	S140.62,150.14,139.57,150.14z"/>
<path class="st0" d="M106.17,150.14h-45.7c-1.05,0-1.9-0.85-1.9-1.9s0.85-1.9,1.9-1.9h45.7c1.05,0,1.9,0.85,1.9,1.9
	S107.22,150.14,106.17,150.14z"/>
<path class="st0" d="M123.7,161.78H76.31c-1.05,0-1.9-0.85-1.9-1.9s0.85-1.9,1.9-1.9h47.39c1.05,0,1.9,0.85,1.9,1.9
	S124.75,161.78,123.7,161.78z"/>
<path class="st0" d="M65.41,126.62c-0.53,0.02-1.05-0.18-1.42-0.55c-0.73-0.74-0.73-1.93,0-2.67c7.47-7.58,21.25-12.25,36.02-12.25
	s28.43,4.7,36.02,12.25c0.73,0.75,0.72,1.95-0.03,2.68c-0.75,0.73-1.95,0.72-2.68-0.03c-6.77-6.84-19.56-11.11-33.31-11.11
	s-26.54,4.27-33.25,11.11C66.41,126.41,65.92,126.62,65.41,126.62z"/>
<path class="st0" d="M146.89,125.2h-12.25c-0.51,0-1.01-0.2-1.36-0.57c-0.35-0.36-0.54-0.84-0.53-1.35c0-1.71,0.99-41.7,28.55-62.56
	c0.83-0.64,2.02-0.49,2.66,0.34c0.52,0.67,0.53,1.6,0.03,2.28c-0.15,0.21-15.16,21.5-15.16,59.9c0.03,1.05-0.79,1.92-1.84,1.95
	C146.95,125.2,146.92,125.2,146.89,125.2z M136.63,121.4h8.38c-0.04-17.06,3.4-33.94,10.1-49.63
	C139.82,89.48,137.11,114.37,136.63,121.4z"/>
<path class="st1" d="M186.68,75.42c-0.25,0-0.5-0.06-0.74-0.15l-23.66-9.91c-0.46-0.2-0.82-0.56-1-1.02
	c-0.11-0.25-0.19-0.49-0.28-0.76c-0.21-0.48-0.21-1.03,0-1.52c1.9-3.79,6.86-5.46,11.68-4.08c0.49,0.13,0.97,0.29,1.44,0.49
	c9.16,3.79,16.02,11.49,14.22,15.77C188.05,74.92,187.41,75.38,186.68,75.42z M165.45,62.56l18.39,7.72
	c-2.83-3.72-6.64-6.59-10.99-8.28c-0.32-0.14-0.66-0.26-1-0.34C169.68,60.91,167.3,61.24,165.45,62.56z"/>
<path class="st2" d="M163.02,65.5c-0.25,0-0.5-0.06-0.74-0.15l-0.47-0.21c-0.95-0.41-1.4-1.51-1-2.46c0.08-0.24,0.18-0.46,0.3-0.68
	c0.37-0.68,1.13-1.06,1.9-0.97c0.75,0.06,1.39,0.56,1.63,1.27c0,0.23,0.13,0.4,0.21,0.57c0.41,0.96-0.04,2.08-1.01,2.48
	c-0.23,0.1-0.48,0.15-0.74,0.15L163.02,65.5z"/>
<path class="st1" d="M162.77,64.84h-0.21c-0.77-0.08-1.41-0.61-1.63-1.35c-1.31-4.49,1.63-9.48,6.79-11.62h0.23
	c7.58-3.07,14.48-2.94,18.07-1.44c1.28,0.43,2.33,1.36,2.92,2.58c0.39,0.96-0.06,2.06-1.02,2.46l-14.98,6.2
	c-0.4,0.14-0.83,0.14-1.23,0c-2.62-1.03-5.59-0.15-7.24,2.12C164.14,64.43,163.49,64.84,162.77,64.84z M169.07,55.36
	c-1.43,0.59-2.66,1.57-3.56,2.82c2.09-0.78,4.37-0.91,6.54-0.38l10.81-4.45c-4.63-0.64-9.35,0.02-13.63,1.9L169.07,55.36z
	 M185.46,54.34L185.46,54.34z"/>
<path class="st1" d="M175.32,88.61c-0.18,0.03-0.36,0.03-0.53,0c-0.48-0.14-0.89-0.46-1.14-0.89l-12.64-22.88
	c-0.24-0.45-0.3-0.97-0.15-1.46c0.15-0.49,0.49-0.9,0.95-1.14l0.55-0.27c0.47-0.19,0.99-0.19,1.46,0l9.95,4.17
	c0.32,0.13,0.59,0.35,0.8,0.63c0.12,0.16,0.23,0.33,0.32,0.51c4.78,8.66,5.42,18.96,1.35,21.19
	C175.94,88.6,175.63,88.64,175.32,88.61z M166.7,67.21l8.4,15.16c0.08-4.58-1.09-9.1-3.37-13.08L166.7,67.21z"/>
<path class="st1" d="M160.14,63.27c-0.18,0.02-0.37,0.02-0.55,0l-24.64-7.45c-0.48-0.15-0.88-0.48-1.12-0.93
	c-0.24-0.44-0.29-0.96-0.15-1.44c1.36-4.45,11.53-5.97,20.85-3.13c0.56,0.17,1.1,0.38,1.63,0.63c4.34,1.52,7.02,5.88,6.41,10.44
	c-0.11,0.51-0.42,0.96-0.87,1.23l-0.72,0.42C160.72,63.18,160.43,63.26,160.14,63.27z M139.82,53.24l19.07,5.78
	c-0.56-2.17-2.13-3.93-4.23-4.72c-0.32-0.16-0.66-0.29-1-0.4C149.19,52.42,144.4,52.19,139.82,53.24z"/>
<path class="st2" d="M160.67,63.42c-0.19,0-0.39-0.03-0.57-0.09l-0.47-0.15c-1-0.32-1.55-1.38-1.24-2.38
	c0.15-0.46,0.47-0.86,0.89-1.09l0.53-0.32c0.9-0.53,2.06-0.24,2.6,0.66c0.22,0.37,0.31,0.8,0.25,1.23
	c-0.04,0.24-0.11,0.49-0.19,0.72C162.26,62.82,161.52,63.4,160.67,63.42z"/>
<path class="st1" d="M160.76,62.94c-0.38,0-0.75-0.11-1.06-0.32c-0.61-0.42-0.93-1.16-0.8-1.9c0.51-2.37-1.25-5.02-4.21-6.31
	c-0.39-0.17-0.71-0.47-0.91-0.85l-7.58-14.31c-0.49-0.92-0.14-2.07,0.78-2.56c1.2-0.53,2.56-0.57,3.79-0.11
	c3.79,1.14,9.19,5.5,13.02,12.66c0.03,0.06,0.07,0.12,0.11,0.17c2.62,4.95,1.69,10.65-2.18,13.27
	C161.44,62.85,161.1,62.94,160.76,62.94z M156.88,51.11c2.02,0.97,3.7,2.53,4.81,4.47c0.09-1.53-0.24-3.06-0.95-4.42
	c-0.03-0.05-0.06-0.11-0.08-0.17c-2.09-4.19-5.28-7.72-9.23-10.22L156.88,51.11z"/>
<path class="st1" d="M135.91,73.22c-0.26,0.01-0.52-0.04-0.76-0.15c-0.46-0.2-0.82-0.58-1-1.04c-1.69-4.34,5.35-11.83,14.48-15.43
	c0.21-0.08,0.43-0.15,0.64-0.21c0.33-0.1,0.69-0.1,1.02,0l10.37,3.15c0.48,0.14,0.88,0.47,1.12,0.91c0,0.19,0.19,0.38,0.27,0.57
	c0.2,0.47,0.2,1.01,0,1.48c-0.19,0.47-0.57,0.85-1.04,1.04l-24.4,9.57C136.39,73.18,136.15,73.22,135.91,73.22z M149.81,60.21
	c-4.3,1.6-8.09,4.34-10.96,7.92l16.13-6.35L149.81,60.21z"/>
<path class="st0" d="M65.38,125.2H53.13c-1.05,0-1.9-0.85-1.9-1.9c0-38.41-15.05-59.69-15.16-59.9c-0.62-0.85-0.43-2.03,0.42-2.65
	c0.68-0.5,1.61-0.48,2.28,0.03c27.56,20.85,28.43,60.79,28.55,62.56c0.01,0.5-0.18,0.99-0.53,1.35
	C66.4,125.04,65.89,125.22,65.38,125.2z M55.01,121.4h8.38c-0.47-7.03-3.18-31.92-18.48-49.61C51.62,87.47,55.06,104.35,55.01,121.4
	z"/>
<path class="st1" d="M13.34,75.42c-0.75,0.01-1.43-0.42-1.74-1.1c-1.8-4.28,5.06-11.94,14.12-15.73c0.53-0.23,1.09-0.41,1.65-0.55
	c4.34-1.51,9.15,0.19,11.56,4.09c0.24,0.46,0.28,1,0.11,1.5c-0.11,0.28-0.19,0.53-0.3,0.78c-0.19,0.46-0.55,0.83-1,1.02l-23.66,9.84
	C13.85,75.36,13.6,75.41,13.34,75.42z M30.65,61.28c-0.8,0-1.59,0.12-2.35,0.34c-0.35,0.09-0.69,0.2-1.02,0.34
	c-4.39,1.71-8.22,4.59-11.09,8.32l18.39-7.72C33.46,61.69,32.07,61.23,30.65,61.28z"/>
<path class="st2" d="M37,65.5c-1.05-0.02-1.88-0.88-1.86-1.93c0-0.22,0.04-0.43,0.12-0.63c0.07-0.17,0.14-0.35,0.19-0.53
	c0.21-0.75,0.86-1.29,1.63-1.36c0.77-0.1,1.52,0.28,1.9,0.95c0.12,0.22,0.22,0.45,0.3,0.68c0.39,0.96-0.05,2.06-1,2.46l-0.47,0.21
	C37.54,65.45,37.27,65.5,37,65.5z"/>
<path class="st1" d="M37.25,64.84c-0.7-0.01-1.34-0.4-1.67-1.02c-1.64-2.31-4.64-3.21-7.28-2.18c-0.4,0.14-0.83,0.14-1.23,0
	l-14.98-6.27c-0.96-0.4-1.42-1.5-1.02-2.46c0.59-1.22,1.64-2.15,2.92-2.58c3.6-1.5,10.58-1.63,18.08,1.46h0.21
	c5.16,2.14,8.09,7.13,6.79,11.62c-0.18,0.77-0.83,1.34-1.61,1.44H37.25z M30.61,57.52c1.34-0.01,2.66,0.24,3.9,0.72
	c-0.91-1.27-2.15-2.27-3.58-2.88h-0.19c-4.28-1.87-9-2.52-13.63-1.9l10.86,4.34c0.86-0.2,1.75-0.3,2.63-0.3L30.61,57.52z"/>
<path class="st1" d="M24.7,88.61c-0.32,0-0.63-0.08-0.91-0.23c-4.08-2.26-3.43-12.53,1.31-21.12c0.11-0.2,0.23-0.4,0.36-0.59
	c0.2-0.28,0.48-0.49,0.8-0.63l9.95-4.17c0.47-0.19,0.99-0.19,1.46,0l0.55,0.27c0.46,0.23,0.8,0.65,0.95,1.14
	c0.15,0.49,0.09,1.01-0.15,1.46L26.36,87.59c-0.25,0.44-0.66,0.76-1.14,0.89C25.06,88.55,24.88,88.6,24.7,88.61z M28.3,69.31
	c-2.3,3.97-3.46,8.49-3.37,13.08l8.4-15.16L28.3,69.31z"/>
<path class="st1" d="M39.88,63.27c-0.31,0-0.62-0.08-0.89-0.23l-0.72-0.42c-0.45-0.27-0.76-0.72-0.87-1.23
	c-0.89-4.19,1.74-8.53,6.41-10.56c0.46-0.23,0.93-0.41,1.42-0.55c9.48-2.88,19.66-1.36,21.02,3.09c0.14,0.48,0.09,1-0.15,1.44
	c-0.23,0.45-0.64,0.78-1.12,0.93l-24.55,7.45C40.25,63.23,40.07,63.26,39.88,63.27z M54.86,52.57c-2.86,0.01-5.7,0.45-8.44,1.31
	c-0.34,0.09-0.67,0.21-0.99,0.36c-2.14,0.8-3.75,2.58-4.34,4.78l19.11-5.78C58.46,52.77,56.66,52.55,54.86,52.57z M62.63,54.47
	L62.63,54.47z"/>
<path class="st2" d="M39.35,63.42c-0.83-0.01-1.56-0.55-1.8-1.35c-0.08-0.23-0.15-0.48-0.19-0.72c-0.15-1.04,0.58-2,1.61-2.14
	c0.43-0.06,0.86,0.03,1.23,0.25l0.53,0.32c0.92,0.5,1.25,1.66,0.75,2.57c-0.23,0.43-0.63,0.75-1.09,0.89l-0.47,0.15
	C39.73,63.43,39.54,63.44,39.35,63.42z"/>
<path class="st1" d="M39.35,62.94c-0.38,0-0.75-0.12-1.06-0.34c-3.79-2.62-4.8-8.32-2.18-13.27l0.13-0.21
	c3.79-7.15,9.27-11.49,13-12.62c1.23-0.46,2.59-0.42,3.79,0.11c0.92,0.49,1.27,1.64,0.78,2.56l-7.58,14.31
	c-0.2,0.38-0.52,0.68-0.91,0.85c-2.96,1.29-4.72,3.94-4.21,6.31c0.13,0.73-0.18,1.48-0.8,1.9C40.04,62.77,39.7,62.9,39.35,62.94z
	 M39.35,51.23c-0.71,1.35-1.04,2.87-0.95,4.4c1.09-1.95,2.74-3.52,4.74-4.51l5.48-10.33c-3.97,2.49-7.17,6.03-9.27,10.22V51.23z
	 M51.33,39.99L51.33,39.99z"/>
<path class="st1" d="M64.11,73.22c-0.24,0-0.48-0.04-0.7-0.11l-24.34-9.57c-0.47-0.19-0.85-0.57-1.04-1.04c-0.21-0.46-0.21-1,0-1.46
	c0.08-0.2,0.17-0.4,0.27-0.59c0.22-0.43,0.6-0.75,1.06-0.91l10.31-3.13c0.33-0.1,0.69-0.1,1.02,0c0.19,0.05,0.39,0.11,0.57,0.19
	c9.21,3.62,16.25,11.11,14.56,15.45c-0.18,0.47-0.55,0.84-1,1.04C64.59,73.18,64.35,73.22,64.11,73.22z M45.04,61.79l16.15,6.35
	c-2.87-3.58-6.65-6.32-10.96-7.92L45.04,61.79z"/>
</svg>
