<?xml version="1.0" encoding="utf-8"?>
<!-- Generator: Adobe Illustrator 23.0.3, SVG Export Plug-In . SVG Version: 6.00 Build 0)  -->
<svg version="1.1" xmlns="http://www.w3.org/2000/svg" xmlns:xlink="http://www.w3.org/1999/xlink" x="0px" y="0px"
	 viewBox="0 0 200 200" style="enable-background:new 0 0 200 200;" xml:space="preserve">
<style type="text/css">
	.st0{display:none;}
	.st1{display:inline;fill:#BC9039;}
	.st2{display:inline;fill:#FFFFFF;}
	.st3{display:inline;fill:#010101;}
	.st4{fill-rule:evenodd;clip-rule:evenodd;fill:#BC9039;}
</style>
<g id="Layer_1" class="st0">
	<path class="st1" d="M174.17,126.62H25.78c-1.05,0-1.9-0.85-1.9-1.9s0.85-1.9,1.9-1.9h148.39c1.05,0,1.9,0.85,1.9,1.9
		S175.21,126.62,174.17,126.62z"/>
	<path class="st1" d="M155.68,138.35H80.47c-1.05,0-1.9-0.85-1.9-1.9s0.85-1.9,1.9-1.9h75.22c1.05,0,1.9,0.85,1.9,1.9
		S156.73,138.35,155.68,138.35z"/>
	<path class="st1" d="M68.75,138.35h-24.4c-1.05,0-1.9-0.85-1.9-1.9s0.85-1.9,1.9-1.9h24.4c1.05,0,1.9,0.85,1.9,1.9
		S69.8,138.35,68.75,138.35z"/>
	<path class="st1" d="M139.57,150.14h-23.94c-1.05,0-1.9-0.85-1.9-1.9s0.85-1.9,1.9-1.9h23.94c1.05,0,1.9,0.85,1.9,1.9
		S140.62,150.14,139.57,150.14z"/>
	<path class="st1" d="M106.17,150.14h-45.7c-1.05,0-1.9-0.85-1.9-1.9s0.85-1.9,1.9-1.9h45.7c1.05,0,1.9,0.85,1.9,1.9
		S107.22,150.14,106.17,150.14z"/>
	<path class="st1" d="M123.7,161.78H76.31c-1.05,0-1.9-0.85-1.9-1.9s0.85-1.9,1.9-1.9h47.39c1.05,0,1.9,0.85,1.9,1.9
		S124.75,161.78,123.7,161.78z"/>
	<path class="st1" d="M65.41,126.62c-0.53,0.02-1.05-0.18-1.42-0.55c-0.73-0.74-0.73-1.93,0-2.67c7.47-7.58,21.25-12.25,36.02-12.25
		s28.43,4.7,36.02,12.25c0.73,0.75,0.72,1.95-0.03,2.68c-0.75,0.73-1.95,0.72-2.68-0.03c-6.77-6.84-19.56-11.11-33.31-11.11
		s-26.54,4.27-33.25,11.11C66.41,126.41,65.92,126.62,65.41,126.62z"/>
	<path class="st1" d="M146.89,125.2h-12.25c-0.51,0-1.01-0.2-1.36-0.57c-0.35-0.36-0.54-0.84-0.53-1.35
		c0-1.71,0.99-41.7,28.55-62.56c0.83-0.64,2.02-0.49,2.66,0.34c0.52,0.67,0.53,1.6,0.03,2.28c-0.15,0.21-15.16,21.5-15.16,59.9
		c0.03,1.05-0.79,1.92-1.84,1.95C146.95,125.2,146.92,125.2,146.89,125.2z M136.63,121.4h8.38c-0.04-17.06,3.4-33.94,10.1-49.63
		C139.82,89.48,137.11,114.37,136.63,121.4z"/>
	<path class="st2" d="M186.68,75.42c-0.25,0-0.5-0.06-0.74-0.15l-23.66-9.91c-0.46-0.2-0.82-0.56-1-1.02
		c-0.11-0.25-0.19-0.49-0.28-0.76c-0.21-0.48-0.21-1.03,0-1.52c1.9-3.79,6.86-5.46,11.68-4.08c0.49,0.13,0.97,0.29,1.44,0.49
		c9.16,3.79,16.02,11.49,14.22,15.77C188.05,74.92,187.41,75.38,186.68,75.42z M165.45,62.56l18.39,7.72
		c-2.83-3.72-6.64-6.59-10.99-8.28c-0.32-0.14-0.66-0.26-1-0.34C169.68,60.91,167.3,61.24,165.45,62.56z"/>
	<path class="st3" d="M163.02,65.5c-0.25,0-0.5-0.06-0.74-0.15l-0.47-0.21c-0.95-0.41-1.4-1.51-1-2.46c0.08-0.24,0.18-0.46,0.3-0.68
		c0.37-0.68,1.13-1.06,1.9-0.97c0.75,0.06,1.39,0.56,1.63,1.27c0,0.23,0.13,0.4,0.21,0.57c0.41,0.96-0.04,2.08-1.01,2.48
		c-0.23,0.1-0.48,0.15-0.74,0.15L163.02,65.5z"/>
	<path class="st2" d="M162.77,64.84h-0.21c-0.77-0.08-1.41-0.61-1.63-1.35c-1.31-4.49,1.63-9.48,6.79-11.62h0.23
		c7.58-3.07,14.48-2.94,18.07-1.44c1.28,0.43,2.33,1.36,2.92,2.58c0.39,0.96-0.06,2.06-1.02,2.46l-14.98,6.2
		c-0.4,0.14-0.83,0.14-1.23,0c-2.62-1.03-5.59-0.15-7.24,2.12C164.14,64.43,163.49,64.84,162.77,64.84z M169.07,55.36
		c-1.43,0.59-2.66,1.57-3.56,2.82c2.09-0.78,4.37-0.91,6.54-0.38l10.81-4.45c-4.63-0.64-9.35,0.02-13.63,1.9L169.07,55.36z
		 M185.46,54.34L185.46,54.34z"/>
	<path class="st2" d="M175.32,88.61c-0.18,0.03-0.36,0.03-0.53,0c-0.48-0.14-0.89-0.46-1.14-0.89l-12.64-22.88
		c-0.24-0.45-0.3-0.97-0.15-1.46c0.15-0.49,0.49-0.9,0.95-1.14l0.55-0.27c0.47-0.19,0.99-0.19,1.46,0l9.95,4.17
		c0.32,0.13,0.59,0.35,0.8,0.63c0.12,0.16,0.23,0.33,0.32,0.51c4.78,8.66,5.42,18.96,1.35,21.19
		C175.94,88.6,175.63,88.64,175.32,88.61z M166.7,67.21l8.4,15.16c0.08-4.58-1.09-9.1-3.37-13.08L166.7,67.21z"/>
	<path class="st2" d="M160.14,63.27c-0.18,0.02-0.37,0.02-0.55,0l-24.64-7.45c-0.48-0.15-0.88-0.48-1.12-0.93
		c-0.24-0.44-0.29-0.96-0.15-1.44c1.36-4.45,11.53-5.97,20.85-3.13c0.56,0.17,1.1,0.38,1.63,0.63c4.34,1.52,7.02,5.88,6.41,10.44
		c-0.11,0.51-0.42,0.96-0.87,1.23l-0.72,0.42C160.72,63.18,160.43,63.26,160.14,63.27z M139.82,53.24l19.07,5.78
		c-0.56-2.17-2.13-3.93-4.23-4.72c-0.32-0.16-0.66-0.29-1-0.4C149.19,52.42,144.4,52.19,139.82,53.24z"/>
	<path class="st3" d="M160.67,63.42c-0.19,0-0.39-0.03-0.57-0.09l-0.47-0.15c-1-0.32-1.55-1.38-1.24-2.38
		c0.15-0.46,0.47-0.86,0.89-1.09l0.53-0.32c0.9-0.53,2.06-0.24,2.6,0.66c0.22,0.37,0.31,0.8,0.25,1.23
		c-0.04,0.24-0.11,0.49-0.19,0.72C162.26,62.82,161.52,63.4,160.67,63.42z"/>
	<path class="st2" d="M160.76,62.94c-0.38,0-0.75-0.11-1.06-0.32c-0.61-0.42-0.93-1.16-0.8-1.9c0.51-2.37-1.25-5.02-4.21-6.31
		c-0.39-0.17-0.71-0.47-0.91-0.85l-7.58-14.31c-0.49-0.92-0.14-2.07,0.78-2.56c1.2-0.53,2.56-0.57,3.79-0.11
		c3.79,1.14,9.19,5.5,13.02,12.66c0.03,0.06,0.07,0.12,0.11,0.17c2.62,4.95,1.69,10.65-2.18,13.27
		C161.44,62.85,161.1,62.94,160.76,62.94z M156.88,51.11c2.02,0.97,3.7,2.53,4.81,4.47c0.09-1.53-0.24-3.06-0.95-4.42
		c-0.03-0.05-0.06-0.11-0.08-0.17c-2.09-4.19-5.28-7.72-9.23-10.22L156.88,51.11z"/>
	<path class="st2" d="M135.91,73.22c-0.26,0.01-0.52-0.04-0.76-0.15c-0.46-0.2-0.82-0.58-1-1.04c-1.69-4.34,5.35-11.83,14.48-15.43
		c0.21-0.08,0.43-0.15,0.64-0.21c0.33-0.1,0.69-0.1,1.02,0l10.37,3.15c0.48,0.14,0.88,0.47,1.12,0.91c0,0.19,0.19,0.38,0.27,0.57
		c0.2,0.47,0.2,1.01,0,1.48c-0.19,0.47-0.57,0.85-1.04,1.04l-24.4,9.57C136.39,73.18,136.15,73.22,135.91,73.22z M149.81,60.21
		c-4.3,1.6-8.09,4.34-10.96,7.92l16.13-6.35L149.81,60.21z"/>
	<path class="st1" d="M65.38,125.2H53.13c-1.05,0-1.9-0.85-1.9-1.9c0-38.41-15.05-59.69-15.16-59.9c-0.62-0.85-0.43-2.03,0.42-2.65
		c0.68-0.5,1.61-0.48,2.28,0.03c27.56,20.85,28.43,60.79,28.55,62.56c0.01,0.5-0.18,0.99-0.53,1.35
		C66.4,125.04,65.89,125.22,65.38,125.2z M55.01,121.4h8.38c-0.47-7.03-3.18-31.92-18.48-49.61
		C51.62,87.47,55.06,104.35,55.01,121.4z"/>
	<path class="st2" d="M13.34,75.42c-0.75,0.01-1.43-0.42-1.74-1.1c-1.8-4.28,5.06-11.94,14.12-15.73c0.53-0.23,1.09-0.41,1.65-0.55
		c4.34-1.51,9.15,0.19,11.56,4.09c0.24,0.46,0.28,1,0.11,1.5c-0.11,0.28-0.19,0.53-0.3,0.78c-0.19,0.46-0.55,0.83-1,1.02
		l-23.66,9.84C13.85,75.36,13.6,75.41,13.34,75.42z M30.65,61.28c-0.8,0-1.59,0.12-2.35,0.34c-0.35,0.09-0.69,0.2-1.02,0.34
		c-4.39,1.71-8.22,4.59-11.09,8.32l18.39-7.72C33.46,61.69,32.07,61.23,30.65,61.28z"/>
	<path class="st3" d="M37,65.5c-1.05-0.02-1.88-0.88-1.86-1.93c0-0.22,0.04-0.43,0.12-0.63c0.07-0.17,0.14-0.35,0.19-0.53
		c0.21-0.75,0.86-1.29,1.63-1.36c0.77-0.1,1.52,0.28,1.9,0.95c0.12,0.22,0.22,0.45,0.3,0.68c0.39,0.96-0.05,2.06-1,2.46l-0.47,0.21
		C37.54,65.45,37.27,65.5,37,65.5z"/>
	<path class="st2" d="M37.25,64.84c-0.7-0.01-1.34-0.4-1.67-1.02c-1.64-2.31-4.64-3.21-7.28-2.18c-0.4,0.14-0.83,0.14-1.23,0
		l-14.98-6.27c-0.96-0.4-1.42-1.5-1.02-2.46c0.59-1.22,1.64-2.15,2.92-2.58c3.6-1.5,10.58-1.63,18.08,1.46h0.21
		c5.16,2.14,8.09,7.13,6.79,11.62c-0.18,0.77-0.83,1.34-1.61,1.44H37.25z M30.61,57.52c1.34-0.01,2.66,0.24,3.9,0.72
		c-0.91-1.27-2.15-2.27-3.58-2.88h-0.19c-4.28-1.87-9-2.52-13.63-1.9l10.86,4.34c0.86-0.2,1.75-0.3,2.63-0.3L30.61,57.52z"/>
	<path class="st2" d="M24.7,88.61c-0.32,0-0.63-0.08-0.91-0.23c-4.08-2.26-3.43-12.53,1.31-21.12c0.11-0.2,0.23-0.4,0.36-0.59
		c0.2-0.28,0.48-0.49,0.8-0.63l9.95-4.17c0.47-0.19,0.99-0.19,1.46,0l0.55,0.27c0.46,0.23,0.8,0.65,0.95,1.14
		c0.15,0.49,0.09,1.01-0.15,1.46L26.36,87.59c-0.25,0.44-0.66,0.76-1.14,0.89C25.06,88.55,24.88,88.6,24.7,88.61z M28.3,69.31
		c-2.3,3.97-3.46,8.49-3.37,13.08l8.4-15.16L28.3,69.31z"/>
	<path class="st2" d="M39.88,63.27c-0.31,0-0.62-0.08-0.89-0.23l-0.72-0.42c-0.45-0.27-0.76-0.72-0.87-1.23
		c-0.89-4.19,1.74-8.53,6.41-10.56c0.46-0.23,0.93-0.41,1.42-0.55c9.48-2.88,19.66-1.36,21.02,3.09c0.14,0.48,0.09,1-0.15,1.44
		c-0.23,0.45-0.64,0.78-1.12,0.93l-24.55,7.45C40.25,63.23,40.07,63.26,39.88,63.27z M54.86,52.57c-2.86,0.01-5.7,0.45-8.44,1.31
		c-0.34,0.09-0.67,0.21-0.99,0.36c-2.14,0.8-3.75,2.58-4.34,4.78l19.11-5.78C58.46,52.77,56.66,52.55,54.86,52.57z M62.63,54.47
		L62.63,54.47z"/>
	<path class="st3" d="M39.35,63.42c-0.83-0.01-1.56-0.55-1.8-1.35c-0.08-0.23-0.15-0.48-0.19-0.72c-0.15-1.04,0.58-2,1.61-2.14
		c0.43-0.06,0.86,0.03,1.23,0.25l0.53,0.32c0.92,0.5,1.25,1.66,0.75,2.57c-0.23,0.43-0.63,0.75-1.09,0.89l-0.47,0.15
		C39.73,63.43,39.54,63.44,39.35,63.42z"/>
	<path class="st2" d="M39.35,62.94c-0.38,0-0.75-0.12-1.06-0.34c-3.79-2.62-4.8-8.32-2.18-13.27l0.13-0.21
		c3.79-7.15,9.27-11.49,13-12.62c1.23-0.46,2.59-0.42,3.79,0.11c0.92,0.49,1.27,1.64,0.78,2.56l-7.58,14.31
		c-0.2,0.38-0.52,0.68-0.91,0.85c-2.96,1.29-4.72,3.94-4.21,6.31c0.13,0.73-0.18,1.48-0.8,1.9C40.04,62.77,39.7,62.9,39.35,62.94z
		 M39.35,51.23c-0.71,1.35-1.04,2.87-0.95,4.4c1.09-1.95,2.74-3.52,4.74-4.51l5.48-10.33c-3.97,2.49-7.17,6.03-9.27,10.22V51.23z
		 M51.33,39.99L51.33,39.99z"/>
	<path class="st2" d="M64.11,73.22c-0.24,0-0.48-0.04-0.7-0.11l-24.34-9.57c-0.47-0.19-0.85-0.57-1.04-1.04
		c-0.21-0.46-0.21-1,0-1.46c0.08-0.2,0.17-0.4,0.27-0.59c0.22-0.43,0.6-0.75,1.06-0.91l10.31-3.13c0.33-0.1,0.69-0.1,1.02,0
		c0.19,0.05,0.39,0.11,0.57,0.19c9.21,3.62,16.25,11.11,14.56,15.45c-0.18,0.47-0.55,0.84-1,1.04
		C64.59,73.18,64.35,73.22,64.11,73.22z M45.04,61.79l16.15,6.35c-2.87-3.58-6.65-6.32-10.96-7.92L45.04,61.79z"/>
</g>
<g id="Layer_2">
	<g>
		<path class="st4" d="M112.43,16.04h57.59l-5.46,5.46h-49.1l-2.42,3.03h56.99c-1.82,1.82-3.64,3.64-5.46,5.46
			c-16.37,0-32.74,0-49.1,0l-2.42,3.03h56.99c-1.82,1.82-3.64,3.64-5.46,5.46c-16.37,0-32.74,0-49.1,0l-2.42,2.42h56.99
			c-1.82,1.82-3.64,3.64-5.46,5.46c-16.37,0-32.74,0-49.1,0l-2.42,3.03h56.99c-1.82,1.82-3.64,3.64-5.46,5.46
			c-16.37,0-32.74,0-49.1,0l-2.42,3.03h56.99c-1.82,1.82-3.64,3.03-5.46,4.85c-16.37,0-32.74,0-49.1,0l-2.42,3.03h56.99
			c-1.82,1.82-3.64,3.64-5.46,5.46c-16.37,0-32.74,0-49.1,0l-2.42,3.03h56.99c-1.82,1.82-3.64,3.64-5.46,5.46
			c-16.37,0-32.74,0-49.1,0l-2.42,2.42h56.99c-1.82,1.82-3.64,3.64-5.46,5.46c-16.37,0-32.74,0-49.1,0l-2.42,3.03h56.99
			c-1.82,1.82-3.64,3.64-5.46,5.46c-16.37,0-32.74,0-49.1,0l-2.42,3.03h56.99c-1.82,1.82-3.64,3.64-5.46,5.46
			c-16.37,0-32.74,0-49.1,0l-2.42,2.42h56.99c-1.82,1.82-3.64,3.64-5.46,5.46c-16.37,0-32.74,0-49.1,0l-2.42,3.03h56.99
			c-1.82,1.82-3.64,3.64-5.46,5.46c-16.37,0-32.74,0-49.1,0l-2.42,3.03h56.99l-5.46,5.46h-49.1l-2.42,2.42h56.99l-5.46,5.46v42.44
			h13.34v4.24H22.1v-4.24h7.88v-22.43l6.67-6.67h-6.67l6.67-6.67h-6.67l6.67-7.27h-6.67l6.67-6.67h-6.67l6.67-6.67h-6.67l6.67-6.67
			h-6.67l6.67-6.67h-6.67l6.67-7.27h-6.67l6.67-6.67h-6.67l6.67-6.67h-6.67l6.67-6.67h-6.67l6.67-6.67h-6.67l6.67-7.27h-6.67
			l6.67-6.67h-6.67l15.16-15.16h47.29l-4.24,4.24H48.17l-2.42,2.42h46.68c-1.21,1.21-3.03,3.03-4.24,4.24c-13.34,0-26.67,0-40.01,0
			l-2.42,2.42h46.68c-1.21,1.21-3.03,3.03-4.24,4.24c-13.34,0-26.67,0-40.01,0l-2.42,2.42h46.68c-1.21,1.82-3.03,3.03-4.24,4.85
			c-13.34,0-26.67,0-40.01,0l-2.42,1.82h46.68c-1.21,1.82-3.03,3.03-4.24,4.85c-13.34,0-26.67,0-40.01,0l-2.42,2.42h46.68
			c-1.21,1.21-3.03,2.42-4.24,4.24c-13.34,0-26.67,0-40.01,0l-2.42,2.42h46.68c-1.21,1.21-3.03,3.03-4.24,4.24
			c-13.34,0-26.67,0-40.01,0l-2.42,2.42h46.68c-1.21,1.21-3.03,3.03-4.24,4.24c-13.34,0-26.67,0-40.01,0l-2.42,2.42h46.68
			c-1.21,1.82-3.03,3.03-4.24,4.85c-13.34,0-26.67,0-40.01,0l-2.42,1.82h46.68c-1.21,1.82-3.03,3.03-4.24,4.85
			c-13.34,0-26.67,0-40.01,0l-2.42,2.42h46.68c-1.21,1.21-3.03,2.42-4.24,4.24c-13.34,0-26.67,0-40.01,0l-2.42,2.42h46.68
			c-1.21,1.21-3.03,3.03-4.24,4.24c-13.34,0-26.67,0-40.01,0l-2.42,2.42h46.68c-1.21,1.21-3.03,3.03-4.24,4.24
			c-13.34,0-26.67,0-40.01,0l-2.42,2.42h46.68l-4.24,4.24H48.17l-2.42,2.42h46.68l-4.24,4.24v33.95h5.46v-29.1l7.88-7.88h-7.88
			l8.49-8.49h-8.49l8.49-7.88h-8.49l8.49-8.49h-8.49l8.49-8.49h-8.49l8.49-7.88h-8.49l8.49-8.49h-8.49l8.49-8.49h-8.49l8.49-7.88
			h-8.49l8.49-8.49h-8.49l8.49-8.49h-8.49l8.49-7.88h-8.49l8.49-8.49h-8.49l8.49-7.88h-8.49L112.43,16.04z M154.26,179.72v-22.43
			h-30.92v22.43H154.26z M54.23,179.72h25.46v-17.58H54.23V179.72z"/>
	</g>
</g>
<g id="Layer_3" class="st0">
	<path class="st1" d="M169.34,67.9V43.87h-42.19V24.81H66.19v19.06H54.54v23.34H23.59v71.22h30.95v8.67h-4.9v3.55h4.9v1.73h38.12
		v19.06h71.23v-19.06h5.45v-13.25h19.06V67.9H169.34z M54.54,132.93H29.1V72.71h25.44V132.93z M71.7,30.32h49.94v13.55H71.7V30.32z
		 M77.38,146.87H60.04v-10.59h17.34V146.87z M77.38,131.88H60.04v-11.27h17.34V131.88z M77.38,116.21H60.04v-9.56h17.34V116.21z
		 M158.38,165.93H98.17v-13.55h60.21V165.93z M163.83,102.44h-30.66l-13.18-17.52l-2.33,1.58l14.24,23.58h31.93v36.79h-5.45v-8.25
		h-38.97v8.25H82.89v-45.72H60.04V90.21h28.88v19.87h19.87v-7.64H96.57V82.57H60.04V49.38h79.6c2.22,12.27,11.89,21.84,24.19,23.92
		V102.44z M163.83,69.04c-0.04-0.01-0.08-0.01-0.12-0.02c-0.83-0.17-1.65-0.38-2.46-0.63s-1.6-0.54-2.38-0.87
		c-0.78-0.33-1.55-0.7-2.29-1.1c-0.74-0.41-1.46-0.85-2.16-1.33c-0.7-0.48-1.37-0.99-2.02-1.53c-0.65-0.55-1.27-1.13-1.86-1.73
		c-0.59-0.61-1.15-1.25-1.67-1.91c-0.53-0.66-1.02-1.35-1.48-2.06c-0.45-0.71-0.88-1.45-1.26-2.2c-0.38-0.76-0.73-1.53-1.04-2.32
		c-0.3-0.79-0.57-1.59-0.8-2.41c-0.13-0.51-0.25-1.03-0.35-1.55h19.89V69.04z M182.89,133.62h-13.55V73.41h13.55V133.62z"/>
	<rect x="35.45" y="147.1" class="st2" width="10.64" height="3.55"/>
	<rect x="21.27" y="147.1" class="st2" width="10.64" height="3.55"/>
	<polygon class="st2" points="17.73,147.1 17.73,150.65 10.63,150.65 10.63,143.56 14.18,143.56 14.18,147.1 	"/>
	<rect x="10.63" y="129.38" class="st2" width="3.55" height="10.63"/>
	<rect x="10.63" y="115.19" class="st2" width="3.55" height="10.64"/>
	<rect x="10.63" y="101.01" class="st2" width="3.55" height="10.64"/>
	<rect x="10.63" y="86.83" class="st2" width="3.55" height="10.63"/>
	<rect x="10.63" y="72.64" class="st2" width="3.55" height="10.64"/>
	<rect x="10.63" y="58.46" class="st2" width="3.55" height="10.64"/>
	<polygon class="st2" points="23.04,49.13 23.04,52.68 14.18,52.68 14.18,54.91 10.63,54.91 10.63,50.9 12.4,50.9 12.4,49.13 	"/>
	<rect x="26.59" y="49.13" class="st2" width="10.64" height="3.55"/>
	<rect x="40.77" y="49.13" class="st2" width="10.64" height="3.55"/>
</g>
<g id="Layer_4" class="st0">
	<path class="st1" d="M139.87,66.34c-0.99-1.04-2.28-1.77-3.81-1.69H94.07v0.06c-1.56-0.09-3.1,0.2-4.3,1.03
		c-1.23,0.85-2.08,2.34-2.02,3.98v45.04c0.16,2.09,1.2,3.8,2.62,4.79c1.41,0.99,3.12,1.34,4.74,1.2c1.02-0.09,2.02-0.34,2.94-0.82
		v33.77h0.05c-0.27,7.1,12.01,9.25,16.56,3c0.32,0.47,0.52,1.04,0.92,1.41c1.64,1.51,3.79,2.21,5.89,2.29
		c4.19,0.15,8.71-2.05,9.8-6.32c0.03-0.12,0.05-0.25,0.05-0.38v-33.66c1.01,0.51,2.11,0.73,3.22,0.76c1.63,0.06,3.27-0.33,4.63-1.36
		c1.35-1.02,2.32-2.72,2.39-4.74V70.59C141.6,68.9,140.89,67.4,139.87,66.34z M138.08,114.6c-0.05,1.01-0.39,1.62-0.98,2.07
		c-0.61,0.45-1.53,0.68-2.45,0.65c-0.92-0.03-1.83-0.32-2.4-0.82s-0.91-1.12-0.87-2.23c0-0.17-0.01-0.33-0.06-0.49V79.47
		c0.02-0.97-0.75-1.76-1.71-1.77c-0.97-0.01-1.76,0.76-1.77,1.72v73.9c-0.59,2.08-3.44,3.7-6.27,3.59
		c-1.42-0.05-2.69-0.52-3.59-1.36c-0.9-0.83-1.58-2.06-1.58-4.14l0.06-55.6c0.03-0.97-0.72-1.77-1.68-1.81c-0.08,0-0.16,0-0.23,0.01
		c-0.92,0.09-1.61,0.87-1.58,1.8l-0.06,55.44v0.16c-0.07,9.21-11.55,5-11.38,2.4v-38.83c0.02-0.23,0.01-0.47,0-0.71v-34.8
		c0.03-0.96-0.74-1.76-1.7-1.79c-0.14,0-0.28,0.01-0.42,0.04c-0.81,0.19-1.38,0.92-1.36,1.75v34.64c-0.01,0.11-0.01,0.21,0,0.32
		v0.06c0.04,0.8-0.24,1.29-0.82,1.79c-0.58,0.51-1.52,0.91-2.45,0.98c-0.93,0.08-1.8-0.12-2.4-0.54c-0.6-0.42-1.05-1.03-1.14-2.23
		V69.61c-0.04-0.53,0.13-0.75,0.54-1.03c0.32-0.22,0.82-0.4,1.47-0.44c0.22-0.02,0.47-0.02,0.71,0h42.27
		c0.18-0.02,0.69,0.19,1.14,0.65c0.44,0.46,0.73,1.09,0.71,1.74V114.6z M114.66,37.75c-7.31,0-13.24,5.94-13.24,13.23
		c0,7.3,5.93,13.24,13.24,13.24s13.29-5.94,13.29-13.24C127.95,43.69,121.97,37.75,114.66,37.75z M114.66,60.73
		c-5.43,0-9.75-4.34-9.75-9.75c0-5.41,4.32-9.75,9.75-9.75c5.42,0,9.8,4.34,9.8,9.75C124.46,56.39,120.08,60.73,114.66,60.73z
		 M139.87,66.34c-0.99-1.04-2.28-1.77-3.81-1.69H94.07v0.06c-1.56-0.09-3.1,0.2-4.3,1.03c-1.23,0.85-2.08,2.34-2.02,3.98v45.04
		c0.16,2.09,1.2,3.8,2.62,4.79c1.41,0.99,3.12,1.34,4.74,1.2c1.02-0.09,2.02-0.34,2.94-0.82v33.77h0.05
		c-0.27,7.1,12.01,9.25,16.56,3c0.32,0.47,0.52,1.04,0.92,1.41c1.64,1.51,3.79,2.21,5.89,2.29c4.19,0.15,8.71-2.05,9.8-6.32
		c0.03-0.12,0.05-0.25,0.05-0.38v-33.66c1.01,0.51,2.11,0.73,3.22,0.76c1.63,0.06,3.27-0.33,4.63-1.36
		c1.35-1.02,2.32-2.72,2.39-4.74V70.59C141.6,68.9,140.89,67.4,139.87,66.34z M138.08,114.6c-0.05,1.01-0.39,1.62-0.98,2.07
		c-0.61,0.45-1.53,0.68-2.45,0.65c-0.92-0.03-1.83-0.32-2.4-0.82s-0.91-1.12-0.87-2.23c0-0.17-0.01-0.33-0.06-0.49V79.47
		c0.02-0.97-0.75-1.76-1.71-1.77c-0.97-0.01-1.76,0.76-1.77,1.72v73.9c-0.59,2.08-3.44,3.7-6.27,3.59
		c-1.42-0.05-2.69-0.52-3.59-1.36c-0.9-0.83-1.58-2.06-1.58-4.14l0.06-55.6c0.03-0.97-0.72-1.77-1.68-1.81c-0.08,0-0.16,0-0.23,0.01
		c-0.92,0.09-1.61,0.87-1.58,1.8l-0.06,55.44v0.16c-0.07,9.21-11.55,5-11.38,2.4v-38.83c0.02-0.23,0.01-0.47,0-0.71v-34.8
		c0.03-0.96-0.74-1.76-1.7-1.79c-0.14,0-0.28,0.01-0.42,0.04c-0.81,0.19-1.38,0.92-1.36,1.75v34.64c-0.01,0.11-0.01,0.21,0,0.32
		v0.06c0.04,0.8-0.24,1.29-0.82,1.79c-0.58,0.51-1.52,0.91-2.45,0.98c-0.93,0.08-1.8-0.12-2.4-0.54c-0.6-0.42-1.05-1.03-1.14-2.23
		V69.61c-0.04-0.53,0.13-0.75,0.54-1.03c0.32-0.22,0.82-0.4,1.47-0.44c0.22-0.02,0.47-0.02,0.71,0h42.27
		c0.18-0.02,0.69,0.19,1.14,0.65c0.44,0.46,0.73,1.09,0.71,1.74V114.6z M114.66,37.75c-7.31,0-13.24,5.94-13.24,13.23
		c0,7.3,5.93,13.24,13.24,13.24s13.29-5.94,13.29-13.24C127.95,43.69,121.97,37.75,114.66,37.75z M114.66,60.73
		c-5.43,0-9.75-4.34-9.75-9.75c0-5.41,4.32-9.75,9.75-9.75c5.42,0,9.8,4.34,9.8,9.75C124.46,56.39,120.08,60.73,114.66,60.73z
		 M114.66,37.75c-7.31,0-13.24,5.94-13.24,13.23c0,7.3,5.93,13.24,13.24,13.24s13.29-5.94,13.29-13.24
		C127.95,43.69,121.97,37.75,114.66,37.75z M114.66,60.73c-5.43,0-9.75-4.34-9.75-9.75c0-5.41,4.32-9.75,9.75-9.75
		c5.42,0,9.8,4.34,9.8,9.75C124.46,56.39,120.08,60.73,114.66,60.73z M139.87,66.34c-0.99-1.04-2.28-1.77-3.81-1.69H94.07v0.06
		c-1.56-0.09-3.1,0.2-4.3,1.03c-1.23,0.85-2.08,2.34-2.02,3.98v45.04c0.16,2.09,1.2,3.8,2.62,4.79c1.41,0.99,3.12,1.34,4.74,1.2
		c1.02-0.09,2.02-0.34,2.94-0.82v33.77h0.05c-0.27,7.1,12.01,9.25,16.56,3c0.32,0.47,0.52,1.04,0.92,1.41
		c1.64,1.51,3.79,2.21,5.89,2.29c4.19,0.15,8.71-2.05,9.8-6.32c0.03-0.12,0.05-0.25,0.05-0.38v-33.66c1.01,0.51,2.11,0.73,3.22,0.76
		c1.63,0.06,3.27-0.33,4.63-1.36c1.35-1.02,2.32-2.72,2.39-4.74V70.59C141.6,68.9,140.89,67.4,139.87,66.34z M138.08,114.6
		c-0.05,1.01-0.39,1.62-0.98,2.07c-0.61,0.45-1.53,0.68-2.45,0.65c-0.92-0.03-1.83-0.32-2.4-0.82s-0.91-1.12-0.87-2.23
		c0-0.17-0.01-0.33-0.06-0.49V79.47c0.02-0.97-0.75-1.76-1.71-1.77c-0.97-0.01-1.76,0.76-1.77,1.72v73.9
		c-0.59,2.08-3.44,3.7-6.27,3.59c-1.42-0.05-2.69-0.52-3.59-1.36c-0.9-0.83-1.58-2.06-1.58-4.14l0.06-55.6
		c0.03-0.97-0.72-1.77-1.68-1.81c-0.08,0-0.16,0-0.23,0.01c-0.92,0.09-1.61,0.87-1.58,1.8l-0.06,55.44v0.16
		c-0.07,9.21-11.55,5-11.38,2.4v-38.83c0.02-0.23,0.01-0.47,0-0.71v-34.8c0.03-0.96-0.74-1.76-1.7-1.79c-0.14,0-0.28,0.01-0.42,0.04
		c-0.81,0.19-1.38,0.92-1.36,1.75v34.64c-0.01,0.11-0.01,0.21,0,0.32v0.06c0.04,0.8-0.24,1.29-0.82,1.79
		c-0.58,0.51-1.52,0.91-2.45,0.98c-0.93,0.08-1.8-0.12-2.4-0.54c-0.6-0.42-1.05-1.03-1.14-2.23V69.61
		c-0.04-0.53,0.13-0.75,0.54-1.03c0.32-0.22,0.82-0.4,1.47-0.44c0.22-0.02,0.47-0.02,0.71,0h42.27c0.18-0.02,0.69,0.19,1.14,0.65
		c0.44,0.46,0.73,1.09,0.71,1.74V114.6z M139.87,66.34c-0.99-1.04-2.28-1.77-3.81-1.69H94.07v0.06c-1.56-0.09-3.1,0.2-4.3,1.03
		c-1.23,0.85-2.08,2.34-2.02,3.98v45.04c0.16,2.09,1.2,3.8,2.62,4.79c1.41,0.99,3.12,1.34,4.74,1.2c1.02-0.09,2.02-0.34,2.94-0.82
		v33.77h0.05c-0.27,7.1,12.01,9.25,16.56,3c0.32,0.47,0.52,1.04,0.92,1.41c1.64,1.51,3.79,2.21,5.89,2.29
		c4.19,0.15,8.71-2.05,9.8-6.32c0.03-0.12,0.05-0.25,0.05-0.38v-33.66c1.01,0.51,2.11,0.73,3.22,0.76c1.63,0.06,3.27-0.33,4.63-1.36
		c1.35-1.02,2.32-2.72,2.39-4.74V70.59C141.6,68.9,140.89,67.4,139.87,66.34z M138.08,114.6c-0.05,1.01-0.39,1.62-0.98,2.07
		c-0.61,0.45-1.53,0.68-2.45,0.65c-0.92-0.03-1.83-0.32-2.4-0.82s-0.91-1.12-0.87-2.23c0-0.17-0.01-0.33-0.06-0.49V79.47
		c0.02-0.97-0.75-1.76-1.71-1.77c-0.97-0.01-1.76,0.76-1.77,1.72v73.9c-0.59,2.08-3.44,3.7-6.27,3.59
		c-1.42-0.05-2.69-0.52-3.59-1.36c-0.9-0.83-1.58-2.06-1.58-4.14l0.06-55.6c0.03-0.97-0.72-1.77-1.68-1.81c-0.08,0-0.16,0-0.23,0.01
		c-0.92,0.09-1.61,0.87-1.58,1.8l-0.06,55.44v0.16c-0.07,9.21-11.55,5-11.38,2.4v-38.83c0.02-0.23,0.01-0.47,0-0.71v-34.8
		c0.03-0.96-0.74-1.76-1.7-1.79c-0.14,0-0.28,0.01-0.42,0.04c-0.81,0.19-1.38,0.92-1.36,1.75v34.64c-0.01,0.11-0.01,0.21,0,0.32
		v0.06c0.04,0.8-0.24,1.29-0.82,1.79c-0.58,0.51-1.52,0.91-2.45,0.98c-0.93,0.08-1.8-0.12-2.4-0.54c-0.6-0.42-1.05-1.03-1.14-2.23
		V69.61c-0.04-0.53,0.13-0.75,0.54-1.03c0.32-0.22,0.82-0.4,1.47-0.44c0.22-0.02,0.47-0.02,0.71,0h42.27
		c0.18-0.02,0.69,0.19,1.14,0.65c0.44,0.46,0.73,1.09,0.71,1.74V114.6z M114.66,37.75c-7.31,0-13.24,5.94-13.24,13.23
		c0,7.3,5.93,13.24,13.24,13.24s13.29-5.94,13.29-13.24C127.95,43.69,121.97,37.75,114.66,37.75z M114.66,60.73
		c-5.43,0-9.75-4.34-9.75-9.75c0-5.41,4.32-9.75,9.75-9.75c5.42,0,9.8,4.34,9.8,9.75C124.46,56.39,120.08,60.73,114.66,60.73z
		 M114.66,37.75c-7.31,0-13.24,5.94-13.24,13.23c0,7.3,5.93,13.24,13.24,13.24s13.29-5.94,13.29-13.24
		C127.95,43.69,121.97,37.75,114.66,37.75z M114.66,60.73c-5.43,0-9.75-4.34-9.75-9.75c0-5.41,4.32-9.75,9.75-9.75
		c5.42,0,9.8,4.34,9.8,9.75C124.46,56.39,120.08,60.73,114.66,60.73z M139.87,66.34c-0.99-1.04-2.28-1.77-3.81-1.69H94.07v0.06
		c-1.56-0.09-3.1,0.2-4.3,1.03c-1.23,0.85-2.08,2.34-2.02,3.98v45.04c0.16,2.09,1.2,3.8,2.62,4.79c1.41,0.99,3.12,1.34,4.74,1.2
		c1.02-0.09,2.02-0.34,2.94-0.82v33.77h0.05c-0.27,7.1,12.01,9.25,16.56,3c0.32,0.47,0.52,1.04,0.92,1.41
		c1.64,1.51,3.79,2.21,5.89,2.29c4.19,0.15,8.71-2.05,9.8-6.32c0.03-0.12,0.05-0.25,0.05-0.38v-33.66c1.01,0.51,2.11,0.73,3.22,0.76
		c1.63,0.06,3.27-0.33,4.63-1.36c1.35-1.02,2.32-2.72,2.39-4.74V70.59C141.6,68.9,140.89,67.4,139.87,66.34z M138.08,114.6
		c-0.05,1.01-0.39,1.62-0.98,2.07c-0.61,0.45-1.53,0.68-2.45,0.65c-0.92-0.03-1.83-0.32-2.4-0.82s-0.91-1.12-0.87-2.23
		c0-0.17-0.01-0.33-0.06-0.49V79.47c0.02-0.97-0.75-1.76-1.71-1.77c-0.97-0.01-1.76,0.76-1.77,1.72v73.9
		c-0.59,2.08-3.44,3.7-6.27,3.59c-1.42-0.05-2.69-0.52-3.59-1.36c-0.9-0.83-1.58-2.06-1.58-4.14l0.06-55.6
		c0.03-0.97-0.72-1.77-1.68-1.81c-0.08,0-0.16,0-0.23,0.01c-0.92,0.09-1.61,0.87-1.58,1.8l-0.06,55.44v0.16
		c-0.07,9.21-11.55,5-11.38,2.4v-38.83c0.02-0.23,0.01-0.47,0-0.71v-34.8c0.03-0.96-0.74-1.76-1.7-1.79c-0.14,0-0.28,0.01-0.42,0.04
		c-0.81,0.19-1.38,0.92-1.36,1.75v34.64c-0.01,0.11-0.01,0.21,0,0.32v0.06c0.04,0.8-0.24,1.29-0.82,1.79
		c-0.58,0.51-1.52,0.91-2.45,0.98c-0.93,0.08-1.8-0.12-2.4-0.54c-0.6-0.42-1.05-1.03-1.14-2.23V69.61
		c-0.04-0.53,0.13-0.75,0.54-1.03c0.32-0.22,0.82-0.4,1.47-0.44c0.22-0.02,0.47-0.02,0.71,0h42.27c0.18-0.02,0.69,0.19,1.14,0.65
		c0.44,0.46,0.73,1.09,0.71,1.74V114.6z M139.87,66.34c-0.99-1.04-2.28-1.77-3.81-1.69H94.07v0.06c-1.56-0.09-3.1,0.2-4.3,1.03
		c-1.23,0.85-2.08,2.34-2.02,3.98v45.04c0.16,2.09,1.2,3.8,2.62,4.79c1.41,0.99,3.12,1.34,4.74,1.2c1.02-0.09,2.02-0.34,2.94-0.82
		v33.77h0.05c-0.27,7.1,12.01,9.25,16.56,3c0.32,0.47,0.52,1.04,0.92,1.41c1.64,1.51,3.79,2.21,5.89,2.29
		c4.19,0.15,8.71-2.05,9.8-6.32c0.03-0.12,0.05-0.25,0.05-0.38v-33.66c1.01,0.51,2.11,0.73,3.22,0.76c1.63,0.06,3.27-0.33,4.63-1.36
		c1.35-1.02,2.32-2.72,2.39-4.74V70.59C141.6,68.9,140.89,67.4,139.87,66.34z M138.08,114.6c-0.05,1.01-0.39,1.62-0.98,2.07
		c-0.61,0.45-1.53,0.68-2.45,0.65c-0.92-0.03-1.83-0.32-2.4-0.82s-0.91-1.12-0.87-2.23c0-0.17-0.01-0.33-0.06-0.49V79.47
		c0.02-0.97-0.75-1.76-1.71-1.77c-0.97-0.01-1.76,0.76-1.77,1.72v73.9c-0.59,2.08-3.44,3.7-6.27,3.59
		c-1.42-0.05-2.69-0.52-3.59-1.36c-0.9-0.83-1.58-2.06-1.58-4.14l0.06-55.6c0.03-0.97-0.72-1.77-1.68-1.81c-0.08,0-0.16,0-0.23,0.01
		c-0.92,0.09-1.61,0.87-1.58,1.8l-0.06,55.44v0.16c-0.07,9.21-11.55,5-11.38,2.4v-38.83c0.02-0.23,0.01-0.47,0-0.71v-34.8
		c0.03-0.96-0.74-1.76-1.7-1.79c-0.14,0-0.28,0.01-0.42,0.04c-0.81,0.19-1.38,0.92-1.36,1.75v34.64c-0.01,0.11-0.01,0.21,0,0.32
		v0.06c0.04,0.8-0.24,1.29-0.82,1.79c-0.58,0.51-1.52,0.91-2.45,0.98c-0.93,0.08-1.8-0.12-2.4-0.54c-0.6-0.42-1.05-1.03-1.14-2.23
		V69.61c-0.04-0.53,0.13-0.75,0.54-1.03c0.32-0.22,0.82-0.4,1.47-0.44c0.22-0.02,0.47-0.02,0.71,0h42.27
		c0.18-0.02,0.69,0.19,1.14,0.65c0.44,0.46,0.73,1.09,0.71,1.74V114.6z M114.66,64.22c7.31,0,13.29-5.94,13.29-13.24
		c0-7.29-5.98-13.23-13.29-13.23s-13.24,5.94-13.24,13.23C101.42,58.28,107.35,64.22,114.66,64.22z M114.66,41.23
		c5.42,0,9.8,4.34,9.8,9.75c0,5.41-4.38,9.75-9.8,9.75c-5.43,0-9.75-4.34-9.75-9.75C104.91,45.57,109.23,41.23,114.66,41.23z
		 M149.63,18.96H79.75c-6.79,0-12.53,4.81-12.53,11.05v138.23c0,6.24,5.74,11.06,12.53,11.06h69.88c6.78,0,12.52-4.82,12.52-11.06
		V30.01C162.15,23.77,156.41,18.96,149.63,18.96z M158.67,168.24c0,4.08-3.87,7.57-9.04,7.57H79.75c-5.17,0-9.04-3.49-9.04-7.57
		V30.01c0-4.07,3.87-7.57,9.04-7.57h69.88c5.17,0,9.04,3.5,9.04,7.57V168.24z M136.06,64.65H94.07v0.06c-1.56-0.09-3.1,0.2-4.3,1.03
		c-1.23,0.85-2.08,2.34-2.02,3.98v45.04c0.16,2.09,1.2,3.8,2.62,4.79c1.41,0.99,3.12,1.34,4.74,1.2c1.02-0.09,2.02-0.34,2.94-0.82
		v33.77h0.05c-0.27,7.1,12.01,9.25,16.56,3c0.32,0.47,0.52,1.04,0.92,1.41c1.64,1.51,3.79,2.21,5.89,2.29
		c4.19,0.15,8.71-2.05,9.8-6.32c0.03-0.12,0.05-0.25,0.05-0.38v-33.66c1.01,0.51,2.11,0.73,3.22,0.76c1.63,0.06,3.27-0.33,4.63-1.36
		c1.35-1.02,2.32-2.72,2.39-4.74V70.59c0.04-1.69-0.67-3.19-1.69-4.25C138.88,65.3,137.59,64.57,136.06,64.65z M138.08,114.6
		c-0.05,1.01-0.39,1.62-0.98,2.07c-0.61,0.45-1.53,0.68-2.45,0.65c-0.92-0.03-1.83-0.32-2.4-0.82s-0.91-1.12-0.87-2.23
		c0-0.17-0.01-0.33-0.06-0.49V79.47c0.02-0.97-0.75-1.76-1.71-1.77c-0.97-0.01-1.76,0.76-1.77,1.72v73.9
		c-0.59,2.08-3.44,3.7-6.27,3.59c-1.42-0.05-2.69-0.52-3.59-1.36c-0.9-0.83-1.58-2.06-1.58-4.14l0.06-55.6
		c0.03-0.97-0.72-1.77-1.68-1.81c-0.08,0-0.16,0-0.23,0.01c-0.92,0.09-1.61,0.87-1.58,1.8l-0.06,55.44v0.16
		c-0.07,9.21-11.55,5-11.38,2.4v-38.83c0.02-0.23,0.01-0.47,0-0.71v-34.8c0.03-0.96-0.74-1.76-1.7-1.79c-0.14,0-0.28,0.01-0.42,0.04
		c-0.81,0.19-1.38,0.92-1.36,1.75v34.64c-0.01,0.11-0.01,0.21,0,0.32v0.06c0.04,0.8-0.24,1.29-0.82,1.79
		c-0.58,0.51-1.52,0.91-2.45,0.98c-0.93,0.08-1.8-0.12-2.4-0.54c-0.6-0.42-1.05-1.03-1.14-2.23V69.61
		c-0.04-0.53,0.13-0.75,0.54-1.03c0.32-0.22,0.82-0.4,1.47-0.44c0.22-0.02,0.47-0.02,0.71,0h42.27c0.18-0.02,0.69,0.19,1.14,0.65
		c0.44,0.46,0.73,1.09,0.71,1.74V114.6z M114.66,64.22c7.31,0,13.29-5.94,13.29-13.24c0-7.29-5.98-13.23-13.29-13.23
		s-13.24,5.94-13.24,13.23C101.42,58.28,107.35,64.22,114.66,64.22z M114.66,41.23c5.42,0,9.8,4.34,9.8,9.75
		c0,5.41-4.38,9.75-9.8,9.75c-5.43,0-9.75-4.34-9.75-9.75C104.91,45.57,109.23,41.23,114.66,41.23z M114.66,37.75
		c-7.31,0-13.24,5.94-13.24,13.23c0,7.3,5.93,13.24,13.24,13.24s13.29-5.94,13.29-13.24C127.95,43.69,121.97,37.75,114.66,37.75z
		 M114.66,60.73c-5.43,0-9.75-4.34-9.75-9.75c0-5.41,4.32-9.75,9.75-9.75c5.42,0,9.8,4.34,9.8,9.75
		C124.46,56.39,120.08,60.73,114.66,60.73z M139.87,66.34c-0.99-1.04-2.28-1.77-3.81-1.69H94.07v0.06c-1.56-0.09-3.1,0.2-4.3,1.03
		c-1.23,0.85-2.08,2.34-2.02,3.98v45.04c0.16,2.09,1.2,3.8,2.62,4.79c1.41,0.99,3.12,1.34,4.74,1.2c1.02-0.09,2.02-0.34,2.94-0.82
		v33.77h0.05c-0.27,7.1,12.01,9.25,16.56,3c0.32,0.47,0.52,1.04,0.92,1.41c1.64,1.51,3.79,2.21,5.89,2.29
		c4.19,0.15,8.71-2.05,9.8-6.32c0.03-0.12,0.05-0.25,0.05-0.38v-33.66c1.01,0.51,2.11,0.73,3.22,0.76c1.63,0.06,3.27-0.33,4.63-1.36
		c1.35-1.02,2.32-2.72,2.39-4.74V70.59C141.6,68.9,140.89,67.4,139.87,66.34z M138.08,114.6c-0.05,1.01-0.39,1.62-0.98,2.07
		c-0.61,0.45-1.53,0.68-2.45,0.65c-0.92-0.03-1.83-0.32-2.4-0.82s-0.91-1.12-0.87-2.23c0-0.17-0.01-0.33-0.06-0.49V79.47
		c0.02-0.97-0.75-1.76-1.71-1.77c-0.97-0.01-1.76,0.76-1.77,1.72v73.9c-0.59,2.08-3.44,3.7-6.27,3.59
		c-1.42-0.05-2.69-0.52-3.59-1.36c-0.9-0.83-1.58-2.06-1.58-4.14l0.06-55.6c0.03-0.97-0.72-1.77-1.68-1.81c-0.08,0-0.16,0-0.23,0.01
		c-0.92,0.09-1.61,0.87-1.58,1.8l-0.06,55.44v0.16c-0.07,9.21-11.55,5-11.38,2.4v-38.83c0.02-0.23,0.01-0.47,0-0.71v-34.8
		c0.03-0.96-0.74-1.76-1.7-1.79c-0.14,0-0.28,0.01-0.42,0.04c-0.81,0.19-1.38,0.92-1.36,1.75v34.64c-0.01,0.11-0.01,0.21,0,0.32
		v0.06c0.04,0.8-0.24,1.29-0.82,1.79c-0.58,0.51-1.52,0.91-2.45,0.98c-0.93,0.08-1.8-0.12-2.4-0.54c-0.6-0.42-1.05-1.03-1.14-2.23
		V69.61c-0.04-0.53,0.13-0.75,0.54-1.03c0.32-0.22,0.82-0.4,1.47-0.44c0.22-0.02,0.47-0.02,0.71,0h42.27
		c0.18-0.02,0.69,0.19,1.14,0.65c0.44,0.46,0.73,1.09,0.71,1.74V114.6z M139.87,66.34c-0.99-1.04-2.28-1.77-3.81-1.69H94.07v0.06
		c-1.56-0.09-3.1,0.2-4.3,1.03c-1.23,0.85-2.08,2.34-2.02,3.98v45.04c0.16,2.09,1.2,3.8,2.62,4.79c1.41,0.99,3.12,1.34,4.74,1.2
		c1.02-0.09,2.02-0.34,2.94-0.82v33.77h0.05c-0.27,7.1,12.01,9.25,16.56,3c0.32,0.47,0.52,1.04,0.92,1.41
		c1.64,1.51,3.79,2.21,5.89,2.29c4.19,0.15,8.71-2.05,9.8-6.32c0.03-0.12,0.05-0.25,0.05-0.38v-33.66c1.01,0.51,2.11,0.73,3.22,0.76
		c1.63,0.06,3.27-0.33,4.63-1.36c1.35-1.02,2.32-2.72,2.39-4.74V70.59C141.6,68.9,140.89,67.4,139.87,66.34z M138.08,114.6
		c-0.05,1.01-0.39,1.62-0.98,2.07c-0.61,0.45-1.53,0.68-2.45,0.65c-0.92-0.03-1.83-0.32-2.4-0.82s-0.91-1.12-0.87-2.23
		c0-0.17-0.01-0.33-0.06-0.49V79.47c0.02-0.97-0.75-1.76-1.71-1.77c-0.97-0.01-1.76,0.76-1.77,1.72v73.9
		c-0.59,2.08-3.44,3.7-6.27,3.59c-1.42-0.05-2.69-0.52-3.59-1.36c-0.9-0.83-1.58-2.06-1.58-4.14l0.06-55.6
		c0.03-0.97-0.72-1.77-1.68-1.81c-0.08,0-0.16,0-0.23,0.01c-0.92,0.09-1.61,0.87-1.58,1.8l-0.06,55.44v0.16
		c-0.07,9.21-11.55,5-11.38,2.4v-38.83c0.02-0.23,0.01-0.47,0-0.71v-34.8c0.03-0.96-0.74-1.76-1.7-1.79c-0.14,0-0.28,0.01-0.42,0.04
		c-0.81,0.19-1.38,0.92-1.36,1.75v34.64c-0.01,0.11-0.01,0.21,0,0.32v0.06c0.04,0.8-0.24,1.29-0.82,1.79
		c-0.58,0.51-1.52,0.91-2.45,0.98c-0.93,0.08-1.8-0.12-2.4-0.54c-0.6-0.42-1.05-1.03-1.14-2.23V69.61
		c-0.04-0.53,0.13-0.75,0.54-1.03c0.32-0.22,0.82-0.4,1.47-0.44c0.22-0.02,0.47-0.02,0.71,0h42.27c0.18-0.02,0.69,0.19,1.14,0.65
		c0.44,0.46,0.73,1.09,0.71,1.74V114.6z M114.66,37.75c-7.31,0-13.24,5.94-13.24,13.23c0,7.3,5.93,13.24,13.24,13.24
		s13.29-5.94,13.29-13.24C127.95,43.69,121.97,37.75,114.66,37.75z M114.66,60.73c-5.43,0-9.75-4.34-9.75-9.75
		c0-5.41,4.32-9.75,9.75-9.75c5.42,0,9.8,4.34,9.8,9.75C124.46,56.39,120.08,60.73,114.66,60.73z M114.66,37.75
		c-7.31,0-13.24,5.94-13.24,13.23c0,7.3,5.93,13.24,13.24,13.24s13.29-5.94,13.29-13.24C127.95,43.69,121.97,37.75,114.66,37.75z
		 M114.66,60.73c-5.43,0-9.75-4.34-9.75-9.75c0-5.41,4.32-9.75,9.75-9.75c5.42,0,9.8,4.34,9.8,9.75
		C124.46,56.39,120.08,60.73,114.66,60.73z M139.87,66.34c-0.99-1.04-2.28-1.77-3.81-1.69H94.07v0.06c-1.56-0.09-3.1,0.2-4.3,1.03
		c-1.23,0.85-2.08,2.34-2.02,3.98v45.04c0.16,2.09,1.2,3.8,2.62,4.79c1.41,0.99,3.12,1.34,4.74,1.2c1.02-0.09,2.02-0.34,2.94-0.82
		v33.77h0.05c-0.27,7.1,12.01,9.25,16.56,3c0.32,0.47,0.52,1.04,0.92,1.41c1.64,1.51,3.79,2.21,5.89,2.29
		c4.19,0.15,8.71-2.05,9.8-6.32c0.03-0.12,0.05-0.25,0.05-0.38v-33.66c1.01,0.51,2.11,0.73,3.22,0.76c1.63,0.06,3.27-0.33,4.63-1.36
		c1.35-1.02,2.32-2.72,2.39-4.74V70.59C141.6,68.9,140.89,67.4,139.87,66.34z M138.08,114.6c-0.05,1.01-0.39,1.62-0.98,2.07
		c-0.61,0.45-1.53,0.68-2.45,0.65c-0.92-0.03-1.83-0.32-2.4-0.82s-0.91-1.12-0.87-2.23c0-0.17-0.01-0.33-0.06-0.49V79.47
		c0.02-0.97-0.75-1.76-1.71-1.77c-0.97-0.01-1.76,0.76-1.77,1.72v73.9c-0.59,2.08-3.44,3.7-6.27,3.59
		c-1.42-0.05-2.69-0.52-3.59-1.36c-0.9-0.83-1.58-2.06-1.58-4.14l0.06-55.6c0.03-0.97-0.72-1.77-1.68-1.81c-0.08,0-0.16,0-0.23,0.01
		c-0.92,0.09-1.61,0.87-1.58,1.8l-0.06,55.44v0.16c-0.07,9.21-11.55,5-11.38,2.4v-38.83c0.02-0.23,0.01-0.47,0-0.71v-34.8
		c0.03-0.96-0.74-1.76-1.7-1.79c-0.14,0-0.28,0.01-0.42,0.04c-0.81,0.19-1.38,0.92-1.36,1.75v34.64c-0.01,0.11-0.01,0.21,0,0.32
		v0.06c0.04,0.8-0.24,1.29-0.82,1.79c-0.58,0.51-1.52,0.91-2.45,0.98c-0.93,0.08-1.8-0.12-2.4-0.54c-0.6-0.42-1.05-1.03-1.14-2.23
		V69.61c-0.04-0.53,0.13-0.75,0.54-1.03c0.32-0.22,0.82-0.4,1.47-0.44c0.22-0.02,0.47-0.02,0.71,0h42.27
		c0.18-0.02,0.69,0.19,1.14,0.65c0.44,0.46,0.73,1.09,0.71,1.74V114.6z M139.87,66.34c-0.99-1.04-2.28-1.77-3.81-1.69H94.07v0.06
		c-1.56-0.09-3.1,0.2-4.3,1.03c-1.23,0.85-2.08,2.34-2.02,3.98v45.04c0.16,2.09,1.2,3.8,2.62,4.79c1.41,0.99,3.12,1.34,4.74,1.2
		c1.02-0.09,2.02-0.34,2.94-0.82v33.77h0.05c-0.27,7.1,12.01,9.25,16.56,3c0.32,0.47,0.52,1.04,0.92,1.41
		c1.64,1.51,3.79,2.21,5.89,2.29c4.19,0.15,8.71-2.05,9.8-6.32c0.03-0.12,0.05-0.25,0.05-0.38v-33.66c1.01,0.51,2.11,0.73,3.22,0.76
		c1.63,0.06,3.27-0.33,4.63-1.36c1.35-1.02,2.32-2.72,2.39-4.74V70.59C141.6,68.9,140.89,67.4,139.87,66.34z M138.08,114.6
		c-0.05,1.01-0.39,1.62-0.98,2.07c-0.61,0.45-1.53,0.68-2.45,0.65c-0.92-0.03-1.83-0.32-2.4-0.82s-0.91-1.12-0.87-2.23
		c0-0.17-0.01-0.33-0.06-0.49V79.47c0.02-0.97-0.75-1.76-1.71-1.77c-0.97-0.01-1.76,0.76-1.77,1.72v73.9
		c-0.59,2.08-3.44,3.7-6.27,3.59c-1.42-0.05-2.69-0.52-3.59-1.36c-0.9-0.83-1.58-2.06-1.58-4.14l0.06-55.6
		c0.03-0.97-0.72-1.77-1.68-1.81c-0.08,0-0.16,0-0.23,0.01c-0.92,0.09-1.61,0.87-1.58,1.8l-0.06,55.44v0.16
		c-0.07,9.21-11.55,5-11.38,2.4v-38.83c0.02-0.23,0.01-0.47,0-0.71v-34.8c0.03-0.96-0.74-1.76-1.7-1.79c-0.14,0-0.28,0.01-0.42,0.04
		c-0.81,0.19-1.38,0.92-1.36,1.75v34.64c-0.01,0.11-0.01,0.21,0,0.32v0.06c0.04,0.8-0.24,1.29-0.82,1.79
		c-0.58,0.51-1.52,0.91-2.45,0.98c-0.93,0.08-1.8-0.12-2.4-0.54c-0.6-0.42-1.05-1.03-1.14-2.23V69.61
		c-0.04-0.53,0.13-0.75,0.54-1.03c0.32-0.22,0.82-0.4,1.47-0.44c0.22-0.02,0.47-0.02,0.71,0h42.27c0.18-0.02,0.69,0.19,1.14,0.65
		c0.44,0.46,0.73,1.09,0.71,1.74V114.6z M114.66,37.75c-7.31,0-13.24,5.94-13.24,13.23c0,7.3,5.93,13.24,13.24,13.24
		s13.29-5.94,13.29-13.24C127.95,43.69,121.97,37.75,114.66,37.75z M114.66,60.73c-5.43,0-9.75-4.34-9.75-9.75
		c0-5.41,4.32-9.75,9.75-9.75c5.42,0,9.8,4.34,9.8,9.75C124.46,56.39,120.08,60.73,114.66,60.73z"/>
	<path class="st2" d="M56.78,132.09c-0.29-0.16-0.61-0.24-0.94-0.23l-2.24,0.05v-11.98c0-0.96-0.78-1.74-1.74-1.74h-8.28
		c-0.11-0.01-0.22-0.01-0.32,0c-0.84,0.16-1.43,0.9-1.42,1.74v12.09h-2.29c-0.96,0.03-1.72,0.82-1.7,1.79
		c0.01,0.29,0.09,0.57,0.23,0.83l8.28,14.32c0.47,0.84,1.53,1.15,2.37,0.68c0.29-0.16,0.52-0.39,0.68-0.68l8.01-14.48
		C57.9,133.64,57.61,132.58,56.78,132.09z M47.83,144.61l-5.23-9.1h0.98c0.97,0,1.75-0.78,1.75-1.74v-12.09h4.79v11.98
		c0,0.96,0.78,1.74,1.74,1.74h1.09L47.83,144.61z"/>
	<path class="st2" d="M51.92,109.91c0,2.58-2.11,4.69-4.69,4.69c-2.58,0-4.68-2.11-4.68-4.69c0-2.57,2.1-4.68,4.68-4.68
		C49.81,105.23,51.92,107.34,51.92,109.91z"/>
	<path class="st2" d="M51.92,98.09c0,2.58-2.11,4.69-4.69,4.69c-2.58,0-4.68-2.11-4.68-4.69c0-2.57,2.1-4.68,4.68-4.68
		C49.81,93.41,51.92,95.52,51.92,98.09z"/>
	<path class="st2" d="M51.92,86.27c0,2.58-2.11,4.69-4.69,4.69c-2.58,0-4.68-2.11-4.68-4.69c0-2.57,2.1-4.68,4.68-4.68
		C49.81,81.59,51.92,83.7,51.92,86.27z"/>
	<path class="st2" d="M57.42,59.64l-7.96-14.32c-0.01-0.06-0.03-0.11-0.05-0.17c-0.35-0.61-1.04-0.96-1.74-0.87
		c-0.55,0.07-1.04,0.39-1.31,0.87l-8.28,14.33c-0.48,0.83-0.19,1.9,0.64,2.38c0.25,0.15,0.54,0.23,0.83,0.23l2.29,0.06v12.03
		c0,0.97,0.78,1.75,1.74,1.75h8.28c0.96,0,1.74-0.78,1.74-1.75V62.2l2.24,0.06c0.96,0.03,1.77-0.71,1.81-1.68
		C57.66,60.25,57.58,59.93,57.42,59.64z M51.86,58.72c-0.96,0-1.74,0.78-1.74,1.74v11.98h-4.79V60.4c0-0.96-0.78-1.74-1.75-1.74
		h-1.03l5.28-9.15l5.12,9.21H51.86z"/>
</g>
</svg>
