<?xml version="1.0" encoding="utf-8"?>
<!-- Generator: Adobe Illustrator 23.0.3, SVG Export Plug-In . SVG Version: 6.00 Build 0)  -->
<svg version="1.1" xmlns="http://www.w3.org/2000/svg" xmlns:xlink="http://www.w3.org/1999/xlink" x="0px" y="0px"
	 viewBox="0 0 400 400" style="enable-background:new 0 0 400 400;" xml:space="preserve">
<style type="text/css">
	.st0{display:none;}
	.st1{display:inline;}
	.st2{fill:#BA923D;}
	.st3{fill:#FFFFFF;}
	.st4{fill:none;stroke:#FFFFFF;stroke-width:0.393;stroke-miterlimit:10;}
</style>
<g id="Layer_1" class="st0">
	<g class="st1">
		<path class="st2" d="M123.58,64.09h-19.91c-1.82,0-4,2.1-4.86,4.68L12.5,331.22c-0.84,2.57,1.36,4.68,4.98,4.68l39.14-0.05
			c3.28,0.22,6.33-1.67,7.62-4.7l61.57-262.38C126.42,66.2,125.41,64.09,123.58,64.09"/>
		<path class="st2" d="M150.1,64.09c-1.61,0-3.23,2.05-3.69,4.66l-43.43,262.37c-0.44,2.59,1.75,4.73,5,4.73l67.43-0.13
			c-0.91-1.6-1.35-3.42-1.3-5.27l0.84-41.28c0.37-6.6,5.94-11.69,12.55-11.44l12.44-0.07l12.55,0.07
			c6.61-0.25,12.18,4.85,12.55,11.44l0.84,41.28c0.07,1.85-0.39,3.67-1.3,5.27l67.43,0.13c3.25,0,5.45-2.14,5-4.73L253.59,68.75
			c-0.45-2.61-2.07-4.66-3.7-4.66H219.8l0.98,40.57c0.1,3.03-1.04,5.97-3.11,8.16c-1.87,1.92-4.43,3.03-7.1,3.03h-21.1
			c-2.71,0-5.25-1.11-7.12-3.03c-2.09-2.19-3.21-5.13-3.11-8.16l0.98-40.57H150.1z M224.14,247.1c0.07,2.81-1.01,5.52-2.98,7.52
			c-2.41,2.32-5.65,3.62-9,3.62h-24.33c-3.35,0-6.58-1.3-8.99-3.62c-1.97-2-3.05-4.71-2.98-7.52l0.84-36.23
			c0.3-6.18,5.47-10.99,11.64-10.87h23.31c6.18-0.12,11.33,4.69,11.64,10.87L224.14,247.1z M189.19,128.82h21.62
			c5.75-0.12,10.55,4.38,10.8,10.16l0.86,31.05c0.05,2.68-0.96,5.28-2.86,7.17c-2.21,2.2-5.2,3.42-8.3,3.37h-22.63
			c-3.11,0.05-6.11-1.16-8.28-3.37c-1.92-1.88-2.93-4.49-2.86-7.17l0.82-31.05C178.62,133.2,183.44,128.71,189.19,128.82"/>
		<path class="st2" d="M343.38,335.86l39.14,0.05c3.6,0,5.82-2.1,4.98-4.68L301.18,68.78c-0.84-2.57-3.03-4.68-4.85-4.68h-19.91
			c-1.85,0-2.83,2.1-2.22,4.68l61.57,262.38C337.05,334.18,340.11,336.08,343.38,335.86"/>
	</g>
</g>
<g id="Layer_2" class="st0">
	<g class="st1">
		
			<rect x="59.87" y="60.56" transform="matrix(0.7071 -0.7071 0.7071 0.7071 -83.1002 199.6542)" class="st2" width="279.16" height="279.16"/>
		<path class="st3" d="M309.3,200.14c0,60.67-49.18,109.85-109.85,109.85S89.6,260.8,89.6,200.14
			c0-60.67,49.18-109.85,109.85-109.85S309.3,139.47,309.3,200.14"/>
		<path class="st2" d="M268.38,200.14c0,38.06-30.86,68.92-68.94,68.92c-38.04,0-68.92-30.86-68.92-68.92
			c0-38.08,30.88-68.95,68.92-68.95C237.52,131.19,268.38,162.06,268.38,200.14"/>
		<rect x="56.59" y="168.59" class="st2" width="285.75" height="63.08"/>
		<rect x="56.59" y="168.59" class="st4" width="285.75" height="63.08"/>
	</g>
</g>
<g id="Layer_3">
	<g>
		<path class="st2" d="M235.84,266.13c-26.35,22.25-49.9,47.7-70.06,75.64c-2.46,3.45-1.69,8.26,1.75,10.75
			c1.36,0.99,2.95,1.46,4.51,1.46c2.38,0,4.75-1.1,6.24-3.22c19.4-26.92,42.11-51.43,67.49-72.87c3.26-2.72,3.67-7.59,0.93-10.85
			C243.93,263.78,239.09,263.39,235.84,266.13"/>
		<path class="st2" d="M396.64,188.71c-1.19-2.98-4.02-4.9-7.2-4.9c-7.72,0-15.38,0.2-22.97,0.6v-15.25
			c7.26-1.46,13.99-5.1,19.4-10.44c10.31-10.35,13.93-26,9.12-39.81L373.4,56.53c-2.18-6.42-7.99-10.51-14.79-10.51
			c-6.73,0-12.54,4.1-14.79,10.51l-21.59,62.39c-4.74,13.8-1.17,29.46,9.19,39.81c5.47,5.41,12.27,9.05,19.67,10.51v16.24
			c-15.65,1.39-31.1,3.57-46.37,6.54v-35.07c0-1.13-0.26-2.18-0.73-3.16l-15.38-33.95c-1.25-2.71-3.95-4.48-6.99-4.48H241.6V92.17
			c0-1.12-0.27-2.18-0.72-3.16l-15.39-33.94c-1.25-2.71-3.95-4.48-7-4.48h-36.97c-3.02,0-5.74,1.78-7,4.48l-15.38,33.94
			c-0.46,0.99-0.73,2.05-0.73,3.16v23.18H118.4c-3.02,0-5.81,1.78-7.07,4.48l-15.36,33.95c-0.46,0.99-0.67,2.03-0.67,3.16v35
			c-15.24-3.04-30.7-5.17-46.35-6.53v-16.18c7.2-1.46,14.08-4.97,19.69-10.51c10.37-10.35,13.93-26,9.11-39.81L56.14,56.53
			c-2.18-6.42-7.99-10.51-14.79-10.51c-6.73,0-12.53,4.1-14.79,10.51L4.98,118.92c-4.75,13.8-1.19,29.46,9.16,39.81
			c5.56,5.48,12.29,8.98,19.42,10.44v15.25c-7.65-0.4-15.32-0.6-22.98-0.6c-4.22,0-7.72,3.45-7.72,7.66c0,4.3,3.49,7.72,7.72,7.72
			c60.1,0,117.86,12.3,171.93,36.46c-24.82,13.4-48.46,29.18-70.45,47.28c-29.31-26.48-62.32-48.07-98.37-64.11
			c-3.84-1.73-8.38,0.06-10.17,3.88c-1.72,3.91,0.07,8.46,3.95,10.17c33.88,15.14,65.04,35.33,92.78,60.16
			c-13.93,12.23-27.13,25.49-39.49,39.62c-12.6-23.11-27.46-45.11-44.23-65.38c-2.71-3.29-7.59-3.75-10.88-1.05
			c-3.24,2.78-3.69,7.59-1,10.9c18.56,22.37,34.6,46.81,47.67,72.63c1.19,2.31,3.45,3.89,6.01,4.17c2.65,0.33,5.15-0.74,6.8-2.71
			C134.51,267.8,232.1,215.12,338.4,202.25c-15.45,6.8-30.5,14.46-45.11,23.05c-3.62,2.16-4.81,6.92-2.69,10.55
			c1.45,2.45,4.02,3.77,6.67,3.77c1.32,0,2.64-0.34,3.9-1.06c18.41-10.83,37.69-20.2,57.51-28.05
			c-37.9,39.15-69.54,83.52-94.22,132.31c-1.92,3.75-0.47,8.39,3.36,10.35c1.12,0.54,2.31,0.8,3.49,0.8c2.78,0,5.48-1.52,6.87-4.22
			c29.18-57.71,68.39-109.01,116.4-152.52C396.98,195.04,397.76,191.68,396.64,188.71 M158.41,209.38
			c-5.34-1.92-10.77-3.77-16.17-5.48v-16.62c0-4.22-3.44-7.73-7.66-7.73c-4.28,0-7.73,3.51-7.73,7.73v12.07
			c-5.36-1.45-10.77-2.84-16.18-4.1V164.6h47.74V209.38z M158.41,149.22h-43.52l8.46-18.49h35.05V149.22z M186.46,65.97h27.08
			l8.39,18.49h-43.85L186.46,65.97z M226.15,215.26c-6.2,2.49-12.34,5.14-18.49,7.92v-17.83c0-4.24-3.42-7.66-7.65-7.66
			c-4.3,0-7.73,3.42-7.73,7.66v17.83c-6.07-2.78-12.29-5.43-18.49-7.92v-50.7h52.35V215.26z M226.15,149.15h-18.49v-19.67
			c0-4.22-3.42-7.66-7.65-7.66c-4.3,0-7.73,3.44-7.73,7.66v19.67H173.8V99.83h52.35V149.15z M241.6,130.74h35.05l8.39,18.49H241.6
			V130.74z M289.35,195.32c-5.41,1.32-10.83,2.65-16.18,4.08v-12.13c0-4.22-3.44-7.73-7.72-7.73c-4.22,0-7.66,3.51-7.66,7.73v16.7
			c-5.48,1.72-10.83,3.57-16.18,5.47V164.6h47.74V195.32z"/>
		<path class="st2" d="M336.79,123.93l21.61-62.35c0.03-0.09,0.06-0.14,0.06-0.14c0.07-0.04,0.29-0.04,0.34,0
			c0,0,0.03,0.04,0.07,0.14l21.58,62.35c2.88,8.31,0.73,17.68-5.5,23.9c-4.35,4.37-10.15,6.77-16.32,6.77
			c-6.17,0-11.97-2.41-16.34-6.77C336.09,141.61,333.94,132.23,336.79,123.93"/>
		<path class="st2" d="M19.56,123.93l21.59-62.35c0.03-0.09,0.06-0.14,0.04-0.14c0.09-0.04,0.29-0.04,0.34,0
			c0.01,0,0.04,0.04,0.07,0.14l21.61,62.35c2.86,8.31,0.7,17.68-5.51,23.9c-8.99,9.01-23.66,9.01-32.66,0
			C18.83,141.61,16.68,132.23,19.56,123.93"/>
		<path class="st2" d="M273.64,256.23c1.45-1.43,2.26-3.41,2.26-5.46c0-2-0.82-3.99-2.26-5.44c-1.45-1.42-3.41-2.25-5.44-2.25
			c-2.02,0-4.02,0.83-5.44,2.25c-1.43,1.45-2.26,3.42-2.26,5.44c0,2.05,0.83,4.02,2.26,5.46c1.43,1.45,3.42,2.25,5.44,2.25
			C270.23,258.48,272.2,257.67,273.64,256.23"/>
	</g>
</g>
</svg>
