<?xml version="1.0" encoding="utf-8"?>
<!-- Generator: Adobe Illustrator 23.0.3, SVG Export Plug-In . SVG Version: 6.00 Build 0)  -->
<svg version="1.1" id="Layer_1" xmlns="http://www.w3.org/2000/svg" xmlns:xlink="http://www.w3.org/1999/xlink" x="0px" y="0px"
	 viewBox="0 0 400 400" style="enable-background:new 0 0 400 400;" xml:space="preserve">
<style type="text/css">
	.st0{fill:#BA923D;}
</style>
<g>
	<path class="st0" d="M123.58,64.09h-19.91c-1.82,0-4,2.1-4.86,4.68L12.5,331.22c-0.84,2.57,1.36,4.68,4.98,4.68l39.14-0.05
		c3.28,0.22,6.33-1.67,7.62-4.7l61.57-262.38C126.42,66.2,125.41,64.09,123.58,64.09"/>
	<path class="st0" d="M150.1,64.09c-1.61,0-3.23,2.05-3.69,4.66l-43.43,262.37c-0.44,2.59,1.75,4.73,5,4.73l67.43-0.13
		c-0.91-1.6-1.35-3.42-1.3-5.27l0.84-41.28c0.37-6.6,5.94-11.69,12.55-11.44l12.44-0.07l12.55,0.07
		c6.61-0.25,12.18,4.85,12.55,11.44l0.84,41.28c0.07,1.85-0.39,3.67-1.3,5.27l67.43,0.13c3.25,0,5.45-2.14,5-4.73L253.59,68.75
		c-0.45-2.61-2.07-4.66-3.7-4.66H219.8l0.98,40.57c0.1,3.03-1.04,5.97-3.11,8.16c-1.87,1.92-4.43,3.03-7.1,3.03h-21.1
		c-2.71,0-5.25-1.11-7.12-3.03c-2.09-2.19-3.21-5.13-3.11-8.16l0.98-40.57H150.1z M224.14,247.1c0.07,2.81-1.01,5.52-2.98,7.52
		c-2.41,2.32-5.65,3.62-9,3.62h-24.33c-3.35,0-6.58-1.3-8.99-3.62c-1.97-2-3.05-4.71-2.98-7.52l0.84-36.23
		c0.3-6.18,5.47-10.99,11.64-10.87h23.31c6.18-0.12,11.33,4.69,11.64,10.87L224.14,247.1z M189.19,128.82h21.62
		c5.75-0.12,10.55,4.38,10.8,10.16l0.86,31.05c0.05,2.68-0.96,5.28-2.86,7.17c-2.21,2.2-5.2,3.42-8.3,3.37h-22.63
		c-3.11,0.05-6.11-1.16-8.28-3.37c-1.92-1.88-2.93-4.49-2.86-7.17l0.82-31.05C178.62,133.2,183.44,128.71,189.19,128.82"/>
	<path class="st0" d="M343.38,335.86l39.14,0.05c3.6,0,5.82-2.1,4.98-4.68L301.18,68.78c-0.84-2.57-3.03-4.68-4.85-4.68h-19.91
		c-1.85,0-2.83,2.1-2.22,4.68l61.57,262.38C337.05,334.18,340.11,336.08,343.38,335.86"/>
</g>
</svg>
