<?xml version="1.0" encoding="utf-8"?>
<!-- Generator: Adobe Illustrator 16.0.0, SVG Export Plug-In . SVG Version: 6.00 Build 0)  -->
<!DOCTYPE svg PUBLIC "-//W3C//DTD SVG 1.1//EN" "http://www.w3.org/Graphics/SVG/1.1/DTD/svg11.dtd">
<svg version="1.1" id="FINAL" xmlns="http://www.w3.org/2000/svg" xmlns:xlink="http://www.w3.org/1999/xlink" x="0px" y="0px"
	 width="464px" height="254px" viewBox="48.763 68.566 464 254" enable-background="new 48.763 68.566 464 254"
	 xml:space="preserve">
<g>
	<path fill="#043776" d="M368.615,212.285l-16.775-39.314h-3.695l-16.777,39.314l-12.28-35.973l1.933-3.342H306.51l21.946,61.487
		h3.895l17.641-40.538l17.641,40.538h3.894l21.948-61.487h-11.436L368.615,212.285z M212.87,205.355
		c3.639-3.378,5.631-8.229,5.631-13.688c0-6.322-2.6-11.261-7.189-14.553c-3.897-2.858-8.144-4.158-14.554-4.158H173.89v61.502
		l12.999-0.008l-2.499-4.32l-0.019,0.033v-19.266h8.835l16.459,23.561h12.214l-17.151-24.514
		C207.933,208.994,210.618,207.521,212.87,205.355z M196.585,201.63h-12.214v-19.057h12.127c2.339,0,3.812,0.086,5.284,0.606
		c3.639,1.212,5.978,4.157,5.978,8.661c0,4.852-2.426,7.536-5.978,9.01C200.223,201.457,198.664,201.63,196.585,201.63z
		 M149.549,216.878l-2.07-1.736l-0.864,4.918l0.011-0.003c-3.619,3.497-7.863,5.827-14.227,5.827c-12.732,0-21.31-9.7-21.31-22.175
		c0-12.994,8.75-22.263,21.396-22.263c7.796,0,12.734,4.071,16.893,9.096l7.536-6.757c-4.765-6.149-11.867-12.041-24.429-12.041
		c-18.276,0-32.138,13.773-32.138,32.051c0,18.019,14.033,31.792,31.705,31.792c12.993,0,19.923-5.631,25.207-12.301l-7.709-6.41
		C149.55,216.877,149.55,216.878,149.549,216.878z M448.392,172.97v40.787l-37.011-40.787h-4.396v61.487l12.801-0.006l-2.491-4.309
		V193.92l37.012,40.538h4.395V172.97H448.392z M265.622,171.745c-17.932,0-32.312,13.601-32.312,32.051
		c0,18.451,14.553,31.792,32.312,31.792c17.758,0,32.396-13.254,32.396-31.965C298.02,185.258,284.073,171.745,265.622,171.745z
		 M265.622,225.884c-12.562,0-21.569-9.527-21.569-22.175c0-13.253,9.183-22.263,21.569-22.263c12.994,0,21.655,9.615,21.655,22.263
		C287.278,216.963,278.27,225.884,265.622,225.884z"/>
	<path fill="#043776" d="M127.953,257.083h-7.396v24.041h7.43c3.741,0,7.092-1.178,9.435-3.317c2.46-2.244,3.76-5.289,3.76-8.804
		c0-3.442-1.24-6.485-3.492-8.569C135.283,258.242,131.918,257.083,127.953,257.083z M134.37,274.875
		c-1.632,1.486-3.713,2.181-6.552,2.181h-2.958v-15.9h2.958c2.856,0,4.972,0.672,6.653,2.113c1.527,1.323,2.302,3.266,2.302,5.77
		C136.774,271.503,135.966,273.466,134.37,274.875z M180.782,257.076l-10.682,24.049h4.63l1.709-3.887h10.526l1.709,3.887h4.697
		l-10.747-24.049H180.782z M178.122,273.501l3.598-8.565l3.599,8.565H178.122z M162.055,266.833H150.41v-9.75h-4.306v24.041h4.306
		V270.87h11.645v10.254h4.305v-24.041h-4.305V266.833L162.055,266.833z M453.394,270.736h9.482v-3.769h-9.482v-6.016h11.761v-3.869
		H449.09v24.041h16.334v-3.901h-12.029L453.394,270.736L453.394,270.736z M479.658,267.582l-2.715-1.141
		c-2.303-0.971-3.241-1.947-3.241-3.369c0-1.271,1.051-2.555,3.395-2.555c1.744,0,3.669,0.78,5.722,2.319l0.103,0.076l2.254-3.119
		l0.064-0.092l-0.084-0.074c-2.182-1.942-4.996-3.014-7.925-3.014c-4.596,0-7.932,2.785-7.932,6.625
		c0,2.994,1.915,5.398,5.538,6.951l2.813,1.205c2.427,1.035,3.509,2.084,3.509,3.403c0,1.951-1.923,2.824-3.829,2.824
		c-1.81,0-4.265-1.041-6.254-2.651l-0.106-0.089l-2.146,3.255l0.079,0.071c2.367,2.14,5.372,3.316,8.461,3.316
		c4.889,0,8.302-2.851,8.302-6.928C485.665,271.634,483.645,269.273,479.658,267.582z M103.186,256.615
		c-7.079,0-12.624,5.5-12.624,12.521c0,6.967,5.545,12.424,12.624,12.424c7.215,0,12.656-5.369,12.656-12.49
		C115.842,261.968,110.4,256.615,103.186,256.615z M103.186,277.556c-4.763,0-8.219-3.556-8.219-8.453
		c0-4.996,3.379-8.486,8.219-8.486c4.858,0,8.252,3.49,8.252,8.486C111.438,274.082,108.044,277.556,103.186,277.556z
		 M340.971,267.654l-6.259-10.51l-0.036-0.062h-4.885l9.011,14.904v9.137h4.338v-9.172l8.828-14.68l0.112-0.189h-4.814
		L340.971,267.654z M380.626,266.833H368.98v-9.75h-4.305v24.041h4.305V270.87h11.646v10.254h4.305v-24.041h-4.305V266.833z
		 M77.687,257.083h-4.305v24.041h15.396v-3.971H77.687V257.083z M302.037,281.125h4.305v-24.041h-4.305V281.125z M287.282,257.083
		h-4.306v24.041h15.396v-3.971h-11.092v-20.07H287.282z M266.98,257.076l-10.68,24.049h4.63l1.709-3.887h10.525l1.677,3.813
		l0.032,0.074h4.696l-10.745-24.049H266.98z M264.321,273.501l3.599-8.565l3.599,8.565H264.321z M439.614,257.076l-8.558,14.926
		l-8.556-14.926h-1.796l-2.438,23.91l-0.016,0.139h4.273l1.347-13.596l6.303,11.037h1.767l6.302-11.037l1.336,13.482l0.012,0.112
		h4.272l-2.456-24.049L439.614,257.076L439.614,257.076z M310.114,261.052h6.804v20.071h4.305v-20.071h6.769v-3.97h-17.876
		L310.114,261.052L310.114,261.052z M402.2,256.615c-7.079,0-12.624,5.5-12.624,12.521c0,6.967,5.545,12.424,12.624,12.424
		c7.216,0,12.657-5.369,12.657-12.49C414.858,261.968,409.416,256.615,402.2,256.615z M402.2,277.556
		c-4.763,0-8.219-3.556-8.219-8.453c0-4.996,3.38-8.486,8.219-8.486c4.858,0,8.252,3.49,8.252,8.486
		C410.452,274.082,407.06,277.556,402.2,277.556z M229.618,269.07c0-7.102-5.441-12.455-12.657-12.455
		c-7.079,0-12.624,5.5-12.624,12.521c0,6.967,5.545,12.424,12.624,12.424c2.24,0,4.436-0.563,6.355-1.627l3.069,3.325h4.936
		l-5.119-5.53C228.405,275.445,229.618,272.375,229.618,269.07z M223.415,274.63l-2.16-2.313h-5.018l4.226,4.545
		c-1.078,0.461-2.255,0.693-3.502,0.693c-4.764,0-8.219-3.556-8.219-8.453c0-4.996,3.38-8.486,8.219-8.486
		c4.857,0,8.252,3.49,8.252,8.486C225.213,271.246,224.592,273.154,223.415,274.63z M250.231,271.115
		c0,3.973-2.236,6.441-5.84,6.441c-3.581,0-5.806-2.47-5.806-6.441v-14.031h-4.306l-0.032,13.797c0,3.17,0.974,5.875,2.816,7.828
		c1.811,1.845,4.344,2.818,7.326,2.818c3.032,0,5.578-1,7.362-2.889c1.819-1.927,2.782-4.607,2.782-7.759v-13.797h-4.306v14.032
		H250.231z"/>
	<g>
		<polygon fill="#F26522" points="279.524,90.46 264.956,109.101 279.524,127.74 294.095,109.101 		"/>
		<polygon fill="#F26522" points="315.524,90.46 300.956,109.101 315.524,127.74 315.524,127.739 315.524,90.461 		"/>
		<polygon fill="#F26522" points="243.526,127.74 258.095,109.101 243.526,90.46 243.523,90.461 243.523,127.739 		"/>
		<polygon fill="#043776" points="261.521,113.197 243.523,135.69 279.522,135.69 		"/>
		<polygon fill="#043776" points="297.525,113.197 279.527,135.69 315.524,135.69 		"/>
	</g>
</g>
<g>
	<g>
		<path fill="#043776" d="M965.246,212.286l-16.775-39.314h-3.695l-16.777,39.314l-12.28-35.973l1.933-3.342h-14.508l21.947,61.487
			h3.894l17.642-40.537l17.64,40.537h3.894l21.948-61.487H978.67L965.246,212.286z M809.502,205.356
			c3.639-3.378,5.631-8.229,5.631-13.688c0-6.322-2.6-11.261-7.189-14.553c-3.897-2.858-8.144-4.158-14.554-4.158h-22.868v61.502
			l12.999-0.008l-2.499-4.32l-0.019,0.033V210.9h8.835l16.459,23.561h12.214l-17.151-24.514
			C804.564,208.994,807.25,207.521,809.502,205.356z M793.217,201.631h-12.214v-19.057h12.127c2.339,0,3.812,0.086,5.283,0.606
			c3.64,1.212,5.979,4.157,5.979,8.661c0,4.852-2.426,7.536-5.979,9.01C796.854,201.458,795.296,201.631,793.217,201.631z
			 M746.181,216.879l-2.07-1.736l-0.864,4.918l0.011-0.003c-3.619,3.497-7.863,5.827-14.227,5.827c-12.732,0-21.31-9.7-21.31-22.174
			c0-12.994,8.75-22.263,21.396-22.263c7.796,0,12.734,4.071,16.893,9.096l7.536-6.757c-4.765-6.149-11.867-12.041-24.429-12.041
			c-18.276,0-32.138,13.773-32.138,32.051c0,18.019,14.033,31.791,31.705,31.791c12.993,0,19.923-5.631,25.207-12.3L746.181,216.879
			C746.182,216.877,746.182,216.878,746.181,216.879z M1045.023,172.971v40.787l-37.011-40.787h-4.396v61.487l12.801-0.006
			l-2.491-4.309v-36.224l37.012,40.537h4.396V172.97L1045.023,172.971L1045.023,172.971z M862.254,171.746
			c-17.932,0-32.312,13.601-32.312,32.051c0,18.451,14.553,31.791,32.312,31.791c17.758,0,32.396-13.253,32.396-31.964
			C894.651,185.259,880.704,171.746,862.254,171.746z M862.254,225.884c-12.562,0-21.569-9.526-21.569-22.174
			c0-13.253,9.183-22.263,21.569-22.263c12.994,0,21.655,9.615,21.655,22.263C883.909,216.963,874.901,225.884,862.254,225.884z"/>
		<path fill="#043776" d="M724.585,257.083h-7.396v24.041h7.43c3.741,0,7.092-1.178,9.435-3.317c2.46-2.244,3.76-5.289,3.76-8.804
			c0-3.442-1.24-6.485-3.492-8.569C731.914,258.242,728.55,257.083,724.585,257.083z M731.002,274.875
			c-1.632,1.486-3.714,2.181-6.552,2.181h-2.958v-15.9h2.958c2.856,0,4.972,0.672,6.653,2.113c1.527,1.323,2.302,3.266,2.302,5.77
			C733.406,271.503,732.598,273.466,731.002,274.875z M777.413,257.076l-10.681,24.049h4.63l1.709-3.887h10.526l1.709,3.887h4.697
			l-10.747-24.049H777.413z M774.754,273.501l3.598-8.565l3.599,8.565H774.754z M758.687,266.833h-11.646v-9.75h-4.305v24.041h4.305
			V270.87h11.646v10.254h4.305v-24.041h-4.305V266.833z M1050.025,270.736h9.482v-3.769h-9.482v-6.016h11.761v-3.869h-16.064v24.041
			h16.334v-3.901h-12.029L1050.025,270.736L1050.025,270.736z M1076.291,267.582l-2.716-1.141c-2.303-0.971-3.24-1.947-3.24-3.369
			c0-1.271,1.05-2.555,3.394-2.555c1.744,0,3.669,0.78,5.723,2.319l0.102,0.076l2.254-3.119l0.065-0.092l-0.084-0.074
			c-2.183-1.942-4.996-3.014-7.926-3.014c-4.596,0-7.932,2.785-7.932,6.625c0,2.994,1.915,5.398,5.538,6.951l2.813,1.205
			c2.428,1.035,3.51,2.084,3.51,3.403c0,1.951-1.923,2.824-3.829,2.824c-1.811,0-4.266-1.041-6.254-2.651l-0.107-0.089l-2.145,3.255
			l0.078,0.071c2.367,2.14,5.372,3.316,8.461,3.316c4.889,0,8.302-2.851,8.302-6.928
			C1082.298,271.634,1080.276,269.273,1076.291,267.582z M699.817,256.615c-7.079,0-12.624,5.5-12.624,12.521
			c0,6.967,5.545,12.424,12.624,12.424c7.215,0,12.656-5.369,12.656-12.49C712.474,261.968,707.031,256.615,699.817,256.615z
			 M699.817,277.556c-4.763,0-8.219-3.556-8.219-8.453c0-4.996,3.379-8.486,8.219-8.486c4.858,0,8.252,3.49,8.252,8.486
			C708.069,274.082,704.676,277.556,699.817,277.556z M937.603,267.654l-6.259-10.51l-0.036-0.062h-4.884l9.01,14.904v9.137h4.338
			v-9.172l8.828-14.68l0.113-0.189h-4.815L937.603,267.654z M977.258,266.833h-11.646v-9.75h-4.305v24.041h4.305V270.87h11.646
			v10.254h4.305v-24.041h-4.305V266.833z M674.318,257.083h-4.305v24.041h15.396v-3.971h-11.091V257.083z M898.67,281.125h4.304
			v-24.041h-4.304V281.125z M883.913,257.083h-4.305v24.041h15.396v-3.971h-11.093L883.913,257.083L883.913,257.083z
			 M863.612,257.076l-10.68,24.049h4.63l1.709-3.887h10.525l1.677,3.813l0.032,0.074h4.696l-10.746-24.049H863.612z
			 M860.952,273.501l3.599-8.565l3.599,8.565H860.952z M1036.245,257.076l-8.558,14.926l-8.556-14.926h-1.795l-2.439,23.91
			l-0.015,0.139h4.272l1.347-13.596l6.303,11.037h1.767l6.302-11.037l1.336,13.482l0.012,0.112h4.272l-2.456-24.049
			L1036.245,257.076L1036.245,257.076z M906.745,261.052h6.804v20.071h4.305v-20.071h6.769v-3.97h-17.876L906.745,261.052
			L906.745,261.052z M998.832,256.615c-7.078,0-12.623,5.5-12.623,12.521c0,6.967,5.545,12.424,12.623,12.424
			c7.217,0,12.657-5.369,12.657-12.49C1011.49,261.968,1006.049,256.615,998.832,256.615z M998.832,277.556
			c-4.763,0-8.219-3.556-8.219-8.453c0-4.996,3.38-8.486,8.219-8.486c4.858,0,8.253,3.49,8.253,8.486
			C1007.085,274.082,1003.691,277.556,998.832,277.556z M826.25,269.07c0-7.102-5.441-12.455-12.657-12.455
			c-7.079,0-12.624,5.5-12.624,12.521c0,6.967,5.545,12.424,12.624,12.424c2.239,0,4.436-0.563,6.355-1.627l3.069,3.325h4.936
			l-5.119-5.53C825.036,275.445,826.25,272.375,826.25,269.07z M820.047,274.63l-2.16-2.313h-5.018l4.226,4.545
			c-1.078,0.461-2.255,0.693-3.502,0.693c-4.764,0-8.22-3.556-8.22-8.453c0-4.996,3.381-8.486,8.22-8.486
			c4.857,0,8.252,3.49,8.252,8.486C821.845,271.246,821.224,273.154,820.047,274.63z M846.863,271.115
			c0,3.973-2.237,6.441-5.84,6.441c-3.581,0-5.806-2.47-5.806-6.441v-14.031h-4.306l-0.032,13.797c0,3.17,0.974,5.875,2.816,7.828
			c1.811,1.845,4.343,2.818,7.326,2.818c3.032,0,5.578-1,7.362-2.889c1.819-1.927,2.781-4.607,2.781-7.759v-13.797h-4.305v14.032
			H846.863z"/>
		<g>
			<polygon fill="#FFFFFF" points="876.156,90.461 861.588,109.101 876.156,127.741 890.727,109.101 			"/>
			<polygon fill="#FFFFFF" points="912.156,90.461 897.589,109.101 912.156,127.741 912.156,127.74 912.156,90.462 			"/>
			<polygon fill="#FFFFFF" points="840.157,127.741 854.727,109.101 840.157,90.461 840.155,90.462 840.155,127.74 			"/>
			<polygon fill="#043776" points="858.153,113.198 840.155,135.691 876.154,135.691 			"/>
			<polygon fill="#043776" points="894.156,113.198 876.158,135.691 912.156,135.691 			"/>
		</g>
	</g>
	<path fill="#FFFFFF" d="M818.422,341.685h6.803v20.069h4.305v-20.069h6.771v-3.972h-17.877L818.422,341.685L818.422,341.685z
		 M856.059,347.466h-11.646v-9.752h-4.305v24.041h4.305v-10.254h11.646v10.254h4.305v-24.041h-4.305V347.466z M874.74,337.708
		l-10.682,24.047h4.631l1.709-3.887h10.525l1.678,3.813l0.031,0.073h4.696l-10.746-24.047H874.74z M872.079,354.134l3.599-8.565
		l3.598,8.565H872.079z M921.859,357.853v-6.484h9.482v-3.77h-9.482v-6.017h11.762v-3.869h-16.065v24.041h16.334v-3.901H921.859z
		 M907.041,353.298l-14.146-15.59h-1.869v24.047h4.236v-15.483l14.137,15.483h1.881v-24.041h-4.237L907.041,353.298L907.041,353.298
		z"/>
</g>
</svg>
