<?xml version="1.0" encoding="utf-8"?>
<!-- Generator: Adobe Illustrator 16.0.0, SVG Export Plug-In . SVG Version: 6.00 Build 0)  -->
<!DOCTYPE svg PUBLIC "-//W3C//DTD SVG 1.1//EN" "http://www.w3.org/Graphics/SVG/1.1/DTD/svg11.dtd">
<svg version="1.1" id="CC" xmlns="http://www.w3.org/2000/svg" xmlns:xlink="http://www.w3.org/1999/xlink" x="0px" y="0px"
	 width="545.973px" height="169.994px" viewBox="0 0 545.973 169.994" enable-background="new 0 0 545.973 169.994"
	 xml:space="preserve">
<g>
	<path fill="#9D7F1B" d="M140.834,67.921v-50.68h12.319v41.021h38.989v9.659H140.834z"/>
	<path fill="#9D7F1B" d="M263.195,42.511c0,7.514-2.918,13.696-8.75,18.551c-3.221,2.659-7.013,4.713-11.375,6.159
		c-4.363,1.445-9.158,2.171-14.386,2.171c-5.18,0-9.964-0.726-14.35-2.171c-4.388-1.446-8.167-3.5-11.34-6.159
		c-2.896-2.381-5.064-5.134-6.512-8.261c-1.445-3.127-2.17-6.557-2.17-10.29c0-3.687,0.735-7.081,2.205-10.186
		c1.471-3.103,3.651-5.845,6.545-8.225c3.222-2.66,7.035-4.726,11.445-6.195s9.158-2.205,14.245-2.205
		c5.086,0,9.835,0.735,14.245,2.205s8.225,3.535,11.444,6.195C260.277,28.955,263.195,35.091,263.195,42.511z M250.524,42.511
		c0-2.521-0.514-4.818-1.54-6.896c-1.025-2.076-2.483-3.861-4.375-5.354c-1.89-1.493-4.177-2.66-6.858-3.5
		c-2.686-0.841-5.684-1.261-8.995-1.261c-3.314,0-6.313,0.42-8.995,1.261c-2.684,0.84-4.97,2.007-6.86,3.5
		c-1.89,1.493-3.349,3.278-4.375,5.354c-1.025,2.077-1.54,4.375-1.54,6.896c0,2.566,0.501,4.899,1.507,7
		c1.003,2.1,2.448,3.896,4.34,5.391c1.89,1.494,4.165,2.647,6.825,3.465c2.658,0.816,5.67,1.225,9.028,1.225
		c3.36,0,6.381-0.407,9.065-1.225c2.683-0.815,4.97-1.971,6.858-3.465c1.892-1.494,3.35-3.291,4.375-5.391
		C250.01,47.411,250.524,45.078,250.524,42.511z"/>
	<path fill="#9D7F1B" d="M320.175,19.096c3.779,1.236,7,2.986,9.66,5.25c2.659,2.264,4.7,4.993,6.125,8.189
		c1.423,3.197,2.135,6.732,2.135,10.605c0,7.467-3.01,13.579-9.03,18.34c-2.566,2.054-5.563,3.64-8.994,4.76
		c-3.431,1.119-7.082,1.68-10.955,1.68h-35.699v-50.68h34.02C312.147,17.241,316.395,17.86,320.175,19.096z M315.939,56.503
		c2.45-1.171,4.469-2.765,6.056-4.78c2.101-2.673,3.149-5.603,3.149-8.789c0-2.297-0.42-4.431-1.26-6.399s-2.007-3.667-3.5-5.097
		c-1.494-1.43-3.279-2.543-5.354-3.34c-2.077-0.796-4.353-1.195-6.825-1.195h-22.47v31.36h22.54
		C310.935,58.261,313.49,57.677,315.939,56.503z"/>
	<path fill="#9D7F1B" d="M398.295,67.921v-21.77h-36.609v21.77h-12.32V17.311h12.32v18.479h36.609V17.311h12.319v50.609H398.295z"/>
	<path fill="#9D7F1B" d="M474.943,67.921l-5.81-10.92h-32.48l-5.81,10.92h-12.46l26.949-50.68h15.189l26.88,50.68H474.943z
		 M452.823,26.552l-11.131,20.789h22.261L452.823,26.552z"/>
</g>
<g>
	<rect x="14.201" y="128.555" fill="#6D6E71" width="78.735" height="12.586"/>
	<rect x="14.201" y="17.236" fill="#6D6E71" width="78.735" height="12.576"/>
	<rect x="14.201" y="45.122" fill="#6D6E71" width="78.735" height="12.597"/>
	<rect x="14.201" y="73.05" fill="#6D6E71" width="78.735" height="12.429"/>
	<rect x="14.201" y="100.785" fill="#6D6E71" width="78.735" height="12.611"/>
</g>
<path fill="#6D6E71" d="M263.676,116.48h29.68v-5.41h-29.68V94.85h42.7v-5.41h-48.25v51.679h50.21v-5.41h-44.66V116.48z
	 M196.665,94.851h24.221v46.269h5.55V94.851h24.22v-5.41h-53.989L196.665,94.851L196.665,94.851z M146.356,116.48h29.681v-5.41
	h-29.681V94.85h42.7v-5.41h-48.25v51.679h50.21v-5.41h-44.66V116.48L146.356,116.48z M367.053,115.813
	c2.701-2.629,4.07-6.246,4.07-10.752c0-2.338-0.363-4.492-1.081-6.406c-0.724-1.926-1.785-3.599-3.159-4.973
	s-3.061-2.438-5.011-3.16c-1.936-0.718-4.126-1.081-6.509-1.081h-38.72v51.679h5.55v-20.79h26.902l15.891,20.789h6.771
	l-15.461-20.871C360.909,119.762,364.525,118.271,367.053,115.813z M322.194,114.92V94.851h31.141c7.905,0,11.75,3.271,11.75,9.999
	c0,3.207-0.882,5.715-2.618,7.451c-1.737,1.737-4.244,2.618-7.451,2.618H322.194z M452.023,141.119h5.55V89.44h-5.55V141.119z
	 M515.788,113.77c-2.559-1.088-5.625-1.785-9.115-2.068c-3.419-0.277-7.405-0.514-11.85-0.701c-3.188-0.139-6.013-0.373-8.39-0.694
	c-2.35-0.318-4.334-0.804-5.899-1.438c-1.521-0.617-2.676-1.426-3.434-2.397c-0.742-0.955-1.119-2.207-1.119-3.72
	c0-2.903,1.526-5.118,4.667-6.768c3.204-1.68,8.013-2.532,14.293-2.532c3.863,0,7.535,0.396,10.912,1.177
	c3.373,0.781,6.711,2.062,9.92,3.804l0.343,0.186l3.878-4.215l-0.483-0.325c-3.023-2.03-6.636-3.539-10.736-4.481
	c-4.082-0.938-8.83-1.413-14.112-1.413c-8.036,0-14.261,1.333-18.498,3.961c-4.313,2.675-6.502,6.433-6.502,11.17
	c0,2.617,0.646,4.824,1.917,6.559c1.267,1.73,3.229,3.097,5.825,4.06c2.368,0.897,5.218,1.485,8.468,1.743
	c3.214,0.259,6.987,0.482,11.221,0.669c3.418,0.139,6.448,0.407,9.011,0.799c2.53,0.389,4.655,0.953,6.313,1.68
	c1.612,0.707,2.826,1.627,3.608,2.734c0.774,1.098,1.168,2.521,1.168,4.227c0,3.479-1.737,6.152-5.312,8.174
	c-3.616,2.049-8.985,3.086-15.958,3.086c-4.413,0-8.618-0.569-12.497-1.694c-3.878-1.123-7.731-2.904-11.453-5.295l-0.407-0.263
	l-3.218,4.658l0.408,0.285c3.574,2.494,7.761,4.402,12.439,5.672c4.667,1.266,9.951,1.908,15.706,1.908
	c8.598,0,15.236-1.478,19.731-4.387c4.563-2.955,6.879-7.136,6.879-12.425C523.513,119.941,520.914,115.994,515.788,113.77z
	 M432.564,134.93l-41.762-45.328l-0.149-0.161h-7.299v51.679h5.55V95.628l41.902,45.331l0.147,0.16h7.159V89.44h-5.55
	L432.564,134.93L432.564,134.93z"/>
</svg>
