<?xml version="1.0" encoding="utf-8"?>
<!-- Generator: Adobe Illustrator 23.0.3, SVG Export Plug-In . SVG Version: 6.00 Build 0)  -->
<svg version="1.1" id="Layer_1" xmlns="http://www.w3.org/2000/svg" xmlns:xlink="http://www.w3.org/1999/xlink" x="0px" y="0px"
	 viewBox="0 0 756 151" style="enable-background:new 0 0 756 151;" xml:space="preserve">
<style type="text/css">
	.st0{fill-rule:evenodd;clip-rule:evenodd;fill:#049B5A;}
	.st1{fill-rule:evenodd;clip-rule:evenodd;fill:#151E2D;}
	.st2{fill-rule:evenodd;clip-rule:evenodd;fill:none;stroke:#151E2D;stroke-width:10.2949;stroke-miterlimit:10;}
	.st3{fill-rule:evenodd;clip-rule:evenodd;fill:#F59A00;}
	.st4{fill-rule:evenodd;clip-rule:evenodd;fill:none;stroke:#F59A00;stroke-width:4.7897;stroke-miterlimit:10;}
	.st5{font-family:'Arial-Black';}
	.st6{font-size:24.3448px;}
</style>
<g>
	<path class="st0" d="M220.17,55.83h-28.92V25.45h-16.23v72.72h16.23V69.56h28.92v28.61h16.23V25.45h-16.23V55.83L220.17,55.83z
		 M303.71,77.88c-4.16,4.58-9.26,6.87-15.29,6.87c-6.14,0-11.23-2.29-15.4-6.87c-4.16-4.47-6.24-9.99-6.24-16.54
		c0-6.45,2.08-11.96,6.24-16.54c4.16-4.58,9.26-6.87,15.4-6.87c6.03,0,11.13,2.29,15.29,6.87c4.16,4.58,6.24,10.09,6.24,16.54
		C309.95,67.89,307.87,73.41,303.71,77.88L303.71,77.88z M326.49,61.34c0-10.72-3.64-19.66-11.03-26.84
		c-7.39-7.18-16.44-10.71-27.15-10.71s-19.77,3.54-27.15,10.71c-7.39,7.18-11.03,16.12-11.03,26.84c0,10.71,3.64,19.56,11.03,26.74
		c7.39,7.18,16.44,10.82,27.15,10.82s19.77-3.64,27.15-10.82C322.85,80.9,326.49,72.05,326.49,61.34L326.49,61.34z M405.34,98.17
		h16.23V25.45h-21.85L380.9,65.4l-18.72-39.95h-21.95v72.72h16.23V52.39l19.56,39.74h9.67l19.66-39.74V98.17L405.34,98.17z
		 M439.46,25.45v72.72h53.57V83.81h-37.35V68.73h32.56V54.89h-32.56V39.91h36.2V25.45H439.46L439.46,25.45z M530.91,38.04
		c6.76,0,13.21,2.39,19.56,7.18l8.22-11.86c-3.64-3.02-7.8-5.41-12.69-7.07c-4.89-1.66-9.67-2.5-14.56-2.5
		c-7.39,0-13.63,1.87-18.52,5.62c-4.99,3.75-7.49,9.05-7.49,15.92c0,6.97,1.98,11.96,5.93,15.19c3.85,3.22,10.09,5.93,18.52,7.91
		c5.31,1.35,8.95,2.6,10.72,3.85c1.77,1.35,2.7,3.02,2.7,5.2c0,2.18-0.83,3.95-2.5,5.2c-1.77,1.35-4.06,1.98-7.07,1.98
		c-6.66,0-13.94-3.43-21.74-10.3L502.3,86.2c9.26,8.53,19.56,12.8,31.1,12.8c8.01,0,14.46-2.08,19.35-6.14
		c4.89-4.06,7.28-9.26,7.28-15.81c0-6.55-1.87-11.44-5.72-14.88c-3.85-3.43-9.15-5.93-16.02-7.7c-6.97-1.66-11.34-3.12-13.21-4.37
		c-1.98-1.25-2.91-2.91-2.91-5.1c0-2.08,0.83-3.75,2.39-5.1C526.12,38.66,528.2,38.04,530.91,38.04L530.91,38.04z M573.87,25.45
		v72.72h16.23v-28.5h32.04V55.41H590.1V39.7h33.71V25.45H573.87L573.87,25.45z M668.85,69.45l25.17-44h-17.58L660.73,52.5
		l-15.71-27.05h-17.58l25.17,44v28.71h16.23V69.45z"/>
	<path class="st1" d="M182.53,115.6c-2.75,0-4.88,1.08-6.09,2.97v-9.51h-2.19v22.92h2.19v-8.53c0-3.71,2.19-5.87,5.68-5.87
		c3.09,0,4.88,1.76,4.88,5.19v9.21h2.19v-9.42C189.2,117.89,186.48,115.6,182.53,115.6L182.53,115.6z M225.38,132.13
		c4.76,0,8.25-3.46,8.25-8.28s-3.49-8.25-8.25-8.25c-4.76,0-8.28,3.43-8.28,8.25S220.62,132.13,225.38,132.13L225.38,132.13z
		 M225.38,130.18c-3.46,0-6.05-2.53-6.05-6.33c0-3.8,2.59-6.33,6.05-6.33c3.46,0,6.02,2.53,6.02,6.33
		C231.4,127.65,228.84,130.18,225.38,130.18L225.38,130.18z M281.88,115.6c-2.93,0-5.25,1.33-6.43,3.43
		c-0.99-2.29-3.09-3.43-5.78-3.43c-2.72,0-4.82,1.14-5.96,3.09v-2.97h-2.1v16.25h2.19v-8.53c0-3.71,2.13-5.87,5.44-5.87
		c2.97,0,4.7,1.76,4.7,5.19v9.21h2.19v-8.53c0-3.71,2.1-5.87,5.44-5.87c2.93,0,4.66,1.76,4.66,5.19v9.21h2.19v-9.42
		C288.43,117.89,285.83,115.6,281.88,115.6L281.88,115.6z M332.14,123.85c0-4.88-3.31-8.25-7.88-8.25c-4.57,0-7.94,3.43-7.94,8.25
		s3.46,8.28,8.53,8.28c2.56,0,4.82-0.93,6.27-2.66l-1.24-1.42c-1.24,1.42-3,2.13-4.97,2.13c-3.55,0-6.15-2.26-6.39-5.65h13.59
		C332.11,124.28,332.14,124.04,332.14,123.85L332.14,123.85z M324.26,117.49c3.18,0,5.5,2.22,5.78,5.41h-11.52
		C318.79,119.71,321.11,117.49,324.26,117.49L324.26,117.49z M364.48,132.13c4.23,0,6.7-1.82,6.7-4.63c0-6.24-10.53-2.93-10.53-7.32
		c0-1.54,1.3-2.69,4.23-2.69c1.67,0,3.37,0.4,4.79,1.39l0.96-1.76c-1.36-0.93-3.65-1.51-5.75-1.51c-4.14,0-6.43,1.98-6.43,4.63
		c0,6.43,10.53,3.09,10.53,7.32c0,1.61-1.27,2.66-4.36,2.66c-2.29,0-4.48-0.8-5.78-1.82l-0.99,1.73
		C359.2,131.26,361.8,132.13,364.48,132.13L364.48,132.13z M435.72,110.75c0.93,0,1.79,0.28,2.41,0.8l0.74-1.64
		c-0.8-0.68-2.04-1.02-3.24-1.02c-3.18,0-4.91,1.92-4.91,4.82v2.01h-2.9v1.85h2.9v14.4h2.19v-14.4h4.94v-1.85h-5v-1.92
		C432.85,111.8,433.84,110.75,435.72,110.75L435.72,110.75z M470.69,132.13c4.76,0,8.25-3.46,8.25-8.28s-3.49-8.25-8.25-8.25
		c-4.76,0-8.28,3.43-8.28,8.25S465.93,132.13,470.69,132.13L470.69,132.13z M470.69,130.18c-3.46,0-6.05-2.53-6.05-6.33
		c0-3.8,2.59-6.33,6.05-6.33s6.02,2.53,6.02,6.33C476.72,127.65,474.15,130.18,470.69,130.18L470.69,130.18z M509.03,118.91v-3.18
		h-2.1v16.25h2.19v-8.28c0-3.83,2.07-5.99,5.47-5.99c0.15,0,0.34,0.03,0.53,0.03v-2.13C512.12,115.6,510.05,116.74,509.03,118.91
		L509.03,118.91z M585.92,115.73l-6.12,13.81l-6.12-13.81h-2.29l7.26,16.22l-0.71,1.58c-0.93,2.04-1.92,2.72-3.37,2.72
		c-1.17,0-2.16-0.43-2.97-1.24l-1.02,1.64c0.99,0.99,2.44,1.48,3.95,1.48c2.32,0,4.05-1.02,5.41-4.2l8.12-18.2H585.92L585.92,115.73
		z M620.86,132.13c4.76,0,8.25-3.46,8.25-8.28s-3.49-8.25-8.25-8.25c-4.76,0-8.28,3.43-8.28,8.25S616.1,132.13,620.86,132.13
		L620.86,132.13z M620.86,130.18c-3.46,0-6.06-2.53-6.06-6.33c0-3.8,2.6-6.33,6.06-6.33c3.46,0,6.02,2.53,6.02,6.33
		C626.88,127.65,624.32,130.18,620.86,130.18L620.86,130.18z M669.54,115.73v8.53c0,3.71-2.13,5.9-5.53,5.9
		c-3.09,0-4.88-1.76-4.88-5.22v-9.21h-2.19v9.42c0,4.66,2.72,6.98,6.86,6.98c2.59,0,4.7-1.14,5.84-3.12v2.97h2.1v-16.25H669.54z"/>
	<polygon class="st1" points="68.73,30.18 13.99,84.93 27,84.93 68.73,43.19 110.46,84.93 123.47,84.93 	"/>
	<polygon class="st2" points="68.73,30.18 13.99,84.93 27,84.93 68.73,43.19 110.46,84.93 123.47,84.93 	"/>
	<path class="st3" d="M109.85,95.63H98.53c0.01,0.24,0.01,0.47,0.01,0.71c0,16.55-13.46,30.01-30.01,30.01
		c-16.55,0-30.01-13.46-30.01-30.01c0-0.24,0-0.47,0.01-0.71H27.2c0,0.24-0.01,0.47-0.01,0.71c0,22.79,18.54,41.33,41.33,41.33
		c22.79,0,41.33-18.54,41.33-41.33C109.86,96.1,109.86,95.87,109.85,95.63z"/>
	<path class="st4" d="M109.85,95.63H98.53c0.01,0.24,0.01,0.47,0.01,0.71c0,16.55-13.46,30.01-30.01,30.01
		c-16.55,0-30.01-13.46-30.01-30.01c0-0.24,0-0.47,0.01-0.71H27.2c0,0.24-0.01,0.47-0.01,0.71c0,22.79,18.54,41.33,41.33,41.33
		c22.79,0,41.33-18.54,41.33-41.33C109.86,96.1,109.86,95.87,109.85,95.63z"/>
	<path class="st0" d="M695.68,89.86c0,4.72-3.83,8.55-8.54,8.55c-4.72,0-8.55-3.83-8.55-8.55c0-4.72,3.83-8.55,8.55-8.55
		C691.86,81.31,695.68,85.14,695.68,89.86z"/>
	<text transform="matrix(1 0 0 1 701.4515 33.7638)"><tspan x="0" y="0" class="st5 st6">T</tspan><tspan x="17.58" y="0" class="st5 st6">M</tspan></text>
</g>
</svg>
