<?xml version="1.0" encoding="utf-8"?>
<!-- Generator: Adobe Illustrator 23.1.0, SVG Export Plug-In . SVG Version: 6.00 Build 0)  -->
<svg version="1.1" xmlns="http://www.w3.org/2000/svg" xmlns:xlink="http://www.w3.org/1999/xlink" x="0px" y="0px"
	 viewBox="0 0 216 145" style="enable-background:new 0 0 216 145;" xml:space="preserve">
<style type="text/css">
	.st0{display:none;}
	.st1{display:inline;}
	.st2{opacity:0.1;fill:#FFFFFF;enable-background:new    ;}
	.st3{fill:#FFFFFF;}
	.st4{opacity:0.1;enable-background:new    ;}
	.st5{fill:#3F3D56;}
	.st6{fill:#3A3768;}
	.st7{fill:#E6E8EC;}
	.st8{opacity:0.1;stroke:#FFFFFF;stroke-miterlimit:10;enable-background:new    ;}
	.st9{opacity:0.4;}
	.st10{fill:#FF6F61;}
	.st11{opacity:0.1;fill:none;stroke:#FFFFFF;stroke-width:3;stroke-miterlimit:10;enable-background:new    ;}
	.st12{fill:url(#SVGID_1_);}
	.st13{fill:#A0616A;}
	.st14{fill:#444053;}
	.st15{opacity:0.2;enable-background:new    ;}
	.st16{fill:url(#SVGID_2_);}
	.st17{fill:#CC818C;}
	.st18{opacity:0.05;enable-background:new    ;}
	.st19{fill:#FF748F;}
	.st20{fill:#575988;}
	.st21{fill:#DCE6F2;}
	.st22{opacity:0.5;fill:#575988;enable-background:new    ;}
	.st23{fill:#67647E;}
	.st24{fill:#585268;}
	.st25{fill:#E4AAB4;}
	.st26{opacity:0.1;}
</style>
<g id="Layer_1" class="st0">
	<g class="st1">
		<ellipse class="st2" cx="145" cy="142.28" rx="26.4" ry="1.86"/>
		<path class="st2" d="M214.52,85.29c-0.02,27.53-22.35,49.83-49.87,49.81c-2.63,0-5.26-0.21-7.86-0.63H77.81
			c-3.05,0.42-6.13,0.63-9.2,0.63c-2.21,0-4.39-0.11-6.55-0.32c-34.39-3.34-60.61-32.26-60.58-66.81
			c0-37.07,30.05-67.13,67.13-67.13c29.86,0,55.16,19.49,63.88,46.45c8.99-7.65,20.42-11.84,32.23-11.83
			C192.22,35.48,214.52,57.78,214.52,85.29z"/>
		<path class="st2" d="M195.38,124.54c-10.93,8.53-24.91,12.13-38.6,9.94H77.81c-3.05,0.42-6.13,0.63-9.2,0.63
			c-2.21,0-4.39-0.11-6.55-0.32c-26.73-2.62-49.33-20.92-57.46-46.53c6.43-13.74,22.95-23.52,42.32-23.52
			c18.87,0,35.05,9.29,41.8,22.48c3.32-0.6,6.7-0.91,10.08-0.91c19.56,0,36.22,9.98,42.51,23.93c5.21-1.58,10.62-2.38,16.07-2.36
			C173.32,107.89,187.34,114.52,195.38,124.54z"/>
		<path class="st3" d="M66.88,126.04c0,4.76-1.83,7.35-4.82,8.75c-11.28-1.09-22.09-5.03-31.42-11.45c0.24-1.62,0.7-3.2,1.36-4.7
			l8.51,2.65l-7.58-4.46c1.03-1.75,2.34-3.32,3.88-4.64l14.3,4.45l-11.21-6.58c8.83-4.84,19.9-1.6,24.74,7.22
			c0.45,0.83,0.84,1.69,1.16,2.58l0.04,0.11c0.03,0.08,0.06,0.17,0.09,0.25c0.1,0.3,0.19,0.6,0.28,0.9
			c0.03,0.11,0.06,0.22,0.09,0.33c0.03,0.11,0.05,0.21,0.08,0.31c0.02,0.1,0.04,0.19,0.06,0.27c0.01,0.06,0.03,0.11,0.04,0.17
			c0.02,0.09,0.04,0.19,0.06,0.27c0.03,0.13,0.05,0.26,0.07,0.39c0.02,0.13,0.05,0.27,0.07,0.41c0.02,0.14,0.04,0.3,0.06,0.45
			c0.02,0.15,0.03,0.27,0.05,0.41c0,0.04,0.01,0.08,0.01,0.13c0.01,0.12,0.02,0.24,0.03,0.36c0,0.02,0,0.03,0,0.05
			c0.01,0.15,0.02,0.3,0.03,0.45c0.01,0.15,0.01,0.29,0.02,0.44c0,0.01,0,0.03,0,0.04C66.88,125.73,66.88,125.89,66.88,126.04z"/>
		<path class="st4" d="M66.88,126.04c0,4.76-1.83,7.35-4.82,8.75c-7.29-0.7-14.42-2.6-21.09-5.62l0.3-0.2
			c1.38-0.91,2.8-1.85,4.42-2.16c1.43-0.27,2.9-0.04,4.35-0.12c2.52-0.15,4.9-1.24,6.66-3.05c1.04-1.07,1.86-2.39,3.1-3.2
			c1.34-0.88,3.05-1.07,4.64-0.85c0.46,0.07,0.92,0.16,1.37,0.28l0.04,0.11c0.03,0.08,0.06,0.17,0.09,0.25
			c0.1,0.3,0.19,0.6,0.28,0.9c0.03,0.11,0.06,0.22,0.09,0.33c0.03,0.11,0.05,0.21,0.08,0.31c0.02,0.1,0.04,0.19,0.06,0.27
			c0.01,0.06,0.03,0.11,0.04,0.17c0.02,0.09,0.04,0.19,0.06,0.27c0.03,0.13,0.05,0.26,0.07,0.39c0.02,0.13,0.05,0.27,0.07,0.41
			c0.02,0.14,0.04,0.3,0.06,0.45c0.02,0.15,0.03,0.27,0.05,0.41c0,0.04,0.01,0.08,0.01,0.13c0.01,0.12,0.02,0.24,0.03,0.36
			c0,0.02,0,0.03,0,0.05c0.01,0.15,0.02,0.3,0.03,0.45c0.01,0.15,0.01,0.29,0.02,0.44c0,0.01,0,0.03,0,0.04
			C66.88,125.73,66.88,125.89,66.88,126.04z"/>
		<path class="st5" d="M175.43,129.13c0,0.48-0.05,0.97-0.15,1.44c-0.02,0.09-0.04,0.18-0.06,0.26c-0.53,2.12-2.02,3.67-3.8,3.77
			c-0.06,0-0.12,0-0.19,0c-1.88,0-3.47-1.62-3.99-3.85c-0.01-0.06-0.03-0.12-0.04-0.19c-0.1-0.47-0.15-0.96-0.15-1.44
			c0-3.03,1.87-5.48,4.18-5.48C173.56,123.64,175.43,126.11,175.43,129.13z"/>
		<path class="st4" d="M175.43,129.13c0,0.48-0.05,0.97-0.15,1.44c-0.02,0.09-0.04,0.18-0.06,0.26c-0.06,0-0.12,0-0.19,0
			c-0.46-0.02-0.92-0.09-1.37-0.19c-0.4,0.12-0.81,0.22-1.22,0.28c-0.32,0.05-0.64,0.08-0.96,0.09c-0.11,0-0.22,0-0.32,0
			c-0.38,0-0.77-0.03-1.15-0.08c-0.61-0.08-1.22-0.23-1.8-0.45c-0.32,0.11-0.64,0.19-0.97,0.26c-0.01-0.06-0.03-0.12-0.04-0.19
			c-0.1-0.47-0.15-0.96-0.15-1.44c0-3.03,1.87-5.48,4.18-5.48C173.56,123.65,175.43,126.11,175.43,129.13z"/>
		<path class="st3" d="M184.36,118.93c0-1.33-0.31-2.64-0.91-3.83l-4.92,1.53l4.32-2.54c-1.47-2.12-3.82-3.46-6.39-3.64
			c-0.2-0.31-0.42-0.6-0.66-0.88l-7.07,2.2l5.8-3.41c-3.73-2.86-9.06-2.16-11.92,1.57c-0.68,0.88-1.18,1.89-1.47,2.97l6.05,6.97
			l-6.57-4.75c-3.83,2.72-4.73,8.03-2.02,11.86c2.17,3.05,6.08,4.33,9.63,3.15c1.75,0.64,3.66,0.7,5.44,0.15
			c4.59,1.01,9.13-1.9,10.14-6.5c0.13-0.6,0.2-1.21,0.2-1.82c0-0.19,0-0.37-0.02-0.56C184.24,120.6,184.36,119.77,184.36,118.93z"/>
		<path class="st4" d="M184.21,120.51c-2.6-0.49-5.26-0.53-7.87-0.1c-2.95,0.49-5.97,1.56-8.86,0.78c-1.7-0.46-3.16-1.53-4.82-2.12
			c-1.6-0.56-3.32-0.66-4.97-0.3c-1.81,4.34,0.23,9.32,4.57,11.13c1.9,0.79,4.02,0.87,5.97,0.22c1.75,0.64,3.66,0.7,5.44,0.15
			c4.59,1.01,9.13-1.89,10.14-6.48c0.13-0.6,0.2-1.21,0.2-1.83c0-0.19,0-0.37-0.02-0.56C184.08,121.11,184.15,120.81,184.21,120.51z
			"/>
		<path class="st6" d="M133.36,47.42h0.8c0.24,0,0.43,0.19,0.43,0.43v12.73c0,0.24-0.19,0.43-0.43,0.43h-0.8
			c-0.24,0-0.43-0.19-0.43-0.43V47.85C132.94,47.61,133.13,47.42,133.36,47.42z"/>
		<path class="st6" d="M78.61,36.78h0.07c0.24,0,0.43,0.19,0.43,0.43v3.62c0,0.24-0.19,0.43-0.43,0.43h-0.07
			c-0.24,0-0.43-0.19-0.43-0.43v-3.62C78.19,36.97,78.38,36.78,78.61,36.78z"/>
		<path class="st6" d="M78.58,44.97h0.19c0.24,0,0.43,0.19,0.43,0.43v6.93c0,0.24-0.19,0.43-0.43,0.43h-0.19
			c-0.24,0-0.43-0.19-0.43-0.43v-6.93C78.15,45.16,78.34,44.97,78.58,44.97z"/>
		<path class="st6" d="M78.59,55.47h0.14c0.24,0,0.43,0.19,0.43,0.43v7c0,0.24-0.19,0.43-0.43,0.43h-0.14
			c-0.24,0-0.43-0.19-0.43-0.43v-7C78.17,55.66,78.36,55.47,78.59,55.47z"/>
		<path class="st5" d="M85.96,22.01h40.61c4,0,7.25,3.25,7.25,7.25v97.51c0,4-3.25,7.25-7.25,7.25H85.96c-4,0-7.25-3.25-7.25-7.25
			V29.26C78.71,25.26,81.96,22.01,85.96,22.01z"/>
		<path class="st7" d="M101.67,25.36h6.26c0.4,0,0.72,0.32,0.72,0.72v0.12c0,0.4-0.32,0.72-0.72,0.72h-6.26
			c-0.4,0-0.72-0.32-0.72-0.72v-0.12C100.95,25.68,101.27,25.36,101.67,25.36z"/>
		<circle class="st7" cx="110.7" cy="26.14" r="0.89"/>
		<path class="st3" d="M126.04,24.93h-6.3v0.76c0,1.99-1.61,3.6-3.6,3.6l0,0H96.01c-1.99,0-3.6-1.61-3.6-3.6c0,0,0,0,0,0v-0.76
			h-5.92c-2.42,0-4.38,1.96-4.38,4.38c0,0,0,0,0,0v97.42c0,2.42,1.96,4.38,4.37,4.38c0,0,0,0,0,0h39.55c2.42,0,4.38-1.96,4.38-4.38
			V29.31C130.41,26.89,128.45,24.93,126.04,24.93z"/>
		<rect x="84.14" y="42.41" class="st8" width="27.71" height="4.46"/>
		<circle class="st8" cx="90.83" cy="66.96" r="5.95"/>
		<path class="st3" d="M89.16,65.84v2.23h1.49l1.86,1.94v-6.12l-1.86,1.94H89.16z"/>
		<circle class="st8" cx="106.64" cy="66.96" r="5.95"/>
		<path class="st3" d="M106.64,69.44c-0.39,0-0.71,0.31-0.71,0.71s0.31,0.71,0.71,0.71c0.39,0,0.71-0.31,0.71-0.71c0,0,0,0,0,0
			C107.35,69.76,107.03,69.44,106.64,69.44z M104.56,63.05c-0.39,0-0.71,0.31-0.72,0.7c0,0.39,0.31,0.71,0.7,0.72
			c0.39,0,0.71-0.31,0.72-0.7c0,0,0,0,0-0.01C105.26,63.37,104.95,63.05,104.56,63.05z M104.56,65.18c-0.39,0-0.71,0.31-0.72,0.7
			c0,0.39,0.31,0.71,0.7,0.72c0.39,0,0.71-0.31,0.72-0.7c0,0,0,0,0-0.01C105.26,65.5,104.95,65.18,104.56,65.18L104.56,65.18z
			 M104.56,67.31c-0.39,0-0.71,0.31-0.72,0.7c0,0.39,0.31,0.71,0.7,0.72c0.39,0,0.71-0.31,0.72-0.7c0,0,0,0,0-0.01
			C105.26,67.63,104.95,67.31,104.56,67.31z M108.72,64.47c0.39,0,0.71-0.31,0.71-0.71c0-0.39-0.31-0.71-0.71-0.71
			c-0.39,0-0.71,0.31-0.71,0.71c0,0,0,0,0,0C108.01,64.15,108.33,64.47,108.72,64.47L108.72,64.47z M106.64,67.31
			c-0.39,0-0.71,0.31-0.71,0.71c0,0.39,0.31,0.71,0.71,0.71c0.39,0,0.71-0.31,0.71-0.71c0,0,0,0,0,0
			C107.35,67.63,107.03,67.31,106.64,67.31z M108.72,67.31c-0.39,0-0.71,0.31-0.71,0.71c0,0.39,0.31,0.71,0.71,0.71
			c0.39,0,0.71-0.31,0.71-0.71c0,0,0,0,0,0C109.43,67.63,109.11,67.31,108.72,67.31z M108.72,65.18c-0.39,0-0.71,0.31-0.71,0.71
			c0,0.39,0.31,0.71,0.71,0.71c0.39,0,0.71-0.31,0.71-0.71c0,0,0,0,0-0.01C109.43,65.5,109.11,65.18,108.72,65.18L108.72,65.18z
			 M106.64,65.18c-0.39,0-0.71,0.31-0.71,0.71c0,0.39,0.31,0.71,0.71,0.71c0.39,0,0.71-0.31,0.71-0.71c0,0,0,0,0-0.01
			C107.35,65.5,107.03,65.18,106.64,65.18L106.64,65.18z M106.64,63.05c-0.39,0-0.71,0.31-0.71,0.71c0,0.39,0.31,0.71,0.71,0.71
			c0.39,0,0.71-0.31,0.71-0.71c0,0,0,0,0,0C107.35,63.37,107.03,63.05,106.64,63.05z"/>
		<g class="st9">
			<circle class="st8" cx="90.83" cy="84.81" r="5.95"/>
			<path class="st3" d="M93.62,85.18h-2.42v2.42h-0.74v-2.42h-2.42v-0.74h2.42v-2.42h0.74v2.42h2.42V85.18z"/>
		</g>
		<circle class="st8" cx="122.44" cy="66.96" r="5.95"/>
		<path class="st3" d="M122.44,63.33c-1.87,0.02-3.37,1.56-3.35,3.44c0,0,0,0,0,0v2.67c-0.01,0.62,0.49,1.14,1.12,1.15c0,0,0,0,0,0
			h1.12v-3.07h-1.49v-0.74c0-1.44,1.17-2.6,2.6-2.6s2.6,1.17,2.6,2.6v0.74h-1.49v3.07h1.12c0.62-0.01,1.12-0.52,1.12-1.14
			c0,0,0,0,0,0v-2.67C125.82,64.89,124.32,63.35,122.44,63.33C122.44,63.33,122.44,63.33,122.44,63.33z"/>
		<g class="st9">
			<circle class="st8" cx="106.64" cy="84.81" r="5.95"/>
			<path class="st3" d="M108.87,84.17v-1.49c0-0.24-0.2-0.43-0.44-0.42c0,0,0,0,0,0h-5.27c-0.24,0-0.43,0.19-0.43,0.42v4.24
				c0,0.24,0.2,0.43,0.43,0.42h5.27c0.24,0,0.43-0.19,0.44-0.42v-1.49l1.67,1.7v-4.66L108.87,84.17z"/>
		</g>
		<circle class="st8" cx="122.44" cy="84.81" r="5.95"/>
		<path class="st3" d="M122.15,86.34c-0.65,0.37-1.45,0.37-2.1,0c-0.82,0.25-1.33,1.08-1.51,1.81h5.12
			C123.48,87.42,122.97,86.59,122.15,86.34z M121.1,82.43c-1.02,0-1.85,0.82-1.85,1.84c0,1.02,0.82,1.85,1.84,1.85
			c1.02,0,1.85-0.82,1.85-1.84c0,0,0,0,0,0C122.95,83.26,122.12,82.43,121.1,82.43L121.1,82.43z M121.1,85.68
			c-0.57-0.01-1.07-0.36-1.29-0.88h2.58C122.17,85.33,121.67,85.67,121.1,85.68L121.1,85.68z"/>
		<path class="st3" d="M123.6,87.04h2.74c-0.17-0.79-0.75-1.42-1.51-1.67c-0.32,0.18-0.68,0.28-1.05,0.28
			c-0.25,0-0.49-0.04-0.73-0.12c-0.13,0.23-0.29,0.43-0.49,0.61C123,86.32,123.36,86.64,123.6,87.04z M123.33,83.83h1.75
			c-0.22,0.52-0.72,0.87-1.29,0.88c-0.15,0-0.3-0.03-0.44-0.08c-0.02,0.15-0.06,0.3-0.11,0.44c0.97,0.31,2.01-0.23,2.32-1.2
			c0.31-0.97-0.23-2.01-1.2-2.32c-0.18-0.06-0.37-0.09-0.56-0.09c-0.63,0-1.22,0.32-1.56,0.86
			C122.8,82.64,123.19,83.19,123.33,83.83L123.33,83.83z"/>
		<circle class="st10" cx="106.64" cy="108.61" r="5.95"/>
		<path class="st3" d="M103.58,110.08c0.33-0.31,0.7-0.56,1.1-0.76c0.13-0.06,0.21-0.18,0.21-0.32l0.03-1.16
			c1.14-0.34,2.35-0.31,3.47,0.09l-0.03,1.16c0,0.14,0.07,0.26,0.19,0.33c0.4,0.21,0.77,0.49,1.08,0.82
			c0.14,0.15,0.38,0.16,0.53,0.02c0,0,0,0,0,0l0.94-0.9c0.15-0.14,0.16-0.38,0.01-0.52c-2.4-2.54-6.4-2.64-8.94-0.24c0,0,0,0,0,0
			c-0.15,0.14-0.15,0.38-0.01,0.53c0,0,0,0,0,0l0.89,0.94C103.2,110.21,103.43,110.22,103.58,110.08
			C103.58,110.08,103.58,110.08,103.58,110.08L103.58,110.08z"/>
		<circle class="st8" cx="123.19" cy="46.13" r="4.65"/>
		<path class="st3" d="M124.24,47.17c-0.65,0.37-1.45,0.37-2.1,0c-0.82,0.25-1.33,1.08-1.51,1.81h5.12
			C125.56,48.25,125.06,47.42,124.24,47.17z M123.19,43.27c-1.02,0-1.85,0.82-1.85,1.84c0,1.02,0.82,1.85,1.84,1.85
			s1.85-0.82,1.85-1.84c0,0,0,0,0,0C125.03,44.1,124.21,43.27,123.19,43.27z M123.19,46.52c-0.57-0.01-1.07-0.36-1.29-0.88h2.58
			C124.26,46.16,123.76,46.51,123.19,46.52L123.19,46.52z"/>
		<path class="st11" d="M76.71,13.2c-0.43-0.25-1.02-0.01-1.32,0.39c-0.3,0.4-0.37,0.93-0.46,1.42c-0.17,1.1-0.29,2.36,0.46,3.19
			c-1.21-3.68-4.7-6.49-8.55-6.9"/>
		<path class="st11" d="M151.84,73.87c-0.28-0.16-0.65,0-0.85,0.25c-0.17,0.28-0.27,0.59-0.29,0.91c-0.11,0.71-0.19,1.52,0.29,2.05
			c-0.83-2.41-2.97-4.13-5.49-4.44"/>
		<path class="st11" d="M57.1,49.83c-0.28-0.16-0.65,0-0.85,0.25c-0.17,0.28-0.27,0.59-0.29,0.91c-0.11,0.71-0.19,1.52,0.29,2.05
			c-0.83-2.41-2.97-4.13-5.49-4.44"/>
		
			<linearGradient id="SVGID_1_" gradientUnits="userSpaceOnUse" x1="1369.0045" y1="-62.5821" x2="1369.0045" y2="1.8106" gradientTransform="matrix(-1 0 0 -1 1514.85 80.29)">
			<stop  offset="0" style="stop-color:#808080;stop-opacity:0.25"/>
			<stop  offset="0.54" style="stop-color:#808080;stop-opacity:0.12"/>
			<stop  offset="1" style="stop-color:#808080;stop-opacity:0.1"/>
		</linearGradient>
		<path class="st12" d="M131.06,136.78c0.19,0.35,0.54,0.57,0.87,0.76c2.34,1.34,4.8,2.45,7.36,3.31c0.23,0.14,0.53,0.06,0.67-0.18
			c0.02-0.03,0.03-0.06,0.04-0.1c0.29-0.49,0.62-1.3,0.54-1.95c0.24-0.15,0.42-0.38,0.49-0.65c0.1-0.33,0.25-0.65,0.45-0.93
			c0.35-0.52,0.77-1.05,0.82-1.69c0-0.23,0.02-0.45,0.07-0.68c0.1-0.29,0.36-0.49,0.56-0.72c0.31-0.37,0.45-0.85,0.59-1.32
			c0.58-1.94,1.16-3.88,1.64-5.85c0.16-0.64,0.3-1.28,0.52-1.9c0.19-0.54,0.42-1.06,0.66-1.58c0.84-1.89,1.83-3.71,2.94-5.45
			c0.17,0.59,0.38,1.16,0.63,1.72c0.13,0.29,0.26,0.57,0.39,0.86c0.49,1.09,0.4,2.48,0.99,3.5c0.25,0.42,0.49,0.84,0.73,1.26
			c0.14,0.2,0.24,0.43,0.31,0.66c0.04,0.16,0.04,0.33,0.07,0.5c0.13,0.74,0.73,1.27,1.07,1.93c0.31,0.61,0.37,1.3,0.56,1.97
			c0.44,1.54,1.52,2.88,1.63,4.49c0.01,0.43,0,0.87-0.03,1.3c-0.03,0.76,0.02,1.52,0.15,2.26c0.01,0.08,0.03,0.15,0.06,0.22
			c-0.95,1.42-2.42,2.41-4.09,2.76c-0.32,0.06-0.68,0.13-0.84,0.42c-0.2,0.35,0.03,0.82,0.37,1.01s0.74,0.17,1.12,0.13
			c2.67-0.22,5.31-0.71,7.88-1.45c0.13-0.03,0.25-0.09,0.34-0.19c0.09-0.14,0.13-0.3,0.11-0.46c0-0.6-0.14-1.19-0.41-1.73l0.19-0.07
			c0.1-0.74-0.28-1.46-0.58-2.15c-0.52-1.2-0.8-2.5-1.21-3.75c-0.79-2.42-2.06-4.67-2.37-7.2c-0.08-0.7-0.29-1.4-0.34-2.1
			c-0.09-1.42-0.19-2.86-0.5-4.24c-0.26-1.14-0.67-2.23-0.93-3.39s-0.34-2.37,0.04-3.47c0.11-0.32,0.25-0.62,0.35-0.93
			c0.37-1.23,0.02-2.56-0.34-3.8c-0.11-0.39-0.23-0.78-0.34-1.17c-0.15-0.51-0.3-1.02-0.46-1.53c0.02-0.02,0.04-0.04,0.07-0.07
			c0.33-0.37,0.32-0.94,0.56-1.39c0.12-0.23,0.29-0.42,0.41-0.64c0.23-0.48,0.29-1.03,0.17-1.55c-0.1-0.52-0.3-1.02-0.44-1.52
			c-0.4-1.39-0.43-2.87-0.09-4.28c0.15-0.6,0.37-1.19,0.4-1.81c0.01-0.41-0.03-0.83-0.11-1.23c-0.29-1.56-0.85-3.15-2-4.18
			c-0.61-0.56-1.44-1.05-1.5-1.89c-0.1-0.04-0.21-0.04-0.31-0.01c-0.05-0.19-0.09-0.39-0.1-0.59h0.01c0.06,0.01,0.11,0.01,0.17,0
			c0.05,0,0.1-0.02,0.14-0.04c0.02-0.01,0.05-0.03,0.07-0.05c0.07-0.07,0.13-0.16,0.19-0.25c0.08-0.13,0.15-0.26,0.2-0.36
			c0.06-0.09,0.15-0.24,0.22-0.37c0.22-0.37,0.42-0.75,0.6-1.13v-0.01c0.02-0.04,0.04-0.07,0.05-0.11l0.02-0.05l0.03-0.08
			c0-0.02,0.02-0.04,0.02-0.06c0.01-0.02,0.02-0.05,0.03-0.07l0.03-0.06c0.01-0.02,0.02-0.04,0.03-0.07
			c0.01-0.02,0.02-0.04,0.02-0.06c0.01-0.02,0.02-0.04,0.02-0.07c0.01-0.02,0.01-0.04,0.02-0.07c0.01-0.02,0.01-0.04,0.02-0.07
			l0.02-0.07c0-0.02,0.01-0.04,0.02-0.07l0.02-0.07l0.02-0.07l0.02-0.07c0-0.02,0-0.04,0.01-0.06c0.01-0.02,0-0.05,0.01-0.07
			c0.01-0.02,0-0.04,0-0.06l0.01-0.07v-0.06c0-0.03,0-0.05,0-0.07c0-0.02,0-0.04,0-0.06s0-0.05,0-0.07v-0.04c0-0.03,0-0.05,0-0.08
			c0-0.03,0-0.04,0-0.06c0-0.02,0-0.05,0-0.08c0-0.03,0-0.04,0-0.05c-0.01-0.07-0.02-0.14-0.04-0.22c-0.13-0.43-0.38-0.82-0.73-1.1
			c-0.34-0.28-0.71-0.5-1.12-0.67c-0.1-0.04-0.19-0.09-0.26-0.17c-0.09-0.13-0.16-0.27-0.22-0.42c-0.16-0.29-0.49-0.41-0.8-0.49
			c-0.31-0.08-0.64-0.12-0.89-0.32c-0.02-0.02-0.05-0.03-0.08-0.04c-0.04,0-0.08,0.01-0.11,0.02l-0.72,0.32
			c-0.03-0.19-0.2-0.31-0.39-0.28c0,0,0,0,0,0c-0.18,0.04-0.34,0.13-0.46,0.27c-0.04-0.04-0.06-0.11-0.04-0.17l-0.56,0.37
			c-0.07,0.04-0.2,0.06-0.19-0.03c-0.31,0.34-0.58,0.71-0.8,1.12c-0.07,0.12-0.13,0.25-0.17,0.38l0,0c0,0.03-0.02,0.06-0.02,0.08
			c0,0.01,0,0.01,0,0.02c0,0.02-0.01,0.05-0.01,0.08c0,0.01,0,0.01,0,0.02c0,0.03,0,0.07,0,0.1l0,0c0,0.04,0,0.07,0,0.11
			c0.01,0.21,0.13,0.4,0.32,0.49c0.07,0.03,0.15,0.04,0.22,0.04c0.16-0.02,0.32-0.05,0.47-0.1c0.05-0.01,0.1-0.02,0.15-0.03
			c0.02,0,0.05,0,0.07,0c0.1,0,0.19,0.03,0.27,0.09l0.01,0.01c-0.82,0.59-1.31,1.55-1.3,2.56c0,0.49,0.11,0.98,0.33,1.42
			c-0.15,0.08-0.24,0.25-0.23,0.42c-0.05-0.14-0.07-0.29-0.08-0.44c-0.3-0.06-0.53,0.3-0.64,0.6c-0.23,0.69-0.4,1.4-0.52,2.12
			c-0.09,0.48-0.19,0.96-0.28,1.43c-0.1,0.48-0.19,0.99-0.26,1.49c-0.16,1.29-0.11,2.6,0.17,3.87c-0.02,0.04-0.04,0.08-0.05,0.12
			c-0.06,0.15-0.21,0.28-0.23,0.43c-0.1,0.95,0.5,1.8,1.06,2.54c0.05,0.08,0.11,0.14,0.19,0.19c0.08,0.03,0.17,0.05,0.26,0.03
			c0.23-0.01,0.45-0.03,0.67-0.07c0.01,0.13,0.03,0.25,0.04,0.37c0.16,1.34,0.43,2.67,0.43,4.01c0,1.34-0.26,2.71,0.26,3.9
			c0.09,0.2,0.25,0.37,0.27,0.58h0.03c-0.31,0.64-0.57,1.31-0.77,2c-0.2,0.81-0.25,1.65-0.48,2.45c-0.2,0.68-0.52,1.3-0.78,1.96
			c-0.43,1.08-0.68,2.21-0.74,3.37c-0.01,0.53-0.11,1.05-0.32,1.55c-0.3,0.59-0.56,1.2-0.79,1.82c-0.37,1.1-1,2.15-1.12,3.32
			c-0.07,0.66,0.03,1.37-0.25,1.97c-0.11,0.23-0.27,0.44-0.39,0.66c-0.18,0.35-0.33,0.73-0.43,1.12l-1.84,6.1
			c-0.07,0.34-0.22,0.65-0.45,0.91c-0.17,0.16-0.4,0.25-0.56,0.42c-0.26,0.26-0.33,0.65-0.33,1.05c-0.2,0.04-0.39,0.1-0.57,0.19
			c-1.57,0.67-3.35,0.67-4.93,0c-0.3-0.13-0.64-0.28-0.93-0.13C130.93,135.91,130.87,136.43,131.06,136.78z M145.72,90.54
			c0.11-0.51,0.32-0.98,0.61-1.41c0.42-0.69,0.86-1.36,1.25-2.07l0.11-0.11c0.03,0.09,0.06,0.19,0.09,0.27
			c0.07,0.24,0.12,0.48,0.17,0.73c0.06,0.31,0.08,0.62,0.05,0.93l-0.03,0.02c-0.15,0.1-0.27,0.23-0.35,0.39
			c-0.05,0.16-0.05,0.33,0,0.49l-0.02,0.02l0.02-0.01c0.07,0.26,0.19,0.52,0.15,0.78c-0.04,0.31-0.3,0.54-0.45,0.81
			c-0.37,0.65-0.25,1.63-0.86,2.03l-0.01,0.03l0,0c-0.27-0.06-0.49-0.25-0.6-0.49l0,0C145.9,92.15,145.6,91.33,145.72,90.54z"/>
		<path class="st5" d="M160.98,140.78c0.02,0.16-0.02,0.32-0.12,0.46c-0.1,0.09-0.22,0.16-0.36,0.19c-2.68,0.73-5.43,1.22-8.21,1.44
			c-0.4,0.03-0.82,0.05-1.17-0.13c-0.35-0.18-0.59-0.65-0.37-0.99c0.17-0.29,0.56-0.35,0.88-0.41c1.74-0.34,3.28-1.34,4.31-2.79
			c0.12-0.21,0.28-0.39,0.47-0.54c0.36-0.24,0.83-0.19,1.25-0.1c0.74,0.15,1.73,0.33,2.4,0.7
			C160.74,138.95,160.97,140.07,160.98,140.78z"/>
		<path class="st4" d="M160.98,140.78c0.02,0.16-0.02,0.32-0.12,0.46c-0.1,0.09-0.22,0.16-0.36,0.19c-2.68,0.73-5.43,1.22-8.21,1.44
			c-0.4,0.03-0.82,0.05-1.17-0.13c-0.35-0.18-0.59-0.65-0.37-0.99c0.17-0.29,0.56-0.35,0.88-0.41c1.74-0.34,3.28-1.34,4.31-2.79
			c0.12-0.21,0.28-0.39,0.47-0.54c0.36-0.24,0.83-0.19,1.25-0.1c0.74,0.15,1.73,0.33,2.4,0.7
			C160.74,138.95,160.97,140.07,160.98,140.78z"/>
		<path class="st5" d="M139.37,140.6c-0.07,0.15-0.2,0.26-0.35,0.32c-0.13,0.02-0.27,0.01-0.4-0.05c-2.65-0.85-5.22-1.94-7.66-3.27
			c-0.35-0.19-0.71-0.4-0.91-0.74c-0.2-0.34-0.14-0.87,0.22-1.04c0.3-0.15,0.65,0,0.96,0.13c1.65,0.66,3.49,0.66,5.13,0
			c0.22-0.11,0.45-0.18,0.69-0.2c0.43-0.01,0.8,0.29,1.12,0.6c0.54,0.53,1.27,1.22,1.63,1.89S139.75,140,139.37,140.6z"/>
		<path class="st4" d="M139.37,140.6c-0.07,0.15-0.2,0.26-0.35,0.32c-0.13,0.02-0.27,0.01-0.4-0.05c-2.65-0.85-5.22-1.94-7.66-3.27
			c-0.35-0.19-0.71-0.4-0.91-0.74c-0.2-0.34-0.14-0.87,0.22-1.04c0.3-0.15,0.65,0,0.96,0.13c1.65,0.66,3.49,0.66,5.13,0
			c0.22-0.11,0.45-0.18,0.69-0.2c0.43-0.01,0.8,0.29,1.12,0.6c0.54,0.53,1.27,1.22,1.63,1.89S139.75,140,139.37,140.6z"/>
		<path class="st5" d="M153.54,104.99c0.28,0.74,0.51,1.49,0.74,2.23l0.35,1.15c0.37,1.22,0.74,2.53,0.36,3.74
			c-0.1,0.31-0.25,0.61-0.37,0.93c-0.39,1.09-0.3,2.3-0.04,3.43c0.26,1.13,0.69,2.21,0.96,3.35c0.33,1.37,0.42,2.79,0.52,4.19
			c0.05,0.69,0.26,1.39,0.35,2.07c0.32,2.49,1.65,4.73,2.47,7.1c0.43,1.23,0.72,2.51,1.26,3.7c0.31,0.68,0.71,1.39,0.6,2.12
			c-1.51,0.54-3.19,0.53-4.61-0.21c-0.18-0.07-0.31-0.24-0.31-0.43c-0.13-0.74-0.18-1.48-0.15-2.23c0.04-0.43,0.05-0.85,0.03-1.28
			c-0.11-1.59-1.24-2.91-1.7-4.43c-0.19-0.65-0.27-1.34-0.59-1.94c-0.35-0.65-0.98-1.18-1.12-1.91c-0.03-0.16-0.03-0.33-0.07-0.49
			c-0.08-0.23-0.19-0.46-0.33-0.66l-0.76-1.24c-0.62-1.01-0.53-2.38-1.04-3.45c-0.13-0.28-0.28-0.56-0.41-0.85
			c-0.25-0.55-0.47-1.12-0.66-1.7c-1.16,1.71-2.18,3.51-3.07,5.37c-0.26,0.51-0.49,1.03-0.69,1.56c-0.22,0.61-0.37,1.24-0.54,1.87
			c-0.5,1.94-1.12,3.86-1.71,5.76c-0.15,0.46-0.3,0.93-0.62,1.3c-0.2,0.23-0.48,0.42-0.58,0.71c-0.05,0.22-0.07,0.44-0.07,0.67
			c-0.06,0.63-0.5,1.15-0.86,1.67c-0.21,0.28-0.37,0.6-0.47,0.93c-0.17,0.58-0.77,0.91-1.35,0.75c-0.05-0.01-0.09-0.03-0.14-0.05
			h-0.01c-0.15-0.07-0.29-0.16-0.42-0.25c-0.35-0.22-0.69-0.47-1-0.74c-0.28-0.27-0.53-0.56-0.74-0.88
			c-0.13-0.19-0.09-0.46,0.11-0.59c0.03-0.02,0.07-0.04,0.11-0.05l0,0c-0.04-0.52-0.05-1.11,0.32-1.46
			c0.17-0.17,0.41-0.26,0.59-0.42c0.23-0.25,0.39-0.56,0.47-0.89c0.63-2,1.27-4,1.9-5.99c0.11-0.38,0.26-0.76,0.45-1.1
			c0.13-0.22,0.3-0.42,0.41-0.65c0.29-0.59,0.19-1.29,0.26-1.94c0.12-1.15,0.77-2.18,1.16-3.27c0.23-0.62,0.51-1.21,0.82-1.79
			c0.21-0.48,0.32-1,0.33-1.52c0.07-1.14,0.33-2.27,0.77-3.32c0.27-0.65,0.61-1.27,0.81-1.94c0.24-0.79,0.28-1.63,0.5-2.42
			c0.21-0.68,0.48-1.35,0.81-1.98c0.27-0.56,0.55-1.13,0.99-1.56c0.73-0.71,1.8-0.94,2.82-0.97
			C151.4,104.95,152.53,105.1,153.54,104.99z"/>
		<path class="st13" d="M147.3,90.51c1.31-0.77,2.6-1.57,3.88-2.39c-0.31-0.41-0.48-0.91-0.49-1.43c0-0.02,0-0.04,0-0.06
			c-0.02-0.5,0.17-0.93-0.46-0.86c-0.61,0.08-1.2,0.2-1.79,0.37c-0.17,0.04-1.62,0.58-1.67,0.52c0.32,0.38,0.56,0.83,0.7,1.31
			c0.07,0.24,0.13,0.47,0.17,0.72C147.78,89.33,147.78,90.08,147.3,90.51z"/>
		<path class="st5" d="M145.54,99.09c0.17,1.32,0.45,2.63,0.45,3.96s-0.27,2.67,0.27,3.86c0.09,0.2,0.26,0.36,0.28,0.58
			c0.74,0.13,1.47-0.22,2.18-0.47c0.65-0.23,1.32-0.38,2.01-0.45c0.56-0.06,1.13-0.06,1.68-0.17c0.55-0.09,1.06-0.35,1.46-0.74
			c0.34-0.37,0.34-0.93,0.57-1.37c0.12-0.22,0.3-0.41,0.43-0.63c0.24-0.47,0.3-1.02,0.17-1.53c-0.13-0.51-0.28-1.01-0.46-1.5
			c-0.42-1.37-0.45-2.83-0.09-4.22c0.16-0.59,0.38-1.18,0.42-1.79c0.01-0.41-0.03-0.82-0.12-1.22c-0.3-1.54-0.89-3.1-2.08-4.12
			c-0.64-0.54-1.5-1.03-1.57-1.86c-0.28-0.11-0.57,0.08-0.81,0.25l-2.65,1.95c-0.16,0.09-0.29,0.23-0.37,0.39
			c-0.17,0.4,0.22,0.83,0.15,1.26c-0.04,0.31-0.31,0.54-0.47,0.8c-0.39,0.64-0.26,1.61-0.9,2c-0.06,0.12-0.11,0.24-0.16,0.37
			c-0.23,0.65-0.38,1.32-0.46,2.01C145.39,97.34,145.41,98.22,145.54,99.09z"/>
		<path class="st4" d="M146.78,86.66c0.32,0.38,0.56,0.83,0.7,1.31c0.21,0.05,0.43,0.07,0.64,0.07c1.08,0,1.81-1.24,2.34-2.09
			c-0.02-0.5,0.4-0.25-0.23-0.19c-0.61,0.08-1.2,0.2-1.79,0.37C148.28,86.18,146.83,86.72,146.78,86.66z"/>
		<circle class="st13" cx="148.13" cy="84.75" r="3.04"/>
		<path class="st5" d="M146.5,87.67l-0.7-0.77c-0.23-0.25-0.21-0.64,0.04-0.87l2.36-2.16c0.25-0.23,0.64-0.21,0.87,0.04l0.7,0.77
			c0.23,0.25,0.21,0.64-0.04,0.87l-2.36,2.16C147.13,87.94,146.73,87.93,146.5,87.67z"/>
		<path class="st4" d="M146.5,87.67l-0.7-0.77c-0.23-0.25-0.21-0.64,0.04-0.87l2.36-2.16c0.25-0.23,0.64-0.21,0.87,0.04l0.7,0.77
			c0.23,0.25,0.21,0.64-0.04,0.87l-2.36,2.16C147.13,87.94,146.73,87.93,146.5,87.67z"/>
		<circle class="st3" cx="148.32" cy="85.32" r="0.25"/>
		<path class="st4" d="M145.54,99.09c2.35-0.35,4.48-1.76,6.11-3.5c0.3-0.29,0.54-0.64,0.69-1.03c0.08-0.33,0.11-0.67,0.08-1
			l-0.04-1.34c-0.02-0.59-0.04-1.2-0.33-1.71c-0.28-0.51-0.92-0.88-1.47-0.67c-1.44,0.56-2.37,1.83-3.19,3.14
			c-0.24,0.41-0.49,0.8-0.77,1.18c-0.14,0.18-0.33,0.36-0.56,0.33c-0.05,0-0.1-0.02-0.14-0.04c-0.23,0.65-0.38,1.32-0.46,2.01
			C145.39,97.33,145.41,98.22,145.54,99.09z"/>
		<path class="st13" d="M145.33,91.25c0.12-0.5,0.33-0.98,0.64-1.39c0.91-1.42,1.93-2.81,2.42-4.43c-0.71,0.13-0.82,1.35-1.54,1.4
			l0.06-0.88c0-0.15,0-0.33-0.12-0.41c-0.12-0.08-0.34,0.02-0.42,0.17s-0.1,0.33-0.17,0.48c-0.07,0.15-0.25,0.28-0.4,0.22
			l-0.06-0.29c-0.24-0.05-0.48,0.1-0.53,0.35c-0.01,0.04-0.01,0.07-0.01,0.11c-0.05-0.14-0.08-0.29-0.08-0.44
			c-0.32-0.06-0.55,0.29-0.66,0.6c-0.24,0.68-0.42,1.38-0.55,2.09l-0.29,1.42c-0.1,0.49-0.2,0.98-0.27,1.47
			c-0.18,1.31-0.11,2.64,0.2,3.92c0.39-0.22,0.77-0.45,1.13-0.71c0.28-0.24,0.6-0.51,0.7-0.87
			C145.64,93.13,145.18,92.17,145.33,91.25z"/>
		<path class="st5" d="M150.59,89.45c0.55-0.21,1.18,0.16,1.47,0.67s0.31,1.12,0.33,1.71l0.04,1.35c0.03,0.34,0,0.67-0.08,1
			c-0.15,0.39-0.38,0.74-0.69,1.03c-1.8,1.93-4.22,3.45-6.86,3.58c-0.09,0.01-0.19,0-0.27-0.03c-0.08-0.05-0.14-0.11-0.19-0.19
			c-0.59-0.73-1.21-1.57-1.12-2.51c0.02-0.16,0.19-0.28,0.24-0.43c0.35-0.85,1-1.53,1.83-1.93l0.16-0.07
			c0.12,0.25,0.35,0.43,0.63,0.49c0.22,0.02,0.41-0.16,0.56-0.33c0.28-0.38,0.53-0.78,0.77-1.18
			C148.22,91.28,149.16,90.01,150.59,89.45z"/>
		<path class="st5" d="M150.41,86.74c-0.26-0.13-0.3-0.48-0.33-0.77c-0.03-0.34-0.08-0.67-0.15-1c-0.08-0.37-0.21-0.75-0.53-0.95
			c-0.36-0.22-0.84-0.11-1.06,0.25c-0.06,0.1-0.1,0.21-0.11,0.32c0,0.06-0.01,0.12-0.05,0.17c-0.02,0.02-0.06,0.04-0.09,0.05
			c-0.3,0.07-0.61-0.1-0.7-0.4c-0.05-0.19-0.01-0.43-0.15-0.58c-0.13-0.15-0.29-0.15-0.42-0.25c-0.16-0.16-0.23-0.37-0.21-0.6
			c0-0.28,0.04-0.61-0.19-0.78c-0.34-0.26-0.84,0.15-1.24,0c-0.22-0.11-0.36-0.34-0.34-0.59c0.02-0.24,0.11-0.48,0.24-0.68
			c0.23-0.4,0.51-0.77,0.83-1.1c0,0.08,0.13,0.07,0.2,0.03l0.59-0.36c-0.02,0.06,0,0.13,0.05,0.17c0.13-0.13,0.3-0.22,0.48-0.26
			c0.19-0.04,0.37,0.09,0.41,0.28l0.74-0.32c0.06-0.04,0.15-0.03,0.2,0.02c0.27,0.19,0.61,0.24,0.93,0.31
			c0.32,0.07,0.66,0.2,0.83,0.49c0.06,0.15,0.14,0.28,0.23,0.41c0.08,0.07,0.18,0.13,0.28,0.17c0.42,0.16,0.81,0.39,1.17,0.66
			c0.36,0.28,0.62,0.66,0.76,1.09c0.2,0.72-0.09,1.49-0.43,2.16c-0.26,0.51-0.54,1-0.86,1.48c-0.12,0.19-0.28,0.54-0.47,0.65
			C150.82,86.85,150.6,86.83,150.41,86.74z"/>
		<path class="st4" d="M145.19,81.45c0.4,0.15,0.9-0.26,1.24,0c0.22,0.17,0.19,0.5,0.19,0.78c-0.02,0.22,0.05,0.44,0.21,0.6
			c0.13,0.1,0.31,0.12,0.42,0.25c0.11,0.12,0.09,0.38,0.15,0.58c0.1,0.29,0.4,0.47,0.7,0.4c0.03-0.01,0.06-0.02,0.09-0.05
			c0.04-0.05,0.06-0.11,0.05-0.17c0.05-0.42,0.43-0.73,0.85-0.69c0.12,0.01,0.23,0.05,0.32,0.11c0.32,0.2,0.45,0.59,0.53,0.95
			c0.07,0.33,0.13,0.67,0.15,1c0.03,0.29,0.07,0.63,0.33,0.77c0.2,0.1,0.42,0.12,0.64,0.06c0.19-0.11,0.36-0.46,0.47-0.65
			c0.32-0.48,0.61-0.97,0.86-1.49c0.21-0.4,0.37-0.82,0.46-1.26c0.13,0.68-0.14,1.39-0.46,2.02c-0.26,0.51-0.54,1-0.86,1.48
			c-0.12,0.19-0.28,0.54-0.47,0.65c-0.21,0.06-0.44,0.04-0.64-0.06c-0.26-0.13-0.3-0.48-0.33-0.77c-0.03-0.34-0.08-0.67-0.15-1
			c-0.08-0.37-0.21-0.75-0.53-0.95c-0.36-0.22-0.84-0.11-1.06,0.25c-0.06,0.1-0.1,0.21-0.11,0.32c0,0.06-0.01,0.12-0.05,0.17
			c-0.02,0.02-0.06,0.04-0.09,0.05c-0.3,0.07-0.61-0.1-0.7-0.4c-0.05-0.19-0.01-0.43-0.15-0.58c-0.13-0.15-0.29-0.15-0.42-0.25
			c-0.16-0.16-0.23-0.37-0.21-0.6c0-0.28,0.04-0.61-0.19-0.78c-0.34-0.26-0.84,0.15-1.24,0c-0.22-0.11-0.36-0.34-0.34-0.59
			c0.01-0.13,0.04-0.27,0.09-0.39C145,81.32,145.08,81.41,145.19,81.45z"/>
	</g>
</g>
<g id="Layer_2">
	<g>
		<path class="st4" d="M121.05,24.5c-11.59-0.4-22.63-4.14-33.18-8.24s-20.98-8.63-32.3-10.8c-7.28-1.4-15.6-1.59-21.46,2.31
			c-5.64,3.76-7.47,10.24-8.45,16.25c-0.74,4.52-1.17,9.29,0.85,13.52c1.4,2.94,3.89,5.41,5.62,8.23c5.99,9.8,1.76,21.89-4.74,31.46
			c-3.04,4.49-6.58,8.78-8.93,13.55c-2.35,4.77-3.44,10.25-1.38,15.13c2.04,4.84,6.9,8.46,12.16,11.01
			c10.69,5.19,23.28,6.67,35.57,7.51c27.19,1.86,54.53,1.05,81.79,0.25c10.09-0.3,20.22-0.6,30.15-2.16
			c5.51-0.87,11.2-2.24,15.2-5.55c5.08-4.21,6.34-11.35,2.94-16.64c-5.71-8.86-21.49-11.07-25.49-20.58
			c-2.2-5.24,0.06-11.07,3.25-15.93c6.85-10.42,18.33-19.56,18.93-31.46c0.42-8.18-5.1-16.37-13.64-20.24
			c-8.94-4.05-21.35-3.54-27.94,3.17C143.22,22.2,131.28,24.86,121.05,24.5z"/>
		<ellipse class="st4" cx="119.84" cy="132.43" rx="66.44" ry="4.94"/>
		<path d="M68.46,116.43c0,0,3.76-0.6,6.02,2.06c0,0-1.65,1.3-5.22-0.5L68.46,116.43z"/>
		<path d="M68.06,116.38c0,0-2.4,2.96-1.22,6.24c0,0,1.96-0.78,2.17-4.77L68.06,116.38z"/>
		<path d="M65.91,111.52c0,0,1.5-2.76,7.52,1.1c0,0-0.8,1.86-3.46,1.71C67.31,114.17,66.61,112.98,65.91,111.52z"/>
		<path d="M65.52,111.32c0,0-3.12-0.36-3.42,6.79c0,0,1.98,0.41,3.39-1.85C66.88,114,66.3,112.73,65.52,111.32z"/>
		<path d="M63.7,105.62c0,0,1.76-4.86,8.12-1.4c0,0-1.45,4.46-7.47,3.06L63.7,105.62z"/>
		<path d="M61.74,98.35c0,0,3.31-4.92,9.18-0.36c0,0-2.06,4.61-8.68,2.11L61.74,98.35z"/>
		<path d="M61.04,91.42c0,0,3.86-4.51,9.68,0c0,0-3.66,3.96-9.68,1.15V91.42z"/>
		<path d="M60.44,84.7c0,0,3.91-4.71,9.48-0.25c0,0-4.41,4.16-9.48,1.35V84.7z"/>
		<path d="M60.79,78.74c0,0,4.12-6.07,9.33-1.96c0,0-4.41,5.22-9.33,3.11V78.74z"/>
		<path d="M61.74,71.76c0,0,4.36-6.02,9.43-1.4c0,0-5.17,5.22-9.43,2.51V71.76z"/>
		<path d="M63.2,65.53c0,0,5.17-5.65,9.67-3.4c0,0-5.38,6.01-9.9,4.9L63.2,65.53z"/>
		<path d="M65,59.63c0,0,5.97-6.92,9.43-4.61c0,0-4.39,5.37-9.85,5.91L65,59.63z"/>
		<path d="M67.61,52.78c0,0,5.22-5.66,9.03-4.25c0,0-4.46,5.87-9.73,6.02L67.61,52.78z"/>
		<path d="M69.97,46.37c0,0,5.77-5.42,8.27-4.47c0,0-4.16,6.02-8.53,5.67L69.97,46.37z"/>
		<path d="M72.27,40.44c0,0,4.96-6.47,7.67-5.97c0,0-3.01,5.77-7.67,6.63V40.44z"/>
		<path d="M74.78,32.47c0,0,4.39-4.96,6.76-4.95c0,0-3.46,6.63-6.94,6.57L74.78,32.47z"/>
		<path d="M76.26,27.16l4.24-10.33c0,0,0.21,9.34-4.78,12.25L76.26,27.16z"/>
		<path d="M77.98,15.76c0,0,0.7-8.63,0.25-9.33c0,0,3.03,7.16-0.28,13.14L77.98,15.76z"/>
		<path d="M63.53,105.5c0,0-4.4-2.72-7.24,3.94c0,0,3.91,2.6,7.76-2.24L63.53,105.5z"/>
		<path d="M61.61,98.07c0,0-5.39-2.46-8.01,4.5c0,0,4.17,2.87,8.5-2.74L61.61,98.07z"/>
		<path d="M60.79,91.84c0,0-3.86-4.51-9.67,0c0,0,3.66,3.96,9.67,1.15V91.84z"/>
		<path d="M60.31,84.7c0,0-3.91-4.71-9.48-0.25c0,0,4.41,4.16,9.48,1.35V84.7z"/>
		<path d="M60.79,78.91c0,0-2.74-6.81-8.71-3.87c0,0,3.22,6.03,8.47,5L60.79,78.91z"/>
		<path d="M62.09,71.73c0,0-2.73-6.92-8.78-3.71c0,0,3.7,6.34,8.51,4.78L62.09,71.73z"/>
		<path d="M63.78,65.57c0,0-1.07-7.58-6.09-8.26c0,0,1.06,8,5.41,9.63L63.78,65.57z"/>
		<path d="M65.13,59.64c0,0-0.42-9.13-4.57-9.45c0,0,0.14,6.93,4.1,10.75L65.13,59.64z"/>
		<path d="M68.04,52.51c0,0-1.24-7.6-5.19-8.53c0,0,0.49,7.36,4.8,10.39L68.04,52.51z"/>
		<path d="M70.44,46.42c0,0-0.04-7.91-2.46-9.08c0,0-1.5,7.16,1.76,10.09L70.44,46.42z"/>
		<path d="M72.46,40.36c0,0-0.34-8.15-2.84-9.3c0,0-0.86,6.45,2.47,9.83L72.46,40.36z"/>
		<path d="M75.13,33.12c0,0-0.02-6.63-1.8-8.18c0,0-1.78,7.26,0.87,9.51L75.13,33.12z"/>
		<path d="M76.05,26.83L74.31,15.8c0,0-2.36,9.04,1.82,13.02L76.05,26.83z"/>
		<path d="M76.39,15.87c0,0-4.46-7.41-4.37-8.24c0,0,0.47,7.77,6.09,11.64L76.39,15.87z"/>
		<path d="M76.91,13.68c0,0-4.21-10.53-6.12-11.39c0,0,6.02,3.06,6.47,11.08L76.91,13.68z"/>
		<path class="st14" d="M74.57,34.15l-0.29-0.09c3.56-11.59,4.44-18.99,2.5-20.84l0.21-0.22C79.05,14.96,78.22,22.27,74.57,34.15z"
			/>
		<path class="st14" d="M64.79,61.29l-0.43-0.15c0.38-1.06,0.78-2.14,1.21-3.2c3.71-9.25,6.87-17.85,8.89-24.46l0.37-0.18
			c-2.03,6.61-5.13,15.54-8.85,24.81C65.56,59.16,65.16,60.23,64.79,61.29z"/>
		<path class="st14" d="M73.76,125.11c-0.06-0.06-5.82-6.55-9.84-17.63c-2.35-6.48-3.67-13.3-3.89-20.2
			c-0.27-8.62,1.53-18.25,4.63-26.99L65,60.68c-6.96,19.62-4.19,36.44-0.53,46.56c3.97,10.98,9.67,17.39,9.73,17.46L73.76,125.11z"
			/>
		<path d="M48.64,123.69c0,0-6.81-0.41-6.01,4.36c0,0-0.16,0.84,0.61,1.23c0,0,0.01-0.36,0.7-0.23c0.24,0.04,0.49,0.05,0.74,0.04
			c0.33-0.02,0.65-0.15,0.91-0.37l0,0c0,0,1.91-0.79,2.66-3.92c0,0,0.55-0.68,0.53-0.86l-1.15,0.49c0,0,0.39,0.83,0.08,1.52
			c0,0-0.04-1.49-0.26-1.45c-0.04,0-0.6,0.29-0.6,0.29s0.68,1.45,0.17,2.49c0,0,0.19-1.78-0.38-2.39l-0.81,0.47
			c0,0,0.79,1.49,0.25,2.71c0,0,0.14-1.87-0.42-2.6l-0.73,0.57c0,0,0.74,1.47,0.29,2.48c0,0-0.06-2.17-0.45-2.34
			c0,0-0.64,0.57-0.74,0.8c0,0,0.51,1.07,0.19,1.63c0,0-0.19-1.45-0.36-1.46c0,0-0.64,0.96-0.71,1.61c0.03-0.61,0.22-1.2,0.55-1.71
			c-0.37,0.07-0.71,0.25-0.98,0.51c0,0,0.1-0.68,1.14-0.74c0,0,0.54-0.73,0.67-0.77c0,0-1.03-0.09-1.66,0.19
			c0,0,0.55-0.64,1.85-0.36l0.72-0.59c0,0-1.36-0.18-1.93,0.02c0,0,0.66-0.57,2.13-0.15l0.79-0.47c0,0-1.16-0.25-1.85-0.16
			c0,0,0.73-0.39,2.08,0.03l0.56-0.25c0,0-0.85-0.17-1.1-0.19c-0.25-0.03-0.26-0.09-0.26-0.09c0.54-0.09,1.09-0.03,1.59,0.18
			C47.45,124.2,48.66,123.77,48.64,123.69z"/>
		<path d="M28.83,125.91c0,0-6.81-0.41-6.01,4.36c0,0-0.16,0.84,0.6,1.23c0,0,0.01-0.36,0.7-0.23c0.24,0.04,0.49,0.05,0.74,0.04
			c0.33-0.02,0.65-0.15,0.9-0.37l0,0c0,0,1.92-0.79,2.66-3.92c0,0,0.55-0.68,0.54-0.86l-1.15,0.49c0,0,0.39,0.83,0.08,1.52
			c0,0-0.04-1.49-0.26-1.45c-0.04,0-0.6,0.29-0.6,0.29s0.68,1.45,0.17,2.49c0,0,0.19-1.78-0.38-2.39l-0.81,0.47
			c0,0,0.79,1.49,0.25,2.71c0,0,0.14-1.87-0.42-2.6l-0.73,0.57c0,0,0.74,1.47,0.29,2.48c0,0-0.06-2.17-0.45-2.34
			c0,0-0.64,0.57-0.74,0.8c0,0,0.51,1.07,0.19,1.63c0,0-0.19-1.45-0.36-1.46c0,0-0.64,0.96-0.71,1.61c0.03-0.61,0.22-1.2,0.55-1.71
			c-0.37,0.07-0.71,0.25-0.98,0.51c0,0,0.1-0.68,1.14-0.74c0,0,0.54-0.73,0.67-0.77c0,0-1.03-0.09-1.66,0.19
			c0,0,0.55-0.64,1.85-0.36l0.72-0.59c0,0-1.36-0.18-1.93,0.02c0,0,0.66-0.57,2.13-0.15l0.79-0.47c0,0-1.16-0.25-1.85-0.16
			c0,0,0.73-0.39,2.08,0.03l0.56-0.25c0,0-0.85-0.17-1.1-0.19s-0.26-0.09-0.26-0.09c0.54-0.09,1.09-0.03,1.59,0.18
			C27.66,126.42,28.85,125.98,28.83,125.91z"/>
		<path d="M39.87,131.11c0,0-6.81-0.41-6.01,4.36c0,0-0.16,0.84,0.61,1.23c0,0,0.01-0.36,0.7-0.23c0.24,0.04,0.49,0.05,0.74,0.04
			c0.33-0.02,0.65-0.15,0.9-0.37l0,0c0,0,1.91-0.79,2.66-3.92c0,0,0.55-0.68,0.54-0.86l-1.15,0.49c0,0,0.39,0.83,0.08,1.52
			c0,0-0.04-1.49-0.26-1.45c-0.04,0-0.6,0.29-0.6,0.29s0.68,1.44,0.16,2.49c0,0,0.19-1.78-0.38-2.39l-0.81,0.47
			c0,0,0.79,1.49,0.25,2.71c0,0,0.14-1.87-0.42-2.6l-0.73,0.57c0,0,0.74,1.47,0.29,2.48c0,0-0.06-2.17-0.45-2.34
			c0,0-0.64,0.57-0.74,0.8c0,0,0.51,1.07,0.19,1.63c0,0-0.19-1.45-0.36-1.46c0,0-0.64,0.96-0.71,1.61c0.03-0.61,0.22-1.2,0.55-1.71
			c-0.37,0.07-0.71,0.25-0.98,0.51c0,0,0.1-0.68,1.14-0.74c0,0,0.53-0.73,0.67-0.77c0,0-1.03-0.09-1.66,0.19
			c0,0,0.55-0.64,1.85-0.35l0.72-0.59c0,0-1.36-0.18-1.93,0.02c0,0,0.66-0.57,2.13-0.15l0.79-0.47c0,0-1.15-0.24-1.84-0.15
			c0,0,0.73-0.39,2.08,0.03l0.56-0.25c0,0-0.85-0.17-1.1-0.19c-0.25-0.03-0.26-0.09-0.26-0.09c0.54-0.09,1.09-0.03,1.59,0.18
			C38.7,131.63,39.89,131.18,39.87,131.11z"/>
		<ellipse class="st4" cx="34.56" cy="137.2" rx="4.82" ry="0.81"/>
		<ellipse class="st4" cx="187.55" cy="137.2" rx="4.82" ry="0.81"/>
		<ellipse class="st4" cx="141.36" cy="141.89" rx="4.82" ry="0.81"/>
		<ellipse class="st4" cx="195.18" cy="130.14" rx="4.82" ry="0.81"/>
		<ellipse class="st4" cx="43.95" cy="129.63" rx="4.82" ry="0.81"/>
		<ellipse class="st4" cx="24.13" cy="131.92" rx="4.82" ry="0.81"/>
		<path class="st6" d="M71.97,16.58h73.75c0.97,0,1.76,0.79,1.76,1.76V129.7c0,0.97-0.79,1.76-1.76,1.76H71.97
			c-0.97,0-1.76-0.79-1.76-1.76V18.33C70.22,17.36,71,16.58,71.97,16.58z"/>
		<path class="st4" d="M82.52,26.45h53.61c2.89,0,5.23,2.34,5.23,5.23V43.8c0,2.89-2.34,5.23-5.23,5.23H82.52
			c-2.89,0-5.23-2.34-5.23-5.23V31.68C77.29,28.79,79.63,26.45,82.52,26.45z"/>
		<path class="st7" d="M79.53,26.89h59.45c1.01,0,1.83,0.82,1.83,1.83v18.19c0,1.01-0.82,1.83-1.83,1.83H79.53
			c-1.01,0-1.83-0.82-1.83-1.83V28.72C77.7,27.71,78.52,26.89,79.53,26.89z"/>
		<path class="st4" d="M81.45,58.44h8.88c1.07,0,1.93,0.87,1.93,1.93v10.29c0,1.07-0.87,1.93-1.93,1.93h-8.88
			c-1.07,0-1.93-0.87-1.93-1.93V60.37C79.52,59.31,80.39,58.44,81.45,58.44z"/>
		<path class="st4" d="M97.03,58.44h8.88c1.07,0,1.93,0.87,1.93,1.93v10.29c0,1.07-0.87,1.93-1.93,1.93h-8.88
			c-1.07,0-1.93-0.87-1.93-1.93V60.37C95.09,59.31,95.96,58.44,97.03,58.44z"/>
		<path class="st4" d="M112.6,58.44h8.88c1.07,0,1.93,0.87,1.93,1.93v10.29c0,1.07-0.87,1.93-1.93,1.93h-8.88
			c-1.07,0-1.93-0.87-1.93-1.93V60.37C110.67,59.31,111.53,58.44,112.6,58.44z"/>
		<path class="st4" d="M131.41,58.74h2.41c2.85,0,5.17,2.31,5.17,5.17v3.83c0,2.85-2.31,5.17-5.17,5.17h-2.41
			c-2.85,0-5.17-2.31-5.17-5.17v-3.83C126.24,61.05,128.55,58.74,131.41,58.74z"/>
		<path d="M128.17,58.44h8.88c1.07,0,1.93,0.87,1.93,1.93v10.29c0,1.07-0.87,1.93-1.93,1.93h-8.88c-1.07,0-1.93-0.87-1.93-1.93
			V60.37C126.24,59.31,127.1,58.44,128.17,58.44z"/>
		<path class="st4" d="M81.45,74.01h8.88c1.07,0,1.93,0.87,1.93,1.93v10.29c0,1.07-0.87,1.93-1.93,1.93h-8.88
			c-1.07,0-1.93-0.87-1.93-1.93V75.95C79.52,74.88,80.39,74.01,81.45,74.01z"/>
		<path class="st4" d="M97.03,74.01h8.88c1.07,0,1.93,0.87,1.93,1.93v10.29c0,1.07-0.87,1.93-1.93,1.93h-8.88
			c-1.07,0-1.93-0.87-1.93-1.93V75.95C95.09,74.88,95.96,74.01,97.03,74.01z"/>
		<path class="st4" d="M112.6,74.01h8.88c1.07,0,1.93,0.87,1.93,1.93v10.29c0,1.07-0.87,1.93-1.93,1.93h-8.88
			c-1.07,0-1.93-0.87-1.93-1.93V75.95C110.67,74.88,111.53,74.01,112.6,74.01z"/>
		<path class="st4" d="M81.45,91.2h8.88c1.07,0,1.93,0.87,1.93,1.93v10.29c0,1.07-0.87,1.93-1.93,1.93h-8.88
			c-1.07,0-1.93-0.87-1.93-1.93V93.14C79.52,92.07,80.39,91.2,81.45,91.2z"/>
		<path class="st4" d="M97.03,91.2h8.88c1.07,0,1.93,0.87,1.93,1.93v10.29c0,1.07-0.87,1.93-1.93,1.93h-8.88
			c-1.07,0-1.93-0.87-1.93-1.93V93.14C95.09,92.07,95.96,91.2,97.03,91.2z"/>
		<path class="st4" d="M112.6,91.2h8.88c1.07,0,1.93,0.87,1.93,1.93v10.29c0,1.07-0.87,1.93-1.93,1.93h-8.88
			c-1.07,0-1.93-0.87-1.93-1.93V93.14C110.67,92.07,111.53,91.2,112.6,91.2z"/>
		<path class="st4" d="M112.6,108.4h8.88c1.07,0,1.93,0.87,1.93,1.93v10.29c0,1.07-0.87,1.93-1.93,1.93h-8.88
			c-1.07,0-1.93-0.87-1.93-1.93v-10.29C110.67,109.26,111.53,108.4,112.6,108.4z"/>
		<path class="st4" d="M131.41,74.32h2.41c2.85,0,5.17,2.31,5.17,5.17v3.83c0,2.85-2.31,5.17-5.17,5.17h-2.41
			c-2.85,0-5.17-2.31-5.17-5.17v-3.83C126.24,76.63,128.55,74.32,131.41,74.32z"/>
		<path d="M128.26,74.01h8.69c1.12,0,2.02,0.91,2.02,2.02v10.11c0,1.12-0.91,2.02-2.02,2.02h-8.69c-1.12,0-2.02-0.91-2.02-2.02
			V76.04C126.24,74.92,127.15,74.01,128.26,74.01z"/>
		<path class="st15" d="M128.26,74.01h8.69c1.12,0,2.02,0.91,2.02,2.02v10.11c0,1.12-0.91,2.02-2.02,2.02h-8.69
			c-1.12,0-2.02-0.91-2.02-2.02V76.04C126.24,74.92,127.15,74.01,128.26,74.01z"/>
		<path class="st4" d="M81.32,108.4h24.72c0.99,0,1.8,0.81,1.8,1.8v10.56c0,0.99-0.81,1.8-1.8,1.8H81.32c-0.99,0-1.8-0.81-1.8-1.8
			v-10.56C79.52,109.2,80.33,108.4,81.32,108.4z"/>
		<path class="st4" d="M127.11,91.2h9.78c1.15,0,2.09,0.93,2.09,2.09v27.17c0,1.15-0.93,2.09-2.09,2.09h-9.78
			c-1.15,0-2.09-0.93-2.09-2.09V93.29C125.03,92.14,125.96,91.2,127.11,91.2z"/>
		<rect x="132.39" y="44.92" width="5.58" height="0.6"/>
		<rect x="124.22" y="44.92" width="5.58" height="0.6"/>
		<rect x="116.06" y="44.92" width="5.58" height="0.6"/>
		<rect x="107.89" y="44.92" width="5.58" height="0.6"/>
		
			<linearGradient id="SVGID_2_" gradientUnits="userSpaceOnUse" x1="318.609" y1="-46.7863" x2="318.609" y2="25.4579" gradientTransform="matrix(1 0 0 -1 -163.35 86.98)">
			<stop  offset="0" style="stop-color:#808080;stop-opacity:0.25"/>
			<stop  offset="0.54" style="stop-color:#808080;stop-opacity:0.12"/>
			<stop  offset="1" style="stop-color:#808080;stop-opacity:0.1"/>
		</linearGradient>
		<path class="st16" d="M173.58,87.29c0.57-1.93,0-3.87,0-3.87v-1.83c0,0,0.66-3.57-2.28-5.86l-1.95-1.72c0,0-1.09-0.94-1.41-1
			c-0.06-0.01-0.12-0.02-0.18-0.03l-0.06-0.03c-0.17-0.29-0.31-0.59-0.43-0.9c0.26,0.03,0.51-0.05,0.69-0.24
			c0.07-0.08,0.13-0.17,0.16-0.27l0,0c0.11-0.25,0.13-0.56,0.23-0.83c0.08-0.22,0.2-0.42,0.36-0.59c-0.02,0.03-0.04,0.06-0.06,0.1
			c0.28-0.34,0.64-0.64,0.9-1c0.05-0.07,0.1-0.15,0.14-0.22c-0.01,0.02-0.03,0.03-0.04,0.05c0.36-0.57,0.47-1.27,0.57-1.94
			c0.05-0.23,0.05-0.46,0.01-0.69c-0.05-0.15-0.12-0.3-0.19-0.44c-0.42-0.87-0.42-1.97-1.09-2.67c-0.51-0.52-1.28-0.68-2-0.77
			c-0.73-0.09-1.49-0.14-2.11-0.52c-0.17-0.13-0.37-0.24-0.57-0.31c-0.21-0.07-0.45,0.01-0.56,0.21c-0.01,0.06-0.04,0.11-0.08,0.15
			c-0.07,0.04-0.15,0.04-0.21,0.01l-0.97-0.26l0.01,0.05h-0.03l0.04,0.15c0.04-0.01,0.08,0.01,0.09,0.05l-0.16,0.24
			c-0.3-0.01-0.59-0.07-0.87-0.18c0,0.02,0,0.03,0,0.05h-0.01c-0.02,0.27,0.29,0.45,0.39,0.71c0.04,0.11,0.04,0.23,0,0.35
			c-0.04,0.1-0.1,0.2-0.18,0.28c-0.34,0.34-0.78,0.27-1.17,0.49c-0.07,0.03-0.12,0.09-0.14,0.16c-0.02,0.03-0.02,0.06-0.01,0.09
			c0.02,0.04,0.04,0.08,0.08,0.1c0.11,0.09,0.24,0.17,0.37,0.23c-0.04,0.04-0.08,0.07-0.11,0.11c-1.67,1.7-1.65,4.43,0.05,6.1
			c0.41,0.41,0.9,0.73,1.44,0.94c0.01,0.08,0.03,0.15,0.04,0.23c0,0.01,0,0.01,0,0.02l0.01,0.1l-1.3,0.55c-0.4,0-0.76-0.24-0.93-0.6
			c-0.3-0.63-1.37,0-1.37,0s-3.26-0.24-4.48,0.36c0,0-1.95-0.82-2.22-0.87c-0.27-0.06-0.68-0.27-0.88-0.22
			c-0.19,0.06-0.44-0.36-0.58-0.33c-0.14,0.03-0.19-0.27-0.63-0.38c-0.44-0.11-0.6,0.03-1.1-0.46c-0.49-0.49-4.5-2.43-4.5-2.43
			l-1.8-1.48l-1.92-1.53l-0.03,0.06c-0.01-0.04-0.03-0.09-0.04-0.14c-0.19-0.76-0.43-1.51-0.72-2.24c-0.12-0.3-0.18-0.67-0.35-0.47
			c-0.1,0.12-0.28-0.14-0.54-0.32c-0.21-0.14-0.49-0.09-0.63,0.12c-0.02,0.03-0.03,0.05-0.04,0.08l0,0
			c-1.49,2.34-2.03,2.51-1.16,3.37c0.77,0.76,1.28,1.43,1.91,1.64l0.08,0.02c-0.01,0-0.03,0-0.04,0l3.65,4.36
			c0,0,2.63,2.29,4.44,3.02c1.81,0.73,1.67,0.95,1.67,0.95s5.48,2.78,6.33,2.72c0.85-0.05,0.69,5.69,0.33,6.63
			c-0.36,0.93-0.93,7.63-0.93,7.63s-0.55,1.42,0.03,2.4c0,0,0.13,1.88,0.01,2.33c-0.5,0.77-1.21,2.08-1.33,3.42
			c0,0.07-0.01,0.14-0.02,0.21c-0.04,0.04-0.08,0.08-0.13,0.11l0.12-0.04c-0.05,0.56-0.17,1.11-0.36,1.64
			c-0.29,0.75-0.44,1.54-0.45,2.34v4.33l-0.36,2.69c0,0-0.44,2.03,0,2.51c0.18,0.24,0.27,0.54,0.24,0.83
			c-0.02,0.35,0.08,0.69,0.28,0.97c0.15,0.17,0.22,0.4,0.18,0.63c-0.15,0.47,0.21,5.48,0.21,5.48s-0.11,1.38-0.25,1.45
			c-0.15,0.07,0.25,1.6,0.25,1.6s-1.48,1.24-1.1,1.89l0.38,0.58l-0.1,0.1l-0.06,0.06c-0.11-0.07-0.25-0.09-0.38-0.07
			c-0.47,0.48-0.96,0.92-1.49,1.33c-0.67,0.48-2.49,1.18-2.49,1.18l-1.43,0.12h-0.03c0,0-0.69-0.06-0.3,1
			c0.39,1.06,3.83,0.74,3.83,0.74l2.01-0.32c0,0,3.58,0.02,4.61-0.21c0.43-0.09,0.54-0.32,0.5-0.56l0,0l-0.01-0.01
			c-0.05-0.22-0.15-0.43-0.29-0.6c-0.01-0.01-0.02-0.02-0.03-0.03l0.06-0.73c1.52-0.88-0.43-2.6-0.43-2.6s0.67-1.45,1.01-1.92
			c0.34-0.47,0.34-7.41,0.34-7.41s0.18-2.51-0.29-3.09c-0.02-0.39,0.18-0.75,0.51-0.94c0.34-0.23,1.36-3.41,2.16-6.06l0.51,3.11
			c0,0-0.11,1.49,0.22,1.93c0.12,0.17,0.17,0.38,0.14,0.58c-0.08,0.42-0.05,0.85,0.07,1.25c0.04,0.17,0.13,0.33,0.27,0.45
			c0.29,0.15,0.31,0.66,0.42,0.77c0.11,0.11,0.79-0.15,0.82,0.25c0.02,0.35,0.02,0.7,0,1.05l0.22,6.47c0,0-0.36,0.54-0.44,1.97
			c-0.03,0.61-0.15,0.96-0.26,1.16c-0.13,0.22-0.11,0.5,0.05,0.69l0.06,0.07l-0.27,0.21c-0.22,0.17-0.29,0.48-0.17,0.74
			c-0.18,0.16-0.24,0.4-0.17,0.63c0.01,0.04,0.03,0.07,0.05,0.1c-0.21,0.03-0.4,0.13-0.55,0.27c-0.27,0.37-0.6,0.7-0.97,0.97
			c-0.54,0.41-1.05,0.85-1.54,1.32c-0.23,0.31-0.54,0.56-0.9,0.72c-0.09,0.04-0.18,0.06-0.27,0.08c-0.72,0.15-0.49,0.9,0.09,1.02
			c0.58,0.12,2.52,0.72,4.03,0.37c0,0,0.45,0.18,1.11-0.15c0.66-0.33,2.12-0.74,2.12-0.74s0.82,0,0.93-0.33
			c0.03-0.1,0.04-0.21,0.05-0.32l0.02-0.02l-0.02-0.02c0-0.24-0.02-0.49-0.06-0.73c-0.02-0.13-0.04-0.24-0.07-0.33
			c-0.07-0.27-0.2-0.63-0.26-0.77c0.01-0.01,0.02-0.02,0.03-0.04c0.31-0.54-0.21-1.81-0.21-1.81c0.17-0.27,0.38-0.52,0.62-0.73
			c0.29-0.22,1.06-5.89,1.06-5.89s-0.04-1.45,0.36-2.11c0.4-0.65-0.55-4.61-0.55-4.61s-0.4-0.91-0.26-1.24s-0.15-1.53-0.15-1.53
			v-1.43c0-0.17-0.03-0.34-0.08-0.5c-0.11-0.34-0.28-0.98-0.1-1.45c0.26-0.65,0.84-4.69,0.84-4.69s-0.46-1.78,0.21-3.2
			c0.05-0.11,0.11-0.22,0.18-0.33c0.5-0.78,0.35-2.16,0.1-3.28c-0.04-0.18-0.08-0.34-0.12-0.5c-0.02-0.07-0.03-0.13-0.05-0.2
			l0.08-0.03c0,0,0-0.11,0.03-0.29c0.55-0.11,1.02-0.44,1.32-0.91c0,0,1.67-1.88,3.15-2.67c1.48-0.79,1.59-1.93,1.59-1.93
			c-0.22-0.38,0.39-1.93,0.39-1.93L173.58,87.29z M167.75,73.03L167.75,73.03z M168.76,89.8l-1.58,1.84v-0.01
			c-0.41-0.57,0.38-1.85,0.38-1.85l1.32-2.94c-0.01,0.38-0.06,0.72-0.18,0.87c-0.36,0.49,0.66,1.31,0.66,1.31
			C168.81,89.01,168.76,89.8,168.76,89.8z"/>
		<path class="st17" d="M140.88,65.73l-0.87,1.68c-0.27-0.02-0.54-0.08-0.8-0.17c-0.83-0.25-1.52-0.84-1.89-1.63
			c-0.77-1.71,0.51-2.81,1.1-3.13c0.59-0.33,1.15-0.7,1.59,0.37c0.28,0.73,0.51,1.47,0.7,2.22
			C140.82,65.46,140.88,65.73,140.88,65.73z"/>
		<path class="st17" d="M168.36,74.45l-1.38,2.06c0,0-6.52,3.11-5.28-0.54c0.55-1.61,0.61-2.79,0.51-3.6c0-0.01,0-0.01,0-0.02
			c-0.13-1.02-0.51-1.46-0.51-1.46s6.36-3.26,5.41-1.03c-0.19,0.46-0.27,0.97-0.22,1.47c0.08,0.72,0.31,1.41,0.68,2.03
			C167.8,73.75,168.06,74.11,168.36,74.45z"/>
		<path class="st14" d="M166.37,115.18c0,0,0.94,3.94,0.54,4.58c-0.4,0.64-0.36,2.09-0.36,2.09s-0.76,5.63-1.05,5.85
			c-0.24,0.21-0.44,0.45-0.61,0.72c0,0,0.52,1.28,0.21,1.8c-0.05,0.08-0.12,0.14-0.21,0.18c-0.48,0.2-2.27-0.7-3.29-1.25
			c-0.28-0.15-0.38-0.51-0.23-0.79c0.03-0.06,0.08-0.11,0.13-0.16c-0.13-0.25-0.06-0.56,0.16-0.73l0.27-0.21l-0.06-0.07
			c-0.16-0.19-0.19-0.47-0.05-0.69c0.12-0.2,0.23-0.54,0.26-1.15c0.07-1.41,0.43-1.95,0.43-1.95l-0.22-6.43
			c0.02-0.35,0.02-0.7,0-1.05c-0.04-0.4-0.7-0.13-0.81-0.24c-0.11-0.11-0.13-0.62-0.42-0.77c-0.13-0.12-0.22-0.27-0.26-0.45
			c-0.13-0.41-0.15-0.84-0.07-1.25c0.04-0.2-0.01-0.41-0.13-0.58c-0.32-0.43-0.22-1.91-0.22-1.91l-0.5-3.09
			c-0.79,2.63-1.8,5.79-2.14,6.02c-0.33,0.2-0.52,0.56-0.51,0.94c0.47,0.58,0.29,3.07,0.29,3.07s0,6.89-0.34,7.36
			c-0.34,0.47-0.99,1.92-0.99,1.92s1.93,1.72,0.41,2.59h-0.02c-1.55,0.87-4.76-1.55-4.76-1.55l0.33-0.33l0.1-0.1l-0.38-0.57
			c-0.37-0.65,1.09-1.88,1.09-1.88s-0.39-1.52-0.25-1.59c0.14-0.07,0.25-1.44,0.25-1.44s-0.36-4.98-0.21-5.45
			c0.04-0.22-0.03-0.45-0.18-0.62c-0.2-0.28-0.29-0.62-0.28-0.97c0.03-0.3-0.05-0.59-0.24-0.83c-0.43-0.47,0-2.49,0-2.49l0.36-2.67
			v-4.24c0-0.82,0.16-1.63,0.45-2.39c0.22-0.62,0.35-1.27,0.39-1.92c0.12-1.37,0.85-2.7,1.35-3.45c0.26-0.4,0.46-0.64,0.46-0.64
			l11.55-0.45c0,0,0.18,0.51,0.37,1.23c0.04,0.16,0.08,0.32,0.12,0.49c0.24,1.11,0.39,2.49-0.1,3.26c-0.07,0.1-0.13,0.21-0.18,0.33
			c-0.66,1.41-0.21,3.18-0.21,3.18s-0.58,4-0.83,4.66c-0.18,0.46-0.01,1.1,0.1,1.43c0.05,0.16,0.08,0.33,0.08,0.5v1.43
			c0,0,0.29,1.19,0.15,1.52C165.97,114.28,166.37,115.18,166.37,115.18z"/>
		<path class="st4" d="M166.9,101.04c-0.07,0.1-0.13,0.21-0.18,0.32l-0.65-0.04c0.06-0.33-0.38-3.47-0.38-3.47l1.31-0.07
			C167.24,98.89,167.39,100.26,166.9,101.04z"/>
		<path class="st14" d="M167.01,100.93c-0.07,0.1-0.13,0.21-0.18,0.33l-0.65-0.04c0.06-0.33-0.38-3.47-0.38-3.47l1.31-0.07
			C167.35,98.78,167.5,100.15,167.01,100.93z"/>
		<path class="st18" d="M167.01,100.93c-0.07,0.1-0.13,0.21-0.18,0.33l-0.65-0.04c0.06-0.33-0.38-3.47-0.38-3.47l1.31-0.07
			C167.35,98.78,167.5,100.15,167.01,100.93z"/>
		<path class="st4" d="M165.1,130.23c-0.05,0.08-0.12,0.14-0.21,0.18c-0.48,0.2-2.27-0.7-3.29-1.25c-0.13-0.07-0.22-0.19-0.27-0.32
			c0.58-0.11,0.96,0.54,0.96,0.54c0.4-0.25,0.93-0.13,1.18,0.27c0,0.01,0.01,0.01,0.01,0.02c0.5,0.73,1.56,0.42,1.56,0.42
			L165.1,130.23z"/>
		<path class="st19" d="M165.4,132.45c-0.11,0.33-0.92,0.33-0.92,0.33s-1.45,0.42-2.1,0.74c-0.65,0.32-1.09,0.15-1.09,0.15
			c-1.49,0.34-3.4-0.25-3.98-0.37c-0.58-0.12-0.8-0.87-0.09-1.01c0.09-0.02,0.18-0.05,0.27-0.08c0.36-0.15,0.67-0.4,0.9-0.72
			c0.48-0.46,0.99-0.9,1.52-1.31c0.37-0.27,0.69-0.6,0.95-0.97c0.85-0.75,1.45,0.28,1.45,0.28c0.4-0.25,0.93-0.13,1.18,0.27
			c0,0.01,0.01,0.01,0.01,0.02c0.5,0.73,1.56,0.42,1.56,0.42s0.19,0.49,0.28,0.84c0.02,0.09,0.04,0.2,0.07,0.33
			C165.45,131.73,165.48,132.2,165.4,132.45z"/>
		<circle class="st20" cx="162.91" cy="130.06" r="0.1"/>
		<circle class="st20" cx="162.07" cy="130.86" r="0.1"/>
		<circle class="st20" cx="161.2" cy="131.57" r="0.1"/>
		<circle class="st20" cx="161.65" cy="131.25" r="0.1"/>
		<circle class="st20" cx="162.51" cy="130.44" r="0.1"/>
		<path class="st21" d="M165.4,132.45c-0.11,0.33-0.92,0.33-0.92,0.33s-1.45,0.42-2.1,0.74c-0.65,0.32-1.09,0.15-1.09,0.15
			c-1.49,0.34-3.4-0.25-3.98-0.37c-0.58-0.12-0.8-0.87-0.09-1.01c0.09-0.02,0.18-0.05,0.27-0.08c0.63,0.22,1.29,0.34,1.95,0.37
			c1.47,0.06,2.63,0,2.63,0l1.49-0.48c0.28-0.17,0.59-0.28,0.92-0.33c0.33-0.07,0.64-0.2,0.92-0.4
			C165.45,131.73,165.48,132.2,165.4,132.45z"/>
		<path class="st22" d="M161.69,133.38c-0.08,0-0.17-0.01-0.25-0.02l0.02-0.11c0.3,0.05,0.62,0,0.9-0.13
			c0.13-0.05,0.27-0.11,0.39-0.18c0.13-0.06,0.31-0.15,0.47-0.2l0.15-0.05c0.08-0.03,0.16-0.06,0.24-0.09
			c0.04-0.02,0.09-0.04,0.13-0.06c0.11-0.06,0.22-0.1,0.33-0.13c0.06-0.01,0.12-0.02,0.18-0.02c0.06,0,0.11-0.01,0.16-0.02
			c0.11-0.03,0.21-0.07,0.31-0.12c0.11-0.06,0.22-0.1,0.34-0.13l0.08-0.01c0.08,0,0.17-0.03,0.23-0.09l0.08,0.07
			c-0.08,0.07-0.19,0.11-0.3,0.12l-0.08,0.01c-0.11,0.03-0.21,0.07-0.31,0.12c-0.11,0.05-0.22,0.09-0.34,0.12
			c-0.06,0.01-0.12,0.02-0.18,0.02c-0.06,0-0.11,0.01-0.17,0.02c-0.11,0.03-0.21,0.07-0.31,0.12l-0.14,0.06
			c-0.08,0.03-0.17,0.06-0.25,0.09l-0.14,0.05c-0.16,0.06-0.31,0.13-0.46,0.2s-0.27,0.13-0.4,0.18
			C162.17,133.32,161.93,133.37,161.69,133.38z"/>
		<path class="st4" d="M162.04,115.45c0,0,0.75-1.07,2.03-1.07c1.28,0,1.83-0.15,1.83-0.15s-0.82,0.49-1.39,0.55
			C163.94,114.84,162.04,115.45,162.04,115.45z"/>
		<path class="st4" d="M162.47,115.7c0,0,0.68-0.47,1.06-0.49s0.72-0.05,0.72-0.05c-0.18,0.13-0.38,0.22-0.59,0.29
			C163.34,115.54,162.47,115.7,162.47,115.7z"/>
		<path class="st4" d="M162.62,116.02c0,0,1.02,0.08,1.03,0.36"/>
		<path class="st4" d="M153.12,100.8c0.05,0.01,0.97-0.95,1.03-1.33c0.05-0.24,0.19-0.45,0.4-0.58c0,0,0.59,0.23,0.06,0.95
			S153.12,100.8,153.12,100.8z"/>
		<path class="st4" d="M167.1,69.85c-0.21,0.49-0.39,0.54-0.36,1c-0.24,0.26-0.52,0.48-0.83,0.65c-0.64,0.38-1.35,1.13-2.15,1.13
			c-0.54,0-1.07-0.1-1.57-0.3c-0.13-1.02-0.51-1.46-0.51-1.46S168.05,67.63,167.1,69.85z"/>
		<path class="st17" d="M168.08,68.12c0,2.37-1.92,4.3-4.3,4.3s-4.3-1.92-4.3-4.3s1.92-4.3,4.3-4.3S168.08,65.75,168.08,68.12z"/>
		<path class="st4" d="M168.36,74.45l-1.38,2.06c0,0-6.52,3.11-5.28-0.54c0.55-1.61,0.61-2.79,0.51-3.6h0.01
			c0.08,0.27,0.12,0.55,0.13,0.83c0.02,0.56,0.03,1.27,1.43,1.51c2.33,0.39,3.57-1.06,3.79-1.35
			C167.8,73.75,168.06,74.12,168.36,74.45z"/>
		<path class="st4" d="M140.88,65.73l-0.87,1.68c-0.27-0.02-0.54-0.08-0.8-0.17l-0.08-0.09c0.36,0.14,1.54-2.11,1.54-2.11l0.04,0.03
			C140.82,65.46,140.88,65.73,140.88,65.73z"/>
		<path class="st4" d="M166.99,97.18c-2.79,1.21-12.43,0.18-12.43,0.18c0.03-0.1,0.05-0.21,0.05-0.32c0.26-0.4,0.46-0.64,0.46-0.64
			l11.55-0.45C166.62,95.95,166.81,96.46,166.99,97.18z"/>
		<path class="st23" d="M162.21,72.47l-1.29,0.55c-0.4,0-0.75-0.24-0.92-0.6c-0.3-0.62-1.35,0-1.35,0s-3.22-0.24-4.41,0.36
			c0,0-1.92-0.81-2.19-0.87s-0.68-0.27-0.87-0.22s-0.43-0.36-0.57-0.32c-0.14,0.03-0.19-0.27-0.62-0.38
			c-0.43-0.11-0.59,0.03-1.07-0.46c-0.48-0.49-4.44-2.41-4.44-2.41l-1.79-1.46l-1.89-1.52c0,0-1.19,2.25-1.54,2.11l3.6,4.33
			c0,0,2.6,2.27,4.39,3c1.79,0.73,1.65,0.95,1.65,0.95s5.41,2.76,6.25,2.71s0.68,5.65,0.32,6.57c-0.36,0.92-0.92,7.58-0.92,7.58
			s-0.54,1.41,0.03,2.38c0,0,0.13,2,0,2.36c0,0,9.7,1.04,12.45-0.19c0,0,0.41-4.49,0-5.06s0.38-1.83,0.38-1.83l1.73-3.87l4.22-4.25
			c0,0,0.65-3.55-2.25-5.82l-1.92-1.71c0,0-1.07-0.93-1.39-0.99c-0.32-0.06-0.2,0-0.2,0s-1.25,1.83-3.83,1.4
			c-1.39-0.23-1.41-0.95-1.43-1.51C162.33,73.02,162.29,72.74,162.21,72.47z"/>
		<path class="st4" d="M167.51,87.04c0,0-5.96,0.24-7.15,2.12c0,0,1.54-0.73,2.92-0.52C164.66,88.86,167.51,87.04,167.51,87.04z"/>
		<path class="st4" d="M160.93,93.57c0,0,2.82,0.19,3.41-0.41s0.6-0.95,0.6-0.95L160.93,93.57z"/>
		<path class="st4" d="M168.08,81.3c0,0-2.38,2.82,0.51,4.03L168.08,81.3z"/>
		<path class="st4" d="M153.97,75.86c0,0,0.87,1.77,1.3,1.88L153.97,75.86z"/>
		<path class="st4" d="M151.05,75.1c0,0,2.17,1.95,2.57,2.14C153.62,77.24,151.37,75.1,151.05,75.1z"/>
		<path class="st4" d="M159.68,73.24c0,0-2.08,3.11-0.73,5.01C158.95,78.24,158.2,76,159.68,73.24z"/>
		<path class="st17" d="M164.94,96.81l-0.64,0.6l-0.09,0.08l-0.74,0.7c-0.05,0.04-0.1,0.08-0.16,0.11c-3,2.15-3.61-1.12-3.61-1.12
			s-1.33,0.87-1.52,0.16s3.09-1.71,3.58-1.65c0.04,0,0.09,0,0.13,0c0.24-0.04,0.46-0.12,0.67-0.24l0.15-0.08
			c0.17-0.09,0.33-0.2,0.49-0.31L164.94,96.81z"/>
		<path class="st4" d="M168.18,68.12c0,1.52-0.79,2.92-2.1,3.7c-0.06-0.1-0.11-0.21-0.16-0.31c-0.15-0.36-0.25-0.75-0.4-1.11
			c-0.17-0.39-0.41-0.75-0.72-1.05c-0.05-0.06-0.12-0.11-0.19-0.13c-0.14-0.02-0.28,0.02-0.39,0.11c-0.18,0.12-0.39,0.21-0.6,0.26
			c-0.22,0.05-0.45-0.02-0.6-0.18c-0.17-0.2-0.15-0.49-0.1-0.75c0.11-0.56,0.28-1.11,0.28-1.68c0-0.57-0.22-1.18-0.72-1.47
			c-0.44-0.25-0.98-0.18-1.47-0.32c-0.08-0.02-0.15-0.04-0.22-0.08c1.66-1.7,4.38-1.74,6.08-0.08
			C167.71,65.85,168.18,66.96,168.18,68.12z"/>
		<path class="st24" d="M160.51,64.43c-0.08,0.04-0.16,0.12-0.14,0.2c0.01,0.04,0.04,0.08,0.08,0.1c0.2,0.16,0.43,0.28,0.68,0.35
			c0.49,0.13,1.03,0.07,1.47,0.32c0.49,0.28,0.72,0.9,0.72,1.47c0,0.57-0.18,1.12-0.28,1.68c-0.05,0.26-0.07,0.55,0.09,0.75
			c0.16,0.16,0.38,0.23,0.6,0.18c0.21-0.05,0.42-0.14,0.6-0.26c0.11-0.09,0.25-0.13,0.4-0.11c0.07,0.03,0.14,0.07,0.19,0.13
			c0.3,0.3,0.55,0.66,0.72,1.05c0.16,0.36,0.25,0.74,0.4,1.11c0.13,0.37,0.39,0.68,0.72,0.9c0.34,0.19,0.82,0.18,1.09-0.11
			c0.27-0.29,0.24-0.7,0.37-1.05c0.21-0.61,0.81-1,1.19-1.53c0.42-0.6,0.54-1.35,0.65-2.07c0.05-0.23,0.05-0.46,0.01-0.69
			c-0.05-0.15-0.11-0.3-0.19-0.44c-0.42-0.87-0.41-1.96-1.07-2.65c-0.5-0.52-1.26-0.68-1.98-0.77c-0.72-0.09-1.47-0.14-2.08-0.52
			c-0.17-0.13-0.36-0.24-0.56-0.31c-0.21-0.07-0.44,0.01-0.56,0.21c-0.01,0.06-0.04,0.11-0.07,0.15c-0.07,0.04-0.14,0.04-0.21,0.01
			l-0.95-0.26l0.11,0.48c-0.35,0.01-0.69-0.05-1.01-0.18c-0.02,0.27,0.29,0.45,0.38,0.7c0.07,0.24,0,0.49-0.18,0.66
			C161.33,64.28,160.9,64.22,160.51,64.43z"/>
		<path class="st4" d="M156.64,129.11l-0.04,0.43h-0.02c-1.55,0.87-4.76-1.55-4.76-1.55l0.33-0.33c0.11,0.12,0.16,0.29,0.15,0.45
			l0.66,0.04l0.78,0.85c0,0,2.12,0.25,2.7,0.11L156.64,129.11z"/>
		<path class="st19" d="M156.37,131.46c-1.01,0.23-4.55,0.21-4.55,0.21l-1.98,0.31c0,0-3.4,0.33-3.78-0.73
			c-0.38-1.06,0.3-0.99,0.3-0.99h0.03l1.42-0.11c0,0,1.79-0.69,2.46-1.17c0.52-0.4,1.01-0.85,1.47-1.32c0,0,0.59-0.11,0.58,0.57
			l0.66,0.04l0.78,0.85c0,0,2.12,0.25,2.7,0.11h0.2l-0.09,1.05l0.03,0.03C156.71,130.46,157.27,131.26,156.37,131.46z"/>
		<circle class="st20" cx="152.71" cy="128.84" r="0.1"/>
		<circle class="st20" cx="150.16" cy="129.94" r="0.1"/>
		<circle class="st20" cx="148.85" cy="130.34" r="0.1"/>
		<circle class="st20" cx="150.83" cy="129.73" r="0.1"/>
		<circle class="st20" cx="149.51" cy="130.14" r="0.1"/>
		<circle class="st20" cx="151.51" cy="129.41" r="0.1"/>
		<circle class="st20" cx="152.18" cy="129.12" r="0.1"/>
		<path class="st21" d="M156.37,131.46c-1.01,0.23-4.55,0.21-4.55,0.21l-1.98,0.31c0,0-3.4,0.33-3.78-0.73
			c-0.38-1.06,0.3-0.99,0.3-0.99h0.03c0.22,0.28,0.65,0.6,1.51,0.62l2.45,0.1l2.53-0.18c0,0,2.37-0.07,2.76-0.15
			c0.32-0.09,0.64-0.2,0.95-0.35C156.71,130.46,157.27,131.26,156.37,131.46z"/>
		<path class="st22" d="M150.03,131.75c-0.14,0-0.27-0.01-0.4-0.05l0.03-0.1c0.33,0.07,0.68,0.06,1.01-0.04
			c0.12-0.03,0.24-0.07,0.36-0.1c0.22-0.07,0.44-0.12,0.66-0.17c0.36-0.05,0.73-0.06,1.09-0.03h0.08c1.09,0.06,2.17,0.01,3.25-0.15
			c0.26-0.02,0.5-0.12,0.69-0.28l0.08,0.08c-0.21,0.18-0.48,0.29-0.75,0.31c-1.08,0.15-2.18,0.2-3.27,0.15h-0.08
			c-0.36-0.03-0.72-0.01-1.07,0.03c-0.22,0.04-0.43,0.1-0.65,0.16c-0.12,0.04-0.24,0.07-0.36,0.1
			C150.47,131.71,150.25,131.74,150.03,131.75z"/>
		<path class="st4" d="M164.94,96.81l-0.64,0.6l-1.58-2.03c0.17-0.09,0.33-0.2,0.49-0.31L164.94,96.81z"/>
		<path class="st23" d="M172.12,80.2l1.25,1.73v1.81c0,0,0.57,1.92,0,3.84l0.06,1.68c0,0-0.6,1.54-0.39,1.92
			c0,0-0.11,1.14-1.57,1.92c-1.46,0.78-3.12,2.64-3.12,2.64s-0.62,1.19-2.3,0.92l-1.6,0.68L162.62,95l2.49-1.35
			c0,0,0.87-1.16,1.38-1.11l2.11-2.46c0,0,0.05-0.78,0.59-0.78c0,0-1-0.81-0.65-1.3s0.06-2.65,0.06-2.65L172.12,80.2z"/>
		<path class="st4" d="M169.79,88.1c0,0,2.84-0.05,3.19,0.68C173.33,89.51,170.65,87.69,169.79,88.1z"/>
		<path class="st4" d="M164.22,97.36c0,0.05,0,0.09-0.01,0.14c-0.07,0.45-0.44,0.79-0.9,0.81h-0.05c-0.53,0-0.96-0.43-0.96-0.96v0
			c0-0.11,0.02-0.21,0.05-0.31c-0.45-0.36-0.48-1.02-0.46-1.34c0.24-0.04,0.46-0.12,0.67-0.24c0.12,0.34,0.28,0.66,0.47,0.96
			c0.07-0.02,0.15-0.03,0.22-0.03C163.79,96.4,164.22,96.83,164.22,97.36C164.22,97.36,164.22,97.36,164.22,97.36z"/>
		<path class="st20" d="M162.66,95.25c0,0-0.64,0.15-0.64,0.26s-0.15,1.17,0.56,1.61c0.7,0.44,0.63-0.61,0.63-0.61
			S162.6,95.59,162.66,95.25z"/>
		<circle class="st25" cx="163.37" cy="97.36" r="0.96"/>
		<circle class="st21" cx="163.37" cy="97.36" r="0.82"/>
		<path class="st4" d="M159.65,97.73c0,0,2.02,1.68,4.62,0.61v0.81c0,0-1.73,1.19-3.3,0.47S159.65,97.73,159.65,97.73z"/>
		<path class="st4" d="M159.65,97.51c0,0,2.02,1.68,4.62,0.61v0.81c0,0-1.73,1.19-3.3,0.47S159.65,97.51,159.65,97.51z"/>
		<path class="st14" d="M159.65,97.51c0,0,2.02,1.68,4.62,0.61v0.81c0,0-1.73,1.19-3.3,0.47S159.65,97.51,159.65,97.51z"/>
		<path class="st18" d="M159.7,97.51c0,0,2.02,1.68,4.62,0.61v0.81c0,0-1.73,1.19-3.3,0.47C159.45,98.68,159.7,97.51,159.7,97.51z"
			/>
		<path class="st4" d="M153.3,127.65c0,0,2.71,0.5,3.1,0.61c0.4,0.11-0.11,0.3-0.11,0.3S153.82,128.11,153.3,127.65z"/>
		<path class="st4" d="M153.23,126.22c0.04,0,1.84-0.51,2.23-1.37"/>
		<path class="st4" d="M155.85,115.86c0,0,0.73,0.96,1.2,0.93C157.52,116.76,156.28,115.83,155.85,115.86z"/>
		<path class="st4" d="M156.26,117.46c0,0,0.31,0.68,0.76,0.46"/>
		<path class="st18" d="M157.97,102.59l1.92,5.06c0,0,0.27-3.26-0.3-4.23C159.26,102.85,158.62,102.53,157.97,102.59z"/>
		<g class="st26">
			<path d="M162.69,62.47l-0.02-0.07l-0.31-0.08l0.03,0.15C162.49,62.47,162.59,62.47,162.69,62.47z"/>
			<path d="M161.84,63.69l0.03-0.03c0.18-0.17,0.25-0.42,0.18-0.66c-0.04-0.09-0.09-0.17-0.15-0.25c-0.15-0.03-0.3-0.07-0.44-0.13
				c-0.02,0.27,0.29,0.45,0.38,0.7C161.88,63.45,161.88,63.57,161.84,63.69z"/>
			<path d="M166.96,72.02c-0.33-0.21-0.59-0.53-0.73-0.9c-0.15-0.36-0.25-0.75-0.4-1.1c-0.17-0.39-0.41-0.75-0.72-1.05
				c-0.05-0.06-0.12-0.11-0.19-0.13c-0.14-0.02-0.28,0.02-0.39,0.11c-0.18,0.12-0.39,0.21-0.6,0.26c-0.22,0.05-0.45-0.02-0.6-0.18
				c-0.17-0.2-0.15-0.5-0.1-0.75c0.11-0.56,0.28-1.11,0.28-1.68c0-0.57-0.22-1.18-0.72-1.47c-0.44-0.25-0.98-0.18-1.47-0.32
				c-0.25-0.07-0.48-0.19-0.68-0.35c-0.01-0.01-0.02-0.02-0.04-0.03c-0.04,0.02-0.08,0.03-0.12,0.06c-0.08,0.04-0.16,0.12-0.14,0.2
				c0.02,0.04,0.04,0.08,0.08,0.1c0.2,0.16,0.43,0.28,0.68,0.35c0.49,0.13,1.03,0.07,1.47,0.32c0.49,0.28,0.72,0.9,0.72,1.47
				s-0.18,1.12-0.28,1.68c-0.05,0.26-0.07,0.55,0.1,0.75c0.16,0.16,0.38,0.23,0.6,0.18c0.21-0.05,0.42-0.14,0.6-0.26
				c0.11-0.09,0.25-0.13,0.39-0.11c0.07,0.03,0.14,0.07,0.19,0.13c0.3,0.3,0.55,0.66,0.72,1.05c0.16,0.36,0.25,0.74,0.4,1.11
				c0.13,0.37,0.39,0.68,0.72,0.9c0.34,0.19,0.82,0.18,1.07-0.11c0.07-0.08,0.13-0.17,0.16-0.27
				C167.68,72.17,167.28,72.2,166.96,72.02z"/>
			<path d="M168.51,70.64c0.27-0.34,0.63-0.63,0.88-0.99c0.05-0.07,0.1-0.15,0.14-0.22C169.2,69.84,168.75,70.17,168.51,70.64z"/>
		</g>
	</g>
</g>
</svg>
