<svg id="Layer_1" enable-background="new 0 0 512 512" height="512" viewBox="0 0 512 512" width="512" xmlns="http://www.w3.org/2000/svg"><g><path d="m399.318 414.288-22.406-6.215-17.185-111.461c-.559-3.626-2.39-6.935-5.165-9.334l-90.391-78.16c-6.457-5.581-16.213-4.872-21.797 1.581-5.581 6.456-4.873 16.214 1.581 21.797l86.093 74.443 17.841 115.711c.927 6.006 5.287 10.911 11.143 12.535l32.027 8.883c1.381.383 2.771.566 4.139.566 6.77 0 12.984-4.485 14.881-11.327 2.281-8.222-2.537-16.738-10.761-19.019z" fill="#546e7a"/><path d="m257.921 201.36c-7.756-3.566-16.93-.171-20.496 7.583l-47.233 102.695-103.623 21.699c-4.461.935-8.282 3.79-10.441 7.803l-18.596 34.562c-4.044 7.516-1.229 16.886 6.286 20.93 2.33 1.254 4.836 1.848 7.309 1.848 5.503 0 10.831-2.948 13.621-8.134l15.19-28.232 104.207-21.822c4.793-1.004 8.826-4.219 10.872-8.668l50.486-109.768c3.566-7.754.172-16.93-7.582-20.496z" fill="#455a64"/><path d="m252.384 187.264c-8.254 2.171-16.703-2.762-18.874-11.015l-22.09-84.004c-2.097-7.974 2.436-16.19 10.3-18.668l68.251-21.51c5.988-1.887 12.266.059 16.189 4.46 1.41 1.582 2.516 3.481 3.194 5.633 2.565 8.14-1.953 16.818-10.093 19.383l-54.206 17.083 18.345 69.763c2.169 8.254-2.763 16.705-11.016 18.875z" fill="#e8916f"/><circle cx="316.246" cy="25.761" fill="#e8916f" r="25.755"/><path d="m285.852 226.366-54.559-16.352c-1.284-.385-2.013-1.738-1.628-3.022l40.71-135.829c4.9-16.35 22.127-25.632 38.477-20.732 16.35 4.9 25.632 22.127 20.732 38.477l-40.71 135.829c-.385 1.285-1.738 2.014-3.022 1.629z" fill="#80deea"/><path d="m308.852 50.432c-5.394-1.617-10.881-1.681-15.992-.466 7.312 7.771 10.403 19.115 7.119 30.07l-41.406 138.154 27.28 8.176c1.284.385 2.637-.344 3.022-1.628l40.71-135.829c4.899-16.35-4.383-33.577-20.733-38.477z" fill="#4dd0e1"/><g><path d="m296.432 82.965c.418-5.172 3.431-10.012 8.394-12.539 7.606-3.872 16.91-.846 20.782 6.76l35.894 75.09 72.06 34.743c7.923 3.177 11.766 12.175 8.589 20.095-3.177 7.921-12.173 11.766-20.095 8.589l-77.444-36.903c-3.472-1.393-6.321-3.997-8.019-7.331l-38.527-80.261c-1.344-2.643-1.856-5.49-1.634-8.243z" fill="#ebad88"/></g><path d="m501.025 512h-490.05c-6.061 0-10.975-4.914-10.975-10.975 0-21.248 17.225-38.473 38.473-38.473h435.053c21.248 0 38.473 17.225 38.473 38.473.001 6.061-4.913 10.975-10.974 10.975z" fill="#f74f68"/><path d="m473.527 462.551h-30.905c21.248 0 38.473 17.225 38.473 38.473 0 6.061-4.914 10.975-10.975 10.975h30.905c6.061 0 10.975-4.914 10.975-10.975 0-21.248-17.225-38.473-38.473-38.473z" fill="#e83a53"/></g></svg>