<svg id="Capa_1" enable-background="new 0 0 512 512" height="512" viewBox="0 0 512 512" width="512" xmlns="http://www.w3.org/2000/svg"><g><g><path d="m504.5 452.683h-497v-102.476c0-6.147 4.983-11.13 11.13-11.13h474.74c6.147 0 11.13 4.983 11.13 11.13z" fill="#f4daa7"/></g><g><path d="m474.5 339.077v113.605h30v-102.475c0-6.147-4.983-11.13-11.13-11.13z" fill="#f4d08b"/></g><g><path d="m83.863 151.165h344.274v95.027h-344.274z" fill="#fdfcfc"/></g><g><path d="m7.5 379.13h114.33c39.891 0 79.284 8.869 115.326 25.964 36.042 17.096 75.435 25.964 115.326 25.964h152.018v55.822h-497z" fill="#fbedce"/></g><g><path d="m387.137 151.165h41v95.027h-41z" fill="#eef0f0"/></g><g><path d="m474.5 431.059h30v55.822h-30z" fill="#efe1c4"/></g><g><ellipse cx="292.615" cy="57.729" fill="#ffea9a" rx="32.609" ry="32.609" transform="matrix(.927 -.375 .375 .927 -.284 114.002)"/></g><g><circle cx="85.863" cy="427.539" r="7.5"/><circle cx="149.757" cy="448.706" r="7.5"/><circle cx="390.016" cy="395.88" r="7.5"/><path d="m493.37 331.577h-57.733v-201.185c0-4.142-3.358-7.5-7.5-7.5s-7.5 3.358-7.5 7.5v13.273h-329.274v-13.273c0-4.142-3.358-7.5-7.5-7.5s-7.5 3.358-7.5 7.5v201.186h-57.733c-10.273-.001-18.63 8.356-18.63 18.629v136.673c0 4.142 3.358 7.5 7.5 7.5h378.691c4.142 0 7.5-3.358 7.5-7.5s-3.358-7.5-7.5-7.5h-371.191v-92.75h106.831c38.531 0 77.299 8.728 112.112 25.241 36.81 17.46 77.8 26.688 118.54 26.688h144.517v40.822h-80.809c-4.142 0-7.5 3.358-7.5 7.5s3.358 7.5 7.5 7.5h88.309c4.142 0 7.5-3.358 7.5-7.5v-136.674c0-10.273-8.357-18.63-18.63-18.63zm-72.733-92.885h-26v-80.027h26zm-78.455 0v-32.514h37.455v32.514zm-52.455 0v-32.514h37.455v32.514zm-52.455 0v-32.514h37.455v32.514zm-52.454 0v-32.514h37.455v32.514zm-52.455 0v-32.514h37.455v32.514zm247.274-47.514h-37.455v-32.514h37.455zm-52.455 0h-37.455v-32.514h37.455zm-52.455 0h-37.455v-32.514h37.455zm-52.455 0h-37.455v-32.514h37.455zm-52.454 0h-37.455v-32.514h37.455zm-52.455-32.513v80.027h-26v-80.027zm235.12 264.894c-38.531 0-77.299-8.728-112.112-25.241-36.809-17.46-77.799-26.688-118.54-26.688h-106.831v-21.423c0-2.001 1.628-3.629 3.63-3.629h170.997c4.142 0 7.5-3.358 7.5-7.5s-3.358-7.5-7.5-7.5h-98.264v-77.885h329.274v77.885h-201.01c-4.142 0-7.5 3.358-7.5 7.5s3.358 7.5 7.5 7.5h273.743c2.001 0 3.63 1.628 3.63 3.629v73.352z"/><path d="m292.615 97.839c22.116 0 40.109-17.993 40.109-40.109 0-22.117-17.993-40.11-40.109-40.11-9.508 0-18.248 3.332-25.129 8.88-.344.239-.658.508-.95.793-8.579 7.362-14.03 18.271-14.03 30.436 0 22.117 17.993 40.11 40.109 40.11zm0-15c-13.845 0-25.109-11.264-25.109-25.109 0-4.632 1.266-8.971 3.462-12.7 10.12 13.396 24.249 23.099 40.68 27.72l.882.248c-4.594 5.978-11.81 9.841-19.915 9.841zm25.11-25.11c0 .382-.012.761-.029 1.14l-1.987-.559c-13.669-3.845-25.362-12.052-33.566-23.394 3.19-1.47 6.735-2.297 10.472-2.297 13.845.001 25.11 11.265 25.11 25.11z"/><path d="m161 65.784h35c4.142 0 7.5-3.358 7.5-7.5s-3.358-7.5-7.5-7.5h-35c-4.142 0-7.5 3.358-7.5 7.5s3.358 7.5 7.5 7.5z"/><path d="m161 99.976h62.977c4.142 0 7.5-3.358 7.5-7.5s-3.358-7.5-7.5-7.5h-62.977c-4.142 0-7.5 3.358-7.5 7.5s3.358 7.5 7.5 7.5z"/></g></g></svg>