<?xml version="1.0" encoding="utf-8"?>
<!-- Generator: Adobe Illustrator 23.0.3, SVG Export Plug-In . SVG Version: 6.00 Build 0)  -->
<svg version="1.1" id="Layer_1" xmlns="http://www.w3.org/2000/svg" xmlns:xlink="http://www.w3.org/1999/xlink" x="0px" y="0px"
	 viewBox="0 0 512 512" style="enable-background:new 0 0 512 512;" xml:space="preserve">
<style type="text/css">
	.st0{fill:#BD9234;}
</style>
<path class="st0" d="M59.8,512h392.5c14.1,0,25.6-11.5,25.6-25.6V192.2c12.8,3.8,26.4-2.5,31.8-14.7c5.4-12.2,1-26.5-10.3-33.5
	L269.3,3.8c-8.2-5-18.5-5-26.6,0L12.6,144.1c-11.3,7-15.7,21.3-10.3,33.5c5.4,12.2,19,18.5,31.8,14.7v294.1
	C34.2,500.5,45.6,512,59.8,512z M204.8,495H102.4V324.3h102.4V495z M460.8,486.4c0,4.7-3.8,8.5-8.5,8.5H221.9V324.3
	c0-9.4-7.6-17.1-17.1-17.1H102.4c-9.4,0-17.1,7.6-17.1,17.1V495H59.8c-4.7,0-8.5-3.8-8.5-8.5V183L251.6,61c2.7-1.7,6.2-1.7,8.9,0
	l200.3,122V486.4z M31.7,174.9c-4.5,2.7-10.3,1.4-13.1-3.1c-2.8-4.5-1.5-10.3,3-13.2l230-140.3c2.7-1.7,6.2-1.7,8.9,0l230,140.2
	c4.3,2.7,5.7,8.2,3.4,12.7c-1.2,2.3-3.4,4.1-5.9,4.7c-2.6,0.7-5.3,0.3-7.6-1.1L269.3,46.4c-8.2-5-18.4-5-26.6,0h0L31.7,174.9z"/>
<path class="st0" d="M136.6,392.6h34.1c9.4,0,17.1-7.6,17.1-17.1v-17.1c0-9.4-7.6-17.1-17.1-17.1h-34.1c-9.4,0-17.1,7.6-17.1,17.1
	v17.1C119.5,384.9,127.1,392.5,136.6,392.6z M136.6,358.4h34.1l0,17.1h-34.1V358.4z"/>
<path class="st0" d="M128,426.7v8.5c0,4.7,3.8,8.5,8.5,8.5c4.7,0,8.5-3.8,8.5-8.5v-8.5c4.7,0,8.5-3.8,8.5-8.5c0-4.7-3.8-8.5-8.5-8.5
	H128c-4.7,0-8.5,3.8-8.5,8.5C119.5,422.9,123.3,426.7,128,426.7z"/>
<path class="st0" d="M205.5,145.7c-21.6,3.3-38.7,20-42.6,41.5c-3.9,21.5,6.4,43.1,25.4,53.7c19.1,10.6,42.8,8,59.1-6.6v30.1h-8.5
	c-4.7,0-8.5,3.8-8.5,8.5c0,4.7,3.8,8.5,8.5,8.5h34.1c4.7,0,8.5-3.8,8.5-8.5c0-4.7-3.8-8.5-8.5-8.5h-8.5v-30.1
	c16.3,14.6,40,17.2,59.1,6.6c19.1-10.6,29.3-32.2,25.5-53.7c-3.8-21.5-20.9-38.2-42.5-41.6c-3.9-24.9-25.3-43.3-50.5-43.3
	C230.8,102.4,209.4,120.8,205.5,145.7L205.5,145.7z M289.7,148.4c1.2,7.3,6.9,13,14.2,14.1c14.6,2.3,26,13.7,28.4,28.3
	c2.3,14.6-5,29-18.2,35.8c-13.2,6.7-29.1,4.2-39.6-6.2c-4.8-5-11.5-7.8-18.5-7.8c-7,0-13.6,2.8-18.5,7.8
	c-10.5,10.5-26.5,13-39.7,6.3c-13.2-6.7-20.6-21.2-18.2-35.8c2.3-14.6,13.9-26.1,28.5-28.3c7.3-1.2,13-6.9,14.2-14.2
	c2.6-16.6,16.9-28.9,33.8-28.9C272.9,119.5,287.2,131.8,289.7,148.4z"/>
<path class="st0" d="M273.1,324.3v85.3h-8.5c-4.7,0-8.5,3.8-8.5,8.5c0,4.7,3.8,8.5,8.5,8.5h153.6c4.7,0,8.5-3.8,8.5-8.5
	c0-4.7-3.8-8.5-8.5-8.5h-8.5v-85.3c0-9.4-7.6-17.1-17.1-17.1H290.1C280.7,307.2,273.1,314.9,273.1,324.3z M332.8,409.6h-42.7v-34.1
	h42.7V409.6z M349.9,375.5h17.1c4.7,0,8.5-3.8,8.5-8.5c0-4.7-3.8-8.5-8.5-8.5h-17.1v-34.1h42.7v85.3h-42.7V375.5z M332.8,358.4
	h-42.7v-34.1h42.7V358.4z"/>
</svg>
