<?xml version="1.0" encoding="utf-8"?>
<!-- Generator: Adobe Illustrator 16.0.0, SVG Export Plug-In . SVG Version: 6.00 Build 0)  -->
<!DOCTYPE svg PUBLIC "-//W3C//DTD SVG 1.1//EN" "http://www.w3.org/Graphics/SVG/1.1/DTD/svg11.dtd">
<svg version="1.1" id="Layer_1" xmlns="http://www.w3.org/2000/svg" xmlns:xlink="http://www.w3.org/1999/xlink" x="0px" y="0px"
	 width="306px" height="243px" viewBox="0 6.5 306 243" enable-background="new 0 6.5 306 243" xml:space="preserve">
<path d="M148.543,195.387c-1.043,2.914-2.013,5.871-2.896,8.873l-0.233,0.795h-7.515l0.478-1.391
	c1.883-5.484,3.957-10.965,6.235-16.439c2.271-5.461,4.747-10.918,7.44-16.371l0.315-0.639h6.884l0.312,0.643
	c2.656,5.449,5.119,10.92,7.396,16.4c2.271,5.479,4.346,10.945,6.228,16.406l0.48,1.391h-7.79l-0.252-0.766
	c-0.527-1.602-1.065-3.207-1.617-4.805c-0.481-1.396-0.967-2.769-1.454-4.101L148.543,195.387 M151.658,189.414h8.62
	c-0.778-1.996-1.594-3.977-2.433-5.953c-0.716-1.686-1.451-3.371-2.206-5.061c-1.719,3.611-3.334,7.277-4.829,11.014H151.658z
	 M147.359,157.953h17.063v3.963h-17.063V157.953z M212.465,191.01h-4.297v14.045h-7.167v-34.84h15.306
	c4.082,0,7.848,0.209,10.697,1.535c3.021,1.402,4.908,3.938,4.908,8.521c0,3.629-0.956,6.065-2.691,7.713
	c-1.355,1.285-3.137,2.039-5.274,2.461l11.195,14.609h-8.83l-0.353-0.466l-10.316-13.58L212.465,191.01L212.465,191.01z
	 M208.168,185.035h9.892c2.473,0,4.202-0.154,5.2-0.809c0.914-0.603,1.335-1.783,1.335-3.91c0-1.896-0.502-2.916-1.433-3.433
	c-1.062-0.584-2.786-0.692-5.005-0.692h-9.989V185.035z M22.281,195.387c-1.045,2.914-2.013,5.871-2.897,8.873l-0.234,0.795h-7.513
	l0.478-1.391c1.882-5.484,3.957-10.965,6.234-16.439c2.271-5.461,4.748-10.918,7.441-16.371l0.314-0.639h6.884l0.313,0.643
	c2.655,5.449,5.118,10.92,7.394,16.4c2.271,5.479,4.347,10.945,6.229,16.406l0.479,1.391h-7.788l-0.254-0.766
	c-0.526-1.602-1.065-3.207-1.616-4.805c-0.48-1.396-0.968-2.769-1.453-4.101L22.281,195.387L22.281,195.387z M25.396,189.414h8.621
	c-0.782-1.996-1.594-3.977-2.433-5.953c-0.717-1.686-1.452-3.369-2.207-5.061c-1.719,3.611-3.334,7.277-4.828,11.014H25.396z
	 M81.453,180.885v24.17h-7.166v-34.84h9.166l0.325,0.59l9.021,16.262l9.066-16.262l0.329-0.59h8.813v34.84h-7.166v-24.059
	l-7.846,13.855l-0.33,0.58h-6.041L81.453,180.885z M269.244,195.387c-1.044,2.914-2.013,5.871-2.896,8.873l-0.235,0.795H258.6
	l0.479-1.391c1.883-5.484,3.956-10.965,6.232-16.439c2.271-5.461,4.747-10.918,7.441-16.371l0.313-0.639h6.885l0.313,0.643
	c2.655,5.449,5.118,10.92,7.393,16.4c2.271,5.479,4.35,10.945,6.229,16.406l0.479,1.391h-7.788l-0.254-0.766
	c-0.523-1.602-1.063-3.207-1.613-4.805c-0.481-1.396-0.971-2.769-1.454-4.101L269.244,195.387L269.244,195.387z M272.359,189.414
	h8.622c-0.782-1.996-1.595-3.977-2.434-5.953c-0.716-1.686-1.452-3.371-2.206-5.061c-1.721,3.611-3.335,7.277-4.83,11.014H272.359z"
	/>
<path fill="#016227" d="M170.857,90.414l-24.992,24.992l-3.598-3.599l7.137-7.138l17.855-17.854L170.857,90.414 M176.357,84.914
	l7.136,7.135l-3.598,3.599l-24.992-24.991l3.602-3.598L176.357,84.914z M135.146,79.414l24.992-24.992l3.597,3.598l-24.991,24.992
	L135.146,79.414z M129.646,84.914l-7.137-7.137l3.598-3.598l24.992,24.99l-3.597,3.6L129.646,84.914z M190.896,99.451l5.948,5.949
	v1.053v19.758v2.547l-2.544-0.002h-19.758l-1.058,0.002l-18.584-18.586l3.602-3.598l17.093,17.094h16.161v-16.16l-4.457-4.458
	L190.896,99.451z M190.896,74.18l10.733,10.732l-30.491,30.492l-3.598-3.598l26.894-26.895l-7.135-7.137L190.896,74.18z
	 M187.88,66.195l3.876-3.875V46.158h-16.161l-4.457,4.459l-3.598-3.599l5.944-5.948h23.356v2.545v19.758v1.055l-18.584,18.584
	l-3.598-3.598l5.524-5.527h0.001L187.88,66.195L187.88,66.195z M142.268,47.019l10.734-10.733l30.493,30.492l-3.601,3.598
	L153.002,43.48l-7.137,7.137L142.268,47.019z M115.106,70.375l-5.945-5.946V41.072h23.354l18.583,18.584l-3.597,3.598L130.408,46.16
	h-16.16v16.162l4.455,4.455L115.106,70.375z M115.106,95.646l-10.732-10.732l12.637-12.637h-0.001l3.598-3.598l14.26-14.26
	l3.598,3.599l-9.758,9.759v-0.002l-9.535,9.534l0.002,0.001l-7.604,7.604l7.138,7.135L115.106,95.646z M138.464,122.808
	l-5.948,5.946H109.16l-0.002-2.543v-19.76l0.002-1.053l7.85-7.85v-0.002l3.597-3.598l7.137-7.136l3.598,3.599l-17.094,17.092v16.162
	h16.162l4.457-4.457L138.464,122.808z M151.203,131.742L122.51,103.05l3.597-3.599l26.896,26.896l7.136-7.136l3.597,3.598
	l-10.731,10.732L151.203,131.742z"/>
</svg>
