<?xml version="1.0" encoding="utf-8"?>
<!-- Generator: Adobe Illustrator 23.0.3, SVG Export Plug-In . SVG Version: 6.00 Build 0)  -->
<svg version="1.1" id="Capa_1" xmlns="http://www.w3.org/2000/svg" xmlns:xlink="http://www.w3.org/1999/xlink" x="0px" y="0px"
	 viewBox="0 0 512 512" style="enable-background:new 0 0 512 512;" xml:space="preserve">
<g>
	<g>
		<g>
			<path d="M467,61H165c-24.8,0-45,20.2-45,45c0,24.8,20.2,45,45,45h302c24.8,0,45-20.2,45-45C512,81.2,491.8,61,467,61z"/>
		</g>
	</g>
	<g>
		<g>
			<path d="M467,211H165c-24.8,0-45,20.2-45,45c0,24.8,20.2,45,45,45h302c24.8,0,45-20.2,45-45C512,231.2,491.8,211,467,211z"/>
		</g>
	</g>
	<g>
		<g>
			<path d="M467,361H165c-24.8,0-45,20.2-45,45c0,24.8,20.2,45,45,45h302c24.8,0,45-20.2,45-45C512,381.2,491.8,361,467,361z"/>
		</g>
	</g>
	<g>
		<g>
			<path d="M45,61C20.2,61,0,81.2,0,106c0,24.8,20.2,45,45,45c24.8,0,45-20.2,45-45C90,81.2,69.8,61,45,61z"/>
		</g>
	</g>
	<g>
		<g>
			<path d="M45,211c-24.8,0-45,20.2-45,45c0,24.8,20.2,45,45,45c24.8,0,45-20.2,45-45C90,231.2,69.8,211,45,211z"/>
		</g>
	</g>
	<g>
		<g>
			<path d="M45,361c-24.8,0-45,20.2-45,45c0,24.8,20.2,45,45,45c24.8,0,45-20.2,45-45C90,381.2,69.8,361,45,361z"/>
		</g>
	</g>
</g>
</svg>
