<svg id="Layer_1" data-name="Layer 1" xmlns="http://www.w3.org/2000/svg" xmlns:xlink="http://www.w3.org/1999/xlink" viewBox="0 0 1073.44 589.28"><defs><style>.cls-1{fill:none;}.cls-2{clip-path:url(#clip-path);}.cls-3{fill:#fec113;}.cls-4{fill:#231f20;}.cls-5{fill:#0d321b;}</style><clipPath id="clip-path" transform="translate(-131.68 -108.67)"><rect class="cls-1" width="1367.08" height="829.03"/></clipPath></defs><g class="cls-2"><path class="cls-3" d="M1002.18,108.67a50.94,50.94,0,1,0,50.9,50.94,51,51,0,0,0-50.9-50.94" transform="translate(-131.68 -108.67)"/><path class="cls-4" d="M421.49,271.13a27.49,27.49,0,0,0,2.67-12.66,22.72,22.72,0,0,0-2.07-10,24.35,24.35,0,0,0-5.1-7,23.28,23.28,0,0,0-6.38-4.3,32.78,32.78,0,0,0-6-2.09L402,234.5l2.62-.67a17.21,17.21,0,0,0,4.19-1.86,18.57,18.57,0,0,0,4.7-3.92,25.25,25.25,0,0,0,3.89-6,19.16,19.16,0,0,0,1.63-8,26.36,26.36,0,0,0-1.74-9.43,20.45,20.45,0,0,0-5.56-7.94,29.4,29.4,0,0,0-10.1-5.53A48.19,48.19,0,0,0,386.34,189H350.15v97h36.19a74.55,74.55,0,0,0,15.85-1.54,33.65,33.65,0,0,0,11.86-4.82,22.82,22.82,0,0,0,7.44-8.47m-50.95-66.19h13.73a23.9,23.9,0,0,1,4.93.53,13.27,13.27,0,0,1,4.56,1.85,10,10,0,0,1,3.31,3.63,11.67,11.67,0,0,1,1.26,5.68,11.51,11.51,0,0,1-1.26,5.54,10.44,10.44,0,0,1-3.22,3.61,14.08,14.08,0,0,1-4.47,1.93,21.72,21.72,0,0,1-5.11.6H370.54Zm30.54,59a12.11,12.11,0,0,1-4.41,4,16.39,16.39,0,0,1-5.68,1.77,43.57,43.57,0,0,1-5.38.37H370.54V243.22h15.07a32.12,32.12,0,0,1,5.56.54,17.55,17.55,0,0,1,5.65,2,11.53,11.53,0,0,1,6.07,10.94,12.82,12.82,0,0,1-1.81,7.28" transform="translate(-131.68 -108.67)"/><path class="cls-4" d="M499.51,286h22.35l-21.63-39,.87-.48a30.18,30.18,0,0,0,11.57-11.14,31.73,31.73,0,0,0,4.1-16.33,32.33,32.33,0,0,0-2.1-11.66,25.93,25.93,0,0,0-6.29-9.5,30.53,30.53,0,0,0-10.55-6.46A42,42,0,0,0,483,189h-35.8v97h19.84V249.61h14Zm-32.44-80.56h14.78c4.41,0,7.94,1.29,10.49,3.84a15.35,15.35,0,0,1,0,20.38c-2.57,2.67-6.1,4-10.51,4H467.07Z" transform="translate(-131.68 -108.67)"/><rect class="cls-4" x="411.62" y="80.31" width="20.41" height="96.98"/><path class="cls-4" d="M678.28,233.5H642.14v16.12h17.51v13.92l-.37.31a25.56,25.56,0,0,1-9.11,4.69,40.24,40.24,0,0,1-11.1,1.46,31.41,31.41,0,0,1-12.17-2.32,29,29,0,0,1-9.75-6.5A29.79,29.79,0,0,1,610.7,251a36.9,36.9,0,0,1-2.29-13.26,39.46,39.46,0,0,1,2-12.63,31,31,0,0,1,5.82-10.44,28.62,28.62,0,0,1,9.39-7.07A29.13,29.13,0,0,1,638.17,205a27.06,27.06,0,0,1,14.56,3.71,45.16,45.16,0,0,1,10,8.59l13.71-13a45.38,45.38,0,0,0-15.94-12.9c-6.6-3.22-14.42-4.85-23.21-4.85a51.37,51.37,0,0,0-20.38,3.94,47.79,47.79,0,0,0-26.18,27,55.27,55.27,0,0,0-3.63,20.26,59.84,59.84,0,0,0,3.41,20.56,44.34,44.34,0,0,0,10,16,45.21,45.21,0,0,0,15.88,10.36,57.79,57.79,0,0,0,21.37,3.72,69.85,69.85,0,0,0,23.19-3.57,55.08,55.08,0,0,0,17.35-9.83Z" transform="translate(-131.68 -108.67)"/><path class="cls-4" d="M760.45,263.26,768,286h21.48L754.9,189H730.19l-35.36,97h21.76l7.57-22.7Zm-18-54.38,12.91,39h-26Z" transform="translate(-131.68 -108.67)"/><path class="cls-4" d="M893.9,259a52.52,52.52,0,0,0,3.91-21c0-8.42-1.29-15.82-3.83-22a40.31,40.31,0,0,0-10.73-15.21,45.3,45.3,0,0,0-16.4-8.86A71.88,71.88,0,0,0,846,189H809.62v97h36.23a69.59,69.59,0,0,0,20.84-3,45.18,45.18,0,0,0,16.4-9A42.22,42.22,0,0,0,893.9,259m-25.7,1c-5.51,5.35-13.43,8.05-23.55,8.05H830v-61.3h14.64A40.55,40.55,0,0,1,858.78,209a25,25,0,0,1,15.83,16.18,40.42,40.42,0,0,1,1.9,12.71c0,9.34-2.8,16.79-8.31,22.15" transform="translate(-131.68 -108.67)"/><polygon class="cls-4" points="810.7 159.55 810.7 136.2 841 136.2 845.5 119.19 810.7 119.19 810.7 97.91 851.09 97.91 855.6 80.31 790.27 80.31 790.27 177.29 851.09 177.29 855.6 159.55 810.7 159.55"/><path class="cls-5" d="M453.09,557.93a38.47,38.47,0,0,1-9,1.13,32,32,0,0,1-13.47-2.74,41.13,41.13,0,0,1-10.7-7,65.69,65.69,0,0,1-8.83-9.71c-2.76-3.64-5.34-7.36-7.86-11.19q-3.48-5.24-7.34-10.34a61.83,61.83,0,0,0-8.46-9.2,40,40,0,0,0-9.95-6.6,27.83,27.83,0,0,0-12.06-2.5h-4a14.5,14.5,0,0,0-3.7.49v35.35A18.4,18.4,0,0,0,362,548a16.73,16.73,0,0,0,11.6,5.85v2c-3.82-.36-7.58-.63-11.35-.9s-7.49-.39-11.33-.39-7.48.19-11.07.52-7.26.77-11.06,1.24c-.51.18-.86,0-1.12-.61a1,1,0,0,1,.37-1.39,21.79,21.79,0,0,0,8.69-7.47,18.22,18.22,0,0,0,3.49-10.69V436.81a14.28,14.28,0,0,0-4.07-10.06,20.38,20.38,0,0,0-9.87-5.84.88.88,0,0,1-.61-1.13c.07-.58.36-.85.86-.85h49a63.13,63.13,0,0,1,15.19,1.82,40.63,40.63,0,0,1,13.19,5.88,29.49,29.49,0,0,1,9.2,10.45,31.8,31.8,0,0,1,3.51,15.43,42.68,42.68,0,0,1-6.6,22.66,90.12,90.12,0,0,1-14.82,18.43,69.86,69.86,0,0,1,6,7.58c2.15,3.05,4.51,6.27,7,9.59,3.64,5,7.51,10.11,11.55,15.33a125.77,125.77,0,0,0,12.84,14.16,57.81,57.81,0,0,0,13.95,9.94,24.67,24.67,0,0,0,14.67,2.66l.77,2a45.16,45.16,0,0,1-8.86,3.09m-56-109.16a39.23,39.23,0,0,0-5.59-11.69,31.54,31.54,0,0,0-9.23-8.56,23.53,23.53,0,0,0-12.69-3.37,41.09,41.09,0,0,0-6,.38,20.09,20.09,0,0,0-5.73,1.58v62a61.29,61.29,0,0,0,8.25,1c2.61.21,5.37.25,8.18.25,9.32,0,15.72-2.51,19.31-7.58s5.32-12.06,5.32-21a46.1,46.1,0,0,0-1.85-12.94" transform="translate(-131.68 -108.67)"/><path class="cls-5" d="M563.88,540.9a50.55,50.55,0,0,1-4.21,11.19l-.77.5c-7.95,1.34-15.84,2.4-23.63,3.26a220.48,220.48,0,0,1-23.66,1.22,74.63,74.63,0,0,1-27.62-5,65.24,65.24,0,0,1-21.93-13.94,64.22,64.22,0,0,1-14.4-21.4,70.32,70.32,0,0,1-5.23-27.41q0-17.65,5.34-31.35A62.79,62.79,0,0,1,463,435a65.89,65.89,0,0,1,23.67-14.2,93.6,93.6,0,0,1,31-4.81,120.12,120.12,0,0,1,13.59.73q6.58.76,13.06,1.74c3.32.51,6.57,1,9.71,1.37s6.32.76,9.45,1.13c.68,0,1,.32,1,1-.33,5.82-.83,11.61-1.49,17.3s-1.42,11.34-2.21,16.82l-1,.78-1-.78a38.5,38.5,0,0,0-5.09-14.41,36.55,36.55,0,0,0-9.48-10.36,41.27,41.27,0,0,0-12.72-6.2,51.23,51.23,0,0,0-14.77-2.15A64.38,64.38,0,0,0,493.08,427a53.22,53.22,0,0,0-18.17,11.55,51,51,0,0,0-11.72,18,65.08,65.08,0,0,0-4.11,23.57,73.69,73.69,0,0,0,18.41,48.57,67.71,67.71,0,0,0,20.67,15.51,58.49,58.49,0,0,0,26.14,5.87,49.36,49.36,0,0,0,13.87-1.75,31.89,31.89,0,0,0,10.28-5.08,32.22,32.22,0,0,0,7.82-8.59,94,94,0,0,0,6.63-12.44l1.12-.53.86,1c.18,1,.3,2,.39,3s.14,2,.14,3.19a49.14,49.14,0,0,1-1.53,12" transform="translate(-131.68 -108.67)"/><path class="cls-5" d="M718,556.06c-8.78-.46-17.5-.74-26.12-.74-3.17,0-6.28,0-9.32.13s-6.29.19-9.59.39a.88.88,0,0,1-.9-.89c0-.61.14-1,.65-1.13,5.14-1.48,8.44-3.5,10-6s2.22-6.41,2.22-11.71V484.39H608.45v52.26c0,10.45,5.39,16.21,16.17,17.17.51,0,.75.37.75,1s-.24,1-.75,1h-7.71c-2.33,0-4.8.07-7.46.22-1.83,0-4,.06-6.36.16s-4.52.1-6.34.1H590.5c-2.11,0-4.28-.07-6.45-.26-.68,0-1.45,0-2.37-.12a23,23,0,0,0-2.35-.1c-.51,0-.8-.32-.88-.89s.13-1,.63-1.13a40,40,0,0,0,6.45-1.6,7.87,7.87,0,0,0,3.76-2.47,8.81,8.81,0,0,0,1.61-4.16,46.28,46.28,0,0,0,.36-6.44v-106a9.12,9.12,0,0,0-4.36-8.23,19.16,19.16,0,0,0-9.31-3v-2c6.95.5,13.87.77,20.68.77,2.81,0,5.61,0,8.44-.16s5.64-.11,8.46-.11h5.24c.51,0,.72.33.72,1s-.21,1-.72,1a12.91,12.91,0,0,0-8.11,2.75,9.09,9.09,0,0,0-3.62,7.7v43.3h76.19V433.83c0-4-1.06-6.5-3.1-7.58a37.89,37.89,0,0,0-7.6-2.86c-.66-.14-1.28-.34-1.87-.52s-1.21-.33-1.88-.47a.87.87,0,0,1-.59-1.12c.07-.59.33-.89.87-.89,7.94.52,15.66.76,23.13.76,3.31,0,6.69,0,10.08-.14s6.74-.19,10.08-.35c.51,0,.78.29.89.87a1,1,0,0,1-.63,1.14,26,26,0,0,0-8.71,2.86c-2.18,1.21-3.25,3.91-3.25,8.07v102c0,5.63,1.23,9.89,3.72,12.71s6.57,4.74,12.21,5.75l-.26,1.95" transform="translate(-131.68 -108.67)"/><path class="cls-5" d="M856.1,555.08l-6.61-.52c-1.3-.14-2.65-.29-4.06-.36s-2.87-.09-4.39-.09c-3.78,0-7.6.12-11.43.45s-7.64.68-11.46,1l-1-.76.47-1.23,9.7-4.75c-2.8-7.84-5.75-15.48-8.81-23s-6-15.3-8.87-23.29H771.1c-.8,2.14-2,5.31-3.58,9.59s-3.15,8.6-4.63,13.2-2.81,8.87-4,12.95a38,38,0,0,0-1.76,8.81c0,2.51,1.08,4.13,3.26,4.86a36,36,0,0,0,6.2,1.65v2c-3.15-.36-6.4-.65-9.7-.91s-6.63-.37-10-.37-6.63.13-9.94.37-6.63.55-10,.91c-.53.14-.8-.11-.87-.76s.12-1.08.62-1.23c9.12-1.21,15.49-6,19.18-14.47v.25q7.14-18.17,13.93-36.32t13.18-36.65c3-8.26,5.88-16.53,8.71-24.75s5.82-16.44,9-24.77l1-.73,1,.73c.85,2.34,1.68,4.64,2.63,6.86s1.79,4.53,2.6,6.85q10.2,27.88,21.28,56a550,550,0,0,0,25.27,55,19.14,19.14,0,0,0,7.58,8.25,27.59,27.59,0,0,0,10.6,3v2a30.52,30.52,0,0,1-6.62.24M790.54,442.56c-2.84,8.82-5.54,17.37-8.11,25.75s-5.4,17-8.57,26H806Z" transform="translate(-131.68 -108.67)"/><path class="cls-5" d="M994.38,557.93a38.49,38.49,0,0,1-9.06,1.13,32.39,32.39,0,0,1-13.47-2.74,41.52,41.52,0,0,1-10.71-7,67.34,67.34,0,0,1-8.82-9.71q-4.11-5.46-7.84-11.19-3.5-5.24-7.34-10.34a64.18,64.18,0,0,0-8.48-9.2,39.79,39.79,0,0,0-10-6.6,27.6,27.6,0,0,0-12.05-2.5h-4a14.77,14.77,0,0,0-3.69.49v35.35A18.17,18.17,0,0,0,903.3,548a16.6,16.6,0,0,0,11.55,5.85v2c-3.81-.36-7.58-.63-11.31-.9s-7.52-.39-11.33-.39-7.52.19-11.09.52-7.26.77-11,1.24c-.52.18-.89,0-1.16-.61a1.05,1.05,0,0,1,.39-1.39,21.74,21.74,0,0,0,8.72-7.47,18.26,18.26,0,0,0,3.46-10.69V436.81a14.21,14.21,0,0,0-4.08-10.06,20.07,20.07,0,0,0-9.84-5.84.87.87,0,0,1-.6-1.13c.06-.58.36-.85.85-.85h49.05A63.05,63.05,0,0,1,932,420.75a40.62,40.62,0,0,1,13.17,5.88,29.57,29.57,0,0,1,9.23,10.45,32,32,0,0,1,3.49,15.43,42.67,42.67,0,0,1-6.59,22.66,90.16,90.16,0,0,1-14.83,18.43,68.65,68.65,0,0,1,6,7.58c2.17,3.05,4.49,6.27,7,9.59,3.65,5,7.53,10.11,11.59,15.33a122.7,122.7,0,0,0,12.8,14.16,57.62,57.62,0,0,0,13.95,9.94,24.7,24.7,0,0,0,14.67,2.66l.74,2a43.56,43.56,0,0,1-8.83,3.09m-56-109.16a38.33,38.33,0,0,0-5.61-11.69,31.68,31.68,0,0,0-9.2-8.56,23.55,23.55,0,0,0-12.71-3.37,41.54,41.54,0,0,0-6,.38,20,20,0,0,0-5.71,1.58v62a61.81,61.81,0,0,0,8.22,1c2.64.21,5.37.25,8.18.25,9.27,0,15.72-2.51,19.31-7.58s5.35-12.06,5.35-21a47.62,47.62,0,0,0-1.86-12.94" transform="translate(-131.68 -108.67)"/><path class="cls-5" d="M1127.28,517.6A59.66,59.66,0,0,1,1111.37,540a66.23,66.23,0,0,1-24.64,13.21,110.2,110.2,0,0,1-31.87,4.33c-4.31,0-8.72-.14-13.3-.48s-9-.64-13.37-1c-4.77-.32-9.61-.63-14.51-1s-9.76-.39-14.59-.24c-.47,0-.73-.34-.85-.9l.62-1.07c5.5-1.17,8.82-3.11,10.07-5.77s1.89-6.63,1.89-12V432.34c0-3.8-1-6.25-3-7.32a20,20,0,0,0-6-2.14,16,16,0,0,1-3.24-.75,3.78,3.78,0,0,1-2.24-1.74c-.69-1-.43-1.47.71-1.47,2.17,0,4.26,0,6.27.13s4,.19,6.2.34c2.47.18,5.22.34,8.24.51s5.79.27,8.44.27c3.32,0,6.65-.11,10-.27s6.65-.43,10-.74c3.13-.33,6.41-.55,9.83-.61s6.68-.14,9.85-.14a68.26,68.26,0,0,1,26.76,5.23A65.22,65.22,0,0,1,1113.87,438a66.2,66.2,0,0,1,14.05,21.4,68,68,0,0,1,5.1,26.28c0,12.26-1.9,23-5.74,32M1111,465.24a61.16,61.16,0,0,0-14.12-20.83,60.51,60.51,0,0,0-21.47-13.19,80.56,80.56,0,0,0-27.53-4.59c-3.28,0-6.66.15-10,.48a41.44,41.44,0,0,0-9.74,2.26v98.81a32.55,32.55,0,0,0,1.65,11.45,13.21,13.21,0,0,0,4.87,6.49,17.69,17.69,0,0,0,8,2.86,92.14,92.14,0,0,0,11.61.63,82.43,82.43,0,0,0,25-3.62,54.81,54.81,0,0,0,19.54-10.72,47.07,47.07,0,0,0,12.69-17.8c3-7.11,4.48-15.42,4.48-24.87a70.56,70.56,0,0,0-5.09-27.36" transform="translate(-131.68 -108.67)"/><path class="cls-5" d="M1200.5,535.43a44.7,44.7,0,0,1-11.7,12.3,58.76,58.76,0,0,1-15.67,8,51.51,51.51,0,0,1-16.33,2.85,39,39,0,0,1-7.84-.87,25,25,0,0,1-7.44-2.86,17.81,17.81,0,0,1-5.51-5.08,14.2,14.2,0,0,1-2.07-7.87,31.42,31.42,0,0,1,.59-6c.42-1.91.79-3.85,1.14-5.65l1.23-6c0-.52.34-.8,1-.8s1,.28,1,.8V528a18.43,18.43,0,0,0,2.24,9.19,24.89,24.89,0,0,0,5.7,6.86,23.79,23.79,0,0,0,8.12,4.26,33.93,33.93,0,0,0,9.33,1.33,30.34,30.34,0,0,0,9.23-1.49,29,29,0,0,0,8.56-4.36,23.65,23.65,0,0,0,6.38-7,17.34,17.34,0,0,0,2.47-9.12,20.89,20.89,0,0,0-2.24-9.3,50.87,50.87,0,0,0-6-9.35,100.91,100.91,0,0,0-8.5-9.47c-3.1-3.16-6.36-6.31-9.67-9.48-3.49-3.29-7-6.65-10.46-10.05a93.56,93.56,0,0,1-9.22-10.45,61.16,61.16,0,0,1-6.48-10.85,26.92,26.92,0,0,1-2.46-11.2,23.12,23.12,0,0,1,4.7-14.56,37.6,37.6,0,0,1,11.72-10,59.08,59.08,0,0,1,15.17-5.71,68.36,68.36,0,0,1,15.2-1.87,61.8,61.8,0,0,1,18.18,2.51l.74,1c-.67,8.11-1.65,16.52-3,25.11l-1,.77-1-.77a33.29,33.29,0,0,0-7.58-14.94c-3.73-4.12-8.69-6.22-14.85-6.22a22,22,0,0,0-15.79,6.1,20.71,20.71,0,0,0-6.32,15.58,20,20,0,0,0,2.1,9.19,38.79,38.79,0,0,0,5.5,8.19,68.16,68.16,0,0,0,7.81,7.89l9.22,7.83c3.51,2.86,7,5.78,10.32,8.85a76,76,0,0,1,9.11,9.72,49.57,49.57,0,0,1,6.46,10.82,30.59,30.59,0,0,1,2.49,12.45,28.66,28.66,0,0,1-4.61,15.94" transform="translate(-131.68 -108.67)"/><path class="cls-5" d="M316.68,446.65A101.44,101.44,0,0,0,295,413.93a101.16,101.16,0,0,0-66.81-29.7v-.05l-.11.05-.14-.05v.05a101.11,101.11,0,0,0-66.79,29.7,101.58,101.58,0,0,0-21.65,32.72,103.8,103.8,0,0,0-7.84,40.46,83.31,83.31,0,0,0,7.84,36.23,91.57,91.57,0,0,0,21,28.63,97,97,0,0,0,30.6,18.8,100.9,100.9,0,0,0,36.6,6.72h.7A100.75,100.75,0,0,0,265,570.77,96.5,96.5,0,0,0,295.65,552a91.26,91.26,0,0,0,21-28.63,83.45,83.45,0,0,0,7.84-36.23,104,104,0,0,0-7.84-40.46m-18.42,70.74A76.26,76.26,0,0,1,284.58,543a66.84,66.84,0,0,1-22.42,17.68c-8.87,4.41-19,6.58-30.46,6.58-1.2,0-2.34,0-3.49-.12H228c-1.13.07-2.27.12-3.44.12-11.46,0-21.63-2.17-30.49-6.58A67.24,67.24,0,0,1,171.61,543a76.26,76.26,0,0,1-13.68-25.62,101.13,101.13,0,0,1-4.62-30.78,113.23,113.23,0,0,1,5-33.1,100.16,100.16,0,0,1,14.54-29.63,77.07,77.07,0,0,1,23.81-21.41c9.13-5.27,19.65-8,31.45-8.17q17.7.27,31.47,8.17a77.31,77.31,0,0,1,23.75,21.41,99.79,99.79,0,0,1,14.59,29.63,113.53,113.53,0,0,1,5,33.1,102.06,102.06,0,0,1-4.61,30.78" transform="translate(-131.68 -108.67)"/><polygon class="cls-4" points="16.43 532.36 17.23 554.49 17.23 579.81 5.76 579.81 5.76 509.82 9.95 509.82 52.32 556.78 51.52 535.45 51.52 510.02 63.09 510.02 63.09 579.91 59.1 579.91 16.43 532.36"/><path class="cls-4" d="M227.46,639.53a26.09,26.09,0,0,1,10.87,2.09,18,18,0,0,1,7.27,5.83,20.19,20.19,0,0,1,3.49,8.83,31.63,31.63,0,0,1-.39,11.06H213.2a12.88,12.88,0,0,0,1.2,5.74,10.53,10.53,0,0,0,3.34,4,15.44,15.44,0,0,0,5,2.35,22.61,22.61,0,0,0,6.13.8,71,71,0,0,0,8.87-.55,31.07,31.07,0,0,0,8.57-2.44l1.4,8.07a48,48,0,0,1-8.88,3,40.59,40.59,0,0,1-9.27,1.1,32,32,0,0,1-11-1.65,24.12,24.12,0,0,1-8.63-5.08,22.91,22.91,0,0,1-5.58-8.23,26.28,26.28,0,0,1-1.79-11A25.54,25.54,0,0,1,204.73,653a21.91,21.91,0,0,1,13.36-12,29.33,29.33,0,0,1,9.37-1.5m-.1,8.38a14.11,14.11,0,0,0-9.22,3.13,14.52,14.52,0,0,0-4.94,8.83h26.72a12,12,0,0,0-.9-5.34,10.47,10.47,0,0,0-2.74-3.74,11.23,11.23,0,0,0-4-2.19,16.78,16.78,0,0,0-4.88-.69" transform="translate(-131.68 -108.67)"/><path class="cls-4" d="M287.67,680.4a13.08,13.08,0,0,1-3.13,4.09,18.08,18.08,0,0,1-4.34,2.79,22.34,22.34,0,0,1-5,1.6,28,28,0,0,1-5.14.5,21.53,21.53,0,0,1-7.58-1.2,16.58,16.58,0,0,1-5.38-3.19,12.59,12.59,0,0,1-3.24-4.54,13.8,13.8,0,0,1-1.05-5.33,16.23,16.23,0,0,1,1.2-6.28,14.89,14.89,0,0,1,3.49-5.09,16,16,0,0,1,5.78-3.43,24.34,24.34,0,0,1,8.18-1.25,39.69,39.69,0,0,1,7.27.7,22.17,22.17,0,0,1,7,2.49v-6a6.84,6.84,0,0,0-1.64-4.79,9.89,9.89,0,0,0-4.19-2.64,19.21,19.21,0,0,0-5.68-.9,43.57,43.57,0,0,0-6.18.35,40.58,40.58,0,0,0-5.69,1.15,27.76,27.76,0,0,0-4.13,1.45l-1.7-7.88a28.79,28.79,0,0,1,8.33-2.69,54.61,54.61,0,0,1,9.42-.8,42,42,0,0,1,8.37.8,20.21,20.21,0,0,1,7,2.74,14.1,14.1,0,0,1,4.84,5.23,17.23,17.23,0,0,1,1.79,8.28v18.94c0,1.13,0,2.13.05,3a4.89,4.89,0,0,0,.5,2.14,2.7,2.7,0,0,0,1.44,1.25,6.82,6.82,0,0,0,3,.2l.2,6.48a37.59,37.59,0,0,1-5.33.75,9.29,9.29,0,0,1-4.29-.65,6.17,6.17,0,0,1-2.94-2.74,12.18,12.18,0,0,1-1.2-5.54m-2-11.16a20,20,0,0,0-5.48-2,31.17,31.17,0,0,0-7.28-.89,10.85,10.85,0,0,0-6.68,2.09,7,7,0,0,0-2.79,6,5.94,5.94,0,0,0,2.09,4.89q2.1,1.7,6.68,1.69a16.73,16.73,0,0,0,4.34-.6,12.76,12.76,0,0,0,4.14-1.94,11.76,11.76,0,0,0,3.24-3.59,14,14,0,0,0,1.74-5.63" transform="translate(-131.68 -108.67)"/><path class="cls-4" d="M319,647.51a9,9,0,0,1,2.19-3.49,14.16,14.16,0,0,1,3.39-2.5A16.54,16.54,0,0,1,328.7,640a20.56,20.56,0,0,1,4.44-.5,17.85,17.85,0,0,1,5.88.8,17.36,17.36,0,0,1,5.18,2.59l-2.69,9.37a17,17,0,0,0-9.57-2.89,15.39,15.39,0,0,0-4.64.7,11.33,11.33,0,0,0-3.93,2.09,9.88,9.88,0,0,0-2.7,3.54,11.91,11.91,0,0,0-1,5v27.72H308.91V653.69c0-1.07,0-2-.1-2.79a4.92,4.92,0,0,0-.55-2,2.55,2.55,0,0,0-1.54-1.14,8.46,8.46,0,0,0-3-.25l-.1-7.38a24.4,24.4,0,0,1,5.33-.6,13.65,13.65,0,0,1,4.78.8,8.35,8.35,0,0,1,3.59,2.54,7.87,7.87,0,0,1,1.65,4.64" transform="translate(-131.68 -108.67)"/><path class="cls-4" d="M379.89,649.6q4,0,7.68-.25a15.22,15.22,0,0,0,6-1.44,8,8,0,0,0,2.69-2.5,21.65,21.65,0,0,0,2.15-3.89,39.35,39.35,0,0,0,1.69-4.83q.75-2.64,1.44-5.33a24.62,24.62,0,0,1,2.5-6.14,13.94,13.94,0,0,1,4.18-4.53,14.68,14.68,0,0,1,6.38-2.34,28.74,28.74,0,0,1,9.18.44v8a25.14,25.14,0,0,0-4.44,0,7,7,0,0,0-3.19,1.1,6.81,6.81,0,0,0-2.24,2.54,22.43,22.43,0,0,0-1.7,4.34,97.29,97.29,0,0,1-3.59,10.56,22,22,0,0,1-5.48,8.08l22.93,33.4v1.69H412.89L393,658a13.74,13.74,0,0,1-2.79.65c-1.13.17-2.33.28-3.59.35s-2.48.1-3.64.1h-3v29.41H368.23V618.7h11.66Z" transform="translate(-131.68 -108.67)"/><polygon class="cls-4" points="329.87 570.44 329.87 579.81 296.17 579.81 296.17 570.44 307.24 570.44 307.24 519.29 297.07 519.29 297.07 510.02 328.97 510.02 328.97 519.29 318.8 519.29 318.8 570.44 329.87 570.44"/><path class="cls-4" d="M480.58,674l-6.78,14.46H461.64V687l32.3-68.78h5.38L531.42,687v1.5H519.36L512.48,674Zm3.79-9.77h24.42l-12.16-27.91Z" transform="translate(-131.68 -108.67)"/><path class="cls-4" d="M561.63,618.79a35.21,35.21,0,0,1,14.51,2.84,31.75,31.75,0,0,1,10.66,7.63,33.34,33.34,0,0,1,6.63,11.07,38,38,0,0,1,2.3,13.16,39.18,39.18,0,0,1-2.25,13.21,33,33,0,0,1-6.58,11.16,31.71,31.71,0,0,1-10.72,7.73,34.83,34.83,0,0,1-14.55,2.89H536.41V618.79Zm-.2,59.12a22.89,22.89,0,0,0,9.62-1.94,21.2,21.2,0,0,0,7.18-5.29,22.6,22.6,0,0,0,4.44-7.72,29.07,29.07,0,0,0,1.49-9.37,28.44,28.44,0,0,0-1.54-9.33,23.83,23.83,0,0,0-4.44-7.77,20.9,20.9,0,0,0-7.08-5.29,22.56,22.56,0,0,0-9.57-1.94H548v48.65Z" transform="translate(-131.68 -108.67)"/><path class="cls-4" d="M655.34,638.33a15.78,15.78,0,0,1-2,8,13.55,13.55,0,0,1-6.18,5.48,16.41,16.41,0,0,1,8.37,6,17.21,17.21,0,0,1,2.89,10.12,22.28,22.28,0,0,1-1.54,8.48,18.11,18.11,0,0,1-4.44,6.48,19.75,19.75,0,0,1-7,4.13,27.19,27.19,0,0,1-9.17,1.45H605.1V618.69h28.31a30.34,30.34,0,0,1,8.77,1.2,19.08,19.08,0,0,1,6.93,3.69,17.14,17.14,0,0,1,4.59,6.18,21,21,0,0,1,1.64,8.57m-38.68-9.57V648h16a14.09,14.09,0,0,0,8.18-2.14q3.09-2.15,3.19-7.23t-3.14-7.52a13.45,13.45,0,0,0-8.23-2.35Zm0,28.72v20.83H635.6a12.06,12.06,0,0,0,8-2.64q3.14-2.64,3.34-7.73a10.18,10.18,0,0,0-3.59-8.27,9.55,9.55,0,0,0-4.34-1.85,32.42,32.42,0,0,0-4.73-.34Z" transform="translate(-131.68 -108.67)"/><path class="cls-4" d="M672,677.71a6.75,6.75,0,0,1,3.39.8,6.16,6.16,0,0,1,2.19,2,6,6,0,0,1,.9,2.9,8.24,8.24,0,0,1-.6,3.43L674.28,698H668.1l2-8.27a6.45,6.45,0,0,1-3.34-2,5.67,5.67,0,0,1-1.34-3.84,5.56,5.56,0,0,1,1.89-4.43,6.89,6.89,0,0,1,4.69-1.65" transform="translate(-131.68 -108.67)"/><path class="cls-4" d="M735.89,618.79a35.21,35.21,0,0,1,14.51,2.84,31.75,31.75,0,0,1,10.66,7.63,33.34,33.34,0,0,1,6.63,11.07,38,38,0,0,1,2.3,13.16,39.18,39.18,0,0,1-2.25,13.21,33,33,0,0,1-6.58,11.16,31.71,31.71,0,0,1-10.72,7.73,34.83,34.83,0,0,1-14.55,2.89H710.67V618.79Zm-.2,59.12a22.89,22.89,0,0,0,9.62-1.94,21.2,21.2,0,0,0,7.18-5.29,22.6,22.6,0,0,0,4.44-7.72,29.07,29.07,0,0,0,1.49-9.37,28.44,28.44,0,0,0-1.54-9.33,23.83,23.83,0,0,0-4.44-7.77,20.9,20.9,0,0,0-7.08-5.29,22.56,22.56,0,0,0-9.57-1.94H722.23v48.65Z" transform="translate(-131.68 -108.67)"/><path class="cls-4" d="M799.2,639.53a26.07,26.07,0,0,1,10.86,2.09,18,18,0,0,1,7.28,5.83,20.31,20.31,0,0,1,3.49,8.83,31.41,31.41,0,0,1-.4,11.06H784.94a12.88,12.88,0,0,0,1.2,5.74,10.35,10.35,0,0,0,3.34,4,15.38,15.38,0,0,0,5,2.35,22.66,22.66,0,0,0,6.13.8,70.76,70.76,0,0,0,8.87-.55,31.13,31.13,0,0,0,8.58-2.44l1.39,8.07a48.17,48.17,0,0,1-8.87,3,40.66,40.66,0,0,1-9.27,1.1,32.06,32.06,0,0,1-11-1.65,24,24,0,0,1-8.62-5.08,22.91,22.91,0,0,1-5.58-8.23,26.28,26.28,0,0,1-1.8-11,25.54,25.54,0,0,1,2.2-10.47,21.93,21.93,0,0,1,13.35-12,29.39,29.39,0,0,1,9.38-1.5m-.1,8.38a14.13,14.13,0,0,0-9.23,3.13,14.51,14.51,0,0,0-4.93,8.83h26.72a12.28,12.28,0,0,0-.9-5.34,10.47,10.47,0,0,0-2.74-3.74,11.31,11.31,0,0,0-4-2.19,16.88,16.88,0,0,0-4.88-.69" transform="translate(-131.68 -108.67)"/><polygon class="cls-4" points="713.18 580.31 689.75 532.95 689.75 531.76 701.52 531.76 707.7 545.82 715.08 563.76 715.28 563.76 722.85 545.91 729.13 531.76 740.7 531.76 740.7 532.95 717.47 580.31 713.18 580.31"/><path class="cls-4" d="M907.16,680.4a13.08,13.08,0,0,1-3.13,4.09,18.08,18.08,0,0,1-4.34,2.79,22.26,22.26,0,0,1-5,1.6,27.83,27.83,0,0,1-5.13.5,21.53,21.53,0,0,1-7.58-1.2,16.48,16.48,0,0,1-5.38-3.19,12.59,12.59,0,0,1-3.24-4.54,13.8,13.8,0,0,1-1.05-5.33,16.23,16.23,0,0,1,1.2-6.28,14.89,14.89,0,0,1,3.49-5.09,16,16,0,0,1,5.78-3.43,24.34,24.34,0,0,1,8.18-1.25,39.69,39.69,0,0,1,7.27.7,22.17,22.17,0,0,1,7,2.49v-6a6.84,6.84,0,0,0-1.64-4.79,9.89,9.89,0,0,0-4.19-2.64,19.21,19.21,0,0,0-5.68-.9,43.48,43.48,0,0,0-6.18.35,40.29,40.29,0,0,0-5.69,1.15,27.76,27.76,0,0,0-4.13,1.45L876,643a28.79,28.79,0,0,1,8.33-2.69,54.61,54.61,0,0,1,9.42-.8,42,42,0,0,1,8.37.8,20.21,20.21,0,0,1,7,2.74A14.1,14.1,0,0,1,914,648.3a17.23,17.23,0,0,1,1.79,8.28v18.94c0,1.13,0,2.13,0,3a4.89,4.89,0,0,0,.5,2.14,2.7,2.7,0,0,0,1.44,1.25,6.82,6.82,0,0,0,3,.2l.2,6.48a37.59,37.59,0,0,1-5.33.75,9.29,9.29,0,0,1-4.29-.65,6.17,6.17,0,0,1-2.94-2.74,12.18,12.18,0,0,1-1.2-5.54m-2-11.16a20,20,0,0,0-5.48-2,31.17,31.17,0,0,0-7.28-.89,10.85,10.85,0,0,0-6.68,2.09,7,7,0,0,0-2.79,6,5.94,5.94,0,0,0,2.09,4.89c1.4,1.13,3.62,1.69,6.68,1.69a16.73,16.73,0,0,0,4.34-.6,12.76,12.76,0,0,0,4.14-1.94,11.76,11.76,0,0,0,3.24-3.59,14.21,14.21,0,0,0,1.74-5.63" transform="translate(-131.68 -108.67)"/><path class="cls-4" d="M962.69,688.48V660.27q.1-5.68-3.14-8.83a11.6,11.6,0,0,0-8.12-3.24,11.82,11.82,0,0,0-8.63,3.59,12.48,12.48,0,0,0-2.59,4.09,14.29,14.29,0,0,0-.94,5.28v27.32h-11v-34.1c0-1.39,0-2.54-.1-3.44a4.43,4.43,0,0,0-.6-2.09,2.46,2.46,0,0,0-1.54-1,10.85,10.85,0,0,0-2.84-.15v-7.47a39.88,39.88,0,0,1,5.28-.65,14,14,0,0,1,4.83.5,6.8,6.8,0,0,1,3.54,2.49,8.54,8.54,0,0,1,1.4,5.23,11,11,0,0,1,2.79-3.88,14.62,14.62,0,0,1,4-2.55,22.55,22.55,0,0,1,4.68-1.39,26.67,26.67,0,0,1,4.84-.45,20.78,20.78,0,0,1,8.47,1.59,16.42,16.42,0,0,1,5.93,4.34,17.91,17.91,0,0,1,3.49,6.53,28.28,28.28,0,0,1,1.15,8.28v28.21Z" transform="translate(-131.68 -108.67)"/><path class="cls-4" d="M1014.33,680.4a13.11,13.11,0,0,1-3.14,4.09,17.83,17.83,0,0,1-4.33,2.79,22.26,22.26,0,0,1-5,1.6,27.83,27.83,0,0,1-5.13.5,21.53,21.53,0,0,1-7.58-1.2,16.48,16.48,0,0,1-5.38-3.19,12.47,12.47,0,0,1-3.24-4.54,13.8,13.8,0,0,1-1-5.33,16.23,16.23,0,0,1,1.2-6.28,14.75,14.75,0,0,1,3.49-5.09,15.92,15.92,0,0,1,5.78-3.43,24.28,24.28,0,0,1,8.17-1.25,39.8,39.8,0,0,1,7.28.7,22.17,22.17,0,0,1,7,2.49v-6a6.8,6.8,0,0,0-1.65-4.79,9.8,9.8,0,0,0-4.18-2.64,19.28,19.28,0,0,0-5.69-.9,43.65,43.65,0,0,0-6.18.35,40.14,40.14,0,0,0-5.68,1.15,28.37,28.37,0,0,0-4.14,1.45L983.13,643a28.82,28.82,0,0,1,8.32-2.69,54.61,54.61,0,0,1,9.42-.8,42,42,0,0,1,8.38.8,20.21,20.21,0,0,1,7,2.74,14.07,14.07,0,0,1,4.83,5.23,17.11,17.11,0,0,1,1.8,8.28v18.94c0,1.13,0,2.13.05,3a5,5,0,0,0,.49,2.14,2.69,2.69,0,0,0,1.45,1.25,6.81,6.81,0,0,0,3,.2l.2,6.48a37.79,37.79,0,0,1-5.33.75,9.29,9.29,0,0,1-4.29-.65,6.17,6.17,0,0,1-2.94-2.74,12.18,12.18,0,0,1-1.2-5.54m-2-11.16a20.27,20.27,0,0,0-5.48-2,31.17,31.17,0,0,0-7.28-.89,10.85,10.85,0,0,0-6.68,2.09,7,7,0,0,0-2.79,6,5.91,5.91,0,0,0,2.09,4.89c1.4,1.13,3.62,1.69,6.68,1.69a16.79,16.79,0,0,0,4.34-.6,12.71,12.71,0,0,0,4.13-1.94,11.51,11.51,0,0,0,3.24-3.59,14,14,0,0,0,1.75-5.63" transform="translate(-131.68 -108.67)"/><path class="cls-4" d="M1068.27,688.48V660.27q.09-6-3-9a11.65,11.65,0,0,0-8.18-3.09,12.34,12.34,0,0,0-8.87,3.34q-3.49,3.35-3.49,9.32v27.62h-10.87V615.6h10.87v30.91a15.29,15.29,0,0,1,6.88-5.58,24.65,24.65,0,0,1,8.57-1.4,22.24,22.24,0,0,1,8.58,1.5,15.49,15.49,0,0,1,5.93,4.23,17.52,17.52,0,0,1,3.44,6.58,30.67,30.67,0,0,1,1.09,8.43v28.21Z" transform="translate(-131.68 -108.67)"/><path class="cls-4" d="M1120,680.4a13.26,13.26,0,0,1-3.14,4.09,18.08,18.08,0,0,1-4.34,2.79,22.34,22.34,0,0,1-5,1.6,28,28,0,0,1-5.14.5,21.53,21.53,0,0,1-7.58-1.2,16.58,16.58,0,0,1-5.38-3.19,12.59,12.59,0,0,1-3.24-4.54,13.8,13.8,0,0,1-1.05-5.33,16.23,16.23,0,0,1,1.2-6.28,14.89,14.89,0,0,1,3.49-5.09,16,16,0,0,1,5.78-3.43,24.34,24.34,0,0,1,8.18-1.25,39.69,39.69,0,0,1,7.27.7,22.17,22.17,0,0,1,7,2.49v-6a6.84,6.84,0,0,0-1.64-4.79,9.89,9.89,0,0,0-4.19-2.64,19.21,19.21,0,0,0-5.68-.9,43.57,43.57,0,0,0-6.18.35,40.58,40.58,0,0,0-5.69,1.15,27.76,27.76,0,0,0-4.13,1.45l-1.7-7.88a28.89,28.89,0,0,1,8.33-2.69,54.61,54.61,0,0,1,9.42-.8,42,42,0,0,1,8.37.8,20.21,20.21,0,0,1,7,2.74,14.1,14.1,0,0,1,4.84,5.23,17.23,17.23,0,0,1,1.79,8.28v18.94c0,1.13,0,2.13.05,3a4.89,4.89,0,0,0,.5,2.14,2.7,2.7,0,0,0,1.44,1.25,6.85,6.85,0,0,0,3,.2l.19,6.48a37.59,37.59,0,0,1-5.33.75,9.29,9.29,0,0,1-4.29-.65,6.17,6.17,0,0,1-2.94-2.74,12.07,12.07,0,0,1-1.19-5.54m-2-11.16a20,20,0,0,0-5.48-2,31.17,31.17,0,0,0-7.28-.89,10.85,10.85,0,0,0-6.68,2.09,7,7,0,0,0-2.79,6,5.94,5.94,0,0,0,2.09,4.89q2.1,1.7,6.68,1.69a16.73,16.73,0,0,0,4.34-.6,12.76,12.76,0,0,0,4.14-1.94,11.76,11.76,0,0,0,3.24-3.59,13.89,13.89,0,0,0,1.74-5.63" transform="translate(-131.68 -108.67)"/><path class="cls-4" d="M1149.81,615.5v55.63q0,5.08,1.4,7.28t5.38,2.19a27.21,27.21,0,0,0,3.59-.29l.4,8.37c-1.33.2-2.61.36-3.84.5a33.76,33.76,0,0,1-3.54.2q-7.28-.11-10.71-4.24t-3.44-13.91V615.5Z" transform="translate(-131.68 -108.67)"/><path class="cls-4" d="M1174.54,615.5v55.63q0,5.08,1.39,7.28t5.39,2.19a27.47,27.47,0,0,0,3.59-.29l.39,8.37c-1.33.2-2.61.36-3.83.5a33.76,33.76,0,0,1-3.54.2q-7.28-.11-10.72-4.24t-3.44-13.91V615.5Z" transform="translate(-131.68 -108.67)"/><path class="cls-4" d="M1188,625.57a5.7,5.7,0,0,1,2-4.78,7.2,7.2,0,0,1,4.53-1.6,7,7,0,0,1,4.49,1.6,6.75,6.75,0,0,1,0,9.57,7.35,7.35,0,0,1-4.39,1.69,6.73,6.73,0,0,1-4.58-1.54,5.89,5.89,0,0,1-2.1-4.94m12,62.91h-10.87V640.43H1200Z" transform="translate(-131.68 -108.67)"/></g></svg>